<svg xmlns="http://www.w3.org/2000/svg" viewBox="0 0 1358.85 1022.92"><defs><style>.cls-1{fill:#fcf1a4;}.cls-2{fill:#d0f6f9;}.cls-3{fill:#f89f96;}.cls-4{fill:#f9c8a2;}.cls-5{fill:#c4fae8;}.cls-6{fill:#c47ce4;}.cls-7{fill:#a3fbdc;}.cls-8{fill:#f9cab4;}.cls-9{fill:#a3fada;}.cls-10{fill:#f78eef;}.cls-11{fill:#a4fbdc;}.cls-12{fill:#fcf0a4;}.cls-13{fill:#f88eee;}.cls-14{fill:#cff8f9;}.cls-15{fill:#fceaea;}.cls-16{fill:#f0e9fb;}.cls-17{fill:#797677;}.cls-18{fill:#787677;}.cls-19{fill:#787678;}.cls-20{fill:#fefefe;}</style></defs><g id="Capa_2" data-name="Capa 2"><g id="Capa_4" data-name="Capa 4"><path class="cls-1" d="M0,681.33c15.17-8.59,30.39-17.1,45.48-25.83,3.37-2,5.2-1.45,6.93,1.93,6.15,12.07,6.73,10-3.84,15.89-12,6.74-23.84,13.8-35.84,20.56-7.82,4.41-7.9,4.28-12.73-2.57Z"/><path class="cls-2" d="M774.34,1022.92c0-15.55,2.76-30.92,3-46.46,0-2.94,1.78-3.69,4.29-3.38,1.8.22,3.57.78,5.36.86,7.52.33,8,1.15,7.26,8.5-1.4,13.46-3,26.91-2.95,40.48Z"/><path class="cls-3" d="M1326.88,1022.92c-2.41-1.54-2.2-3.42-.7-5.47.89-1.2,1.86-2.35,2.64-3.62,4.66-7.63,4.81-7.87,12.26-2.66,5.83,4.07,12.76,6.48,17.77,11.75Z"/><path class="cls-4" d="M623.47,1022.92c8.87-5.81,21.92-5.81,30,0Z"/><path class="cls-5" d="M487.59,1022.92c1.33-2.58,2.66-1.37,4,0Z"/><path class="cls-6" d="M1095.19.13c6.32,0,12.65.2,19-.08,3.46-.15,5.42,1.21,7.29,4,11.56,17,8.29,37.13-8.72,47.79-18.87,11.81-44.29,2.67-49.63-20.81-2.15-9.47.09-18,5.17-26.08,2.07-3.28,4.69-5.16,9-4.87C1083.21.43,1089.21.13,1095.19.13Z"/><path class="cls-7" d="M615.9,649.41a15.17,15.17,0,0,1,1.83.87c15.48,9.63,30.92,19.32,46.45,28.87,2.1,1.29,2.39,2.49,1.13,4.37-1.12,1.65-2.25,3.29-3.33,5-4.43,6.9-4.34,6.76-11.49,2.27q-20.87-13.08-42-25.79c-2.48-1.49-3-2.56-1.29-4.93,1.91-2.71,3.5-5.64,5.17-8.5C613.13,650.33,613.87,649.29,615.9,649.41Z"/><path class="cls-8" d="M255.93,556.57c3.48-.9,3.13,1.42,3.53,2.49q8.57,23.31,16.92,46.68c2.73,7.64,2.67,7.67-4.89,10.76-1.54.63-3.13,1.11-4.65,1.74-2.79,1.16-4.17.15-5.16-2.63-5.83-16.37-11.69-32.74-17.81-49-1.6-4.25-.38-6,3.67-7A84.64,84.64,0,0,0,255.93,556.57Z"/><path class="cls-1" d="M951.7,811.76c2.56-.56,2.91,1.14,3.54,2.1,10.07,15.17,20,30.41,30.13,45.57,1.29,1.93,1.27,2.93-.64,4.39-11.29,8.67-11.3,8.75-19.14-3.06-8.14-12.28-16.1-24.68-24.35-36.89-1.83-2.72-1.63-4.42,1-6.08C945.56,815.65,948.91,813.53,951.7,811.76Z"/><path class="cls-9" d="M308.83,289.54c-1.32-.1-11.39-9.08-11.68-10.18s.5-1.84,1.15-2.56c12.08-13.44,24.22-26.82,36.22-40.33,2.3-2.59,3.72-2.54,6.34-.2,9.22,8.25,9.47,8.24,1.61,17.14-9.87,11.18-20,22.17-30,33.19C311.36,287.78,310.47,289.33,308.83,289.54Z"/><path class="cls-10" d="M990.32,166.08c1.62,3.57-1.41,4-4,4.56-3.08.6-6.28.15-9.37,1.06-2.32.67-2.74-1.11-3-2.88-.89-6.71-1.82-13.42-2.68-20.14q-1.86-14.51-3.64-29a20.46,20.46,0,0,1-.4-5.43c1.19-7.91,8.09-2.91,12-5,2.58-1.39,4.56.5,4.91,3.67.49,4.43,1.32,8.83,1.82,13.25C987.43,139.3,988.83,152.45,990.32,166.08Z"/><path class="cls-11" d="M1238,819.44c1,2.7-.33,3.4-3.11,3.79q-25.79,3.63-51.51,7.68c-4.37.69-6.21-.15-6.56-5.09-.84-11.68-1.08-11.3,10.68-12.75,14.11-1.74,28.16-4.08,42.2-6.36,6.51-1.05,6.55-1.19,7.31,5.15.15,1.31.62,2.58.8,3.89C1238,816.9,1238,818.07,1238,819.44Z"/><path class="cls-12" d="M422.75,72.59c-.28-2.14.07-3.24,1.73-3.67a33.61,33.61,0,0,0,3.78-1.28c9.5-3.69,9.36-3.65,12.87,6.23q7.94,22.29,16.28,44.43c1.1,2.9.73,3.93-2.25,5-11.82,4.26-11.94,4.44-16.34-6.92-5.15-13.31-10-26.74-14.95-40.13C423.36,74.85,423,73.4,422.75,72.59Z"/><path class="cls-13" d="M226.82,813.84c-.17-9.38-.17-9.45,8.2-9.62,10.16-.2,8.28-1.12,8.79,8.12.89,15.86,1.82,31.73,3.07,47.57.34,4.29-1.63,5.52-5.14,6-.66.08-1.33.09-2,.13-9.47.52-9.1.48-10.11-8.85C228,842.3,228.29,827.37,226.82,813.84Z"/><path class="cls-14" d="M758.55,157.86c-3.06-.17-3.89-2.3-4.81-4.21-2.94-6.11-5.79-12.27-8.72-18.39-4.37-9.11-8.61-18.3-13.26-27.27-2-3.93-1.09-5.84,2.87-6.92.63-.18,1.25-.42,1.87-.66,2.85-1.13,5.41-5,8.19-3.49,2.3,1.29,3.24,5.16,4.6,8,7,14.51,13.86,29.06,20.87,43.56,1,2,1.06,3.24-1.25,4.27C765.3,154.35,761.81,156.23,758.55,157.86Z"/><path class="cls-15" d="M449.66,327c4.07,2.31,8.25,4.67,12.41,7.05,11.21,6.42,22.38,12.91,33.64,19.25,6.68,3.76,6.74,3.65,2.71,9.76-5.3,8-5.43,8.27-13.86,3.6-14-7.77-27.9-15.89-41.84-23.85-1.43-.82-2.61-1.86-1.68-3.56,2.06-3.77,4.32-7.44,6.49-11.16A1.91,1.91,0,0,1,449.66,327Z"/><path class="cls-16" d="M88.83,341.09c.15,2.11-.68,3.27-2.69,3.62q-3.42.6-6.81,1.38c-6.57,1.52-6.47,1.51-8.08-4.81-4.14-16.34-8.31-32.67-12.64-48.95-.72-2.71-.45-4.15,2.5-4.58,1.47-.22,2.9-.67,4.35-1,9-2.24,9-2.24,11.28,6.89q5.85,23.08,11.71,46.18C88.57,340.27,88.73,340.74,88.83,341.09Z"/><path class="cls-17" d="M638.73,22.2c-6.22-.06-10.37-4.22-10.3-10.32A10.44,10.44,0,0,1,638.92,1.45a10.84,10.84,0,0,1,10.44,10.6A10.25,10.25,0,0,1,638.73,22.2Z"/><path class="cls-18" d="M175.88,95.43c5.38-.07,10.53,5,10.63,10.51s-4.89,10.49-10.45,10.58a10.3,10.3,0,0,1-10.43-10.4A10.48,10.48,0,0,1,175.88,95.43Z"/><path class="cls-19" d="M1248.2,681.91a10.16,10.16,0,0,1-10.59,10.21,10.06,10.06,0,0,1-9.9-10.4c0-6.11,4.31-10.48,10.34-10.43S1248.26,675.82,1248.2,681.91Z"/><path class="cls-19" d="M610.06,453.31a10.27,10.27,0,1,1-10.6,10.1A10.26,10.26,0,0,1,610.06,453.31Z"/><path class="cls-20" d="M1112.05,24.18C1112,33.12,1104,41,1095,40.93c-9.19-.07-16.44-7.63-16.45-17.16a16.74,16.74,0,0,1,16.88-16.64A17,17,0,0,1,1112.05,24.18Z"/></g></g></svg>