<?xml version="1.0" encoding="utf-8"?>
<!-- Generator: Adobe Illustrator 24.1.1, SVG Export Plug-In . SVG Version: 6.00 Build 0)  -->
<svg version="1.1" id="Capa_1" xmlns="http://www.w3.org/2000/svg" xmlns:xlink="http://www.w3.org/1999/xlink" x="0px" y="0px"
	 viewBox="0 0 3300.5 1618.5" style="enable-background:new 0 0 3300.5 1618.5;" xml:space="preserve">
<style type="text/css">
	.st0{fill:#D20746;}
	.st1{fill:#A3C62C;}
	.st2{fill:#F44D71;}
	.st3{fill:#F4E91E;}
	.st4{fill:#5EB9CF;}
	.st5{fill:#BA3498;}
	.st6{fill:#56B1CA;}
	.st7{fill:#D40044;}
	.st8{fill:#A54583;}
	.st9{fill:#FF3947;}
	.st10{fill:#6DB3D2;}
	.st11{fill:#F87800;}
	.st12{fill:#B2328F;}
	.st13{fill:#5F569A;}
	.st14{fill:#F0DC37;}
</style>
<g id="Capa_2_1_">
	<g id="Capa_2-2">
		<path class="st0" d="M1117.1,77.8L1117.1,77.8c16.4,0,29.7,13.3,29.7,29.7V276c0,16.4-13.3,29.7-29.7,29.7l0,0
			c-16.4,0-29.7-13.3-29.7-29.7V107.5C1087.4,91.1,1100.7,77.8,1117.1,77.8z"/>
		<path class="st0" d="M738.6,1146L738.6,1146c16.4,0,29.7,13.3,29.7,29.7v168.5c0,16.4-13.3,29.7-29.7,29.7l0,0
			c-16.4,0-29.7-13.3-29.7-29.7v-168.5C708.9,1159.3,722.2,1146,738.6,1146z"/>
		<path class="st0" d="M3228.3,340.7L3228.3,340.7c16.4,0,29.7,13.3,29.7,29.7v168.5c0,16.4-13.3,29.7-29.7,29.7l0,0
			c-16.4,0-29.7-13.3-29.7-29.7V370.4C3198.6,354,3211.9,340.7,3228.3,340.7z"/>
		<path class="st0" d="M208.8,369L208.8,369c16.4,0,29.7,13.3,29.7,29.7v168.5c0,16.4-13.3,29.7-29.7,29.7l0,0
			c-16.4,0-29.7-13.3-29.7-29.7V398.7C179.1,382.3,192.4,369,208.8,369z"/>
		<path class="st1" d="M707.2,528.4L707.2,528.4c16.4,0,29.7,13.3,29.7,29.7v168.5c0,16.4-13.3,29.7-29.7,29.7l0,0
			c-16.4,0-29.7-13.3-29.7-29.7V558.1C677.5,541.7,690.8,528.4,707.2,528.4z"/>
		<path class="st1" d="M2880.1,178.6L2880.1,178.6c16.4,0,29.7,13.3,29.7,29.7v168.5c0,16.4-13.3,29.7-29.7,29.7l0,0
			c-16.4,0-29.7-13.3-29.7-29.7V208.3C2850.4,191.9,2863.7,178.6,2880.1,178.6z"/>
		<path class="st2" d="M3036.8,570.2L3036.8,570.2c0,16.4-13.3,29.7-29.7,29.7h-254c-16.4,0-29.7-13.3-29.7-29.7l0,0
			c0-16.4,13.3-29.7,29.7-29.7h254C3023.5,540.5,3036.8,553.8,3036.8,570.2z"/>
		<path class="st2" d="M3023.9,1442.1L3023.9,1442.1c0,16.4-13.3,29.7-29.7,29.7h-254c-16.4,0-29.7-13.3-29.7-29.7l0,0
			c0-16.4,13.3-29.7,29.7-29.7h254C3010.6,1412.4,3023.9,1425.7,3023.9,1442.1z"/>
		<path class="st2" d="M1089,502.6L1089,502.6c0,16.4-13.3,29.7-29.7,29.7h-254c-16.4,0-29.7-13.3-29.7-29.7l0,0
			c0-16.4,13.3-29.7,29.7-29.7h254C1075.7,472.9,1089,486.2,1089,502.6z"/>
		<path class="st3" d="M1365.5,0L1365.5,0c16.4,0,29.7,13.3,29.7,29.7v324c0,16.4-13.3,29.7-29.7,29.7l0,0
			c-16.4,0-29.7-13.3-29.7-29.7v-324C1335.8,13.3,1349.1,0,1365.5,0z"/>
		<path class="st3" d="M3119.4,42.8L3119.4,42.8c16.4,0,29.7,13.3,29.7,29.7v324c0,16.4-13.3,29.7-29.7,29.7l0,0
			c-16.4,0-29.7-13.3-29.7-29.7v-324C3089.7,56.1,3103,42.8,3119.4,42.8z"/>
		<path class="st3" d="M496.1,429.6L496.1,429.6c16.4,0,29.7,13.3,29.7,29.7v324c0,16.4-13.3,29.7-29.7,29.7l0,0
			c-16.4,0-29.7-13.3-29.7-29.7v-324C466.3,442.9,479.6,429.6,496.1,429.6z"/>
		<path class="st3" d="M2339.9,338.6L2339.9,338.6c16.4,0,29.7,13.3,29.7,29.7v324c0,16.4-13.3,29.7-29.7,29.7l0,0
			c-16.4,0-29.7-13.3-29.7-29.7v-324C2310.2,351.9,2323.5,338.6,2339.9,338.6z"/>
		<path class="st4" d="M73.3,57.1L73.3,57.1c16.4,0,29.7,13.3,29.7,29.7v324c0,16.4-13.3,29.7-29.7,29.7l0,0
			c-16.4,0-29.7-13.3-29.7-29.7v-324C43.6,70.4,56.9,57.1,73.3,57.1z"/>
		<path class="st3" d="M2600.9,1058.7L2600.9,1058.7c16.4,0,29.7,13.3,29.7,29.7v324c0,16.4-13.3,29.7-29.7,29.7l0,0
			c-16.4,0-29.7-13.3-29.7-29.7v-324C2571.2,1072,2584.4,1058.7,2600.9,1058.7z"/>
		<path class="st5" d="M1780.2,1330.2L1780.2,1330.2c0,16.4-13.3,29.7-29.7,29.7h-145.1c-16.4,0-29.7-13.3-29.7-29.7l0,0
			c0-16.4,13.3-29.7,29.7-29.7h145.1C1766.9,1300.5,1780.2,1313.8,1780.2,1330.2z"/>
		<path class="st1" d="M2015.4,188.4L2015.4,188.4c16.4,0,29.7,13.3,29.7,29.7v163.1c0,16.4-13.3,29.7-29.7,29.7l0,0
			c-16.4,0-29.7-13.3-29.7-29.7V218.1C1985.7,201.7,1999,188.4,2015.4,188.4z"/>
		<path class="st4" d="M2125.8,31.8L2125.8,31.8c16.4,0,29.7,13.3,29.7,29.7v163.1c0,16.4-13.3,29.7-29.7,29.7l0,0
			c-16.4,0-29.7-13.3-29.7-29.7V61.5C2096.1,45,2109.4,31.8,2125.8,31.8z"/>
		<path class="st3" d="M2318.6,224.5L2318.6,224.5c0,16.4-13.3,29.7-29.7,29.7h-163.1c-16.4,0-29.7-13.3-29.7-29.7l0,0
			c0-16.4,13.3-29.7,29.7-29.7h163.1C2305.3,194.8,2318.6,208.1,2318.6,224.5z"/>
		<path class="st1" d="M2155.5,194.8v29.7c0,16.4-13.3,29.7-29.7,29.7s-29.7-13.3-29.7-29.7s13.3-29.7,29.7-29.7l0,0H2155.5z"/>
		<path class="st1" d="M2155.5,194.8v29.7c0,16.4-13.3,29.7-29.7,29.7s-29.7-13.3-29.7-29.7s13.3-29.7,29.7-29.7l0,0H2155.5z"/>
		<path class="st4" d="M363.6,1358.2L363.6,1358.2c16.4,0,29.7,13.3,29.7,29.7V1551c0,16.4-13.3,29.7-29.7,29.7l0,0
			c-16.4,0-29.7-13.3-29.7-29.7v-163.1C333.9,1371.4,347.2,1358.2,363.6,1358.2z"/>
		<path class="st3" d="M556.4,1550.9L556.4,1550.9c0,16.4-13.3,29.7-29.7,29.7H363.6c-16.4,0-29.7-13.3-29.7-29.7l0,0
			c0-16.4,13.3-29.7,29.7-29.7h163.1C543.1,1521.2,556.4,1534.5,556.4,1550.9z"/>
		<path class="st1" d="M393.3,1521.2v29.7c0,16.4-13.3,29.7-29.7,29.7s-29.7-13.3-29.7-29.7c0-16.4,13.3-29.7,29.7-29.7l0,0H393.3z"
			/>
		<path class="st1" d="M393.3,1521.2v29.7c0,16.4-13.3,29.7-29.7,29.7s-29.7-13.3-29.7-29.7c0-16.4,13.3-29.7,29.7-29.7l0,0H393.3z"
			/>
		<path class="st4" d="M387.6,156L387.6,156c16.4,0,29.7,13.3,29.7,29.7v163.1c0,16.4-13.3,29.7-29.7,29.7l0,0
			c-16.4,0-29.7-13.3-29.7-29.7V185.7C357.8,169.3,371.1,156,387.6,156z"/>
		<path class="st3" d="M580.2,348.7L580.2,348.7c0,16.4-13.3,29.7-29.7,29.7h-163c-16.4,0-29.7-13.3-29.7-29.7l0,0
			c0-16.4,13.3-29.7,29.7-29.7h163.1C567,319,580.2,332.3,580.2,348.7z"/>
		<path class="st1" d="M417.2,319v29.7c0,16.4-13.3,29.7-29.7,29.7s-29.7-13.3-29.7-29.7c0-16.4,13.3-29.7,29.7-29.7H417.2z"/>
		<path class="st1" d="M417.2,319v29.7c0,16.4-13.3,29.7-29.7,29.7s-29.7-13.3-29.7-29.7c0-16.4,13.3-29.7,29.7-29.7H417.2z"/>
		<path class="st6" d="M1555.2,162.9L1555.2,162.9c15.4,5.6,23.4,22.6,17.8,38l-62,171c-5.6,15.4-22.6,23.4-38,17.8l0,0
			c-15.4-5.6-23.4-22.6-17.8-38l62-171C1522.7,165.3,1539.8,157.3,1555.2,162.9z"/>
		<path class="st7" d="M1617.2,389.7L1617.2,389.7c-15.4,5.6-32.5-2.4-38-17.8l-62-171c-5.6-15.4,2.4-32.5,17.8-38l0,0
			c15.4-5.6,32.5,2.4,38,17.8l62,171C1640.5,367.1,1632.6,384.1,1617.2,389.7z"/>
		<path class="st8" d="M1574.9,191c0,3.4-0.6,6.8-1.8,10.1L1545,278l-28.1-76.9c-1.2-3.2-1.8-6.6-1.8-10c0-8.3,3.5-16.3,9.7-21.9
			l0.7-0.6c0.3-0.2,0.5-0.4,0.8-0.6c4.7-3.8,10.5-6.1,16.5-6.5l1-0.1c0.8,0,1.6,0,2.4,0c0.3,0,0.7,0,1,0.1
			c5.7,0.4,11.1,2.5,15.6,5.8l0.8,0.6c0.5,0.4,1,0.8,1.5,1.3C1571.3,174.7,1574.9,182.6,1574.9,191z"/>
		<path class="st6" d="M1010.1,1030.7L1010.1,1030.7c15.4,5.6,23.4,22.6,17.8,38l-62,171c-5.6,15.4-22.6,23.4-38,17.8l0,0
			c-15.4-5.6-23.4-22.6-17.8-38l62-171C977.6,1033.1,994.7,1025.1,1010.1,1030.7z"/>
		<path class="st7" d="M1072.1,1257.5L1072.1,1257.5c-15.4,5.6-32.5-2.4-38-17.8l-62-171c-5.6-15.4,2.4-32.5,17.8-38l0,0
			c15.4-5.6,32.5,2.4,38,17.8l62,171C1095.4,1234.9,1087.5,1251.9,1072.1,1257.5z"/>
		<path class="st8" d="M1029.8,1058.8c0,3.4-0.6,6.8-1.8,10.1l-28.1,76.9l-28.1-76.9c-1.2-3.2-1.8-6.6-1.8-10
			c0-8.3,3.5-16.3,9.7-21.9l0.7-0.6c0.3-0.2,0.5-0.4,0.8-0.6c4.7-3.8,10.5-6.1,16.5-6.5l1-0.1c0.8,0,1.6,0,2.4,0c0.3,0,0.7,0,1,0.1
			c5.7,0.4,11.1,2.5,15.6,5.8l0.8,0.6c0.5,0.4,1,0.8,1.5,1.3C1026.2,1042.5,1029.8,1050.4,1029.8,1058.8z"/>
		<path class="st6" d="M3187,1189.2L3187,1189.2c15.4,5.6,23.4,22.6,17.8,38l-62,171c-5.6,15.4-22.6,23.4-38,17.8l0,0
			c-15.4-5.6-23.4-22.6-17.8-38l62-171C3154.5,1191.6,3171.6,1183.6,3187,1189.2z"/>
		<path class="st7" d="M3249,1416L3249,1416c-15.4,5.6-32.5-2.4-38-17.8l-62-171c-5.6-15.4,2.4-32.5,17.8-38l0,0
			c15.4-5.6,32.5,2.4,38,17.8l62,171C3272.3,1393.4,3264.4,1410.4,3249,1416z"/>
		<path class="st8" d="M3206.7,1217.3c0,3.4-0.6,6.8-1.8,10.1l-28.1,76.9l-28.1-76.9c-1.2-3.2-1.8-6.6-1.8-10
			c0-8.3,3.5-16.3,9.7-21.9l0.7-0.6c0.3-0.2,0.5-0.4,0.8-0.6c4.7-3.8,10.5-6.1,16.5-6.5l1-0.1c0.8,0,1.6,0,2.4,0c0.3,0,0.7,0,1,0.1
			c5.7,0.4,11.1,2.5,15.6,5.8l0.8,0.6c0.5,0.4,1,0.8,1.5,1.3C3203.1,1201,3206.7,1208.9,3206.7,1217.3z"/>
		<path class="st6" d="M636.7,38.7L636.7,38.7c15.4-5.6,32.5,2.4,38,17.8l62,171c5.6,15.4-2.4,32.5-17.8,38l0,0
			c-15.4,5.6-32.5-2.4-38-17.8l-62-171C613.3,61.3,621.3,44.3,636.7,38.7z"/>
		<path class="st7" d="M698.7,265.5L698.7,265.5c-15.4-5.6-23.4-22.6-17.8-38l62-171c5.6-15.4,22.6-23.4,38-17.8l0,0
			c15.4,5.6,23.4,22.6,17.8,38l-62,171C731.2,263.1,714.2,271.1,698.7,265.5z"/>
		<path class="st8" d="M738.8,237.4c0-3.4-0.6-6.8-1.8-10.1l-28.1-76.9l-28.1,76.9c-1.2,3.2-1.8,6.6-1.8,10.1
			c0,8.3,3.5,16.3,9.7,21.9l0.7,0.6c0.3,0.2,0.5,0.4,0.8,0.6c4.7,3.8,10.5,6.1,16.5,6.5l1,0.1c0.8,0,1.6,0,2.4,0c0.3,0,0.7,0,1-0.1
			c5.7-0.4,11.1-2.5,15.6-5.8c0.3-0.2,0.5-0.4,0.8-0.6c0.5-0.4,1-0.8,1.5-1.3C735.2,253.8,738.8,245.8,738.8,237.4z"/>
		<path class="st6" d="M2616,6.6L2616,6.6c15.4-5.6,32.5,2.4,38,17.8l62,171c5.6,15.4-2.4,32.5-17.8,38l0,0
			c-15.4,5.6-32.5-2.4-38-17.8l-62-171C2592.7,29.2,2600.6,12.2,2616,6.6z"/>
		<path class="st7" d="M2678,233.4L2678,233.4c-15.4-5.6-23.4-22.6-17.8-38l62-171c5.6-15.4,22.6-23.4,38-17.8l0,0
			c15.4,5.6,23.4,22.6,17.8,38l-62,171C2710.4,231,2693.4,239,2678,233.4z"/>
		<path class="st8" d="M2718.1,205.2c0-3.4-0.6-6.8-1.8-10.1l-28.1-76.9l-28.1,76.9c-1.2,3.2-1.8,6.6-1.8,10.1
			c0,8.3,3.5,16.3,9.7,21.9l0.7,0.6l0.8,0.6c4.7,3.8,10.5,6.1,16.5,6.5l1,0.1c0.8,0,1.6,0,2.4,0c0.3,0,0.7,0,1-0.1
			c5.7-0.4,11.1-2.5,15.6-5.8c0.3-0.2,0.5-0.4,0.8-0.6c0.5-0.4,1-0.8,1.5-1.3C2714.5,221.6,2718,213.6,2718.1,205.2z"/>
		<path class="st6" d="M1682,195L1682,195c5.6-15.4,22.6-23.4,38-17.8l171,62c15.4,5.6,23.4,22.6,17.8,38l0,0
			c-5.6,15.4-22.6,23.4-38,17.8l-171-62C1684.3,227.5,1676.4,210.5,1682,195z"/>
		<path class="st3" d="M1907.1,132.9L1907.1,132.9c5.6,15.4-2.4,32.4-17.8,38l-171,61.8c-15.4,5.6-32.4-2.4-38-17.8l0,0
			c-5.6-15.4,2.4-32.4,17.8-38l171-61.8C1884.5,109.5,1901.5,117.5,1907.1,132.9z"/>
		<path class="st1" d="M1710.1,175.3c3.4,0,6.8,0.6,10.1,1.8l76.9,28.1l-76.9,28.1c-3.2,1.2-6.6,1.8-10,1.8
			c-8.3,0-16.3-3.5-21.9-9.7l-0.6-0.7c-0.2-0.3-0.4-0.5-0.6-0.8c-3.8-4.7-6.1-10.5-6.5-16.5c0-0.4,0-0.7-0.1-1c0-0.8,0-1.6,0-2.4
			c0-0.3,0-0.7,0.1-1c0.4-5.7,2.5-11.1,5.8-15.6l0.6-0.8c0.4-0.5,0.8-1,1.3-1.5C1693.7,178.9,1701.7,175.3,1710.1,175.3z"/>
		<path class="st3" d="M1682,319.4L1682,319.4c5.6-15.4,22.6-23.4,38-17.8l171,62c15.4,5.6,23.4,22.6,17.8,38l0,0
			c-5.6,15.4-22.6,23.4-38,17.8l-171-62C1684.3,351.8,1676.4,334.8,1682,319.4z"/>
		<path class="st7" d="M1908.8,257.4L1908.8,257.4c5.6,15.4-2.4,32.5-17.8,38l-171,62c-15.4,5.6-32.5-2.4-38-17.8l0,0
			c-5.6-15.4,2.4-32.5,17.8-38l171-62C1886.1,234,1903.2,242,1908.8,257.4z"/>
		<path class="st9" d="M1710.1,299.6c3.4,0,6.8,0.6,10.1,1.8l76.9,28.1l-76.9,28.1c-3.2,1.2-6.6,1.8-10,1.8
			c-8.3,0-16.3-3.5-21.9-9.7l-0.6-0.7c-0.2-0.3-0.4-0.5-0.6-0.8c-3.8-4.7-6.1-10.5-6.5-16.5c0-0.4,0-0.7-0.1-1c0-0.8,0-1.6,0-2.4
			c0-0.3,0-0.7,0.1-1c0.4-5.7,2.5-11.1,5.8-15.6l0.6-0.8c0.4-0.5,0.8-1,1.3-1.5C1693.7,303.2,1701.7,299.7,1710.1,299.6z"/>
		<path class="st8" d="M1880.8,297.1c-3.4,0-6.8-0.6-10.1-1.8l-76.9-28.1l76.9-28.1c3.2-1.2,6.6-1.8,10-1.8c8.3,0,16.3,3.5,21.9,9.7
			l0.6,0.7l0.6,0.8c3.8,4.7,6.1,10.5,6.5,16.5c0,0.3,0,0.7,0.1,1c0,0.8,0,1.6,0,2.4c0,0.3,0,0.7-0.1,1c-0.4,5.7-2.5,11.1-5.8,15.6
			c-0.2,0.3-0.4,0.5-0.6,0.8c-0.4,0.5-0.8,1-1.3,1.5C1897.1,293.6,1889.1,297.1,1880.8,297.1z"/>
		<path class="st6" d="M1073.1,1537L1073.1,1537c-5.6,15.4-22.6,23.4-38,17.8l-171-62c-15.4-5.6-23.4-22.6-17.8-38l0,0
			c5.6-15.4,22.6-23.4,38-17.8l171,62C1070.7,1504.6,1078.7,1521.6,1073.1,1537z"/>
		<path class="st3" d="M846.4,1599L846.4,1599c-5.6-15.4,2.4-32.5,17.8-38l171-62c15.4-5.6,32.5,2.4,38,17.8l0,0
			c5.6,15.4-2.4,32.5-17.8,38l-171,62C869,1622.4,852,1614.5,846.4,1599z"/>
		<path class="st1" d="M1045.1,1556.7c-3.4,0-6.8-0.6-10.1-1.8l-76.9-28.1l76.9-28.1c3.2-1.2,6.6-1.8,10-1.8
			c8.3,0,16.3,3.5,21.9,9.7l0.6,0.7c0.2,0.3,0.4,0.5,0.6,0.8c2.1,2.6,3.7,5.5,4.8,8.6c0.9,2.6,1.5,5.3,1.7,8c0,0.3,0,0.7,0.1,1
			c0,0.8,0,1.6,0,2.4c0,0.3,0,0.7-0.1,1c-0.4,5.7-2.5,11.1-5.8,15.6c-0.2,0.3-0.4,0.5-0.6,0.8c-0.4,0.5-0.8,1-1.3,1.5
			C1061.4,1553.1,1053.5,1556.6,1045.1,1556.7z"/>
		<path class="st3" d="M1073.1,1412.7L1073.1,1412.7c-5.6,15.4-22.6,23.4-38,17.8l-171-62c-15.4-5.6-23.4-22.6-17.8-38l0,0
			c5.6-15.4,22.6-23.4,38-17.8l171,62C1070.7,1380.2,1078.7,1397.2,1073.1,1412.7z"/>
		<path class="st7" d="M846.4,1474.7L846.4,1474.7c-5.6-15.4,2.4-32.5,17.8-38l171-62c15.4-5.6,32.5,2.4,38,17.8l0,0
			c5.6,15.4-2.4,32.5-17.8,38l-171,62C869,1498.1,852,1490.1,846.4,1474.7z"/>
		<path class="st9" d="M1045.1,1432.3c-3.4,0-6.8-0.6-10.1-1.8l-76.9-28.1l76.9-28.1c3.2-1.2,6.6-1.8,10-1.8
			c8.3,0,16.3,3.5,21.9,9.7l0.6,0.7c0.2,0.3,0.4,0.5,0.6,0.8c2.1,2.6,3.7,5.5,4.8,8.6c0.9,2.6,1.5,5.3,1.7,8c0,0.3,0,0.7,0.1,1
			c0,0.8,0,1.6,0,2.4c0,0.3,0,0.7-0.1,1c-0.4,5.7-2.5,11.1-5.8,15.7c-0.2,0.3-0.4,0.5-0.6,0.8c-0.4,0.5-0.8,1-1.3,1.5
			C1061.4,1428.8,1053.5,1432.3,1045.1,1432.3z"/>
		<path class="st8" d="M874.4,1434.8c3.4,0,6.8,0.6,10.1,1.8l76.9,28.1l-76.9,28.1c-3.2,1.2-6.6,1.8-10,1.8
			c-8.3,0-16.3-3.5-21.9-9.7l-0.6-0.7c-0.2-0.3-0.4-0.5-0.6-0.8c-2.1-2.6-3.7-5.5-4.8-8.6c-0.9-2.6-1.5-5.3-1.7-8c0-0.3,0-0.7-0.1-1
			c0-0.8,0-1.6,0-2.4c0-0.3,0-0.7,0.1-1c0.4-5.7,2.5-11.1,5.8-15.7c0.2-0.3,0.4-0.5,0.6-0.8c0.4-0.5,0.8-1,1.3-1.5
			C858.1,1438.4,866,1434.9,874.4,1434.8z"/>
		<path class="st6" d="M3255.4,992.1L3255.4,992.1c-5.6,15.4-22.6,23.4-38,17.8l-171-62c-15.4-5.6-23.4-22.6-17.8-38l0,0
			c5.6-15.4,22.6-23.4,38-17.8l171,62C3253.1,959.7,3261,976.7,3255.4,992.1z"/>
		<path class="st3" d="M3028.7,1054L3028.7,1054c-5.6-15.4,2.4-32.5,17.8-38l171-62c15.4-5.6,32.5,2.4,38,17.8l0,0
			c5.6,15.4-2.4,32.5-17.8,38l-171,62C3051.3,1077.4,3034.3,1069.5,3028.7,1054z"/>
		<path class="st1" d="M3227.3,1011.8c-3.4,0-6.8-0.6-10.1-1.8l-76.9-28.1l76.9-28.1c3.2-1.2,6.6-1.8,10-1.8
			c8.3,0,16.3,3.5,21.9,9.7l0.6,0.7l0.6,0.8c3.8,4.7,6.1,10.5,6.5,16.5c0,0.3,0,0.7,0.1,1c0,0.8,0,1.6,0,2.4c0,0.3,0,0.7-0.1,1
			c-0.4,5.7-2.5,11.1-5.8,15.6c-0.2,0.3-0.4,0.5-0.6,0.8c-0.4,0.5-0.8,1-1.3,1.5C3243.6,1008.2,3235.6,1011.7,3227.3,1011.8z"/>
		<path class="st3" d="M3255.4,867.8L3255.4,867.8c-5.6,15.4-22.6,23.4-38,17.8l-171-62c-15.4-5.6-23.4-22.6-17.8-38l0,0
			c5.6-15.4,22.6-23.4,38-17.8l171,62C3253.1,835.3,3261,852.4,3255.4,867.8z"/>
		<path class="st7" d="M3028.7,929.7L3028.7,929.7c-5.6-15.4,2.4-32.5,17.8-38l171-62c15.4-5.6,32.5,2.4,38,17.8l0,0
			c5.6,15.4-2.4,32.5-17.8,38l-171,62C3051.3,953.1,3034.3,945.1,3028.7,929.7z"/>
		<path class="st9" d="M3227.3,887.4c-3.4,0-6.8-0.6-10.1-1.8l-76.9-28.1l76.9-28.1c3.2-1.2,6.6-1.8,10-1.8c8.3,0,16.3,3.5,21.9,9.7
			l0.6,0.7l0.6,0.8c3.8,4.7,6.1,10.5,6.5,16.5c0,0.3,0,0.7,0.1,1c0,0.8,0,1.6,0,2.4c0,0.3,0,0.7-0.1,1c-0.4,5.7-2.5,11.1-5.8,15.6
			c-0.2,0.3-0.4,0.5-0.6,0.8c-0.4,0.5-0.8,1-1.3,1.5C3243.6,883.8,3235.6,887.4,3227.3,887.4z"/>
		<path class="st8" d="M3056.6,889.9c3.4,0,6.8,0.6,10.1,1.8l76.9,28.1l-76.9,28.1c-3.2,1.2-6.6,1.8-10.1,1.8
			c-8.3,0-16.3-3.5-21.9-9.7l-0.6-0.7c-0.2-0.3-0.4-0.5-0.6-0.8c-3.8-4.7-6.1-10.5-6.5-16.5c0-0.3-0.1-0.7-0.1-1c0-0.8,0-1.6,0-2.4
			c0-0.3,0-0.7,0.1-1c0.4-5.7,2.5-11.1,5.8-15.6l0.6-0.8c0.4-0.5,0.8-1,1.3-1.5C3040.2,893.5,3048.2,889.9,3056.6,889.9z"/>
		<path class="st6" d="M2518.7,1141.7L2518.7,1141.7c5.6,15.4-2.4,32.5-17.8,38l-171,62c-15.4,5.6-32.5-2.4-38-17.8l0,0
			c-5.6-15.4,2.4-32.5,17.8-38l171-62C2496.1,1118.4,2513.1,1126.3,2518.7,1141.7z"/>
		<path class="st3" d="M2292,1203.7L2292,1203.7c5.6-15.4,22.6-23.4,38-17.8l171,62c15.4,5.6,23.4,22.6,17.8,38l0,0
			c-5.6,15.4-22.6,23.4-38,17.8l-171-62C2294.3,1236.1,2286.4,1219.1,2292,1203.7z"/>
		<path class="st1" d="M2320.1,1243.8c3.4,0,6.8-0.6,10.1-1.8l76.9-28.1l-76.9-28c-3.2-1.2-6.6-1.8-10.1-1.8
			c-8.3,0-16.3,3.5-21.9,9.7l-0.6,0.7c-0.2,0.3-0.4,0.5-0.6,0.8c-2.1,2.6-3.7,5.5-4.8,8.6c-0.9,2.6-1.5,5.3-1.7,8
			c0,0.3-0.1,0.7-0.1,1c0,0.8,0,1.6,0,2.4c0,0.3,0,0.7,0.1,1c0.4,5.7,2.5,11.1,5.8,15.7c0.2,0.3,0.4,0.5,0.6,0.8
			c0.4,0.5,0.8,1,1.3,1.5C2303.7,1240.3,2311.7,1243.8,2320.1,1243.8z"/>
		<path class="st3" d="M2518.7,1017.4L2518.7,1017.4c5.6,15.4-2.4,32.5-17.8,38l-171,62c-15.4,5.6-32.5-2.4-38-17.8l0,0
			c-5.6-15.4,2.4-32.5,17.8-38l171-62C2496.1,994,2513.1,1002,2518.7,1017.4z"/>
		<path class="st7" d="M2292,1079.3L2292,1079.3c5.6-15.4,22.6-23.4,38-17.8l171,62c15.4,5.6,23.4,22.6,17.8,38l0,0
			c-5.6,15.4-22.6,23.4-38,17.8l-171-62C2294.3,1111.8,2286.4,1094.8,2292,1079.3z"/>
		<path class="st9" d="M2320.1,1119.5c3.4,0,6.8-0.6,10.1-1.8l76.9-28.1l-76.9-28.1c-3.2-1.2-6.6-1.8-10.1-1.8
			c-8.3,0-16.3,3.5-21.9,9.7l-0.6,0.7c-0.2,0.3-0.4,0.5-0.6,0.8c-2.1,2.6-3.7,5.5-4.8,8.6c-0.9,2.6-1.5,5.3-1.7,8
			c0,0.3-0.1,0.7-0.1,1c0,0.8,0,1.6,0,2.4c0,0.3,0,0.7,0.1,1c0.4,5.7,2.5,11.1,5.8,15.7c0.2,0.3,0.4,0.5,0.6,0.8
			c0.4,0.5,0.8,1,1.3,1.5C2303.7,1116,2311.7,1119.5,2320.1,1119.5z"/>
		<path class="st8" d="M2490.8,1122c-3.4,0-6.8,0.6-10.1,1.8l-76.9,28.1l76.9,28.1c3.2,1.2,6.6,1.8,10,1.8c8.3,0,16.3-3.5,21.9-9.7
			l0.6-0.7c0.2-0.3,0.4-0.5,0.6-0.8c2.1-2.6,3.7-5.5,4.8-8.6c0.9-2.6,1.5-5.3,1.7-8c0-0.3,0-0.7,0.1-1c0-0.8,0-1.6,0-2.4
			c0-0.3,0-0.7-0.1-1c-0.4-5.7-2.5-11.1-5.8-15.7c-0.2-0.3-0.4-0.5-0.6-0.8c-0.4-0.5-0.8-1-1.3-1.5
			C2507.1,1125.6,2499.2,1122,2490.8,1122z"/>
		<path class="st6" d="M639.1,1141.7L639.1,1141.7c5.6,15.4-2.4,32.5-17.8,38l-171,62c-15.4,5.6-32.5-2.4-38-17.8l0,0
			c-5.6-15.4,2.4-32.5,17.8-38l171-62C616.5,1118.3,633.5,1126.3,639.1,1141.7z"/>
		<path class="st3" d="M412.4,1203.7L412.4,1203.7c5.6-15.4,22.6-23.4,38-17.8l171,62c15.4,5.6,23.4,22.6,17.8,38l0,0
			c-5.6,15.4-22.6,23.4-38,17.8l-171-62C414.7,1236.2,406.8,1219.1,412.4,1203.7z"/>
		<path class="st1" d="M440.3,1243.8c3.4,0,6.8-0.6,10.1-1.8l76.9-28l-76.9-28c-3.2-1.2-6.6-1.8-10-1.8c-8.3,0-16.3,3.5-21.9,9.7
			l-0.6,0.7c-0.2,0.3-0.4,0.5-0.6,0.8c-2.1,2.6-3.7,5.5-4.8,8.6c-0.9,2.6-1.5,5.3-1.7,8c0,0.3-0.1,0.7-0.1,1c0,0.8,0,1.6,0,2.4
			c0,0.3,0,0.7,0.1,1c0.4,5.7,2.5,11.1,5.8,15.7c0.2,0.3,0.4,0.5,0.6,0.8c0.4,0.5,0.8,1,1.3,1.5
			C424,1240.3,431.9,1243.8,440.3,1243.8z"/>
		<path class="st3" d="M639.1,1017.4L639.1,1017.4c5.6,15.4-2.4,32.5-17.8,38l-171,62c-15.4,5.6-32.5-2.4-38-17.8l0,0
			c-5.6-15.4,2.4-32.5,17.8-38l171-62C616.5,994,633.5,1001.9,639.1,1017.4z"/>
		<path class="st7" d="M411.9,1078.4L411.9,1078.4c5.6-15.4,22.6-23.4,38-17.8l171,61.8c15.4,5.6,23.4,22.6,17.8,38l0,0
			c-5.6,15.4-22.6,23.4-38,17.8l-171-61.8C414.3,1110.8,406.4,1093.8,411.9,1078.4z"/>
		<path class="st9" d="M440.3,1119.5c3.4,0,6.8-0.6,10.1-1.8l76.9-28.1l-76.9-28.1c-3.2-1.2-6.6-1.8-10-1.8
			c-8.3,0-16.3,3.5-21.9,9.7l-0.6,0.7c-0.2,0.3-0.4,0.5-0.6,0.8c-2.1,2.6-3.7,5.5-4.8,8.6c-0.9,2.6-1.5,5.3-1.7,8
			c0,0.3-0.1,0.7-0.1,1c0,0.8,0,1.6,0,2.4c0,0.3,0,0.7,0.1,1c0.4,5.7,2.5,11.1,5.8,15.7c0.2,0.3,0.4,0.5,0.6,0.8
			c0.4,0.5,0.8,1,1.3,1.5C424,1116,431.9,1119.5,440.3,1119.5z"/>
		<path class="st8" d="M611,1122c-3.4,0-6.8,0.6-10.1,1.8l-76.9,28.1l76.9,28.1c3.2,1.2,6.6,1.8,10,1.8c8.3,0,16.3-3.5,21.9-9.7
			l0.6-0.7c0.2-0.3,0.4-0.5,0.6-0.8c2.1-2.6,3.7-5.5,4.8-8.6c0.9-2.6,1.5-5.3,1.7-8c0-0.3,0-0.7,0.1-1c0-0.8,0-1.6,0-2.4
			c0-0.3,0-0.7-0.1-1c-0.4-5.7-2.5-11.1-5.8-15.7c-0.2-0.3-0.4-0.5-0.6-0.8c-0.4-0.5-0.8-1-1.3-1.5
			C627.4,1125.6,619.4,1122,611,1122z"/>
		<path class="st3" d="M1410.1,1221.5L1410.1,1221.5c14.2,8.2,19.1,26.4,10.9,40.6l-102.8,178c-8.2,14.2-26.4,19.1-40.6,10.9l0,0
			c-14.2-8.2-19.1-26.4-10.9-40.6l102.8-178C1377.7,1218.2,1395.9,1213.3,1410.1,1221.5z"/>
		<path class="st4" d="M1512.7,1450.9L1512.7,1450.9c-14.2,8.2-32.4,3.3-40.6-10.9l-102.8-178c-8.2-14.2-3.3-32.4,10.9-40.6l0,0
			c14.2-8.2,32.4-3.3,40.6,10.9l102.8,178C1531.8,1424.6,1526.9,1442.7,1512.7,1450.9z"/>
		<path class="st1" d="M1424.9,1247.3c0,5.2-1.4,10.3-4,14.8l-25.8,44.7l-25.8-44.7c-2.6-4.5-4-9.6-4-14.8c0-4.5,1-8.9,3-13
			c7.1-14.8,24.9-21,39.6-13.8c5.4,2.6,9.8,6.7,12.8,11.9l1.1,1.9C1423.9,1238.3,1424.9,1242.7,1424.9,1247.3z"/>
		<path class="st2" d="M2458.2,65.3L2458.2,65.3c16.4,0,29.7,13.3,29.7,29.7v163.1c0,16.4-13.3,29.7-29.7,29.7l0,0
			c-16.4,0-29.7-13.3-29.7-29.7V95C2428.5,78.6,2441.8,65.3,2458.2,65.3z"/>
		<path class="st10" d="M2362,258.1L2362,258.1c0-16.4,13.3-29.7,29.7-29.7h126.4c16.4,0,29.7,13.3,29.7,29.7l0,0
			c0,16.4-13.3,29.7-29.7,29.7h-126.4C2375.3,287.8,2362,274.5,2362,258.1z"/>
		<path class="st5" d="M2487.9,258.1v-29.7h-59.4v29.7c0,16.4,13.4,29.7,29.8,29.6C2474.6,287.7,2487.9,274.4,2487.9,258.1z"/>
		<path class="st11" d="M3019.9,1122L3019.9,1122c16.4,0,29.7,13.3,29.7,29.7V1336c0,16.4-13.3,29.7-29.7,29.7l0,0
			c-16.4,0-29.7-13.3-29.7-29.7v-184.3C2990.2,1135.3,3003.5,1122,3019.9,1122z"/>
		<path class="st4" d="M2855,753.8L2855,753.8c16.4,0,29.7,13.3,29.7,29.7v184.3c0,16.4-13.3,29.7-29.7,29.7l0,0
			c-16.4,0-29.7-13.3-29.7-29.7V783.5C2825.3,767.1,2838.6,753.8,2855,753.8z"/>
		
			<ellipse transform="matrix(0.1602 -0.9871 0.9871 0.1602 375.5857 3212.6479)" class="st3" cx="2075.8" cy="1385.6" rx="34.6" ry="34.6"/>
		<ellipse class="st3" cx="707.2" cy="836.7" rx="34.6" ry="34.6"/>
		<path class="st1" d="M2553.8,532.8L2553.8,532.8c16.4,0,29.7,13.3,29.7,29.7V731c0,16.4-13.3,29.7-29.7,29.7l0,0
			c-16.4,0-29.7-13.3-29.7-29.7V562.5C2524.1,546.1,2537.4,532.8,2553.8,532.8z"/>
		<circle class="st3" cx="2553.8" cy="841.1" r="34.6"/>
		<circle class="st3" cx="226.1" cy="224.5" r="34.6"/>
		<circle class="st4" cx="736.9" cy="1535.3" r="34.6"/>
		<circle class="st3" cx="2988.6" cy="365" r="34.6"/>
		<circle class="st5" cx="2405.5" cy="1423.1" r="34.6"/>
		<circle class="st5" cx="1237.7" cy="241.9" r="34.6"/>
		
			<ellipse transform="matrix(0.9997 -2.379011e-02 2.379011e-02 0.9997 -16.4034 5.1631)" class="st5" cx="208.8" cy="692" rx="34.6" ry="34.6"/>
		<circle class="st5" cx="738.8" cy="359.8" r="34.6"/>
		<circle class="st9" cx="3089.7" cy="1517.1" r="34.6"/>
		<circle class="st9" cx="102.1" cy="1275.2" r="34.6"/>
		<circle class="st12" cx="1176.4" cy="1260" r="22.6"/>
		<circle class="st11" cx="1599.6" cy="1251.3" r="22.6"/>
		<circle class="st11" cx="1682.8" cy="1251.3" r="22.6"/>
		<circle class="st11" cx="1762" cy="1251.3" r="22.6"/>
		<circle class="st11" cx="1553.7" cy="77.8" r="22.6"/>
		<circle class="st11" cx="1636.9" cy="77.8" r="22.6"/>
		<circle class="st11" cx="1716.1" cy="77.8" r="22.6"/>
		<ellipse class="st10" cx="696.2" cy="1059.8" rx="22.6" ry="22.6"/>
		<circle class="st10" cx="779.4" cy="1059.8" r="22.6"/>
		<circle class="st10" cx="858.6" cy="1059.8" r="22.6"/>
		
			<ellipse transform="matrix(0.9239 -0.3827 0.3827 0.9239 -385.0285 1180.1691)" class="st1" cx="2774" cy="1557.9" rx="22.6" ry="22.6"/>
		<circle class="st1" cx="2857" cy="1557.9" r="22.6"/>
		<circle class="st1" cx="2936.2" cy="1557.9" r="22.6"/>
		
			<ellipse transform="matrix(0.9239 -0.3827 0.3827 0.9239 -511.3844 298.8184)" class="st1" cx="495.4" cy="1434.8" rx="22.6" ry="22.6"/>
		<circle class="st1" cx="578.6" cy="1434.8" r="22.6"/>
		<circle class="st1" cx="657.8" cy="1434.8" r="22.6"/>
		
			<ellipse transform="matrix(0.9239 -0.3827 0.3827 0.9239 -8.2451 114.1507)" class="st1" cx="282.8" cy="77.8" rx="22.6" ry="22.6"/>
		<circle class="st1" cx="366" cy="77.8" r="22.6"/>
		<circle class="st1" cx="445.2" cy="77.8" r="22.6"/>
		<circle class="st11" cx="2588.9" cy="999.4" r="22.6"/>
		<circle class="st11" cx="2672.1" cy="999.4" r="22.6"/>
		<circle class="st11" cx="2751.3" cy="999.4" r="22.6"/>
		<circle class="st11" cx="192.9" cy="1130" r="22.6"/>
		
			<ellipse transform="matrix(3.328101e-02 -0.9994 0.9994 3.328101e-02 -862.6514 1368.2853)" class="st11" cx="276" cy="1130.1" rx="22.6" ry="22.6"/>
		<circle class="st11" cx="355.3" cy="1130" r="22.6"/>
		<circle class="st12" cx="1176.4" cy="1338.2" r="22.6"/>
		<circle class="st12" cx="1176.4" cy="1424.6" r="22.6"/>
		<circle class="st12" cx="2956.9" cy="919.8" r="22.6"/>
		<circle class="st12" cx="2956.9" cy="998" r="22.6"/>
		<circle class="st12" cx="2956.9" cy="1076.3" r="22.6"/>
		<circle class="st12" cx="73.3" cy="510.1" r="22.6"/>
		<circle class="st12" cx="73.3" cy="588.3" r="22.6"/>
		<circle class="st12" cx="73.3" cy="666.7" r="22.6"/>
		<circle class="st9" cx="2454.9" cy="454.6" r="22.6"/>
		<circle class="st9" cx="2454.9" cy="532.8" r="22.6"/>
		<circle class="st9" cx="2454.9" cy="611" r="22.6"/>
		<circle class="st9" cx="3119.4" cy="543.1" r="22.6"/>
		<circle class="st9" cx="3119.4" cy="621.3" r="22.6"/>
		<circle class="st9" cx="3119.4" cy="699.5" r="22.6"/>
		
			<ellipse transform="matrix(0.1602 -0.9871 0.9871 0.1602 556.2104 3329.7993)" class="st9" cx="2235" cy="1338" rx="22.6" ry="22.6"/>
		
			<ellipse transform="matrix(0.1602 -0.9871 0.9871 0.1602 479.0184 3395.4744)" class="st9" cx="2235" cy="1416.2" rx="22.6" ry="22.6"/>
		
			<ellipse transform="matrix(0.1602 -0.9871 0.9871 0.1602 401.8266 3461.1494)" class="st9" cx="2235" cy="1494.4" rx="22.6" ry="22.6"/>
		<circle class="st9" cx="599.2" cy="525.2" r="22.6"/>
		<circle class="st9" cx="599.2" cy="603.4" r="22.6"/>
		<circle class="st9" cx="599.2" cy="681.7" r="22.6"/>
		<path class="st10" d="M2729.7,845.1c0.8,13.7-1.1,27.3-5.6,40.3c-6.4,18.8-17.4,34-27.8,45.4c-9.2,10.1-24.9,10.9-35.1,1.6
			c-0.1-0.1-0.3-0.2-0.4-0.4c-0.6-0.5-1.1-1.1-1.6-1.7l-0.2-0.2c-8.3-9.6-8.1-23.9,0.5-33.2c6.9-7.6,13.7-17,17.3-27.7
			c2.7-7.9,3.6-16.3,2.7-24.6c1.7-13.4-2.7-27.4-13.3-42.5c-19.4-27.7-29.8-54.5-31.2-80.3c-0.8-13.7,1.1-27.3,5.6-40.3
			c6.4-18.8,17.4-34,27.8-45.5c9.2-10.1,24.9-10.9,35.1-1.6c0.1,0.1,0.3,0.2,0.4,0.4l0,0c0.6,0.5,1.1,1.1,1.6,1.7l0.2,0.2
			c8.3,9.6,8.1,23.9-0.5,33.2c-6.9,7.6-13.7,17-17.3,27.7c-2.7,7.9-3.6,16.3-2.7,24.6c1.5,15.5,8.8,32.4,21.9,51.1
			C2723.7,797.1,2731.3,821.1,2729.7,845.1z"/>
		<path class="st13" d="M2693.4,750.3c3.9,8.1,8.5,15.8,13.7,23.1c16.6,23.7,24.2,47.7,22.6,71.7c0.8,13.7-1.1,27.3-5.6,40.3
			c-6.4,18.8-17.4,34-27.8,45.4c-9.2,10.1-24.9,10.9-35.1,1.6c-0.1-0.1-0.3-0.2-0.4-0.4c-0.6-0.5-1.1-1.1-1.6-1.7l-0.2-0.2
			c-8.3-9.6-8.1-23.9,0.5-33.2c6.9-7.6,13.7-17,17.3-27.7c2.7-7.9,3.6-16.3,2.7-24.6c1.7-13.4-2.7-27.4-13.3-42.5
			c-7.7-10.8-14.3-22.4-19.7-34.5L2693.4,750.3z"/>
		<path class="st5" d="M2707.1,773.4c16.6,23.7,24.2,47.7,22.6,71.7c0.8,13.7-1.1,27.3-5.6,40.3c-6.4,18.8-17.4,34-27.8,45.4
			c-9.2,10.1-24.9,10.9-35.1,1.6c-0.1-0.1-0.3-0.2-0.4-0.4c-0.6-0.5-1.1-1.1-1.6-1.7l-0.2-0.2c-8.3-9.6-8.1-23.9,0.5-33.2
			c6.9-7.6,13.7-17,17.3-27.7c2.7-7.9,3.6-16.3,2.7-24.6c1.7-13.4-2.7-27.4-13.3-42.5"/>
		<path class="st10" d="M391.9,665.1c0.8,13.7-1.1,27.3-5.6,40.3c-6.4,18.8-17.4,34-27.8,45.4c-9.2,10.1-24.9,10.9-35.1,1.6
			c-0.1-0.1-0.3-0.2-0.4-0.4c-0.6-0.5-1.1-1.1-1.6-1.7l-0.2-0.2c-8.3-9.6-8.1-23.9,0.5-33.2c6.9-7.6,13.7-17,17.3-27.7
			c2.7-7.9,3.6-16.3,2.7-24.6c1.7-13.4-2.7-27.4-13.3-42.5c-19.4-27.7-29.8-54.5-31.2-80.3c-0.8-13.7,1.1-27.3,5.6-40.3
			c6.4-18.8,17.4-34,27.8-45.5c9.2-10.1,24.9-10.9,35.1-1.6c0.1,0.1,0.3,0.2,0.4,0.4l0,0c0.6,0.5,1.1,1.1,1.6,1.7l0.2,0.2
			c8.3,9.6,8.1,23.9-0.5,33.2c-6.9,7.6-13.7,17-17.3,27.7c-2.7,7.9-3.6,16.3-2.7,24.6c1.5,15.5,8.8,32.4,21.9,51.1
			C385.9,617,393.5,641.1,391.9,665.1z"/>
		<path class="st13" d="M355.6,570.2c3.9,8.1,8.5,15.8,13.7,23.1c16.6,23.7,24.2,47.7,22.6,71.7c0.8,13.7-1.1,27.3-5.6,40.3
			c-6.4,18.8-17.4,34-27.8,45.4c-9.2,10.1-24.9,10.9-35.1,1.6c-0.1-0.1-0.3-0.2-0.4-0.4c-0.6-0.5-1.1-1.1-1.6-1.7l-0.2-0.2
			c-8.3-9.6-8.1-23.9,0.5-33.2c6.9-7.6,13.7-17,17.3-27.7c2.7-7.9,3.6-16.3,2.7-24.6c1.7-13.4-2.7-27.4-13.3-42.5
			c-7.7-10.8-14.3-22.4-19.7-34.5L355.6,570.2z"/>
		<path class="st5" d="M369.3,593.3c16.6,23.7,24.2,47.7,22.6,71.7c0.8,13.7-1.1,27.3-5.6,40.3c-6.4,18.8-17.4,34-27.8,45.4
			c-9.2,10.1-24.9,10.9-35.1,1.6c-0.1-0.1-0.3-0.2-0.4-0.4c-0.6-0.5-1.1-1.1-1.6-1.7l-0.2-0.2c-8.3-9.6-8.1-23.9,0.5-33.2
			c6.9-7.6,13.7-17,17.3-27.7c2.7-7.9,3.6-16.3,2.7-24.6c1.7-13.4-2.7-27.4-13.3-42.5"/>
		<path class="st10" d="M892.4,841.8c0.8,13.7-1.1,27.3-5.6,40.3c-6.4,18.8-17.4,34-27.8,45.4c-9.2,10.1-24.9,10.9-35.1,1.6
			c-0.1-0.1-0.3-0.2-0.4-0.4c-0.6-0.5-1.1-1.1-1.7-1.7l-0.2-0.2c-8.3-9.6-8.1-23.9,0.5-33.2c6.9-7.6,13.7-17,17.3-27.7
			c2.7-7.9,3.6-16.3,2.7-24.6c1.7-13.4-2.7-27.4-13.3-42.5c-19.4-27.7-29.8-54.5-31.2-80.3c-0.7-13.7,1.2-27.3,5.6-40.3
			c6.4-18.8,17.4-34,27.8-45.5c9.2-10.1,24.9-10.9,35.1-1.6c0.1,0.1,0.3,0.2,0.4,0.4l0,0c0.6,0.5,1.1,1.1,1.6,1.7l0.2,0.2
			c8.3,9.6,8.1,23.9-0.5,33.2c-6.9,7.6-13.7,17-17.3,27.7c-2.7,7.9-3.6,16.3-2.7,24.6c1.5,15.5,8.8,32.4,21.9,51.1
			C886.4,793.8,894,817.8,892.4,841.8z"/>
		<path class="st13" d="M856.1,747c3.9,8.1,8.5,15.8,13.7,23.1c16.6,23.7,24.2,47.7,22.6,71.7c0.8,13.7-1.1,27.3-5.6,40.3
			c-6.4,18.8-17.4,34-27.8,45.4c-9.2,10.1-24.9,10.9-35.1,1.6c-0.1-0.1-0.3-0.2-0.4-0.4c-0.6-0.5-1.1-1.1-1.7-1.7l-0.2-0.2
			c-8.3-9.6-8.1-23.9,0.5-33.2c6.9-7.6,13.7-17,17.3-27.7c2.7-7.9,3.6-16.3,2.7-24.6c1.7-13.4-2.7-27.4-13.3-42.5
			c-7.7-10.8-14.3-22.4-19.7-34.5L856.1,747z"/>
		<path class="st5" d="M869.8,770.1c16.6,23.7,24.2,47.7,22.6,71.7c0.8,13.7-1.1,27.3-5.6,40.3c-6.4,18.8-17.4,34-27.8,45.4
			c-9.2,10.1-24.9,10.9-35.1,1.6c-0.1-0.1-0.3-0.2-0.4-0.4c-0.6-0.5-1.1-1.1-1.7-1.7l-0.2-0.2c-8.3-9.6-8.1-23.9,0.5-33.2
			c6.9-7.6,13.7-17,17.3-27.7c2.7-7.9,3.6-16.3,2.7-24.6c1.7-13.4-2.7-27.4-13.3-42.5"/>
		<path class="st10" d="M126.9,1050.3c0.8,13.7-1.1,27.3-5.6,40.3c-6.4,18.8-17.4,34-27.8,45.4c-9.2,10.1-24.9,10.9-35.1,1.6
			c-0.1-0.1-0.3-0.2-0.4-0.4c-0.6-0.5-1.1-1.1-1.7-1.7l-0.2-0.2c-8.3-9.6-8.1-23.9,0.5-33.2c6.9-7.6,13.7-17,17.3-27.7
			c2.7-7.9,3.6-16.3,2.7-24.6c1.7-13.4-2.7-27.4-13.3-42.5c-19.4-27.7-29.8-54.5-31.2-80.3c-0.7-13.7,1.2-27.3,5.6-40.3
			c6.4-18.8,17.4-34,27.8-45.5c9.2-10.1,24.9-10.9,35.1-1.6c0.1,0.1,0.3,0.2,0.4,0.4l0,0c0.6,0.5,1.1,1.1,1.6,1.7l0.2,0.2
			c8.3,9.6,8.1,23.9-0.5,33.2c-6.9,7.6-13.7,17-17.3,27.7c-2.7,7.9-3.6,16.3-2.7,24.6c1.5,15.5,8.8,32.4,21.9,51.1
			C120.9,1002.3,128.5,1026.3,126.9,1050.3z"/>
		<path class="st13" d="M90.6,955.5c3.9,8.1,8.5,15.8,13.7,23.1c16.6,23.7,24.2,47.7,22.6,71.7c0.8,13.7-1.1,27.3-5.6,40.3
			c-6.4,18.8-17.4,34-27.8,45.4c-9.2,10.1-24.9,10.9-35.1,1.6c-0.1-0.1-0.3-0.2-0.4-0.4c-0.6-0.5-1.1-1.1-1.7-1.7l-0.2-0.2
			c-8.3-9.6-8.1-23.9,0.5-33.2c6.9-7.6,13.7-17,17.3-27.7c2.7-7.9,3.6-16.3,2.7-24.6c1.7-13.4-2.7-27.4-13.3-42.5
			c-7.7-10.8-14.3-22.4-19.7-34.5L90.6,955.5z"/>
		<path class="st5" d="M104.3,978.6c16.6,23.7,24.2,47.7,22.6,71.7c0.8,13.7-1.1,27.3-5.6,40.3c-6.4,18.8-17.4,34-27.8,45.4
			c-9.2,10.1-24.9,10.9-35.1,1.6c-0.1-0.1-0.3-0.2-0.4-0.4c-0.6-0.5-1.1-1.1-1.7-1.7l-0.2-0.2c-8.3-9.6-8.1-23.9,0.5-33.2
			c6.9-7.6,13.7-17,17.3-27.7c2.7-7.9,3.6-16.3,2.7-24.6c1.7-13.4-2.7-27.4-13.3-42.5"/>
		<path class="st10" d="M388.9,972.3c0,4.5-1.1,9-3.3,13c-0.8,1.3-1.7,2.7-2.6,4c-36.3,53.1-108.9,66.7-162,30.4
			s-66.7-108.9-30.4-162s108.9-66.7,162-30.4c11.9,8.2,22.2,18.4,30.4,30.4c0.9,1.3,1.8,2.6,2.6,4c7.2,13.4,2.1,30.1-11.3,37.2
			c-11.9,6.4-26.7,3.2-34.9-7.6c-0.7-1.1-1.4-2.1-2.1-3.2c-19.5-27.9-58-34.7-85.9-15.2s-34.7,58-15.2,85.9s58,34.7,85.9,15.2
			c5.9-4.1,11-9.3,15.2-15.2c0.7-1,1.4-2.1,2.1-3.2c9.2-12.1,26.5-14.4,38.5-5.3C384.8,955.7,388.8,963.8,388.9,972.3L388.9,972.3z"
			/>
		<path class="st14" d="M253.5,988.6c0,15.1-12.3,27.4-27.4,27.4c-6.8,0-13.3-2.5-18.3-7c-0.2-0.2-0.4-0.4-0.6-0.6
			c-47-44-49.4-117.7-5.4-164.7c1.1-1.2,2.3-2.4,3.4-3.5c0.3-0.3,0.7-0.6,1-1l0.2-0.2c11.3-10.1,28.6-9.2,38.8,2.1
			c9.6,10.7,9.3,27-0.7,37.4c-0.4,0.4-0.8,0.8-1.2,1.2c0,0,0,0-0.1,0c-24.1,24.1-24,63.1,0.1,87.2c0.3,0.3,0.6,0.6,0.9,0.9
			c0.4,0.4,0.9,0.8,1.3,1.2l0,0C250.7,974.3,253.6,981.3,253.5,988.6z"/>
		<path class="st7" d="M388.9,874.6c0,15.2-12.3,27.5-27.5,27.5c-8.6,0-16.7-4-21.9-10.9c-0.7-1.1-1.4-2.1-2.1-3.2
			c-19.5-27.9-58-34.7-85.9-15.2c-2.5,1.7-4.9,3.7-7.1,5.8c-0.4,0.4-0.8,0.8-1.2,1.2c0,0,0,0-0.1,0c-11.2,10.2-28.6,9.3-38.8-2
			c-9.7-10.8-9.4-27.2,0.8-37.6l1-1l0.2-0.2c46.5-44.5,120.3-42.8,164.7,3.7c4.4,4.6,8.4,9.5,11.9,14.7c0.9,1.3,1.8,2.6,2.6,4
			C387.8,865.6,388.9,870.1,388.9,874.6z"/>
		
			<ellipse transform="matrix(9.089028e-03 -1 1 9.089028e-03 -764.4451 1205.8115)" class="st1" cx="226.2" cy="988.6" rx="27.4" ry="27.4"/>
		
			<ellipse transform="matrix(0.9999 -1.020349e-02 1.020349e-02 0.9999 -8.7578 2.3384)" class="st9" cx="224.8" cy="859.5" rx="27.4" ry="27.4"/>
		<path class="st10" d="M2781.4,432.3c0,4.5-1.1,9-3.3,13c-0.8,1.3-1.7,2.7-2.6,4c-36.3,53.1-108.9,66.7-162,30.4
			s-66.7-108.9-30.4-162s108.9-66.7,162-30.4c11.9,8.2,22.2,18.4,30.4,30.4c0.9,1.3,1.8,2.6,2.6,4c7.2,13.4,2.1,30.1-11.3,37.2
			c-11.9,6.4-26.7,3.2-34.9-7.6c-0.7-1.1-1.4-2.1-2.1-3.2c-19.5-27.9-58-34.7-85.9-15.2s-34.7,58-15.2,85.9s58,34.7,85.9,15.2
			c5.9-4.1,11-9.3,15.2-15.2c0.7-1,1.4-2.1,2.1-3.2c9.2-12.1,26.5-14.4,38.5-5.3C2777.3,415.7,2781.3,423.8,2781.4,432.3
			L2781.4,432.3z"/>
		<path class="st14" d="M2646,448.6c0,15.1-12.3,27.4-27.4,27.4c-6.8,0-13.3-2.5-18.3-7c-0.2-0.2-0.4-0.4-0.6-0.6
			c-47-44-49.4-117.7-5.4-164.7c1.1-1.2,2.3-2.4,3.4-3.5c0.3-0.3,0.7-0.6,1-1l0.2-0.2c11.3-10.1,28.6-9.2,38.8,2.1
			c9.6,10.7,9.3,27-0.7,37.4c-0.4,0.4-0.8,0.8-1.2,1.2c0,0,0,0-0.1,0c-24.1,24.1-24,63.1,0.1,87.2c0.3,0.3,0.6,0.6,0.9,0.9
			c0.4,0.4,0.9,0.8,1.3,1.2l0,0C2643.2,434.3,2646.1,441.3,2646,448.6z"/>
		<path class="st7" d="M2781.4,334.6c0,15.2-12.3,27.5-27.5,27.5c-8.6,0-16.7-4-21.9-10.9c-0.7-1.1-1.4-2.1-2.1-3.2
			c-19.5-27.9-58-34.7-85.9-15.2c-2.5,1.7-4.9,3.7-7.1,5.8c-0.4,0.4-0.8,0.8-1.2,1.2c0,0,0,0-0.1,0c-11.2,10.2-28.6,9.3-38.8-2
			c-9.7-10.8-9.4-27.2,0.8-37.6l1-1l0.2-0.2c46.5-44.5,120.3-42.8,164.7,3.7c4.4,4.6,8.4,9.5,11.9,14.7c0.9,1.3,1.8,2.6,2.6,4
			C2780.3,325.6,2781.4,330.1,2781.4,334.6z"/>
		
			<ellipse transform="matrix(9.089050e-03 -1 1 9.089050e-03 2146.3584 3062.8237)" class="st1" cx="2618.6" cy="448.4" rx="27.4" ry="27.4"/>
		
			<ellipse transform="matrix(0.9999 -1.020347e-02 1.020347e-02 0.9999 -3.1236 26.7199)" class="st9" cx="2617.1" cy="319.5" rx="27.4" ry="27.4"/>
		<path class="st10" d="M823,334.1c0,4.5,1.1,9,3.3,13c0.8,1.3,1.7,2.6,2.6,4c36.3,53.1,108.9,66.7,162,30.4
			c53.1-36.3,66.7-108.9,30.4-162s-108.9-66.7-162-30.4c-11.9,8.2-22.2,18.5-30.4,30.4c-0.9,1.3-1.8,2.6-2.6,4
			c-7.2,13.4-2.2,30,11.1,37.3c11.9,6.4,26.8,3.2,35-7.6c0.7-1.1,1.3-2.1,2.1-3.2c19.5-27.9,58-34.7,85.9-15.2s34.7,58,15.2,85.9
			s-58,34.7-85.9,15.2c-5.9-4.1-11.1-9.3-15.2-15.2c-0.7-1-1.4-2.1-2.1-3.2c-9.2-12.1-26.5-14.4-38.5-5.3
			C827.1,317.5,823,325.6,823,334.1L823,334.1z"/>
		<path class="st3" d="M958.4,350.5c0,15.1,12.3,27.4,27.4,27.4c6.7,0,13.3-2.5,18.3-7c0.2-0.2,0.4-0.4,0.6-0.6
			c47-44,49.4-117.7,5.4-164.7c-1.1-1.2-2.2-2.4-3.4-3.5c-0.3-0.3-0.7-0.6-1-1l-0.2-0.1c-11.2-10.2-28.5-9.4-38.8,1.8
			c-9.8,10.7-9.5,27.3,0.7,37.7c0.4,0.4,0.8,0.8,1.2,1.2c0,0,0,0,0.1,0c24.1,24.1,24,63.1-0.1,87.2c-0.3,0.3-0.6,0.6-0.9,0.9
			c-0.4,0.4-0.9,0.8-1.3,1.2l0,0C961.2,336.1,958.3,343.2,958.4,350.5z"/>
		<path class="st7" d="M823,236.5c0,15.2,12.3,27.5,27.5,27.5c8.6,0,16.7-4,21.9-10.9c0.7-1.1,1.3-2.1,2.1-3.2
			c19.5-27.9,58-34.7,85.9-15.2c2.5,1.7,4.9,3.7,7.1,5.8c0.4,0.4,0.8,0.8,1.2,1.2c0,0,0,0,0.1,0c11.2,10.2,28.6,9.3,38.8-2
			c9.7-10.8,9.4-27.2-0.8-37.6c-0.3-0.3-0.7-0.6-1-1l-0.2-0.1c-46.5-44.4-120.3-42.8-164.7,3.7c-4.4,4.6-8.4,9.5-12,14.8
			c-0.9,1.3-1.8,2.6-2.6,4C824.2,227.5,823,231.9,823,236.5z"/>
		<circle class="st1" cx="985.8" cy="350.5" r="27.4"/>
		<circle class="st9" cx="987.1" cy="221.4" r="27.4"/>
		<path class="st10" d="M2716,1286.2c0,4.5,1.1,9,3.3,13c0.8,1.3,1.7,2.7,2.6,4c36.3,53.1,108.9,66.7,162,30.4
			c53.1-36.3,66.7-108.9,30.4-162s-108.9-66.7-162-30.4c-11.9,8.2-22.2,18.4-30.4,30.4c-0.9,1.3-1.8,2.6-2.6,4
			c-7.2,13.4-2.1,30.1,11.3,37.2c11.9,6.4,26.7,3.2,34.9-7.6c0.7-1.1,1.4-2.1,2.1-3.2c19.5-27.9,58-34.7,85.9-15.2
			s34.7,58,15.2,85.9s-58,34.7-85.9,15.2c-5.9-4.1-11-9.3-15.2-15.2c-0.7-1-1.4-2.1-2.1-3.2c-9.2-12.1-26.5-14.4-38.5-5.3
			C2720,1269.6,2716,1277.7,2716,1286.2L2716,1286.2z"/>
		<path class="st3" d="M2851.3,1302.6c0,15.1,12.3,27.4,27.4,27.4c6.8,0,13.3-2.5,18.3-7c0.2-0.2,0.4-0.4,0.6-0.6
			c47-44,49.4-117.7,5.4-164.7c-1.1-1.2-2.3-2.4-3.4-3.5c-0.3-0.3-0.6-0.6-1-1l-0.2-0.1c-11.3-10.1-28.6-9.2-38.8,2.1
			c-9.6,10.7-9.3,27,0.7,37.4c0.4,0.4,0.8,0.8,1.2,1.2c0,0,0,0,0.1,0c24.1,24.1,24,63.1-0.1,87.2c-0.3,0.3-0.6,0.6-0.9,0.9
			c-0.4,0.4-0.9,0.8-1.3,1.2l0,0C2854.1,1288.2,2851.3,1295.3,2851.3,1302.6z"/>
		<path class="st7" d="M2716,1188.6c0,15.2,12.3,27.5,27.5,27.5c8.6,0,16.7-4,21.9-10.9c0.7-1.1,1.4-2.1,2.1-3.2
			c19.5-27.9,58-34.7,85.9-15.2c2.5,1.7,4.9,3.7,7.1,5.8c0.4,0.4,0.8,0.8,1.2,1.2c0,0,0,0,0.1,0c11.2,10.2,28.6,9.3,38.8-2
			c9.7-10.8,9.4-27.2-0.8-37.6l-1-1l-0.2-0.1c-46.5-44.5-120.3-42.8-164.7,3.7c-4.4,4.6-8.4,9.5-11.9,14.7c-0.9,1.3-1.8,2.6-2.6,4
			C2717.1,1179.5,2716,1184,2716,1188.6z"/>
		<circle class="st1" cx="2878.7" cy="1302.6" r="27.4"/>
		<circle class="st9" cx="2880.1" cy="1173.5" r="27.4"/>
		<path class="st7" d="M242.4,1537.3c0,15.2-12.4,27.5-27.6,27.5c-8.6,0-16.6-4-21.8-10.8c-0.7-1.1-1.3-2.1-2.1-3.2
			c-19.5-27.9-57.9-34.7-85.9-15.2c-2.5,1.8-4.9,3.7-7.1,5.8c-0.4,0.4-0.8,0.8-1.2,1.2c0,0,0,0-0.1,0c-11.2,10.2-28.6,9.3-38.8-2
			c-9.7-10.8-9.4-27.2,0.8-37.6l1-1l0.2-0.2c46.5-44.5,120.3-42.8,164.7,3.7c4.4,4.6,8.4,9.5,11.9,14.7c0.9,1.3,1.8,2.6,2.6,4
			C241.3,1528.2,242.4,1532.7,242.4,1537.3z"/>
		<path class="st7" d="M2956.1,701.8c0,15.2-12.3,27.5-27.5,27.5c-8.6,0-16.7-4-21.9-10.9c-0.7-1.1-1.4-2.1-2.1-3.2
			c-19.5-27.9-57.9-34.7-85.9-15.2c-2.5,1.8-4.9,3.7-7.1,5.8c-0.4,0.4-0.8,0.8-1.2,1.2c0,0,0,0-0.1,0c-11.2,10.2-28.6,9.3-38.8-2
			c-9.7-10.8-9.4-27.2,0.8-37.6l1-1l0.2-0.2c46.5-44.5,120.3-42.8,164.7,3.7c4.4,4.6,8.4,9.5,11.9,14.7c0.9,1.3,1.8,2.6,2.6,4
			C2955,692.7,2956.1,697.2,2956.1,701.8z"/>
		<path class="st7" d="M2611.6,1534.2c-0.8,1.4-1.7,2.7-2.6,4c-3.5,5.2-7.5,10.1-11.9,14.7c-44.4,46.5-118.2,48.2-164.7,3.7
			l-0.2-0.2l-1-1c-10.2-10.4-10.5-26.8-0.8-37.6c10.2-11.3,27.6-12.2,38.8-2c0.1,0,0.1,0,0.1,0c0.4,0.4,0.8,0.8,1.2,1.2
			c2.2,2.1,4.6,4,7.1,5.8c28,19.5,66.4,12.7,85.9-15.2c0.7-1.1,1.4-2.1,2.1-3.2c5.2-6.9,13.3-10.9,21.9-10.9
			c15.2,0,27.5,12.3,27.5,27.5C2615,1525.6,2613.9,1530.1,2611.6,1534.2z"/>
		<path class="st1" d="M2477.5,895.8c0,15.2-12.3,27.5-27.5,27.5c-8.6,0-16.7-4-21.9-10.9c-0.7-1.1-1.4-2.1-2.1-3.2
			c-19.5-27.9-57.9-34.7-85.9-15.2c-2.5,1.8-4.9,3.7-7.1,5.8c-0.4,0.4-0.8,0.8-1.2,1.2h-0.1c-11.2,10.2-28.6,9.3-38.8-2
			c-9.7-10.8-9.4-27.2,0.8-37.6c0.3-0.3,0.7-0.6,1-1l0.2-0.2c46.5-44.5,120.2-42.8,164.7,3.7c4.4,4.6,8.4,9.6,12,14.8
			c0.9,1.3,1.8,2.6,2.6,4C2476.4,886.8,2477.5,891.2,2477.5,895.8z"/>
		<path class="st1" d="M621.5,920.8c0,15.2-12.3,27.5-27.5,27.5c-8.6,0-16.7-4-21.9-10.9c-0.7-1.1-1.4-2.1-2.1-3.2
			c-19.5-27.9-57.9-34.7-85.9-15.2c-2.5,1.8-4.9,3.7-7.1,5.8c-0.4,0.4-0.8,0.8-1.2,1.2c0,0,0,0-0.1,0c-11.2,10.2-28.6,9.3-38.8-2
			c-9.7-10.8-9.4-27.2,0.8-37.6l1-1l0.2-0.2c46.5-44.5,120.3-42.8,164.7,3.7c4.4,4.6,8.4,9.5,11.9,14.7c0.9,1.3,1.8,2.6,2.6,4
			C620.4,911.8,621.5,916.3,621.5,920.8z"/>
		<path class="st4" d="M2032.8,1238.8c11.2,11.2,11.2,29.3,0,40.5c-6.3,6.3-15.3,9.3-24.1,8.1c-1.3-0.3-2.6-0.6-3.9-0.8
			c-34.9-6.2-68.2,17.1-74.4,52c-0.6,3.1-0.9,6.3-1,9.5c0,0.6,0,1.2,0,1.7v0.1c-1.1,15.7-14.7,27.6-30.4,26.5
			c-14.6-1-26.1-13-26.6-27.7c0-0.5,0-1,0-1.4c0-0.1,0-0.2,0-0.2c1.5-66.9,57-119.9,123.9-118.4c6.6,0.1,13.1,0.8,19.6,2
			c1.6,0.3,3.2,0.6,4.8,1C2025.3,1233,2029.5,1235.5,2032.8,1238.8z"/>
		<path class="st4" d="M355.6,1248c11.2,11.2,11.2,29.3,0,40.5c-6.3,6.3-15.3,9.3-24.1,8.1c-1.3-0.3-2.6-0.6-3.9-0.8
			c-34.9-6.2-68.2,17.1-74.3,52c-0.5,3.1-0.9,6.2-1,9.4c0,0.6,0,1.1,0,1.7v0.1c-1.1,15.7-14.7,27.6-30.4,26.5
			c-14.6-1-26.1-13-26.6-27.7c0-0.5,0-0.9,0-1.4c0-0.1,0-0.2,0-0.2c1.5-66.9,57-120,123.9-118.5c6.6,0.1,13.2,0.8,19.6,2
			c1.6,0.3,3.2,0.6,4.8,1C348.2,1242.2,352.3,1244.6,355.6,1248z"/>
	</g>
</g>
</svg>
