<?xml version="1.0" encoding="utf-8"?>
<!-- Generator: Adobe Illustrator 24.1.1, SVG Export Plug-In . SVG Version: 6.00 Build 0)  -->
<svg version="1.1" id="Capa_1" xmlns="http://www.w3.org/2000/svg" xmlns:xlink="http://www.w3.org/1999/xlink" x="0px" y="0px"
	 viewBox="0 0 2879.3 1618.5" style="enable-background:new 0 0 2879.3 1618.5;" xml:space="preserve">
<style type="text/css">
	.st0{fill:#D20746;}
	.st1{fill:#A3C62C;}
	.st2{fill:#F44D71;}
	.st3{fill:#F4E91E;}
	.st4{fill:#BA3498;}
	.st5{fill:#5EB9CF;}
	.st6{fill:#56B1CA;}
	.st7{fill:#D40044;}
	.st8{fill:#A54583;}
	.st9{fill:#FF3947;}
	.st10{fill:#6DB3D2;}
	.st11{fill:#F87800;}
	.st12{fill:#B2328F;}
	.st13{fill:#5F569A;}
	.st14{fill:#F0DC37;}
</style>
<g id="Capa_2_1_">
	<g id="Capa_2-2">
		<path class="st0" d="M946.8,77.8L946.8,77.8c16.4,0,29.7,13.3,29.7,29.7v168.5c0,16.4-13.3,29.7-29.7,29.7l0,0
			c-16.4,0-29.7-13.3-29.7-29.7V107.5C917.1,91.1,930.4,77.8,946.8,77.8z"/>
		<path class="st0" d="M568.3,1146L568.3,1146c16.4,0,29.7,13.3,29.7,29.7v168.5c0,16.4-13.3,29.7-29.7,29.7l0,0
			c-16.4,0-29.7-13.3-29.7-29.7v-168.5C538.6,1159.3,551.9,1146,568.3,1146z"/>
		<path class="st0" d="M55.8,381.2L55.8,381.2c16.4,0,29.7,13.3,29.7,29.7v168.5c0,16.4-13.3,29.7-29.7,29.7h0
			c-16.4,0-29.7-13.3-29.7-29.7V410.9C26.1,394.5,39.4,381.2,55.8,381.2z"/>
		<path class="st1" d="M536.9,528.4L536.9,528.4c16.4,0,29.7,13.3,29.7,29.7v168.5c0,16.4-13.3,29.7-29.7,29.7l0,0
			c-16.4,0-29.7-13.3-29.7-29.7V558.1C507.2,541.7,520.5,528.4,536.9,528.4z"/>
		<path class="st1" d="M2709.8,178.6L2709.8,178.6c16.4,0,29.7,13.3,29.7,29.7v168.5c0,16.4-13.3,29.7-29.7,29.7l0,0
			c-16.4,0-29.7-13.3-29.7-29.7V208.3C2680.1,191.9,2693.4,178.6,2709.8,178.6z"/>
		<path class="st2" d="M2866.5,570.2L2866.5,570.2c0,16.4-13.3,29.7-29.7,29.7h-254c-16.4,0-29.7-13.3-29.7-29.7l0,0
			c0-16.4,13.3-29.7,29.7-29.7h254C2853.2,540.5,2866.5,553.8,2866.5,570.2z"/>
		<path class="st2" d="M2853.6,1442.1L2853.6,1442.1c0,16.4-13.3,29.7-29.7,29.7h-254c-16.4,0-29.7-13.3-29.7-29.7l0,0
			c0-16.4,13.3-29.7,29.7-29.7h254C2840.3,1412.4,2853.6,1425.7,2853.6,1442.1z"/>
		<path class="st3" d="M1195.2,0L1195.2,0c16.4,0,29.7,13.3,29.7,29.7v324c0,16.4-13.3,29.7-29.7,29.7h0
			c-16.4,0-29.7-13.3-29.7-29.7v-324C1165.5,13.3,1178.8,0,1195.2,0z"/>
		<path class="st3" d="M325.8,429.6L325.8,429.6c16.4,0,29.7,13.3,29.7,29.7v324c0,16.4-13.3,29.7-29.7,29.7h0
			c-16.4,0-29.7-13.3-29.7-29.7v-324C296,442.9,309.3,429.6,325.8,429.6z"/>
		<path class="st3" d="M2169.6,338.6L2169.6,338.6c16.4,0,29.7,13.3,29.7,29.7v324c0,16.4-13.3,29.7-29.7,29.7l0,0
			c-16.4,0-29.7-13.3-29.7-29.7v-324C2139.9,351.9,2153.2,338.6,2169.6,338.6z"/>
		<path class="st3" d="M2430.6,1058.7L2430.6,1058.7c16.4,0,29.7,13.3,29.7,29.7v324c0,16.4-13.3,29.7-29.7,29.7l0,0
			c-16.4,0-29.7-13.3-29.7-29.7v-324C2400.9,1072,2414.1,1058.7,2430.6,1058.7z"/>
		<path class="st4" d="M1905.2,1395.8L1905.2,1395.8c0,16.4-13.3,29.7-29.7,29.7h-145.1c-16.4,0-29.7-13.3-29.7-29.7l0,0
			c0-16.4,13.3-29.7,29.7-29.7h145.1C1891.9,1366.1,1905.2,1379.4,1905.2,1395.8z"/>
		<path class="st1" d="M1845.1,188.4L1845.1,188.4c16.4,0,29.7,13.3,29.7,29.7v163.1c0,16.4-13.3,29.7-29.7,29.7h0
			c-16.4,0-29.7-13.3-29.7-29.7V218.1C1815.4,201.7,1828.7,188.4,1845.1,188.4z"/>
		<path class="st5" d="M1955.5,31.8L1955.5,31.8c16.4,0,29.7,13.3,29.7,29.7v163.1c0,16.4-13.3,29.7-29.7,29.7h0
			c-16.4,0-29.7-13.3-29.7-29.7V61.5C1925.8,45,1939.1,31.8,1955.5,31.8z"/>
		<path class="st3" d="M2148.3,224.5L2148.3,224.5c0,16.4-13.3,29.7-29.7,29.7h-163.1c-16.4,0-29.7-13.3-29.7-29.7v0
			c0-16.4,13.3-29.7,29.7-29.7h163.1C2135,194.8,2148.3,208.1,2148.3,224.5z"/>
		<path class="st1" d="M1985.2,194.8v29.7c0,16.4-13.3,29.7-29.7,29.7c-16.4,0-29.7-13.3-29.7-29.7s13.3-29.7,29.7-29.7l0,0H1985.2z
			"/>
		<path class="st1" d="M1985.2,194.8v29.7c0,16.4-13.3,29.7-29.7,29.7c-16.4,0-29.7-13.3-29.7-29.7s13.3-29.7,29.7-29.7l0,0H1985.2z
			"/>
		<path class="st5" d="M261.1,167.1L261.1,167.1c16.4,0,29.7,13.3,29.7,29.7v163.1c0,16.4-13.3,29.7-29.7,29.7h0
			c-16.4,0-29.7-13.3-29.7-29.7V196.8C231.4,180.4,244.6,167.1,261.1,167.1z"/>
		<path class="st3" d="M453.8,359.8L453.8,359.8c0,16.4-13.3,29.7-29.7,29.7H261c-16.4,0-29.7-13.3-29.7-29.7v0
			c0-16.4,13.3-29.7,29.7-29.7h163.1C440.5,330.1,453.8,343.4,453.8,359.8z"/>
		<path class="st1" d="M290.8,330.1v29.7c0,16.4-13.3,29.7-29.7,29.7s-29.7-13.3-29.7-29.7c0-16.4,13.3-29.7,29.7-29.7H290.8z"/>
		<path class="st1" d="M290.8,330.1v29.7c0,16.4-13.3,29.7-29.7,29.7s-29.7-13.3-29.7-29.7c0-16.4,13.3-29.7,29.7-29.7H290.8z"/>
		<path class="st6" d="M1384.9,162.9L1384.9,162.9c15.4,5.6,23.4,22.6,17.8,38l-62,171c-5.6,15.4-22.6,23.4-38,17.8l0,0
			c-15.4-5.6-23.4-22.6-17.8-38l62-171C1352.4,165.3,1369.5,157.3,1384.9,162.9z"/>
		<path class="st7" d="M1446.9,389.7L1446.9,389.7c-15.4,5.6-32.5-2.4-38-17.8l-62-171c-5.6-15.4,2.4-32.5,17.8-38l0,0
			c15.4-5.6,32.5,2.4,38,17.8l62,171C1470.2,367.1,1462.3,384.1,1446.9,389.7z"/>
		<path class="st8" d="M1404.6,191c0,3.4-0.6,6.8-1.8,10.1l-28.1,76.9l-28.1-76.9c-1.2-3.2-1.8-6.6-1.8-10c0-8.3,3.5-16.3,9.7-21.9
			l0.7-0.6c0.3-0.2,0.5-0.4,0.8-0.6c4.7-3.8,10.5-6.1,16.5-6.5l1-0.1c0.8,0,1.6,0,2.4,0c0.3,0,0.7,0,1,0.1
			c5.7,0.4,11.1,2.5,15.6,5.8l0.8,0.6c0.5,0.4,1,0.8,1.5,1.3C1401,174.7,1404.6,182.6,1404.6,191z"/>
		<path class="st6" d="M466.4,38.7L466.4,38.7c15.4-5.6,32.5,2.4,38,17.8l62,171c5.6,15.4-2.4,32.5-17.8,38l0,0
			c-15.4,5.6-32.5-2.4-38-17.8l-62-171C443,61.3,451,44.3,466.4,38.7z"/>
		<path class="st7" d="M528.4,265.5L528.4,265.5c-15.4-5.6-23.4-22.6-17.8-38l62-171c5.6-15.4,22.6-23.4,38-17.8l0,0
			c15.4,5.6,23.4,22.6,17.8,38l-62,171C560.9,263.1,543.9,271.1,528.4,265.5z"/>
		<path class="st8" d="M568.5,237.4c0-3.4-0.6-6.8-1.8-10.1l-28.1-76.9l-28.1,76.9c-1.2,3.2-1.8,6.6-1.8,10.1
			c0,8.3,3.5,16.3,9.7,21.9l0.7,0.6c0.3,0.2,0.5,0.4,0.8,0.6c4.7,3.8,10.5,6.1,16.5,6.5l1,0.1c0.8,0,1.6,0,2.4,0c0.3,0,0.7,0,1-0.1
			c5.7-0.4,11.1-2.5,15.6-5.8c0.3-0.2,0.5-0.4,0.8-0.6c0.5-0.4,1-0.8,1.5-1.3C564.9,253.8,568.5,245.8,568.5,237.4z"/>
		<path class="st6" d="M2445.7,6.6L2445.7,6.6c15.4-5.6,32.5,2.4,38,17.8l62,171c5.6,15.4-2.4,32.5-17.8,38l0,0
			c-15.4,5.6-32.5-2.4-38-17.8l-62-171C2422.4,29.2,2430.3,12.2,2445.7,6.6z"/>
		<path class="st7" d="M2507.7,233.4L2507.7,233.4c-15.4-5.6-23.4-22.6-17.8-38l62-171c5.6-15.4,22.6-23.4,38-17.8l0,0
			c15.4,5.6,23.4,22.6,17.8,38l-62,171C2540.1,231,2523.1,239,2507.7,233.4z"/>
		<path class="st8" d="M2547.8,205.2c0-3.4-0.6-6.8-1.8-10.1l-28.1-76.9l-28.1,76.9c-1.2,3.2-1.8,6.6-1.8,10.1
			c0,8.3,3.5,16.3,9.7,21.9l0.7,0.6l0.8,0.6c4.7,3.8,10.5,6.1,16.5,6.5l1,0.1c0.8,0,1.6,0,2.4,0c0.3,0,0.7,0,1-0.1
			c5.7-0.4,11.1-2.5,15.6-5.8c0.3-0.2,0.5-0.4,0.8-0.6c0.5-0.4,1-0.8,1.5-1.3C2544.2,221.6,2547.7,213.6,2547.8,205.2z"/>
		<path class="st6" d="M1511.7,195L1511.7,195c5.6-15.4,22.6-23.4,38-17.8l171,62c15.4,5.6,23.4,22.6,17.8,38v0
			c-5.6,15.4-22.6,23.4-38,17.8l-171-62C1514,227.5,1506.1,210.5,1511.7,195z"/>
		<path class="st3" d="M1736.8,132.9L1736.8,132.9c5.6,15.4-2.4,32.4-17.8,38l-171,61.8c-15.4,5.6-32.4-2.4-38-17.8v0
			c-5.6-15.4,2.4-32.4,17.8-38l171-61.8C1714.2,109.5,1731.2,117.5,1736.8,132.9z"/>
		<path class="st1" d="M1539.8,175.3c3.4,0,6.8,0.6,10.1,1.8l76.9,28.1l-76.9,28.1c-3.2,1.2-6.6,1.8-10,1.8
			c-8.3,0-16.3-3.5-21.9-9.7l-0.6-0.7c-0.2-0.3-0.4-0.5-0.6-0.8c-3.8-4.7-6.1-10.5-6.5-16.5c0-0.4,0-0.7-0.1-1c0-0.8,0-1.6,0-2.4
			c0-0.3,0-0.7,0.1-1c0.4-5.7,2.5-11.1,5.8-15.6l0.6-0.8c0.4-0.5,0.8-1,1.3-1.5C1523.4,178.9,1531.4,175.3,1539.8,175.3z"/>
		<path class="st3" d="M1511.7,319.4L1511.7,319.4c5.6-15.4,22.6-23.4,38-17.8l171,62c15.4,5.6,23.4,22.6,17.8,38v0
			c-5.6,15.4-22.6,23.4-38,17.8l-171-62C1514,351.8,1506.1,334.8,1511.7,319.4z"/>
		<path class="st7" d="M1738.5,257.4L1738.5,257.4c5.6,15.4-2.4,32.5-17.8,38l-171,62c-15.4,5.6-32.5-2.4-38-17.8l0,0
			c-5.6-15.4,2.4-32.5,17.8-38l171-62C1715.8,234,1732.9,242,1738.5,257.4z"/>
		<path class="st9" d="M1539.8,299.6c3.4,0,6.8,0.6,10.1,1.8l76.9,28.1l-76.9,28.1c-3.2,1.2-6.6,1.8-10,1.8
			c-8.3,0-16.3-3.5-21.9-9.7l-0.6-0.7c-0.2-0.3-0.4-0.5-0.6-0.8c-3.8-4.7-6.1-10.5-6.5-16.5c0-0.4,0-0.7-0.1-1c0-0.8,0-1.6,0-2.4
			c0-0.3,0-0.7,0.1-1c0.4-5.7,2.5-11.1,5.8-15.6l0.6-0.8c0.4-0.5,0.8-1,1.3-1.5C1523.4,303.2,1531.4,299.7,1539.8,299.6z"/>
		<path class="st8" d="M1710.5,297.1c-3.4,0-6.8-0.6-10.1-1.8l-76.9-28.1l76.9-28.1c3.2-1.2,6.6-1.8,10-1.8c8.3,0,16.3,3.5,21.9,9.7
			l0.6,0.7l0.6,0.8c3.8,4.7,6.1,10.5,6.5,16.5c0,0.3,0,0.7,0.1,1c0,0.8,0,1.6,0,2.4c0,0.3,0,0.7-0.1,1c-0.4,5.7-2.5,11.1-5.8,15.6
			c-0.2,0.3-0.4,0.5-0.6,0.8c-0.4,0.5-0.8,1-1.3,1.5C1726.8,293.6,1718.8,297.1,1710.5,297.1z"/>
		<path class="st6" d="M902.8,1537L902.8,1537c-5.6,15.4-22.6,23.4-38,17.8l-171-62c-15.4-5.6-23.4-22.6-17.8-38l0,0
			c5.6-15.4,22.6-23.4,38-17.8l171,62C900.4,1504.6,908.4,1521.6,902.8,1537z"/>
		<path class="st3" d="M676.1,1599L676.1,1599c-5.6-15.4,2.4-32.5,17.8-38l171-62c15.4-5.6,32.5,2.4,38,17.8l0,0
			c5.6,15.4-2.4,32.5-17.8,38l-171,62C698.7,1622.4,681.7,1614.5,676.1,1599z"/>
		<path class="st1" d="M874.8,1556.7c-3.4,0-6.8-0.6-10.1-1.8l-76.9-28.1l76.9-28.1c3.2-1.2,6.6-1.8,10-1.8c8.3,0,16.3,3.5,21.9,9.7
			l0.6,0.7c0.2,0.3,0.4,0.5,0.6,0.8c2.1,2.6,3.7,5.5,4.8,8.6c0.9,2.6,1.5,5.3,1.7,8c0,0.3,0,0.7,0.1,1c0,0.8,0,1.6,0,2.4
			c0,0.3,0,0.7-0.1,1c-0.4,5.7-2.5,11.1-5.8,15.6c-0.2,0.3-0.4,0.5-0.6,0.8c-0.4,0.5-0.8,1-1.3,1.5
			C891.1,1553.1,883.2,1556.6,874.8,1556.7z"/>
		<path class="st3" d="M902.8,1412.7L902.8,1412.7c-5.6,15.4-22.6,23.4-38,17.8l-171-62c-15.4-5.6-23.4-22.6-17.8-38l0,0
			c5.6-15.4,22.6-23.4,38-17.8l171,62C900.4,1380.2,908.4,1397.2,902.8,1412.7z"/>
		<path class="st7" d="M676.1,1474.7L676.1,1474.7c-5.6-15.4,2.4-32.5,17.8-38l171-62c15.4-5.6,32.5,2.4,38,17.8l0,0
			c5.6,15.4-2.4,32.5-17.8,38l-171,62C698.7,1498.1,681.7,1490.1,676.1,1474.7z"/>
		<path class="st9" d="M874.8,1432.3c-3.4,0-6.8-0.6-10.1-1.8l-76.9-28.1l76.9-28.1c3.2-1.2,6.6-1.8,10-1.8c8.3,0,16.3,3.5,21.9,9.7
			l0.6,0.7c0.2,0.3,0.4,0.5,0.6,0.8c2.1,2.6,3.7,5.5,4.8,8.6c0.9,2.6,1.5,5.3,1.7,8c0,0.3,0,0.7,0.1,1c0,0.8,0,1.6,0,2.4
			c0,0.3,0,0.7-0.1,1c-0.4,5.7-2.5,11.1-5.8,15.7c-0.2,0.3-0.4,0.5-0.6,0.8c-0.4,0.5-0.8,1-1.3,1.5
			C891.1,1428.8,883.2,1432.3,874.8,1432.3z"/>
		<path class="st8" d="M704.1,1434.8c3.4,0,6.8,0.6,10.1,1.8l76.9,28.1l-76.9,28.1c-3.2,1.2-6.6,1.8-10,1.8
			c-8.3,0-16.3-3.5-21.9-9.7l-0.6-0.7c-0.2-0.3-0.4-0.5-0.6-0.8c-2.1-2.6-3.7-5.5-4.8-8.6c-0.9-2.6-1.5-5.3-1.7-8c0-0.3,0-0.7-0.1-1
			c0-0.8,0-1.6,0-2.4c0-0.3,0-0.7,0.1-1c0.4-5.7,2.5-11.1,5.8-15.7c0.2-0.3,0.4-0.5,0.6-0.8c0.4-0.5,0.8-1,1.3-1.5
			C687.8,1438.4,695.7,1434.9,704.1,1434.8z"/>
		<path class="st6" d="M2753.6,1292.9L2753.6,1292.9c-5.6,15.4-22.6,23.4-38,17.8l-171-62c-15.4-5.6-23.4-22.6-17.8-38l0,0
			c5.6-15.4,22.6-23.4,38-17.8l171,62C2751.3,1260.5,2759.2,1277.5,2753.6,1292.9z"/>
		<path class="st3" d="M2526.9,1354.8L2526.9,1354.8c-5.6-15.4,2.4-32.5,17.8-38l171-62c15.4-5.6,32.5,2.4,38,17.8l0,0
			c5.6,15.4-2.4,32.5-17.8,38l-171,62C2549.5,1378.2,2532.5,1370.3,2526.9,1354.8z"/>
		<path class="st1" d="M2725.5,1312.6c-3.4,0-6.8-0.6-10.1-1.8l-76.9-28.1l76.9-28.1c3.2-1.2,6.6-1.8,10-1.8
			c8.3,0,16.3,3.5,21.9,9.7l0.6,0.7l0.6,0.8c3.8,4.7,6.1,10.5,6.5,16.5c0,0.3,0,0.7,0.1,1c0,0.8,0,1.6,0,2.4c0,0.3,0,0.7-0.1,1
			c-0.4,5.7-2.5,11.1-5.8,15.6c-0.2,0.3-0.4,0.5-0.6,0.8c-0.4,0.5-0.8,1-1.3,1.5C2741.8,1309,2733.8,1312.5,2725.5,1312.6z"/>
		<path class="st3" d="M2753.6,1168.6L2753.6,1168.6c-5.6,15.4-22.6,23.4-38,17.8l-171-62c-15.4-5.6-23.4-22.6-17.8-38l0,0
			c5.6-15.4,22.6-23.4,38-17.8l171,62C2751.3,1136.1,2759.2,1153.2,2753.6,1168.6z"/>
		<path class="st7" d="M2526.9,1230.5L2526.9,1230.5c-5.6-15.4,2.4-32.5,17.8-38l171-62c15.4-5.6,32.5,2.4,38,17.8l0,0
			c5.6,15.4-2.4,32.5-17.8,38l-171,62C2549.5,1253.9,2532.5,1245.9,2526.9,1230.5z"/>
		<path class="st9" d="M2725.5,1188.2c-3.4,0-6.8-0.6-10.1-1.8l-76.9-28.1l76.9-28.1c3.2-1.2,6.6-1.8,10-1.8
			c8.3,0,16.3,3.5,21.9,9.7l0.6,0.7l0.6,0.8c3.8,4.7,6.1,10.5,6.5,16.5c0,0.3,0,0.7,0.1,1c0,0.8,0,1.6,0,2.4c0,0.3,0,0.7-0.1,1
			c-0.4,5.7-2.5,11.1-5.8,15.6c-0.2,0.3-0.4,0.5-0.6,0.8c-0.4,0.5-0.8,1-1.3,1.5C2741.8,1184.6,2733.8,1188.2,2725.5,1188.2z"/>
		<path class="st8" d="M2554.8,1190.7c3.4,0,6.8,0.6,10.1,1.8l76.9,28.1l-76.9,28.1c-3.2,1.2-6.6,1.8-10.1,1.8
			c-8.3,0-16.3-3.5-21.9-9.7l-0.6-0.7c-0.2-0.3-0.4-0.5-0.6-0.8c-3.8-4.7-6.1-10.5-6.5-16.5c0-0.3-0.1-0.7-0.1-1c0-0.8,0-1.6,0-2.4
			c0-0.3,0-0.7,0.1-1c0.4-5.7,2.5-11.1,5.8-15.6l0.6-0.8c0.4-0.5,0.8-1,1.3-1.5C2538.4,1194.3,2546.4,1190.7,2554.8,1190.7z"/>
		<path class="st6" d="M2348.4,1141.7L2348.4,1141.7c5.6,15.4-2.4,32.5-17.8,38l-171,62c-15.4,5.6-32.5-2.4-38-17.8l0,0
			c-5.6-15.4,2.4-32.5,17.8-38l171-62C2325.8,1118.4,2342.8,1126.3,2348.4,1141.7z"/>
		<path class="st3" d="M2121.7,1203.7L2121.7,1203.7c5.6-15.4,22.6-23.4,38-17.8l171,62c15.4,5.6,23.4,22.6,17.8,38l0,0
			c-5.6,15.4-22.6,23.4-38,17.8l-171-62C2124,1236.1,2116.1,1219.1,2121.7,1203.7z"/>
		<path class="st1" d="M2149.8,1243.8c3.4,0,6.8-0.6,10.1-1.8l76.9-28.1l-76.9-28c-3.2-1.2-6.6-1.8-10.1-1.8
			c-8.3,0-16.3,3.5-21.9,9.7l-0.6,0.7c-0.2,0.3-0.4,0.5-0.6,0.8c-2.1,2.6-3.7,5.5-4.8,8.6c-0.9,2.6-1.5,5.3-1.7,8
			c0,0.3-0.1,0.7-0.1,1c0,0.8,0,1.6,0,2.4c0,0.3,0,0.7,0.1,1c0.4,5.7,2.5,11.1,5.8,15.7c0.2,0.3,0.4,0.5,0.6,0.8
			c0.4,0.5,0.8,1,1.3,1.5C2133.4,1240.3,2141.4,1243.8,2149.8,1243.8z"/>
		<path class="st3" d="M2348.4,1017.4L2348.4,1017.4c5.6,15.4-2.4,32.5-17.8,38l-171,62c-15.4,5.6-32.5-2.4-38-17.8l0,0
			c-5.6-15.4,2.4-32.5,17.8-38l171-62C2325.8,994,2342.8,1002,2348.4,1017.4z"/>
		<path class="st7" d="M2121.7,1079.3L2121.7,1079.3c5.6-15.4,22.6-23.4,38-17.8l171,62c15.4,5.6,23.4,22.6,17.8,38l0,0
			c-5.6,15.4-22.6,23.4-38,17.8l-171-62C2124,1111.8,2116.1,1094.8,2121.7,1079.3z"/>
		<path class="st9" d="M2149.8,1119.5c3.4,0,6.8-0.6,10.1-1.8l76.9-28.1l-76.9-28.1c-3.2-1.2-6.6-1.8-10.1-1.8
			c-8.3,0-16.3,3.5-21.9,9.7l-0.6,0.7c-0.2,0.3-0.4,0.5-0.6,0.8c-2.1,2.6-3.7,5.5-4.8,8.6c-0.9,2.6-1.5,5.3-1.7,8
			c0,0.3-0.1,0.7-0.1,1c0,0.8,0,1.6,0,2.4c0,0.3,0,0.7,0.1,1c0.4,5.7,2.5,11.1,5.8,15.7c0.2,0.3,0.4,0.5,0.6,0.8
			c0.4,0.5,0.8,1,1.3,1.5C2133.4,1116,2141.4,1119.5,2149.8,1119.5z"/>
		<path class="st8" d="M2320.5,1122c-3.4,0-6.8,0.6-10.1,1.8l-76.9,28.1l76.9,28.1c3.2,1.2,6.6,1.8,10,1.8c8.3,0,16.3-3.5,21.9-9.7
			l0.6-0.7c0.2-0.3,0.4-0.5,0.6-0.8c2.1-2.6,3.7-5.5,4.8-8.6c0.9-2.6,1.5-5.3,1.7-8c0-0.3,0-0.7,0.1-1c0-0.8,0-1.6,0-2.4
			c0-0.3,0-0.7-0.1-1c-0.4-5.7-2.5-11.1-5.8-15.7c-0.2-0.3-0.4-0.5-0.6-0.8c-0.4-0.5-0.8-1-1.3-1.5
			C2336.8,1125.6,2328.9,1122,2320.5,1122z"/>
		<path class="st6" d="M468.8,1141.7L468.8,1141.7c5.6,15.4-2.4,32.5-17.8,38l-171,62c-15.4,5.6-32.5-2.4-38-17.8h0
			c-5.6-15.4,2.4-32.5,17.8-38l171-62C446.2,1118.3,463.2,1126.3,468.8,1141.7z"/>
		<path class="st3" d="M242.1,1203.7L242.1,1203.7c5.6-15.4,22.6-23.4,38-17.8l171,62c15.4,5.6,23.4,22.6,17.8,38l0,0
			c-5.6,15.4-22.6,23.4-38,17.8l-171-62C244.4,1236.2,236.5,1219.1,242.1,1203.7z"/>
		<path class="st1" d="M270,1243.8c3.4,0,6.8-0.6,10.1-1.8L357,1214l-76.9-28c-3.2-1.2-6.6-1.8-10-1.8c-8.3,0-16.3,3.5-21.9,9.7
			l-0.6,0.7c-0.2,0.3-0.4,0.5-0.6,0.8c-2.1,2.6-3.7,5.5-4.8,8.6c-0.9,2.6-1.5,5.3-1.7,8c0,0.3-0.1,0.7-0.1,1c0,0.8,0,1.6,0,2.4
			c0,0.3,0,0.7,0.1,1c0.4,5.7,2.5,11.1,5.8,15.7c0.2,0.3,0.4,0.5,0.6,0.8c0.4,0.5,0.8,1,1.3,1.5
			C253.7,1240.3,261.6,1243.8,270,1243.8z"/>
		<path class="st3" d="M468.8,1017.4L468.8,1017.4c5.6,15.4-2.4,32.5-17.8,38l-171,62c-15.4,5.6-32.5-2.4-38-17.8l0,0
			c-5.6-15.4,2.4-32.5,17.8-38l171-62C446.2,994,463.2,1001.9,468.8,1017.4z"/>
		<path class="st7" d="M241.6,1078.4L241.6,1078.4c5.6-15.4,22.6-23.4,38-17.8l171,61.8c15.4,5.6,23.4,22.6,17.8,38l0,0
			c-5.6,15.4-22.6,23.4-38,17.8l-171-61.8C244,1110.8,236.1,1093.8,241.6,1078.4z"/>
		<path class="st9" d="M270,1119.5c3.4,0,6.8-0.6,10.1-1.8l76.9-28.1l-76.9-28.1c-3.2-1.2-6.6-1.8-10-1.8c-8.3,0-16.3,3.5-21.9,9.7
			l-0.6,0.7c-0.2,0.3-0.4,0.5-0.6,0.8c-2.1,2.6-3.7,5.5-4.8,8.6c-0.9,2.6-1.5,5.3-1.7,8c0,0.3-0.1,0.7-0.1,1c0,0.8,0,1.6,0,2.4
			c0,0.3,0,0.7,0.1,1c0.4,5.7,2.5,11.1,5.8,15.7c0.2,0.3,0.4,0.5,0.6,0.8c0.4,0.5,0.8,1,1.3,1.5C253.7,1116,261.6,1119.5,270,1119.5
			z"/>
		<path class="st8" d="M440.7,1122c-3.4,0-6.8,0.6-10.1,1.8l-76.9,28.1l76.9,28.1c3.2,1.2,6.6,1.8,10,1.8c8.3,0,16.3-3.5,21.9-9.7
			l0.6-0.7c0.2-0.3,0.4-0.5,0.6-0.8c2.1-2.6,3.7-5.5,4.8-8.6c0.9-2.6,1.5-5.3,1.7-8c0-0.3,0-0.7,0.1-1c0-0.8,0-1.6,0-2.4
			c0-0.3,0-0.7-0.1-1c-0.4-5.7-2.5-11.1-5.8-15.7c-0.2-0.3-0.4-0.5-0.6-0.8c-0.4-0.5-0.8-1-1.3-1.5
			C457.1,1125.6,449.1,1122,440.7,1122z"/>
		<path class="st1" d="M1153.3,1276.6L1153.3,1276.6c16.4,0,29.7,13.3,29.7,29.7v163.1c0,16.4-13.3,29.7-29.7,29.7h0
			c-16.4,0-29.7-13.3-29.7-29.7v-163.1C1123.6,1289.9,1136.8,1276.6,1153.3,1276.6z"/>
		<path class="st3" d="M1356.1,1298.4L1356.1,1298.4c14.2,8.2,19.1,26.4,10.9,40.6l-102.8,178c-8.2,14.2-26.4,19.1-40.6,10.9l0,0
			c-14.2-8.2-19.1-26.4-10.9-40.6l102.8-178C1323.7,1295.1,1341.9,1290.2,1356.1,1298.4z"/>
		<path class="st5" d="M1458.7,1527.8L1458.7,1527.8c-14.2,8.2-32.4,3.3-40.6-10.9l-102.8-178c-8.2-14.2-3.3-32.4,10.9-40.6h0
			c14.2-8.2,32.4-3.3,40.6,10.9l102.8,178C1477.8,1501.5,1472.9,1519.6,1458.7,1527.8z"/>
		<path class="st1" d="M1370.9,1324.2c0,5.2-1.4,10.3-4,14.8l-25.8,44.7l-25.8-44.7c-2.6-4.5-4-9.6-4-14.8c0-4.5,1-8.9,3-13
			c7.1-14.8,24.9-21,39.6-13.8c5.4,2.6,9.8,6.7,12.8,11.9l1.1,1.9C1369.9,1315.2,1370.9,1319.6,1370.9,1324.2z"/>
		<path class="st2" d="M1571.3,1358.9L1571.3,1358.9c16.4,0,29.7,13.3,29.7,29.7v163.1c0,16.4-13.3,29.7-29.7,29.7h0
			c-16.4,0-29.7-13.3-29.7-29.7v-163.1C1541.6,1372.2,1554.9,1358.9,1571.3,1358.9z"/>
		<path class="st10" d="M1660.8,1388.6L1660.8,1388.6c0,16.4-13.3,29.7-29.7,29.7h-126.4c-16.4,0-29.7-13.3-29.7-29.7v0
			c0-16.4,13.3-29.7,29.7-29.7h126.4C1647.5,1358.9,1660.8,1372.2,1660.8,1388.6z"/>
		<path class="st4" d="M1601,1388.6v29.7h-59.4v-29.7c0-16.4,13.3-29.7,29.7-29.7C1587.7,1358.9,1601,1372.2,1601,1388.6z"/>
		<path class="st2" d="M2283.6,113.3L2283.6,113.3c16.4,0,29.7,13.3,29.7,29.7v163.1c0,16.4-13.3,29.7-29.7,29.7l0,0
			c-16.4,0-29.7-13.3-29.7-29.7V143C2253.9,126.6,2267.2,113.3,2283.6,113.3z"/>
		<path class="st10" d="M2187.4,306.1L2187.4,306.1c0-16.4,13.3-29.7,29.7-29.7h126.4c16.4,0,29.7,13.3,29.7,29.7l0,0
			c0,16.4-13.3,29.7-29.7,29.7h-126.4C2200.7,335.8,2187.4,322.5,2187.4,306.1z"/>
		<path class="st4" d="M2313.3,306.1v-29.7h-59.4v29.7c0,16.4,13.4,29.7,29.8,29.6C2300,335.7,2313.3,322.4,2313.3,306.1z"/>
		<path class="st11" d="M2849.6,1122L2849.6,1122c16.4,0,29.7,13.3,29.7,29.7V1336c0,16.4-13.3,29.7-29.7,29.7l0,0
			c-16.4,0-29.7-13.3-29.7-29.7v-184.3C2819.9,1135.3,2833.2,1122,2849.6,1122z"/>
		<path class="st5" d="M2684.7,753.8L2684.7,753.8c16.4,0,29.7,13.3,29.7,29.7v184.3c0,16.4-13.3,29.7-29.7,29.7l0,0
			c-16.4,0-29.7-13.3-29.7-29.7V783.5C2655,767.1,2668.3,753.8,2684.7,753.8z"/>
		<circle class="st3" cx="1702.1" cy="1513.4" r="34.6"/>
		<circle class="st3" cx="536.9" cy="836.7" r="34.6"/>
		<path class="st1" d="M2383.5,532.8L2383.5,532.8c16.4,0,29.7,13.3,29.7,29.7V731c0,16.4-13.3,29.7-29.7,29.7l0,0
			c-16.4,0-29.7-13.3-29.7-29.7V562.5C2353.8,546.1,2367.1,532.8,2383.5,532.8z"/>
		<circle class="st3" cx="2383.5" cy="841.1" r="34.6"/>
		<circle class="st3" cx="116.7" cy="248.8" r="34.6"/>
		<circle class="st3" cx="2818.3" cy="365" r="34.6"/>
		<circle class="st4" cx="1342.3" cy="1541.2" r="34.6"/>
		<circle class="st4" cx="2235.2" cy="1423.1" r="34.6"/>
		<circle class="st4" cx="1067.4" cy="241.9" r="34.6"/>
		<circle class="st4" cx="55.8" cy="704.2" r="34.6"/>
		<circle class="st4" cx="568.5" cy="359.8" r="34.6"/>
		<circle class="st12" cx="1006.1" cy="1260" r="22.6"/>
		<circle class="st11" cx="1724.6" cy="1316.9" r="22.6"/>
		<circle class="st11" cx="1807.8" cy="1316.9" r="22.6"/>
		<circle class="st11" cx="1887" cy="1316.9" r="22.6"/>
		<circle class="st11" cx="525.9" cy="1059.8" r="22.6"/>
		<circle class="st11" cx="609.1" cy="1059.8" r="22.6"/>
		<circle class="st11" cx="688.3" cy="1059.8" r="22.6"/>
		<circle class="st11" cx="2418.6" cy="999.4" r="22.6"/>
		<circle class="st11" cx="2501.8" cy="999.4" r="22.6"/>
		<circle class="st11" cx="2581" cy="999.4" r="22.6"/>
		<circle class="st11" cx="22.6" cy="1130" r="22.6"/>
		<circle class="st11" cx="105.8" cy="1130" r="22.6"/>
		<circle class="st11" cx="185" cy="1130" r="22.6"/>
		<circle class="st12" cx="1006.1" cy="1338.2" r="22.6"/>
		<circle class="st12" cx="1006.1" cy="1424.6" r="22.6"/>
		<circle class="st12" cx="2786.6" cy="919.8" r="22.6"/>
		<circle class="st12" cx="2786.6" cy="998" r="22.6"/>
		<circle class="st12" cx="2786.6" cy="1076.3" r="22.6"/>
		<circle class="st9" cx="2284.6" cy="454.6" r="22.6"/>
		<circle class="st9" cx="2284.6" cy="532.8" r="22.6"/>
		<circle class="st9" cx="2284.6" cy="611" r="22.6"/>
		<circle class="st9" cx="2064.6" cy="1338.1" r="22.6"/>
		<circle class="st9" cx="2064.6" cy="1416.3" r="22.6"/>
		<circle class="st9" cx="2064.6" cy="1494.5" r="22.6"/>
		<circle class="st9" cx="428.9" cy="525.2" r="22.6"/>
		<circle class="st9" cx="428.9" cy="603.4" r="22.6"/>
		<circle class="st9" cx="428.9" cy="681.7" r="22.6"/>
		<path class="st10" d="M2559.4,845.1c0.8,13.7-1.1,27.3-5.6,40.3c-6.4,18.8-17.4,34-27.8,45.4c-9.2,10.1-24.9,10.9-35.1,1.6
			c-0.1-0.1-0.3-0.2-0.4-0.4c-0.6-0.5-1.1-1.1-1.6-1.7l-0.2-0.2c-8.3-9.6-8.1-23.9,0.5-33.2c6.9-7.6,13.7-17,17.3-27.7
			c2.7-7.9,3.6-16.3,2.7-24.6c1.7-13.4-2.7-27.4-13.3-42.5c-19.4-27.7-29.8-54.5-31.2-80.3c-0.8-13.7,1.1-27.3,5.6-40.3
			c6.4-18.8,17.4-34,27.8-45.5c9.2-10.1,24.9-10.9,35.1-1.6c0.1,0.1,0.3,0.2,0.4,0.4l0,0c0.6,0.5,1.1,1.1,1.6,1.7l0.2,0.2
			c8.3,9.6,8.1,23.9-0.5,33.2c-6.9,7.6-13.7,17-17.3,27.7c-2.7,7.9-3.6,16.3-2.7,24.6c1.5,15.5,8.8,32.4,21.9,51.1
			C2553.4,797.1,2561,821.1,2559.4,845.1z"/>
		<path class="st13" d="M2523.1,750.3c3.9,8.1,8.5,15.8,13.7,23.1c16.6,23.7,24.2,47.7,22.6,71.7c0.8,13.7-1.1,27.3-5.6,40.3
			c-6.4,18.8-17.4,34-27.8,45.4c-9.2,10.1-24.9,10.9-35.1,1.6c-0.1-0.1-0.3-0.2-0.4-0.4c-0.6-0.5-1.1-1.1-1.6-1.7l-0.2-0.2
			c-8.3-9.6-8.1-23.9,0.5-33.2c6.9-7.6,13.7-17,17.3-27.7c2.7-7.9,3.6-16.3,2.7-24.6c1.7-13.4-2.7-27.4-13.3-42.5
			c-7.7-10.8-14.3-22.4-19.7-34.5L2523.1,750.3z"/>
		<path class="st4" d="M2536.8,773.4c16.6,23.7,24.2,47.7,22.6,71.7c0.8,13.7-1.1,27.3-5.6,40.3c-6.4,18.8-17.4,34-27.8,45.4
			c-9.2,10.1-24.9,10.9-35.1,1.6c-0.1-0.1-0.3-0.2-0.4-0.4c-0.6-0.5-1.1-1.1-1.6-1.7l-0.2-0.2c-8.3-9.6-8.1-23.9,0.5-33.2
			c6.9-7.6,13.7-17,17.3-27.7c2.7-7.9,3.6-16.3,2.7-24.6c1.7-13.4-2.7-27.4-13.3-42.5"/>
		<path class="st10" d="M221.6,665.1c0.8,13.7-1.1,27.3-5.6,40.3c-6.4,18.8-17.4,34-27.8,45.4c-9.2,10.1-24.9,10.9-35.1,1.6
			c-0.1-0.1-0.3-0.2-0.4-0.4c-0.6-0.5-1.1-1.1-1.6-1.7l-0.2-0.2c-8.3-9.6-8.1-23.9,0.5-33.2c6.9-7.6,13.7-17,17.3-27.7
			c2.7-7.9,3.6-16.3,2.7-24.6c1.7-13.4-2.7-27.4-13.3-42.5c-19.4-27.7-29.8-54.5-31.2-80.3c-0.8-13.7,1.1-27.3,5.6-40.3
			c6.4-18.8,17.4-34,27.8-45.5c9.2-10.1,24.9-10.9,35.1-1.6c0.1,0.1,0.3,0.2,0.4,0.4l0,0c0.6,0.5,1.1,1.1,1.6,1.7l0.2,0.2
			c8.3,9.6,8.1,23.9-0.5,33.2c-6.9,7.6-13.7,17-17.3,27.7c-2.7,7.9-3.6,16.3-2.7,24.6c1.5,15.5,8.8,32.4,21.9,51.1
			C215.6,617,223.2,641.1,221.6,665.1z"/>
		<path class="st13" d="M185.3,570.2c3.9,8.1,8.5,15.8,13.7,23.1c16.6,23.7,24.2,47.7,22.6,71.7c0.8,13.7-1.1,27.3-5.6,40.3
			c-6.4,18.8-17.4,34-27.8,45.4c-9.2,10.1-24.9,10.9-35.1,1.6c-0.1-0.1-0.3-0.2-0.4-0.4c-0.6-0.5-1.1-1.1-1.6-1.7l-0.2-0.2
			c-8.3-9.6-8.1-23.9,0.5-33.2c6.9-7.6,13.7-17,17.3-27.7c2.7-7.9,3.6-16.3,2.7-24.6c1.7-13.4-2.7-27.4-13.3-42.5
			c-7.7-10.8-14.3-22.4-19.7-34.5L185.3,570.2z"/>
		<path class="st4" d="M199,593.3c16.6,23.7,24.2,47.7,22.6,71.7c0.8,13.7-1.1,27.3-5.6,40.3c-6.4,18.8-17.4,34-27.8,45.4
			c-9.2,10.1-24.9,10.9-35.1,1.6c-0.1-0.1-0.3-0.2-0.4-0.4c-0.6-0.5-1.1-1.1-1.6-1.7l-0.2-0.2c-8.3-9.6-8.1-23.9,0.5-33.2
			c6.9-7.6,13.7-17,17.3-27.7c2.7-7.9,3.6-16.3,2.7-24.6c1.7-13.4-2.7-27.4-13.3-42.5"/>
		<path class="st10" d="M722.1,841.8c0.8,13.7-1.1,27.3-5.6,40.3c-6.4,18.8-17.4,34-27.8,45.4c-9.2,10.1-24.9,10.9-35.1,1.6
			c-0.1-0.1-0.3-0.2-0.4-0.4c-0.6-0.5-1.1-1.1-1.7-1.7l-0.2-0.2c-8.3-9.6-8.1-23.9,0.5-33.2c6.9-7.6,13.7-17,17.3-27.7
			c2.7-7.9,3.6-16.3,2.7-24.6c1.7-13.4-2.7-27.4-13.3-42.5c-19.4-27.7-29.8-54.5-31.2-80.3c-0.7-13.7,1.2-27.3,5.6-40.3
			c6.4-18.8,17.4-34,27.8-45.5c9.2-10.1,24.9-10.9,35.1-1.6c0.1,0.1,0.3,0.2,0.4,0.4l0,0c0.6,0.5,1.1,1.1,1.6,1.7l0.2,0.2
			c8.3,9.6,8.1,23.9-0.5,33.2c-6.9,7.6-13.7,17-17.3,27.7c-2.7,7.9-3.6,16.3-2.7,24.6c1.5,15.5,8.8,32.4,21.9,51.1
			C716.1,793.8,723.7,817.8,722.1,841.8z"/>
		<path class="st13" d="M685.8,747c3.9,8.1,8.5,15.8,13.7,23.1c16.6,23.7,24.2,47.7,22.6,71.7c0.8,13.7-1.1,27.3-5.6,40.3
			c-6.4,18.8-17.4,34-27.8,45.4c-9.2,10.1-24.9,10.9-35.1,1.6c-0.1-0.1-0.3-0.2-0.4-0.4c-0.6-0.5-1.1-1.1-1.7-1.7l-0.2-0.2
			c-8.3-9.6-8.1-23.9,0.5-33.2c6.9-7.6,13.7-17,17.3-27.7c2.7-7.9,3.6-16.3,2.7-24.6c1.7-13.4-2.7-27.4-13.3-42.5
			c-7.7-10.8-14.3-22.4-19.7-34.5L685.8,747z"/>
		<path class="st4" d="M699.5,770.1c16.6,23.7,24.2,47.7,22.6,71.7c0.8,13.7-1.1,27.3-5.6,40.3c-6.4,18.8-17.4,34-27.8,45.4
			c-9.2,10.1-24.9,10.9-35.1,1.6c-0.1-0.1-0.3-0.2-0.4-0.4c-0.6-0.5-1.1-1.1-1.7-1.7l-0.2-0.2c-8.3-9.6-8.1-23.9,0.5-33.2
			c6.9-7.6,13.7-17,17.3-27.7c2.7-7.9,3.6-16.3,2.7-24.6c1.7-13.4-2.7-27.4-13.3-42.5"/>
		<path class="st10" d="M218.6,972.3c0,4.5-1.1,9-3.3,13c-0.8,1.3-1.7,2.7-2.6,4c-36.3,53.1-108.9,66.7-162,30.4
			c-53.1-36.3-66.7-108.9-30.4-162s108.9-66.7,162-30.4c11.9,8.2,22.2,18.4,30.4,30.4c0.9,1.3,1.8,2.6,2.6,4
			c7.2,13.4,2.1,30.1-11.3,37.2c-11.9,6.4-26.7,3.2-34.9-7.6c-0.7-1.1-1.4-2.1-2.1-3.2c-19.5-27.9-58-34.7-85.9-15.2
			c-27.9,19.5-34.7,58-15.2,85.9s58,34.7,85.9,15.2c5.9-4.1,11-9.3,15.2-15.2c0.7-1,1.4-2.1,2.1-3.2c9.2-12.1,26.5-14.4,38.5-5.3
			C214.5,955.7,218.5,963.8,218.6,972.3L218.6,972.3z"/>
		<path class="st14" d="M83.2,988.6c0,15.1-12.3,27.4-27.4,27.4c-6.8,0-13.3-2.5-18.3-7c-0.2-0.2-0.4-0.4-0.6-0.6
			c-47-44-49.4-117.7-5.4-164.7c1.1-1.2,2.3-2.4,3.4-3.5c0.3-0.3,0.7-0.6,1-1l0.2-0.2c11.3-10.1,28.6-9.2,38.8,2.1
			c9.6,10.7,9.3,27-0.7,37.4c-0.4,0.4-0.8,0.8-1.2,1.2c0,0,0,0-0.1,0c-24.1,24.1-24,63.1,0.1,87.2c0.3,0.3,0.6,0.6,0.9,0.9
			c0.4,0.4,0.9,0.8,1.3,1.2l0,0C80.4,974.3,83.3,981.3,83.2,988.6z"/>
		<path class="st7" d="M218.6,874.6c0,15.2-12.3,27.5-27.5,27.5c-8.6,0-16.7-4-21.9-10.9c-0.7-1.1-1.4-2.1-2.1-3.2
			c-19.5-27.9-58-34.7-85.9-15.2c-2.5,1.7-4.9,3.7-7.1,5.8c-0.4,0.4-0.8,0.8-1.2,1.2c0,0,0,0-0.1,0c-11.2,10.2-28.6,9.3-38.8-2
			c-9.7-10.8-9.4-27.2,0.8-37.6l1-1l0.2-0.2c46.5-44.5,120.3-42.8,164.7,3.7c4.4,4.6,8.4,9.5,11.9,14.7c0.9,1.3,1.8,2.6,2.6,4
			C217.5,865.6,218.6,870.1,218.6,874.6z"/>
		<circle class="st1" cx="55.8" cy="988.6" r="27.4"/>
		<circle class="st9" cx="54.5" cy="859.5" r="27.4"/>
		<path class="st10" d="M652.7,334.1c0,4.5,1.1,9,3.3,13c0.8,1.3,1.7,2.6,2.6,4c36.3,53.1,108.9,66.7,162,30.4s66.7-108.9,30.4-162
			c-36.3-53.1-108.9-66.7-162-30.4c-11.9,8.2-22.2,18.5-30.4,30.4c-0.9,1.3-1.8,2.6-2.6,4c-7.2,13.4-2.2,30,11.1,37.3
			c11.9,6.4,26.8,3.2,35-7.6c0.7-1.1,1.3-2.1,2.1-3.2c19.5-27.9,58-34.7,85.9-15.2s34.7,58,15.2,85.9c-19.5,27.9-58,34.7-85.9,15.2
			c-5.9-4.1-11.1-9.3-15.2-15.2c-0.7-1-1.4-2.1-2.1-3.2c-9.2-12.1-26.5-14.4-38.5-5.3C656.8,317.5,652.7,325.6,652.7,334.1
			L652.7,334.1z"/>
		<path class="st3" d="M788.1,350.5c0,15.1,12.3,27.4,27.4,27.4c6.7,0,13.3-2.5,18.3-7c0.2-0.2,0.4-0.4,0.6-0.6
			c47-44,49.4-117.7,5.4-164.7c-1.1-1.2-2.2-2.4-3.4-3.5c-0.3-0.3-0.7-0.6-1-1l-0.2-0.1c-11.2-10.2-28.5-9.4-38.8,1.8
			c-9.8,10.7-9.5,27.3,0.7,37.7c0.4,0.4,0.8,0.8,1.2,1.2c0,0,0,0,0.1,0c24.1,24.1,24,63.1-0.1,87.2c-0.3,0.3-0.6,0.6-0.9,0.9
			c-0.4,0.4-0.9,0.8-1.3,1.2l0,0C790.9,336.1,788,343.2,788.1,350.5z"/>
		<path class="st7" d="M652.7,236.5c0,15.2,12.3,27.5,27.5,27.5c8.6,0,16.7-4,21.9-10.9c0.7-1.1,1.3-2.1,2.1-3.2
			c19.5-27.9,58-34.7,85.9-15.2c2.5,1.7,4.9,3.7,7.1,5.8c0.4,0.4,0.8,0.8,1.2,1.2c0,0,0,0,0.1,0c11.2,10.2,28.6,9.3,38.8-2
			c9.7-10.8,9.4-27.2-0.8-37.6c-0.3-0.3-0.7-0.6-1-1l-0.2-0.1c-46.5-44.4-120.3-42.8-164.7,3.7c-4.4,4.6-8.4,9.5-12,14.8
			c-0.9,1.3-1.8,2.6-2.6,4C653.9,227.5,652.7,231.9,652.7,236.5z"/>
		<circle class="st1" cx="815.5" cy="350.5" r="27.4"/>
		<circle class="st9" cx="816.8" cy="221.4" r="27.4"/>
		<path class="st10" d="M2402.8,432.7c0,4.5,1.1,9,3.3,13c0.8,1.3,1.7,2.7,2.6,4c36.3,53.1,108.9,66.7,162,30.4
			c53.1-36.3,66.7-108.9,30.4-162s-108.9-66.7-162-30.4c-11.9,8.2-22.2,18.4-30.4,30.4c-0.9,1.3-1.8,2.6-2.6,4
			c-7.2,13.4-2.1,30.1,11.3,37.2c11.9,6.4,26.7,3.2,34.9-7.6c0.7-1.1,1.4-2.1,2.1-3.2c19.5-27.9,58-34.7,85.9-15.2
			c27.9,19.5,34.7,58,15.2,85.9c-19.5,27.9-58,34.7-85.9,15.2c-5.9-4.1-11-9.3-15.2-15.2c-0.7-1-1.4-2.1-2.1-3.2
			c-9.2-12.1-26.5-14.4-38.5-5.3C2406.8,416.1,2402.8,424.2,2402.8,432.7L2402.8,432.7z"/>
		<path class="st3" d="M2538.1,449.1c0,15.1,12.3,27.4,27.4,27.4c6.8,0,13.3-2.5,18.3-7c0.2-0.2,0.4-0.4,0.6-0.6
			c47-44,49.4-117.7,5.4-164.7c-1.1-1.2-2.3-2.4-3.4-3.5c-0.3-0.3-0.6-0.6-1-1l-0.2-0.1c-11.3-10.1-28.6-9.2-38.8,2.1
			c-9.6,10.7-9.3,27,0.7,37.4c0.4,0.4,0.8,0.8,1.2,1.2c0,0,0,0,0.1,0c24.1,24.1,24,63.1-0.1,87.2c-0.3,0.3-0.6,0.6-0.9,0.9
			c-0.4,0.4-0.9,0.8-1.3,1.2l0,0C2540.9,434.7,2538.1,441.8,2538.1,449.1z"/>
		<path class="st7" d="M2402.8,335.1c0,15.2,12.3,27.5,27.5,27.5c8.6,0,16.7-4,21.9-10.9c0.7-1.1,1.4-2.1,2.1-3.2
			c19.5-27.9,58-34.7,85.9-15.2c2.5,1.7,4.9,3.7,7.1,5.8c0.4,0.4,0.8,0.8,1.2,1.2c0,0,0,0,0.1,0c11.2,10.2,28.6,9.3,38.8-2
			c9.7-10.8,9.4-27.2-0.8-37.6l-1-1l-0.2-0.1c-46.5-44.5-120.3-42.8-164.7,3.7c-4.4,4.6-8.4,9.5-11.9,14.7c-0.9,1.3-1.8,2.6-2.6,4
			C2403.9,326,2402.8,330.5,2402.8,335.1z"/>
		<circle class="st1" cx="2565.5" cy="449.1" r="27.4"/>
		<circle class="st9" cx="2566.9" cy="320" r="27.4"/>
		<path class="st7" d="M1138.4,1567.6c0,15.2-12.4,27.5-27.6,27.5c-8.6,0-16.6-4-21.8-10.8c-0.7-1.1-1.3-2.1-2.1-3.2
			c-19.5-27.9-57.9-34.7-85.9-15.2c-2.5,1.8-4.9,3.7-7.1,5.8c-0.4,0.4-0.8,0.8-1.2,1.2c0,0,0,0-0.1,0c-11.2,10.2-28.6,9.3-38.8-2
			c-9.7-10.8-9.4-27.2,0.8-37.6l1-1l0.2-0.2c46.5-44.5,120.3-42.8,164.7,3.7c4.4,4.6,8.4,9.5,11.9,14.7c0.9,1.3,1.8,2.6,2.6,4
			C1137.3,1558.5,1138.4,1563,1138.4,1567.6z"/>
		<path class="st7" d="M2785.8,701.8c0,15.2-12.3,27.5-27.5,27.5c-8.6,0-16.7-4-21.9-10.9c-0.7-1.1-1.4-2.1-2.1-3.2
			c-19.5-27.9-57.9-34.7-85.9-15.2c-2.5,1.8-4.9,3.7-7.1,5.8c-0.4,0.4-0.8,0.8-1.2,1.2c0,0,0,0-0.1,0c-11.2,10.2-28.6,9.3-38.8-2
			c-9.7-10.8-9.4-27.2,0.8-37.6l1-1l0.2-0.2c46.5-44.5,120.3-42.8,164.7,3.7c4.4,4.6,8.4,9.5,11.9,14.7c0.9,1.3,1.8,2.6,2.6,4
			C2784.7,692.7,2785.8,697.2,2785.8,701.8z"/>
		<path class="st1" d="M2307.2,895.8c0,15.2-12.3,27.5-27.5,27.5c-8.6,0-16.7-4-21.9-10.9c-0.7-1.1-1.4-2.1-2.1-3.2
			c-19.5-27.9-57.9-34.7-85.9-15.2c-2.5,1.8-4.9,3.7-7.1,5.8c-0.4,0.4-0.8,0.8-1.2,1.2h-0.1c-11.2,10.2-28.6,9.3-38.8-2
			c-9.7-10.8-9.4-27.2,0.8-37.6c0.3-0.3,0.7-0.6,1-1l0.2-0.2c46.5-44.5,120.2-42.8,164.7,3.7c4.4,4.6,8.4,9.6,12,14.8
			c0.9,1.3,1.8,2.6,2.6,4C2306.1,886.8,2307.2,891.2,2307.2,895.8z"/>
		<path class="st1" d="M451.2,920.8c0,15.2-12.3,27.5-27.5,27.5c-8.6,0-16.7-4-21.9-10.9c-0.7-1.1-1.4-2.1-2.1-3.2
			c-19.5-27.9-57.9-34.7-85.9-15.2c-2.5,1.8-4.9,3.7-7.1,5.8c-0.4,0.4-0.8,0.8-1.2,1.2c0,0,0,0-0.1,0c-11.2,10.2-28.6,9.3-38.8-2
			c-9.7-10.8-9.4-27.2,0.8-37.6l1-1l0.2-0.2c46.5-44.5,120.3-42.8,164.7,3.7c4.4,4.6,8.4,9.5,11.9,14.7c0.9,1.3,1.8,2.6,2.6,4
			C450.1,911.8,451.2,916.3,451.2,920.8z"/>
		<path class="st5" d="M1979.6,1478.1c11.2,11.2,11.2,29.3,0,40.5c-6.3,6.3-15.3,9.3-24.1,8.1c-1.3-0.3-2.6-0.6-3.9-0.8
			c-34.9-6.2-68.2,17.1-74.4,52c-0.6,3.1-0.9,6.3-1,9.5c0,0.6,0,1.2,0,1.7c0,0,0,0.1,0,0.1c-1.1,15.7-14.7,27.6-30.4,26.5
			c-14.6-1-26.1-13-26.6-27.7c0-0.5,0-1,0-1.4c0-0.1,0-0.2,0-0.2c1.5-66.9,57-119.9,123.9-118.4c6.6,0.1,13.1,0.8,19.6,2
			c1.6,0.3,3.2,0.6,4.8,1C1972.1,1472.3,1976.3,1474.8,1979.6,1478.1z"/>
		<path class="st5" d="M185.3,1248c11.2,11.2,11.2,29.3,0,40.5c-6.3,6.3-15.3,9.3-24.1,8.1c-1.3-0.3-2.6-0.6-3.9-0.8
			c-34.9-6.2-68.2,17.1-74.3,52c-0.5,3.1-0.9,6.2-1,9.4c0,0.6,0,1.1,0,1.7c0,0,0,0.1,0,0.1c-1.1,15.7-14.7,27.6-30.4,26.5
			c-14.6-1-26.1-13-26.6-27.7c0-0.5,0-0.9,0-1.4c0-0.1,0-0.2,0-0.2c1.5-66.9,57-120,123.9-118.5c6.6,0.1,13.2,0.8,19.6,2
			c1.6,0.3,3.2,0.6,4.8,1C177.9,1242.2,182,1244.6,185.3,1248z"/>
	</g>
</g>
</svg>
