<?xml version="1.0" encoding="utf-8"?>
<!-- Generator: Adobe Illustrator 24.1.1, SVG Export Plug-In . SVG Version: 6.00 Build 0)  -->
<svg version="1.1" id="Capa_1" xmlns="http://www.w3.org/2000/svg" xmlns:xlink="http://www.w3.org/1999/xlink" x="0px" y="0px"
	 viewBox="0 0 2626.6 1618.5" style="enable-background:new 0 0 2626.6 1618.5;" xml:space="preserve">
<style type="text/css">
	.st0{fill:#D20746;}
	.st1{fill:#A3C62C;}
	.st2{fill:#5EB9CF;}
	.st3{fill:#FF3947;}
	.st4{fill:#F44D71;}
	.st5{fill:#F4E91E;}
	.st6{fill:#BA3498;}
	.st7{fill:#56B1CA;}
	.st8{fill:#D40044;}
	.st9{fill:#A54583;}
	.st10{fill:#6DB3D2;}
	.st11{fill:#F87800;}
	.st12{fill:#B2328F;}
	.st13{fill:#5F569A;}
	.st14{fill:#F0DC37;}
</style>
<g id="Capa_2_1_">
	<g id="Capa_2-2">
		<path class="st0" d="M950.4,194.2L950.4,194.2c11.3,0,20.5,9.2,20.5,20.5v116.1c0,11.3-9.2,20.5-20.5,20.5l0,0
			c-11.3,0-20.5-9.2-20.5-20.5V214.7C929.9,203.4,939.1,194.2,950.4,194.2z"/>
		<path class="st0" d="M689.5,1096.4L689.5,1096.4c11.3,0,20.5,9.2,20.5,20.5V1233c0,11.3-9.2,20.5-20.5,20.5l0,0
			c-11.3,0-20.5-9.2-20.5-20.5v-116.1C669.1,1105.5,678.2,1096.4,689.5,1096.4z"/>
		<path class="st0" d="M2405.5,541.3L2405.5,541.3c11.3,0,20.5,9.2,20.5,20.5v116.1c0,11.3-9.2,20.5-20.5,20.5l0,0
			c-11.3,0-20.5-9.2-20.5-20.5V561.8C2385,550.5,2394.2,541.3,2405.5,541.3z"/>
		<path class="st0" d="M324.4,560.8L324.4,560.8c11.3,0,20.5,9.2,20.5,20.5v116.1c0,11.3-9.2,20.5-20.5,20.5l0,0
			c-11.3,0-20.5-9.2-20.5-20.5V581.3C303.9,570,313.1,560.8,324.4,560.8z"/>
		<path class="st1" d="M667.9,670.7L667.9,670.7c11.3,0,20.5,9.2,20.5,20.5v116.1c0,11.3-9.2,20.5-20.5,20.5l0,0
			c-11.3,0-20.5-9.2-20.5-20.5V691.2C647.4,679.9,656.6,670.7,667.9,670.7z"/>
		<path class="st1" d="M2165.5,429.6L2165.5,429.6c11.3,0,20.5,9.2,20.5,20.5v116.1c0,11.3-9.2,20.5-20.5,20.5l0,0
			c-11.3,0-20.5-9.2-20.5-20.5V450.1C2145,438.8,2154.2,429.6,2165.5,429.6z"/>
		<path class="st1" d="M2310,1398.7L2310,1398.7c11.3,0,20.5,9.2,20.5,20.5v116.1c0,11.3-9.2,20.5-20.5,20.5l0,0
			c-11.3,0-20.5-9.2-20.5-20.5v-116.1C2289.5,1407.9,2298.7,1398.7,2310,1398.7z"/>
		<path class="st2" d="M2273.5,699.5L2273.5,699.5c0,11.3-9.2,20.5-20.5,20.5h-175c-11.3,0-20.5-9.2-20.5-20.5l0,0
			c0-11.3,9.2-20.5,20.5-20.5h175C2264.4,679,2273.5,688.2,2273.5,699.5z"/>
		<path class="st2" d="M779.6,600.3L779.6,600.3c0,11.3-6.7,20.5-14.9,20.5H637c-8.2,0-14.9-9.2-14.9-20.5l0,0
			c0-11.3,6.7-20.5,14.9-20.5h127.6C772.9,579.8,779.6,589,779.6,600.3z"/>
		<path class="st3" d="M559.5,253.1L559.5,253.1c0,11.3-9.2,20.5-20.5,20.5H364c-11.3,0-20.5-9.2-20.5-20.5l0,0
			c0-11.3,9.2-20.5,20.5-20.5h175.1C550.4,232.6,559.5,241.8,559.5,253.1z"/>
		<path class="st4" d="M2264.6,1300.4L2264.6,1300.4c0,11.3-9.2,20.5-20.5,20.5H2069c-11.3,0-20.5-9.2-20.5-20.5l0,0
			c0-11.3,9.2-20.5,20.5-20.5h175.1C2255.5,1280,2264.6,1289.1,2264.6,1300.4z"/>
		<path class="st4" d="M505.6,1525.6L505.6,1525.6c0,11.3-9.2,20.5-20.5,20.5h-175c-11.3,0-20.5-9.2-20.5-20.5l0,0
			c0-11.3,9.2-20.5,20.5-20.5h175.1C496.5,1505.2,505.6,1514.3,505.6,1525.6z"/>
		<path class="st5" d="M1121.6,119L1121.6,119c11.3,0,20.5,9.2,20.5,20.5v223.3c0,11.3-9.2,20.5-20.5,20.5l0,0
			c-11.3,0-20.5-9.2-20.5-20.5V139.5C1101.1,128.2,1110.3,119,1121.6,119z"/>
		<path class="st5" d="M2330.4,336L2330.4,336c11.3,0,20.5,9.2,20.5,20.5v223.3c0,11.3-9.2,20.5-20.5,20.5l0,0
			c-11.3,0-20.5-9.2-20.5-20.5V356.5C2310,345.2,2319.1,336,2330.4,336z"/>
		<path class="st5" d="M522.4,602.6L522.4,602.6c11.3,0,20.5,9.2,20.5,20.5v223.3c0,11.3-9.2,20.5-20.5,20.5l0,0
			c-11.3,0-20.5-9.2-20.5-20.5V623.1C501.8,611.8,511,602.6,522.4,602.6z"/>
		<path class="st5" d="M1793.2,539.9L1793.2,539.9c11.3,0,20.5,9.2,20.5,20.5v223.3c0,11.3-9.2,20.5-20.5,20.5l0,0
			c-11.3,0-20.5-9.2-20.5-20.5V560.4C1772.7,549,1781.9,539.9,1793.2,539.9z"/>
		<path class="st3" d="M152,607.1L152,607.1c11.3,0,20.5,9.2,20.5,20.5v223.3c0,11.3-9.2,20.5-20.5,20.5l0,0
			c-11.3,0-20.5-9.2-20.5-20.5V627.6C131.6,616.3,140.7,607.1,152,607.1z"/>
		<path class="st5" d="M1973.1,1036.2L1973.1,1036.2c11.3,0,20.5,9.2,20.5,20.5V1280c0,11.3-9.2,20.5-20.5,20.5l0,0
			c-11.3,0-20.5-9.2-20.5-20.5v-223.3C1952.6,1045.4,1961.7,1036.2,1973.1,1036.2z"/>
		<path class="st6" d="M1407.4,1360.5L1407.4,1360.5c0,11.3-9.2,20.5-20.5,20.5h-100c-11.3,0-20.5-9.2-20.5-20.5l0,0
			c0-11.3,9.2-20.5,20.5-20.5h100C1398.3,1340.1,1407.4,1349.2,1407.4,1360.5z"/>
		<path class="st1" d="M1569.5,270.5L1569.5,270.5c11.3,0,20.5,9.2,20.5,20.5v112.4c0,11.3-9.2,20.5-20.5,20.5l0,0
			c-11.3,0-20.5-9.2-20.5-20.5V290.9C1549.1,279.6,1558.2,270.5,1569.5,270.5z"/>
		<path class="st2" d="M1645.6,131.2L1645.6,131.2c11.3,0,20.5,9.2,20.5,20.5v112.4c0,11.3-9.2,20.5-20.5,20.5l0,0
			c-11.3,0-20.5-9.2-20.5-20.5V151.7C1625.2,140.3,1634.3,131.2,1645.6,131.2z"/>
		<path class="st5" d="M1778.5,264L1778.5,264c0,11.3-9.2,20.5-20.5,20.5h-112.4c-11.3,0-20.5-9.2-20.5-20.5l0,0
			c0-11.3,9.2-20.5,20.5-20.5H1758C1769.3,243.6,1778.5,252.7,1778.5,264z"/>
		<path class="st1" d="M1666.1,243.6v20.5c0,11.3-9.2,20.5-20.5,20.5s-20.5-9.2-20.5-20.5s9.2-20.5,20.5-20.5l0,0H1666.1z"/>
		<path class="st1" d="M1666.1,243.6v20.5c0,11.3-9.2,20.5-20.5,20.5s-20.5-9.2-20.5-20.5s9.2-20.5,20.5-20.5l0,0H1666.1z"/>
		<path class="st2" d="M2465.3,715.3L2465.3,715.3c11.3,0,20.5,9.2,20.5,20.5v112.4c0,11.3-9.2,20.5-20.5,20.5l0,0
			c-11.3,0-20.5-9.2-20.5-20.5V735.7C2444.9,724.4,2454,715.3,2465.3,715.3z"/>
		<path class="st5" d="M2598.2,848.1L2598.2,848.1c0,11.3-9.2,20.5-20.5,20.5h-112.4c-11.3,0-20.5-9.2-20.5-20.5l0,0
			c0-11.3,9.2-20.5,20.5-20.5h112.4C2589.1,827.6,2598.2,836.8,2598.2,848.1z"/>
		<path class="st1" d="M2485.8,827.6v20.5c0,11.3-9.2,20.5-20.5,20.5s-20.5-9.2-20.5-20.5s9.2-20.5,20.5-20.5l0,0H2485.8z"/>
		<path class="st1" d="M2485.8,827.6v20.5c0,11.3-9.2,20.5-20.5,20.5s-20.5-9.2-20.5-20.5s9.2-20.5,20.5-20.5l0,0H2485.8z"/>
		<path class="st2" d="M431.1,1242.6L431.1,1242.6c11.3,0,20.5,9.2,20.5,20.5v112.4c0,11.3-9.2,20.5-20.5,20.5l0,0
			c-11.3,0-20.5-9.2-20.5-20.5v-112.4C410.6,1251.7,419.8,1242.6,431.1,1242.6z"/>
		<path class="st5" d="M563.9,1375.4L563.9,1375.4c0,11.3-9.2,20.5-20.5,20.5H431.1c-11.3,0-20.5-9.2-20.5-20.5l0,0
			c0-11.3,9.2-20.5,20.5-20.5h112.4C554.8,1355,563.9,1364.1,563.9,1375.4z"/>
		<path class="st1" d="M451.5,1355v20.5c0,11.3-9.2,20.5-20.5,20.5s-20.5-9.2-20.5-20.5s9.2-20.5,20.5-20.5l0,0H451.5z"/>
		<path class="st1" d="M451.5,1355v20.5c0,11.3-9.2,20.5-20.5,20.5s-20.5-9.2-20.5-20.5s9.2-20.5,20.5-20.5l0,0H451.5z"/>
		<path class="st2" d="M447.6,414L447.6,414c11.3,0,20.5,9.2,20.5,20.5v112.4c0,11.3-9.2,20.5-20.5,20.5l0,0
			c-11.3,0-20.5-9.2-20.5-20.5V434.5C427.1,423.2,436.2,414,447.6,414z"/>
		<path class="st5" d="M580.4,546.8L580.4,546.8c0,11.3-9.2,20.5-20.5,20.5H447.5c-11.3,0-20.5-9.2-20.5-20.5l0,0
			c0-11.3,9.2-20.5,20.5-20.5H560C571.3,526.4,580.4,535.5,580.4,546.8z"/>
		<path class="st1" d="M468,526.4v20.5c0,11.3-9.2,20.5-20.5,20.5s-20.5-9.2-20.5-20.5s9.2-20.5,20.5-20.5H468z"/>
		<path class="st1" d="M468,526.4v20.5c0,11.3-9.2,20.5-20.5,20.5s-20.5-9.2-20.5-20.5s9.2-20.5,20.5-20.5H468z"/>
		<path class="st7" d="M1252.4,231.3L1252.4,231.3c10.6,3.9,16.1,15.6,12.3,26.2L1222,375.4c-3.9,10.6-15.6,16.1-26.2,12.3l0,0
			c-10.6-3.9-16.1-15.6-12.3-26.2l42.7-117.9C1230,232.9,1241.7,227.4,1252.4,231.3z"/>
		<path class="st8" d="M1295.1,387.6L1295.1,387.6c-10.6,3.9-22.4-1.7-26.2-12.3l-42.7-117.9c-3.9-10.6,1.7-22.4,12.3-26.2l0,0
			c10.6-3.9,22.4,1.7,26.2,12.3l42.7,117.9C1311.1,372,1305.7,383.7,1295.1,387.6z"/>
		<path class="st9" d="M1265.9,250.6c0,2.3-0.4,4.7-1.2,7l-19.4,53l-19.4-53c-0.8-2.2-1.2-4.5-1.2-6.9c0-5.7,2.4-11.2,6.7-15.1
			l0.5-0.4c0.2-0.1,0.3-0.3,0.6-0.4c3.2-2.6,7.2-4.2,11.4-4.5l0.7-0.1c0.6,0,1.1,0,1.7,0c0.2,0,0.5,0,0.7,0.1
			c3.9,0.3,7.7,1.7,10.8,4l0.6,0.4c0.3,0.3,0.7,0.6,1,0.9C1263.4,239.4,1265.9,244.9,1265.9,250.6z"/>
		<path class="st7" d="M2377,1126.1L2377,1126.1c10.6,3.9,16.1,15.6,12.3,26.2l-42.7,117.9c-3.9,10.6-15.6,16.1-26.2,12.3l0,0
			c-10.6-3.9-16.1-15.6-12.3-26.2l42.7-117.9C2354.6,1127.8,2366.4,1122.3,2377,1126.1z"/>
		<path class="st8" d="M2419.8,1282.5L2419.8,1282.5c-10.6,3.9-22.4-1.7-26.2-12.3l-42.7-117.9c-3.9-10.6,1.7-22.4,12.3-26.2l0,0
			c10.6-3.9,22.4,1.7,26.2,12.3l42.7,117.9C2435.8,1266.9,2430.4,1278.6,2419.8,1282.5z"/>
		<path class="st9" d="M2390.6,1145.5c0,2.3-0.4,4.7-1.2,7l-19.4,53l-19.4-53c-0.8-2.2-1.2-4.5-1.2-6.9c0-5.7,2.4-11.2,6.7-15.1
			l0.5-0.4c0.2-0.1,0.3-0.3,0.6-0.4c3.2-2.6,7.2-4.2,11.4-4.5l0.7-0.1c0.6,0,1.1,0,1.7,0c0.2,0,0.5,0,0.7,0.1
			c3.9,0.3,7.7,1.7,10.8,4l0.6,0.4c0.3,0.3,0.7,0.6,1,0.9C2388.1,1134.3,2390.6,1139.7,2390.6,1145.5z"/>
		<path class="st7" d="M619.3,167.3L619.3,167.3c10.6-3.9,22.4,1.7,26.2,12.3l42.7,117.9c3.9,10.6-1.7,22.4-12.3,26.2l0,0
			c-10.6,3.9-22.4-1.7-26.2-12.3L607,193.5C603.2,182.9,608.7,171.1,619.3,167.3z"/>
		<path class="st8" d="M662,323.6L662,323.6c-10.6-3.9-16.1-15.6-12.3-26.2l42.7-117.9c3.9-10.6,15.6-16.1,26.2-12.3l0,0
			c10.6,3.9,16.1,15.6,12.3,26.2l-42.7,117.9C684.4,321.9,672.7,327.5,662,323.6z"/>
		<path class="st9" d="M689.7,304.2c0-2.3-0.4-4.7-1.2-7l-19.4-53l-19.4,53c-0.8,2.2-1.2,4.5-1.2,7c0,5.7,2.4,11.2,6.7,15.1l0.5,0.4
			c0.2,0.1,0.3,0.3,0.6,0.4c3.2,2.6,7.2,4.2,11.4,4.5l0.7,0.1c0.6,0,1.1,0,1.7,0c0.2,0,0.5,0,0.7-0.1c3.9-0.3,7.7-1.7,10.8-4
			c0.2-0.1,0.3-0.3,0.6-0.4c0.3-0.3,0.7-0.6,1-0.9C687.2,315.5,689.7,310,689.7,304.2z"/>
		<path class="st7" d="M1983.5,311.1L1983.5,311.1c10.6-3.9,22.4,1.7,26.2,12.3l42.7,117.9c3.9,10.6-1.7,22.4-12.3,26.2l0,0
			c-10.6,3.9-22.4-1.7-26.2-12.3l-42.7-117.9C1967.4,326.6,1972.9,314.9,1983.5,311.1z"/>
		<path class="st8" d="M2026.2,467.4L2026.2,467.4c-10.6-3.9-16.1-15.6-12.3-26.2l42.7-117.9c3.9-10.6,15.6-16.1,26.2-12.3l0,0
			c10.6,3.9,16.1,15.6,12.3,26.2l-42.7,117.9C2048.6,465.7,2036.8,471.2,2026.2,467.4z"/>
		<path class="st9" d="M2053.9,447.9c0-2.3-0.4-4.7-1.2-7l-19.4-53l-19.4,53c-0.8,2.2-1.2,4.5-1.2,7c0,5.7,2.4,11.2,6.7,15.1
			l0.5,0.4l0.6,0.4c3.2,2.6,7.2,4.2,11.4,4.5l0.7,0.1c0.6,0,1.1,0,1.7,0c0.2,0,0.5,0,0.7-0.1c3.9-0.3,7.7-1.7,10.8-4
			c0.2-0.1,0.3-0.3,0.6-0.4c0.3-0.3,0.7-0.6,1-0.9C2051.4,459.2,2053.8,453.7,2053.9,447.9z"/>
		<path class="st7" d="M2099.9,1429.3L2099.9,1429.3c10.6-3.9,22.4,1.7,26.2,12.3l42.7,117.9c3.9,10.6-1.7,22.4-12.3,26.2l0,0
			c-10.6,3.9-22.4-1.7-26.2-12.3l-42.7-117.9C2083.8,1444.9,2089.3,1433.1,2099.9,1429.3z"/>
		<path class="st8" d="M2142.6,1585.6L2142.6,1585.6c-10.6-3.9-16.1-15.6-12.3-26.2l42.7-117.9c3.9-10.6,15.6-16.1,26.2-12.3l0,0
			c10.6,3.9,16.1,15.6,12.3,26.2l-42.7,117.9C2164.9,1583.9,2153.2,1589.5,2142.6,1585.6z"/>
		<path class="st9" d="M2170.3,1566.2c0-2.3-0.4-4.7-1.2-7l-19.4-53l-19.4,53c-0.8,2.2-1.2,4.5-1.2,7c0,5.7,2.4,11.2,6.7,15.1
			l0.5,0.4l0.6,0.4c3.2,2.6,7.2,4.2,11.4,4.5l0.7,0.1c0.6,0,1.1,0,1.7,0c0.2,0,0.5,0,0.7-0.1c3.9-0.3,7.7-1.7,10.8-4
			c0.2-0.1,0.3-0.3,0.6-0.4c0.3-0.3,0.7-0.6,1-0.9C2167.8,1577.5,2170.2,1571.9,2170.3,1566.2z"/>
		<path class="st7" d="M1339.7,253.4L1339.7,253.4c3.9-10.6,15.6-16.1,26.2-12.3l117.9,42.7c10.6,3.9,16.1,15.6,12.3,26.2l0,0
			c-3.9,10.6-15.6,16.1-26.2,12.3L1352,279.6C1341.3,275.8,1335.9,264.1,1339.7,253.4z"/>
		<path class="st5" d="M1494.9,210.6L1494.9,210.6c3.9,10.6-1.7,22.3-12.3,26.2l-117.8,42.6c-10.6,3.9-22.3-1.7-26.2-12.3l0,0
			c-3.9-10.6,1.7-22.3,12.3-26.2l117.9-42.6C1479.3,194.5,1491,200,1494.9,210.6z"/>
		<path class="st1" d="M1359.1,239.8c2.3,0,4.7,0.4,7,1.2l53,19.4l-53,19.4c-2.2,0.8-4.5,1.2-6.9,1.2c-5.7,0-11.2-2.4-15.1-6.7
			l-0.4-0.5c-0.1-0.2-0.3-0.3-0.4-0.6c-2.6-3.2-4.2-7.2-4.5-11.4c0-0.3,0-0.5-0.1-0.7c0-0.6,0-1.1,0-1.7c0-0.2,0-0.5,0.1-0.7
			c0.3-3.9,1.7-7.7,4-10.8l0.4-0.6c0.3-0.3,0.6-0.7,0.9-1C1347.8,242.3,1353.3,239.8,1359.1,239.8z"/>
		<path class="st5" d="M1339.7,339.1L1339.7,339.1c3.9-10.6,15.6-16.1,26.2-12.3l117.9,42.7c10.6,3.9,16.1,15.6,12.3,26.2l0,0
			c-3.9,10.6-15.6,16.1-26.2,12.3L1352,365.3C1341.3,361.5,1335.9,349.8,1339.7,339.1z"/>
		<path class="st8" d="M1496.1,296.4L1496.1,296.4c3.9,10.6-1.7,22.4-12.3,26.2l-117.9,42.7c-10.6,3.9-22.4-1.7-26.2-12.3l0,0
			c-3.9-10.6,1.7-22.4,12.3-26.2l117.9-42.7C1480.4,280.3,1492.2,285.8,1496.1,296.4z"/>
		<path class="st3" d="M1359.1,325.5c2.3,0,4.7,0.4,7,1.2l53,19.4l-53,19.4c-2.2,0.8-4.5,1.2-6.9,1.2c-5.7,0-11.2-2.4-15.1-6.7
			l-0.4-0.5c-0.1-0.2-0.3-0.3-0.4-0.6c-2.6-3.2-4.2-7.2-4.5-11.4c0-0.3,0-0.5-0.1-0.7c0-0.6,0-1.1,0-1.7c0-0.2,0-0.5,0.1-0.7
			c0.3-3.9,1.7-7.7,4-10.8l0.4-0.6c0.3-0.3,0.6-0.7,0.9-1C1347.8,328,1353.3,325.6,1359.1,325.5z"/>
		<path class="st9" d="M1476.8,323.8c-2.3,0-4.7-0.4-7-1.2l-53-19.4l53-19.4c2.2-0.8,4.5-1.2,6.9-1.2c5.7,0,11.2,2.4,15.1,6.7
			l0.4,0.5l0.4,0.6c2.6,3.2,4.2,7.2,4.5,11.4c0,0.2,0,0.5,0.1,0.7c0,0.6,0,1.1,0,1.7c0,0.2,0,0.5-0.1,0.7c-0.3,3.9-1.7,7.7-4,10.8
			c-0.1,0.2-0.3,0.3-0.4,0.6c-0.3,0.3-0.6,0.7-0.9,1C1488,321.4,1482.5,323.8,1476.8,323.8z"/>
		<path class="st7" d="M920.1,1450.8L920.1,1450.8c-3.9,10.6-15.6,16.1-26.2,12.3L776,1420.3c-10.6-3.9-16.1-15.6-12.3-26.2l0,0
			c3.9-10.6,15.6-16.1,26.2-12.3l117.9,42.7C918.4,1428.4,923.9,1440.1,920.1,1450.8z"/>
		<path class="st5" d="M763.8,1493.5L763.8,1493.5c-3.9-10.6,1.7-22.4,12.3-26.2l117.9-42.7c10.6-3.9,22.4,1.7,26.2,12.3l0,0
			c3.9,10.6-1.7,22.4-12.3,26.2L790,1505.8C779.4,1509.6,767.7,1504.2,763.8,1493.5z"/>
		<path class="st1" d="M900.8,1464.3c-2.3,0-4.7-0.4-7-1.2l-53-19.4l53-19.4c2.2-0.8,4.5-1.2,6.9-1.2c5.7,0,11.2,2.4,15.1,6.7
			l0.4,0.5c0.1,0.2,0.3,0.3,0.4,0.6c1.4,1.8,2.6,3.8,3.3,5.9c0.6,1.8,1,3.7,1.2,5.5c0,0.2,0,0.5,0.1,0.7c0,0.6,0,1.1,0,1.7
			c0,0.2,0,0.5-0.1,0.7c-0.3,3.9-1.7,7.7-4,10.8c-0.1,0.2-0.3,0.3-0.4,0.6c-0.3,0.3-0.6,0.7-0.9,1
			C912,1461.9,906.6,1464.3,900.8,1464.3z"/>
		<path class="st5" d="M920.1,1365.1L920.1,1365.1c-3.9,10.6-15.6,16.1-26.2,12.3L776,1334.6c-10.6-3.9-16.1-15.6-12.3-26.2l0,0
			c3.9-10.6,15.6-16.1,26.2-12.3l117.9,42.7C918.4,1342.7,923.9,1354.4,920.1,1365.1z"/>
		<path class="st8" d="M763.8,1407.8L763.8,1407.8c-3.9-10.6,1.7-22.4,12.3-26.2l117.9-42.7c10.6-3.9,22.4,1.7,26.2,12.3l0,0
			c3.9,10.6-1.7,22.4-12.3,26.2L790,1420.1C779.4,1424,767.7,1418.4,763.8,1407.8z"/>
		<path class="st3" d="M900.8,1378.6c-2.3,0-4.7-0.4-7-1.2l-53-19.4l53-19.4c2.2-0.8,4.5-1.2,6.9-1.2c5.7,0,11.2,2.4,15.1,6.7
			l0.4,0.5c0.1,0.2,0.3,0.3,0.4,0.6c1.4,1.8,2.6,3.8,3.3,5.9c0.6,1.8,1,3.7,1.2,5.5c0,0.2,0,0.5,0.1,0.7c0,0.6,0,1.1,0,1.7
			c0,0.2,0,0.5-0.1,0.7c-0.3,3.9-1.7,7.7-4,10.8c-0.1,0.2-0.3,0.3-0.4,0.6c-0.3,0.3-0.6,0.7-0.9,1
			C912,1376.2,906.6,1378.6,900.8,1378.6z"/>
		<path class="st9" d="M783.1,1380.3c2.3,0,4.7,0.4,7,1.2l53,19.4l-53,19.4c-2.2,0.8-4.5,1.2-6.9,1.2c-5.7,0-11.2-2.4-15.1-6.7
			l-0.4-0.5c-0.1-0.2-0.3-0.3-0.4-0.6c-1.4-1.8-2.6-3.8-3.3-5.9c-0.6-1.8-1-3.7-1.2-5.5c0-0.2,0-0.5-0.1-0.7c0-0.6,0-1.1,0-1.7
			c0-0.2,0-0.5,0.1-0.7c0.3-3.9,1.7-7.7,4-10.8c0.1-0.2,0.3-0.3,0.4-0.6c0.3-0.3,0.6-0.7,0.9-1
			C771.9,1382.8,777.3,1380.4,783.1,1380.3z"/>
		<path class="st7" d="M2424.2,990.3L2424.2,990.3c-3.9,10.6-15.6,16.1-26.2,12.3l-117.9-42.7c-10.6-3.9-16.1-15.6-12.3-26.2l0,0
			c3.9-10.6,15.6-16.1,26.2-12.3l117.9,42.7C2422.6,968,2428,979.7,2424.2,990.3z"/>
		<path class="st5" d="M2267.9,1033L2267.9,1033c-3.9-10.6,1.7-22.4,12.3-26.2l117.9-42.7c10.6-3.9,22.4,1.7,26.2,12.3l0,0
			c3.9,10.6-1.7,22.4-12.3,26.2l-117.9,42.7C2283.5,1049.1,2271.8,1043.6,2267.9,1033z"/>
		<path class="st1" d="M2404.8,1003.9c-2.3,0-4.7-0.4-7-1.2l-53-19.4l53-19.4c2.2-0.8,4.5-1.2,6.9-1.2c5.7,0,11.2,2.4,15.1,6.7
			l0.4,0.5l0.4,0.6c2.6,3.2,4.2,7.2,4.5,11.4c0,0.2,0,0.5,0.1,0.7c0,0.6,0,1.1,0,1.7c0,0.2,0,0.5-0.1,0.7c-0.3,3.9-1.7,7.7-4,10.8
			c-0.1,0.2-0.3,0.3-0.4,0.6c-0.3,0.3-0.6,0.7-0.9,1C2416,1001.4,2410.5,1003.8,2404.8,1003.9z"/>
		<path class="st5" d="M2424.2,904.6L2424.2,904.6c-3.9,10.6-15.6,16.1-26.2,12.3l-117.9-42.7c-10.6-3.9-16.1-15.6-12.3-26.2l0,0
			c3.9-10.6,15.6-16.1,26.2-12.3l117.9,42.7C2422.6,882.2,2428,894,2424.2,904.6z"/>
		<path class="st8" d="M2267.9,947.3L2267.9,947.3c-3.9-10.6,1.7-22.4,12.3-26.2l117.9-42.7c10.6-3.9,22.4,1.7,26.2,12.3l0,0
			c3.9,10.6-1.7,22.4-12.3,26.2l-117.9,42.7C2283.5,963.4,2271.8,957.9,2267.9,947.3z"/>
		<path class="st3" d="M2404.8,918.1c-2.3,0-4.7-0.4-7-1.2l-53-19.4l53-19.4c2.2-0.8,4.5-1.2,6.9-1.2c5.7,0,11.2,2.4,15.1,6.7
			l0.4,0.5l0.4,0.6c2.6,3.2,4.2,7.2,4.5,11.4c0,0.2,0,0.5,0.1,0.7c0,0.6,0,1.1,0,1.7c0,0.2,0,0.5-0.1,0.7c-0.3,3.9-1.7,7.7-4,10.8
			c-0.1,0.2-0.3,0.3-0.4,0.6c-0.3,0.3-0.6,0.7-0.9,1C2416,915.7,2410.5,918.1,2404.8,918.1z"/>
		<path class="st9" d="M2287.2,919.9c2.3,0,4.7,0.4,7,1.2l53,19.4l-53,19.4c-2.2,0.8-4.5,1.2-7,1.2c-5.7,0-11.2-2.4-15.1-6.7
			l-0.4-0.5c-0.1-0.2-0.3-0.3-0.4-0.6c-2.6-3.2-4.2-7.2-4.5-11.4c0-0.2-0.1-0.5-0.1-0.7c0-0.6,0-1.1,0-1.7c0-0.2,0-0.5,0.1-0.7
			c0.3-3.9,1.7-7.7,4-10.8l0.4-0.6c0.3-0.3,0.6-0.7,0.9-1C2275.9,922.3,2281.4,919.9,2287.2,919.9z"/>
		<path class="st7" d="M1916.4,1093.4L1916.4,1093.4c3.9,10.6-1.7,22.4-12.3,26.2l-117.9,42.7c-10.6,3.9-22.4-1.7-26.2-12.3l0,0
			c-3.9-10.6,1.7-22.4,12.3-26.2l117.9-42.7C1900.8,1077.3,1912.6,1082.8,1916.4,1093.4z"/>
		<path class="st5" d="M1760.2,1136.1L1760.2,1136.1c3.9-10.6,15.6-16.1,26.2-12.3l117.9,42.7c10.6,3.9,16.1,15.6,12.3,26.2l0,0
			c-3.9,10.6-15.6,16.1-26.2,12.3l-117.9-42.7C1761.8,1158.5,1756.3,1146.7,1760.2,1136.1z"/>
		<path class="st1" d="M1779.5,1163.8c2.3,0,4.7-0.4,7-1.2l53-19.4l-53-19.3c-2.2-0.8-4.5-1.2-7-1.2c-5.7,0-11.2,2.4-15.1,6.7
			l-0.4,0.5c-0.1,0.2-0.3,0.3-0.4,0.6c-1.4,1.8-2.6,3.8-3.3,5.9c-0.6,1.8-1,3.7-1.2,5.5c0,0.2-0.1,0.5-0.1,0.7c0,0.6,0,1.1,0,1.7
			c0,0.2,0,0.5,0.1,0.7c0.3,3.9,1.7,7.7,4,10.8c0.1,0.2,0.3,0.3,0.4,0.6c0.3,0.3,0.6,0.7,0.9,1
			C1768.2,1161.4,1773.8,1163.8,1779.5,1163.8z"/>
		<path class="st5" d="M1916.4,1007.7L1916.4,1007.7c3.9,10.6-1.7,22.4-12.3,26.2l-117.9,42.7c-10.6,3.9-22.4-1.7-26.2-12.3l0,0
			c-3.9-10.6,1.7-22.4,12.3-26.2l117.9-42.7C1900.8,991.6,1912.6,997.1,1916.4,1007.7z"/>
		<path class="st8" d="M1760.2,1050.4L1760.2,1050.4c3.9-10.6,15.6-16.1,26.2-12.3l117.9,42.7c10.6,3.9,16.1,15.6,12.3,26.2l0,0
			c-3.9,10.6-15.6,16.1-26.2,12.3l-117.9-42.7C1761.8,1072.8,1756.3,1061.1,1760.2,1050.4z"/>
		<path class="st3" d="M1779.5,1078.1c2.3,0,4.7-0.4,7-1.2l53-19.4l-53-19.4c-2.2-0.8-4.5-1.2-7-1.2c-5.7,0-11.2,2.4-15.1,6.7
			l-0.4,0.5c-0.1,0.2-0.3,0.3-0.4,0.6c-1.4,1.8-2.6,3.8-3.3,5.9c-0.6,1.8-1,3.7-1.2,5.5c0,0.2-0.1,0.5-0.1,0.7c0,0.6,0,1.1,0,1.7
			c0,0.2,0,0.5,0.1,0.7c0.3,3.9,1.7,7.7,4,10.8c0.1,0.2,0.3,0.3,0.4,0.6c0.3,0.3,0.6,0.7,0.9,1
			C1768.2,1075.7,1773.8,1078.1,1779.5,1078.1z"/>
		<path class="st9" d="M1897.2,1079.8c-2.3,0-4.7,0.4-7,1.2l-53,19.4l53,19.4c2.2,0.8,4.5,1.2,6.9,1.2c5.7,0,11.2-2.4,15.1-6.7
			l0.4-0.5c0.1-0.2,0.3-0.3,0.4-0.6c1.4-1.8,2.6-3.8,3.3-5.9c0.6-1.8,1-3.7,1.2-5.5c0-0.2,0-0.5,0.1-0.7c0-0.6,0-1.1,0-1.7
			c0-0.2,0-0.5-0.1-0.7c-0.3-3.9-1.7-7.7-4-10.8c-0.1-0.2-0.3-0.3-0.4-0.6c-0.3-0.3-0.6-0.7-0.9-1
			C1908.4,1082.3,1903,1079.8,1897.2,1079.8z"/>
		<path class="st7" d="M620.9,1093.4L620.9,1093.4c3.9,10.6-1.7,22.4-12.3,26.2l-117.9,42.7c-10.6,3.9-22.4-1.7-26.2-12.3l0,0
			c-3.9-10.6,1.7-22.4,12.3-26.2l117.9-42.7C605.4,1077.3,617.1,1082.8,620.9,1093.4z"/>
		<path class="st5" d="M464.7,1136.1L464.7,1136.1c3.9-10.6,15.6-16.1,26.2-12.3l117.9,42.7c10.6,3.9,16.1,15.6,12.3,26.2l0,0
			c-3.9,10.6-15.6,16.1-26.2,12.3L477,1162.3C466.3,1158.5,460.8,1146.7,464.7,1136.1z"/>
		<path class="st1" d="M483.9,1163.8c2.3,0,4.7-0.4,7-1.2l53-19.3l-53-19.3c-2.2-0.8-4.5-1.2-6.9-1.2c-5.7,0-11.2,2.4-15.1,6.7
			l-0.4,0.5c-0.1,0.2-0.3,0.3-0.4,0.6c-1.4,1.8-2.6,3.8-3.3,5.9c-0.6,1.8-1,3.7-1.2,5.5c0,0.2-0.1,0.5-0.1,0.7c0,0.6,0,1.1,0,1.7
			c0,0.2,0,0.5,0.1,0.7c0.3,3.9,1.7,7.7,4,10.8c0.1,0.2,0.3,0.3,0.4,0.6c0.3,0.3,0.6,0.7,0.9,1
			C472.7,1161.4,478.1,1163.8,483.9,1163.8z"/>
		<path class="st5" d="M620.9,1007.7L620.9,1007.7c3.9,10.6-1.7,22.4-12.3,26.2l-117.9,42.7c-10.6,3.9-22.4-1.7-26.2-12.3l0,0
			c-3.9-10.6,1.7-22.4,12.3-26.2l117.9-42.7C605.4,991.6,617.1,997,620.9,1007.7z"/>
		<path class="st8" d="M464.4,1049.8L464.4,1049.8c3.9-10.6,15.6-16.1,26.2-12.3l117.9,42.6c10.6,3.9,16.1,15.6,12.3,26.2l0,0
			c-3.9,10.6-15.6,16.1-26.2,12.3l-118-42.6C466,1072.1,460.6,1060.4,464.4,1049.8z"/>
		<path class="st3" d="M483.9,1078.1c2.3,0,4.7-0.4,7-1.2l53-19.4l-53-19.4c-2.2-0.8-4.5-1.2-6.9-1.2c-5.7,0-11.2,2.4-15.1,6.7
			l-0.4,0.5c-0.1,0.2-0.3,0.3-0.4,0.6c-1.4,1.8-2.6,3.8-3.3,5.9c-0.6,1.8-1,3.7-1.2,5.5c0,0.2-0.1,0.5-0.1,0.7c0,0.6,0,1.1,0,1.7
			c0,0.2,0,0.5,0.1,0.7c0.3,3.9,1.7,7.7,4,10.8c0.1,0.2,0.3,0.3,0.4,0.6c0.3,0.3,0.6,0.7,0.9,1
			C472.7,1075.7,478.1,1078.1,483.9,1078.1z"/>
		<path class="st9" d="M601.6,1079.8c-2.3,0-4.7,0.4-7,1.2l-53,19.4l53,19.4c2.2,0.8,4.5,1.2,6.9,1.2c5.7,0,11.2-2.4,15.1-6.7
			l0.4-0.5c0.1-0.2,0.3-0.3,0.4-0.6c1.4-1.8,2.6-3.8,3.3-5.9c0.6-1.8,1-3.7,1.2-5.5c0-0.2,0-0.5,0.1-0.7c0-0.6,0-1.1,0-1.7
			c0-0.2,0-0.5-0.1-0.7c-0.3-3.9-1.7-7.7-4-10.8c-0.1-0.2-0.3-0.3-0.4-0.6c-0.3-0.3-0.6-0.7-0.9-1
			C612.9,1082.3,607.4,1079.8,601.6,1079.8z"/>
		<path class="st7" d="M2564.1,1419.9L2564.1,1419.9c3.9,10.6-1.7,22.4-12.3,26.2l-117.9,42.7c-10.6,3.9-22.4-1.7-26.2-12.3l0,0
			c-3.9-10.6,1.7-22.4,12.3-26.2l117.9-42.7C2548.5,1403.8,2560.2,1409.3,2564.1,1419.9z"/>
		<path class="st5" d="M2407.8,1462.7L2407.8,1462.7c3.9-10.6,15.6-16.1,26.2-12.3l117.9,42.7c10.6,3.9,16.1,15.6,12.3,26.2l0,0
			c-3.9,10.6-15.6,16.1-26.2,12.3l-117.9-42.7C2409.4,1485.1,2404,1473.3,2407.8,1462.7z"/>
		<path class="st1" d="M2427,1490.3c2.3,0,4.7-0.4,7-1.2l53-19.3l-53-19.3c-2.2-0.8-4.5-1.2-6.9-1.2c-5.7,0-11.2,2.4-15.1,6.7
			l-0.4,0.5c-0.1,0.2-0.3,0.3-0.4,0.6c-1.4,1.8-2.6,3.8-3.3,5.9c-0.6,1.8-1,3.7-1.2,5.5c0,0.2-0.1,0.5-0.1,0.7c0,0.6,0,1.1,0,1.7
			c0,0.2,0,0.5,0.1,0.7c0.3,3.9,1.7,7.7,4,10.8c0.1,0.2,0.3,0.3,0.4,0.6c0.3,0.3,0.6,0.7,0.9,1
			C2415.8,1487.9,2421.3,1490.3,2427,1490.3z"/>
		<path class="st5" d="M2564.1,1334.2L2564.1,1334.2c3.9,10.6-1.7,22.4-12.3,26.2l-117.9,42.7c-10.6,3.9-22.4-1.7-26.2-12.3l0,0
			c-3.9-10.6,1.7-22.4,12.3-26.2l117.9-42.7C2548.5,1318.1,2560.2,1323.6,2564.1,1334.2z"/>
		<path class="st8" d="M2407.5,1376.3L2407.5,1376.3c3.9-10.6,15.6-16.1,26.2-12.3l117.9,42.6c10.6,3.9,16.1,15.6,12.3,26.2l0,0
			c-3.9,10.6-15.6,16.1-26.2,12.3l-117.9-42.6C2409.1,1398.6,2403.7,1386.9,2407.5,1376.3z"/>
		<path class="st3" d="M2427,1404.6c2.3,0,4.7-0.4,7-1.2l53-19.4l-53-19.4c-2.2-0.8-4.5-1.2-6.9-1.2c-5.7,0-11.2,2.4-15.1,6.7
			l-0.4,0.5c-0.1,0.2-0.3,0.3-0.4,0.6c-1.4,1.8-2.6,3.8-3.3,5.9c-0.6,1.8-1,3.7-1.2,5.5c0,0.2-0.1,0.5-0.1,0.7c0,0.6,0,1.1,0,1.7
			c0,0.2,0,0.5,0.1,0.7c0.3,3.9,1.7,7.7,4,10.8c0.1,0.2,0.3,0.3,0.4,0.6c0.3,0.3,0.6,0.7,0.9,1
			C2415.8,1402.2,2421.3,1404.6,2427,1404.6z"/>
		<path class="st9" d="M2544.7,1406.3c-2.3,0-4.7,0.4-7,1.2l-53,19.4l53,19.4c2.2,0.8,4.5,1.2,6.9,1.2c5.7,0,11.2-2.4,15.1-6.7
			l0.4-0.5c0.1-0.2,0.3-0.3,0.4-0.6c1.4-1.8,2.6-3.8,3.3-5.9c0.6-1.8,1-3.7,1.2-5.5c0-0.2,0-0.5,0.1-0.7c0-0.6,0-1.1,0-1.7
			c0-0.2,0-0.5-0.1-0.7c-0.3-3.9-1.7-7.7-4-10.8c-0.1-0.2-0.3-0.3-0.4-0.6c-0.3-0.3-0.6-0.7-0.9-1
			C2556,1408.8,2550.5,1406.3,2544.7,1406.3z"/>
		<path class="st5" d="M1152.3,1285.6L1152.3,1285.6c9.8,5.7,13.2,18.2,7.5,28l-70.9,122.7c-5.7,9.8-18.2,13.2-28,7.5l0,0
			c-9.8-5.7-13.2-18.2-7.5-28l70.9-122.7C1130,1283.4,1142.6,1280,1152.3,1285.6z"/>
		<path class="st2" d="M1223.1,1443.7L1223.1,1443.7c-9.8,5.7-22.3,2.3-28-7.5l-70.9-122.7c-5.7-9.8-2.3-22.3,7.5-28l0,0
			c9.8-5.7,22.3-2.3,28,7.5l70.9,122.7C1236.2,1425.6,1232.8,1438.1,1223.1,1443.7z"/>
		<path class="st1" d="M1162.5,1303.4c0,3.6-1,7.1-2.8,10.2l-17.8,30.8l-17.8-30.8c-1.8-3.1-2.8-6.6-2.8-10.2c0-3.1,0.7-6.1,2.1-9
			c4.9-10.2,17.2-14.5,27.3-9.5c3.7,1.8,6.8,4.6,8.8,8.2l0.8,1.3C1161.9,1297.2,1162.5,1300.2,1162.5,1303.4z"/>
		<path class="st5" d="M960.7,33.3L960.7,33.3c9.8,5.7,13.2,18.2,7.5,28L897.4,184c-5.7,9.8-18.2,13.2-28,7.5l0,0
			c-9.8-5.7-13.2-18.2-7.5-28l70.9-122.7C938.4,31,950.9,27.7,960.7,33.3z"/>
		<path class="st2" d="M1031.4,191.4L1031.4,191.4c-9.8,5.7-22.3,2.3-28-7.5L932.6,61.2c-5.7-9.8-2.3-22.3,7.5-28l0,0
			c9.8-5.7,22.3-2.3,28,7.5l70.9,122.7C1044.6,173.3,1041.2,185.8,1031.4,191.4z"/>
		<path class="st1" d="M970.9,51.1c0,3.6-1,7.1-2.8,10.2l-17.8,30.8l-17.8-30.8c-1.8-3.1-2.8-6.6-2.8-10.2c0-3.1,0.7-6.1,2.1-9
			c4.9-10.2,17.2-14.5,27.3-9.5c3.7,1.8,6.8,4.6,8.8,8.2l0.8,1.3C970.2,44.9,970.9,47.9,970.9,51.1z"/>
		<path class="st4" d="M1871.8,352.9L1871.8,352.9c11.3,0,20.5,9.2,20.5,20.5v112.4c0,11.3-9.2,20.5-20.5,20.5l0,0
			c-11.3,0-20.5-9.2-20.5-20.5V373.4C1851.3,362.1,1860.5,352.9,1871.8,352.9z"/>
		<path class="st10" d="M1805.5,485.8L1805.5,485.8c0-11.3,9.2-20.5,20.5-20.5h87.1c11.3,0,20.5,9.2,20.5,20.5l0,0
			c0,11.3-9.2,20.5-20.5,20.5H1826C1814.6,506.3,1805.5,497.1,1805.5,485.8z"/>
		<path class="st6" d="M1892.2,485.8v-20.5h-40.9v20.5c0,11.3,9.2,20.5,20.5,20.4C1883.1,506.2,1892.2,497,1892.2,485.8z"/>
		<path class="st4" d="M88.3,874.7L88.3,874.7c11.3,0,20.5,9.2,20.5,20.5v112.4c0,11.3-9.2,20.5-20.5,20.5l0,0
			c-11.3,0-20.5-9.2-20.5-20.5V895.1C67.8,883.8,77,874.7,88.3,874.7z"/>
		<path class="st10" d="M22,1007.6L22,1007.6c0-11.3,9.2-20.5,20.5-20.5h87.1c11.3,0,20.5,9.2,20.5,20.5l0,0
			c0,11.3-9.2,20.5-20.5,20.5H42.4C31.1,1028,22,1018.9,22,1007.6z"/>
		<path class="st6" d="M108.7,1007.6v-20.5H67.8v20.5c0,11.3,9.2,20.5,20.5,20.4C99.6,1028,108.7,1018.8,108.7,1007.6z"/>
		<path class="st4" d="M2521.5,671.8V559.4c0-11.3,9.2-20.5,20.5-20.5l0,0c11.3,0,20.5,9.2,20.5,20.5v112.4
			c0,11.3-9.2,20.5-20.5,20.5l0,0C2530.7,692.3,2521.5,683.1,2521.5,671.8z"/>
		<path class="st10" d="M2496.2,538.9h87.1c11.3,0,20.5,9.2,20.5,20.5l0,0c0,11.3-9.2,20.5-20.5,20.5h-87.1
			c-11.3,0-20.5-9.2-20.5-20.5l0,0C2475.7,548.1,2484.9,538.9,2496.2,538.9z"/>
		<path class="st6" d="M2542.1,539c-11.3-0.1-20.5,9.1-20.5,20.4v20.5h40.9v-20.5C2562.5,548.1,2553.3,539,2542.1,539z"/>
		<path class="st4" d="M108.5,242.7V130.3c0-11.3,9.2-20.5,20.5-20.5l0,0c11.3,0,20.5,9.2,20.5,20.5v112.4
			c0,11.3-9.2,20.5-20.5,20.5l0,0C117.6,263.2,108.5,254,108.5,242.7z"/>
		<path class="st10" d="M83.1,109.8h87.1c11.3,0,20.5,9.2,20.5,20.5l0,0c0,11.3-9.2,20.5-20.5,20.5H83.1c-11.3,0-20.5-9.2-20.5-20.5
			l0,0C62.6,119,71.8,109.8,83.1,109.8z"/>
		<path class="st6" d="M129,109.9c-11.3-0.1-20.5,9.1-20.5,20.4v20.5h40.9v-20.5C149.4,119,140.2,109.9,129,109.9z"/>
		<path class="st11" d="M2261.9,1079.8L2261.9,1079.8c11.3,0,20.5,9.2,20.5,20.5v127c0,11.3-9.2,20.5-20.5,20.5l0,0
			c-11.3,0-20.5-9.2-20.5-20.5v-127C2241.4,1089,2250.6,1079.8,2261.9,1079.8z"/>
		<path class="st2" d="M2148.2,826.1L2148.2,826.1c11.3,0,20.5,9.2,20.5,20.5v127c0,11.3-9.2,20.5-20.5,20.5l0,0
			c-11.3,0-20.5-9.2-20.5-20.5v-127C2127.7,835.2,2136.9,826.1,2148.2,826.1z"/>
		<ellipse class="st5" cx="1611.2" cy="1398.7" rx="23.8" ry="23.8"/>
		<ellipse class="st5" cx="667.9" cy="883.2" rx="23.8" ry="23.8"/>
		<path class="st1" d="M1940.6,673.7L1940.6,673.7c11.3,0,20.5,9.2,20.5,20.5v116.1c0,11.3-9.2,20.5-20.5,20.5l0,0
			c-11.3,0-20.5-9.2-20.5-20.5V694.2C1920.1,682.9,1929.3,673.7,1940.6,673.7z"/>
		<circle class="st5" cx="1940.6" cy="886.2" r="23.8"/>
		<circle class="st5" cx="336.3" cy="461.2" r="23.8"/>
		<circle class="st5" cx="1666.1" cy="59.7" r="23.8"/>
		<circle class="st8" cx="1121.6" cy="47.1" r="23.8"/>
		<circle class="st2" cx="688.4" cy="1364.7" r="23.8"/>
		<circle class="st2" cx="1778.5" cy="1525.6" r="23.8"/>
		<circle class="st5" cx="2240.3" cy="558.1" r="23.8"/>
		<circle class="st6" cx="1838.4" cy="1287.4" r="23.8"/>
		
			<ellipse transform="matrix(0.1602 -0.9871 0.9871 0.1602 564.6198 1278.231)" class="st6" cx="1033.5" cy="307.3" rx="23.8" ry="23.8"/>
		<circle class="st6" cx="128.9" cy="52.5" r="23.8"/>
		<ellipse class="st6" cx="324.4" cy="783.4" rx="23.8" ry="23.8"/>
		<circle class="st6" cx="689.7" cy="388.6" r="23.8"/>
		<circle class="st3" cx="2310" cy="1352.1" r="23.8"/>
		<circle class="st3" cx="2547.8" cy="773" r="23.8"/>
		<circle class="st3" cx="250.8" cy="1185.4" r="23.8"/>
		<circle class="st12" cx="991.3" cy="1312.2" r="15.6"/>
		<circle class="st11" cx="1283" cy="1306.2" r="15.6"/>
		<circle class="st11" cx="1340.3" cy="1306.2" r="15.6"/>
		<circle class="st11" cx="1394.9" cy="1306.2" r="15.6"/>
		<path class="st6" d="M2014.3,1543.8L2014.3,1543.8c0,11.3-9.2,20.5-20.5,20.5h-100c-11.3,0-20.5-9.2-20.5-20.5l0,0
			c0-11.3,9.2-20.5,20.5-20.5h100C2005.1,1523.3,2014.3,1532.5,2014.3,1543.8z"/>
		<circle class="st11" cx="1889.8" cy="1489.4" r="15.6"/>
		<circle class="st11" cx="1947.1" cy="1489.4" r="15.6"/>
		<circle class="st11" cx="2001.7" cy="1489.4" r="15.6"/>
		<circle class="st11" cx="1251.3" cy="172.6" r="15.6"/>
		<circle class="st11" cx="1308.7" cy="172.6" r="15.6"/>
		<circle class="st11" cx="1363.2" cy="172.6" r="15.6"/>
		<ellipse class="st10" cx="660.3" cy="1037" rx="15.6" ry="15.6"/>
		<circle class="st10" cx="717.6" cy="1037" r="15.6"/>
		<circle class="st10" cx="772.2" cy="1037" r="15.6"/>
		<ellipse class="st1" cx="175" cy="1298.6" rx="15.6" ry="15.6"/>
		<circle class="st1" cx="232.4" cy="1298.6" r="15.6"/>
		<circle class="st1" cx="286.9" cy="1298.6" r="15.6"/>
		
			<ellipse transform="matrix(0.9239 -0.3827 0.3827 0.9239 -368.9412 905.8431)" class="st1" cx="2092.5" cy="1380.3" rx="15.6" ry="15.6"/>
		<circle class="st1" cx="2149.6" cy="1380.3" r="15.6"/>
		<circle class="st1" cx="2204.2" cy="1380.3" r="15.6"/>
		
			<ellipse transform="matrix(0.7071 -0.7071 0.7071 0.7071 -763.1481 748.4713)" class="st1" cx="521.9" cy="1295.4" rx="15.6" ry="15.6"/>
		<circle class="st1" cx="579.3" cy="1295.4" r="15.6"/>
		<circle class="st1" cx="633.8" cy="1295.4" r="15.6"/>
		<ellipse class="st1" cx="375.4" cy="360.1" rx="15.6" ry="15.6"/>
		<circle class="st1" cx="432.7" cy="360.1" r="15.6"/>
		<circle class="st1" cx="487.3" cy="360.1" r="15.6"/>
		<circle class="st11" cx="1964.8" cy="995.3" r="15.6"/>
		<circle class="st11" cx="2022.2" cy="995.3" r="15.6"/>
		<circle class="st11" cx="2076.7" cy="995.3" r="15.6"/>
		<circle class="st11" cx="313.4" cy="1085.3" r="15.6"/>
		
			<ellipse transform="matrix(3.328254e-02 -0.9994 0.9994 3.328254e-02 -726.4756 1419.6859)" class="st11" cx="370.6" cy="1085.4" rx="15.6" ry="15.6"/>
		<circle class="st11" cx="425.3" cy="1085.3" r="15.6"/>
		<circle class="st12" cx="991.3" cy="1366.1" r="15.6"/>
		<circle class="st12" cx="991.3" cy="1425.6" r="15.6"/>
		<circle class="st10" cx="274.7" cy="51.3" r="15.6"/>
		<circle class="st10" cx="274.7" cy="105.2" r="15.6"/>
		<circle class="st10" cx="274.7" cy="164.7" r="15.6"/>
		<circle class="st12" cx="2218.4" cy="940.5" r="15.6"/>
		<circle class="st12" cx="2218.4" cy="994.4" r="15.6"/>
		<circle class="st12" cx="2218.4" cy="1048.3" r="15.6"/>
		<circle class="st12" cx="231" cy="658.1" r="15.6"/>
		<circle class="st12" cx="231" cy="712" r="15.6"/>
		<circle class="st12" cx="231" cy="766" r="15.6"/>
		<circle class="st12" cx="1772.7" cy="84.3" r="15.6"/>
		<circle class="st12" cx="1772.7" cy="138.2" r="15.6"/>
		<circle class="st12" cx="1772.7" cy="192.3" r="15.6"/>
		<circle class="st3" cx="1872.5" cy="619.8" r="15.6"/>
		<circle class="st3" cx="1872.5" cy="673.7" r="15.6"/>
		<circle class="st3" cx="1872.5" cy="727.6" r="15.6"/>
		<circle class="st3" cx="2330.4" cy="680.8" r="15.6"/>
		<circle class="st3" cx="2330.4" cy="734.7" r="15.6"/>
		<circle class="st3" cx="2330.4" cy="788.6" r="15.6"/>
		<ellipse class="st3" cx="1720.9" cy="1313.6" rx="15.6" ry="15.6"/>
		<ellipse class="st3" cx="1720.9" cy="1367.5" rx="15.6" ry="15.6"/>
		<ellipse class="st3" cx="1720.9" cy="1421.4" rx="15.6" ry="15.6"/>
		<circle class="st3" cx="593.4" cy="668.5" r="15.6"/>
		<circle class="st3" cx="593.4" cy="722.4" r="15.6"/>
		<circle class="st3" cx="593.4" cy="776.4" r="15.6"/>
		<path class="st10" d="M2061.9,889c0.6,9.4-0.8,18.8-3.9,27.8c-4.4,13-12,23.4-19.2,31.3c-6.3,7-17.2,7.5-24.2,1.1
			c-0.1-0.1-0.2-0.1-0.3-0.3c-0.4-0.3-0.8-0.8-1.1-1.2l-0.1-0.1c-5.7-6.6-5.6-16.5,0.3-22.9c4.8-5.2,9.4-11.7,11.9-19.1
			c1.9-5.4,2.5-11.2,1.9-17c1.2-9.2-1.9-18.9-9.2-29.3c-13.4-19.1-20.5-37.6-21.5-55.3c-0.6-9.4,0.8-18.8,3.9-27.8
			c4.4-13,12-23.4,19.2-31.4c6.3-7,17.2-7.5,24.2-1.1c0.1,0.1,0.2,0.1,0.3,0.3l0,0c0.4,0.3,0.8,0.8,1.1,1.2l0.1,0.1
			c5.7,6.6,5.6,16.5-0.3,22.9c-4.8,5.2-9.4,11.7-11.9,19.1c-1.9,5.4-2.5,11.2-1.9,17c1,10.7,6.1,22.3,15.1,35.2
			C2057.7,855.9,2063,872.4,2061.9,889z"/>
		<path class="st13" d="M2036.8,823.6c2.7,5.6,5.9,10.9,9.4,15.9c11.4,16.3,16.7,32.9,15.6,49.4c0.6,9.4-0.8,18.8-3.9,27.8
			c-4.4,13-12,23.4-19.2,31.3c-6.3,7-17.2,7.5-24.2,1.1c-0.1-0.1-0.2-0.1-0.3-0.3c-0.4-0.3-0.8-0.8-1.1-1.2l-0.1-0.1
			c-5.7-6.6-5.6-16.5,0.3-22.9c4.8-5.2,9.4-11.7,11.9-19.1c1.9-5.4,2.5-11.2,1.9-17c1.2-9.2-1.9-18.9-9.2-29.3
			c-5.3-7.4-9.9-15.4-13.6-23.8L2036.8,823.6z"/>
		<path class="st6" d="M2046.3,839.6c11.4,16.3,16.7,32.9,15.6,49.4c0.6,9.4-0.8,18.8-3.9,27.8c-4.4,13-12,23.4-19.2,31.3
			c-6.3,7-17.2,7.5-24.2,1.1c-0.1-0.1-0.2-0.1-0.3-0.3c-0.4-0.3-0.8-0.8-1.1-1.2l-0.1-0.1c-5.7-6.6-5.6-16.5,0.3-22.9
			c4.8-5.2,9.4-11.7,11.9-19.1c1.9-5.4,2.5-11.2,1.9-17c1.2-9.2-1.9-18.9-9.2-29.3"/>
		<path class="st10" d="M2534.5,1065.9c0.6,9.4-0.8,18.8-3.9,27.8c-4.4,13-12,23.4-19.2,31.3c-6.3,7-17.2,7.5-24.2,1.1
			c-0.1-0.1-0.2-0.1-0.3-0.3c-0.4-0.3-0.8-0.8-1.1-1.2l-0.1-0.1c-5.7-6.6-5.6-16.5,0.3-22.9c4.8-5.2,9.4-11.7,11.9-19.1
			c1.9-5.4,2.5-11.2,1.9-17c1.2-9.2-1.9-18.9-9.2-29.3c-13.4-19.1-20.5-37.6-21.5-55.3c-0.6-9.4,0.8-18.8,3.9-27.8
			c4.4-13,12-23.4,19.2-31.4c6.3-7,17.2-7.5,24.2-1.1c0.1,0.1,0.2,0.1,0.3,0.3l0,0c0.4,0.3,0.8,0.8,1.1,1.2l0.1,0.1
			c5.7,6.6,5.6,16.5-0.3,22.9c-4.8,5.2-9.4,11.7-11.9,19.1c-1.9,5.4-2.5,11.2-1.9,17c1,10.7,6.1,22.3,15.1,35.2
			C2530.3,1032.8,2535.6,1049.3,2534.5,1065.9z"/>
		<path class="st13" d="M2509.4,1000.5c2.7,5.6,5.9,10.9,9.4,15.9c11.4,16.3,16.7,32.9,15.6,49.4c0.6,9.4-0.8,18.8-3.9,27.8
			c-4.4,13-12,23.4-19.2,31.3c-6.3,7-17.2,7.5-24.2,1.1c-0.1-0.1-0.2-0.1-0.3-0.3c-0.4-0.3-0.8-0.8-1.1-1.2l-0.1-0.1
			c-5.7-6.6-5.6-16.5,0.3-22.9c4.8-5.2,9.4-11.7,11.9-19.1c1.9-5.4,2.5-11.2,1.9-17c1.2-9.2-1.9-18.9-9.2-29.3
			c-5.3-7.4-9.9-15.4-13.6-23.8L2509.4,1000.5z"/>
		<path class="st6" d="M2518.9,1016.4c11.4,16.3,16.7,32.9,15.6,49.4c0.6,9.4-0.8,18.8-3.9,27.8c-4.4,13-12,23.4-19.2,31.3
			c-6.3,7-17.2,7.5-24.2,1.1c-0.1-0.1-0.2-0.1-0.3-0.3c-0.4-0.3-0.8-0.8-1.1-1.2l-0.1-0.1c-5.7-6.6-5.6-16.5,0.3-22.9
			c4.8-5.2,9.4-11.7,11.9-19.1c1.9-5.4,2.5-11.2,1.9-17c1.2-9.2-1.9-18.9-9.2-29.3"/>
		<path class="st10" d="M450.6,764.9c0.6,9.4-0.8,18.8-3.9,27.8c-4.4,13-12,23.4-19.2,31.3c-6.3,7-17.2,7.5-24.2,1.1
			c-0.1-0.1-0.2-0.1-0.3-0.3c-0.4-0.3-0.8-0.8-1.1-1.2l-0.1-0.1c-5.7-6.6-5.6-16.5,0.3-22.9c4.8-5.2,9.4-11.7,11.9-19.1
			c1.9-5.4,2.5-11.2,1.9-17c1.2-9.2-1.9-18.9-9.2-29.3c-13.4-19.1-20.5-37.6-21.5-55.3c-0.6-9.4,0.8-18.8,3.9-27.8
			c4.4-13,12-23.4,19.2-31.4c6.3-7,17.2-7.5,24.2-1.1c0.1,0.1,0.2,0.1,0.3,0.3l0,0c0.4,0.3,0.8,0.8,1.1,1.2l0.1,0.1
			c5.7,6.6,5.6,16.5-0.3,22.9c-4.8,5.2-9.4,11.7-11.9,19.1c-1.9,5.4-2.5,11.2-1.9,17c1,10.7,6.1,22.3,15.1,35.2
			C446.4,731.8,451.7,748.4,450.6,764.9z"/>
		<path class="st13" d="M425.6,699.5c2.7,5.6,5.9,10.9,9.4,15.9c11.4,16.3,16.7,32.9,15.6,49.4c0.6,9.4-0.8,18.8-3.9,27.8
			c-4.4,13-12,23.4-19.2,31.3c-6.3,7-17.2,7.5-24.2,1.1c-0.1-0.1-0.2-0.1-0.3-0.3c-0.4-0.3-0.8-0.8-1.1-1.2l-0.1-0.1
			c-5.7-6.6-5.6-16.5,0.3-22.9c4.8-5.2,9.4-11.7,11.9-19.1c1.9-5.4,2.5-11.2,1.9-17c1.2-9.2-1.9-18.9-9.2-29.3
			c-5.3-7.4-9.9-15.4-13.6-23.8L425.6,699.5z"/>
		<path class="st6" d="M435,715.4c11.4,16.3,16.7,32.9,15.6,49.4c0.6,9.4-0.8,18.8-3.9,27.8c-4.4,13-12,23.4-19.2,31.3
			c-6.3,7-17.2,7.5-24.2,1.1c-0.1-0.1-0.2-0.1-0.3-0.3c-0.4-0.3-0.8-0.8-1.1-1.2l-0.1-0.1c-5.7-6.6-5.6-16.5,0.3-22.9
			c4.8-5.2,9.4-11.7,11.9-19.1c1.9-5.4,2.5-11.2,1.9-17c1.2-9.2-1.9-18.9-9.2-29.3"/>
		<path class="st10" d="M795.5,886.7c0.6,9.4-0.8,18.8-3.9,27.8c-4.4,13-12,23.4-19.2,31.3c-6.3,7-17.2,7.5-24.2,1.1
			c-0.1-0.1-0.2-0.1-0.3-0.3c-0.4-0.3-0.8-0.8-1.2-1.2l-0.1-0.1c-5.7-6.6-5.6-16.5,0.3-22.9c4.8-5.2,9.4-11.7,11.9-19.1
			c1.9-5.4,2.5-11.2,1.9-17c1.2-9.2-1.9-18.9-9.2-29.3c-13.4-19.1-20.5-37.6-21.5-55.3c-0.5-9.4,0.8-18.8,3.9-27.8
			c4.4-13,12-23.4,19.2-31.4c6.3-7,17.2-7.5,24.2-1.1c0.1,0.1,0.2,0.1,0.3,0.3l0,0c0.4,0.3,0.8,0.8,1.1,1.2l0.1,0.1
			c5.7,6.6,5.6,16.5-0.3,22.9c-4.8,5.2-9.4,11.7-11.9,19.1c-1.9,5.4-2.5,11.2-1.9,17c1,10.7,6.1,22.3,15.1,35.2
			C791.4,853.6,796.6,870.2,795.5,886.7z"/>
		<path class="st13" d="M770.5,821.4c2.7,5.6,5.9,10.9,9.4,15.9c11.4,16.3,16.7,32.9,15.6,49.4c0.6,9.4-0.8,18.8-3.9,27.8
			c-4.4,13-12,23.4-19.2,31.3c-6.3,7-17.2,7.5-24.2,1.1c-0.1-0.1-0.2-0.1-0.3-0.3c-0.4-0.3-0.8-0.8-1.2-1.2l-0.1-0.1
			c-5.7-6.6-5.6-16.5,0.3-22.9c4.8-5.2,9.4-11.7,11.9-19.1c1.9-5.4,2.5-11.2,1.9-17c1.2-9.2-1.9-18.9-9.2-29.3
			c-5.3-7.4-9.9-15.4-13.6-23.8L770.5,821.4z"/>
		<path class="st6" d="M780,837.3c11.4,16.3,16.7,32.9,15.6,49.4c0.6,9.4-0.8,18.8-3.9,27.8c-4.4,13-12,23.4-19.2,31.3
			c-6.3,7-17.2,7.5-24.2,1.1c-0.1-0.1-0.2-0.1-0.3-0.3c-0.4-0.3-0.8-0.8-1.2-1.2l-0.1-0.1c-5.7-6.6-5.6-16.5,0.3-22.9
			c4.8-5.2,9.4-11.7,11.9-19.1c1.9-5.4,2.5-11.2,1.9-17c1.2-9.2-1.9-18.9-9.2-29.3"/>
		<path class="st10" d="M267.9,1030.4c0.6,9.4-0.8,18.8-3.9,27.8c-4.4,13-12,23.4-19.2,31.3c-6.3,7-17.2,7.5-24.2,1.1
			c-0.1-0.1-0.2-0.1-0.3-0.3c-0.4-0.3-0.8-0.8-1.2-1.2l-0.1-0.1c-5.7-6.6-5.6-16.5,0.3-22.9c4.8-5.2,9.4-11.7,11.9-19.1
			c1.9-5.4,2.5-11.2,1.9-17c1.2-9.2-1.9-18.9-9.2-29.3c-13.4-19.1-20.5-37.6-21.5-55.3c-0.5-9.4,0.8-18.8,3.9-27.8
			c4.4-13,12-23.4,19.2-31.4c6.3-7,17.2-7.5,24.2-1.1c0.1,0.1,0.2,0.1,0.3,0.3l0,0c0.4,0.3,0.8,0.8,1.1,1.2l0.1,0.1
			c5.7,6.6,5.6,16.5-0.3,22.9c-4.8,5.2-9.4,11.7-11.9,19.1c-1.9,5.4-2.5,11.2-1.9,17c1,10.7,6.1,22.3,15.1,35.2
			C263.8,997.3,269,1013.9,267.9,1030.4z"/>
		<path class="st13" d="M242.9,965.1c2.7,5.6,5.9,10.9,9.4,15.9c11.4,16.3,16.7,32.9,15.6,49.4c0.6,9.4-0.8,18.8-3.9,27.8
			c-4.4,13-12,23.4-19.2,31.3c-6.3,7-17.2,7.5-24.2,1.1c-0.1-0.1-0.2-0.1-0.3-0.3c-0.4-0.3-0.8-0.8-1.2-1.2l-0.1-0.1
			c-5.7-6.6-5.6-16.5,0.3-22.9c4.8-5.2,9.4-11.7,11.9-19.1c1.9-5.4,2.5-11.2,1.9-17c1.2-9.2-1.9-18.9-9.2-29.3
			c-5.3-7.4-9.9-15.4-13.6-23.8L242.9,965.1z"/>
		<path class="st6" d="M252.3,981c11.4,16.3,16.7,32.9,15.6,49.4c0.6,9.4-0.8,18.8-3.9,27.8c-4.4,13-12,23.4-19.2,31.3
			c-6.3,7-17.2,7.5-24.2,1.1c-0.1-0.1-0.2-0.1-0.3-0.3c-0.4-0.3-0.8-0.8-1.2-1.2l-0.1-0.1c-5.7-6.6-5.6-16.5,0.3-22.9
			c4.8-5.2,9.4-11.7,11.9-19.1c1.9-5.4,2.5-11.2,1.9-17c1.2-9.2-1.9-18.9-9.2-29.3"/>
		<path class="st10" d="M448.5,976.6c0,3.1-0.8,6.2-2.3,9c-0.6,0.9-1.2,1.9-1.8,2.8c-25,36.6-75.1,46-111.7,21
			c-36.6-25-46-75.1-21-111.7c25-36.6,75.1-46,111.7-21c8.2,5.7,15.3,12.7,21,21c0.6,0.9,1.2,1.8,1.8,2.8c5,9.2,1.4,20.7-7.8,25.6
			c-8.2,4.4-18.4,2.2-24.1-5.2c-0.5-0.8-1-1.4-1.4-2.2c-13.4-19.2-40-23.9-59.2-10.5s-23.9,40-10.5,59.2s40,23.9,59.2,10.5
			c4.1-2.8,7.6-6.4,10.5-10.5c0.5-0.7,1-1.4,1.4-2.2c6.3-8.3,18.3-9.9,26.5-3.7C445.7,965.2,448.4,970.8,448.5,976.6L448.5,976.6z"
			/>
		<path class="st14" d="M355.2,987.9c0,10.4-8.5,18.9-18.9,18.9c-4.7,0-9.2-1.7-12.6-4.8c-0.1-0.1-0.3-0.3-0.4-0.4
			c-32.4-30.3-34-81.1-3.7-113.5c0.8-0.8,1.6-1.7,2.3-2.4c0.2-0.2,0.5-0.4,0.7-0.7l0.1-0.1c7.8-7,19.7-6.3,26.7,1.4
			c6.6,7.4,6.4,18.6-0.5,25.8c-0.3,0.3-0.6,0.6-0.8,0.8c0,0,0,0-0.1,0c-16.6,16.6-16.5,43.5,0.1,60.1c0.2,0.2,0.4,0.4,0.6,0.6
			c0.3,0.3,0.6,0.6,0.9,0.8l0,0C353.3,978,355.3,982.9,355.2,987.9z"/>
		<path class="st8" d="M448.5,909.3c0,10.5-8.5,19-19,19c-5.9,0-11.5-2.8-15.1-7.5c-0.5-0.8-1-1.4-1.4-2.2
			c-13.4-19.2-40-23.9-59.2-10.5c-1.7,1.2-3.4,2.6-4.9,4c-0.3,0.3-0.6,0.6-0.8,0.8c0,0,0,0-0.1,0c-7.7,7-19.7,6.4-26.7-1.4
			c-6.7-7.4-6.5-18.7,0.6-25.9l0.7-0.7l0.1-0.1c32-30.7,82.9-29.5,113.5,2.6c3,3.2,5.8,6.5,8.2,10.1c0.6,0.9,1.2,1.8,1.8,2.8
			C447.7,903.1,448.5,906.2,448.5,909.3z"/>
		
			<ellipse transform="matrix(9.088662e-03 -1 1 9.088662e-03 -654.4501 1315.2494)" class="st1" cx="336.4" cy="987.8" rx="18.9" ry="18.9"/>
		
			<ellipse transform="matrix(0.9999 -1.020398e-02 1.020398e-02 0.9999 -9.1545 3.469)" class="st3" cx="335.4" cy="898.9" rx="18.9" ry="18.9"/>
		<path class="st10" d="M542.9,1540.7c0.1-5.9,2.8-11.4,7.6-15.2c8.3-6.3,20.2-4.7,26.5,3.7c0.5,0.8,1,1.5,1.4,2.2
			c2.9,4.1,6.4,7.7,10.5,10.5c19.2,13.4,45.8,8.8,59.2-10.5c13.4-19.2,8.8-45.8-10.5-59.2c-19.2-13.4-45.8-8.8-59.2,10.5
			c-0.5,0.8-1,1.4-1.4,2.2c-5.7,7.4-15.9,9.6-24.1,5.2c-9.2-4.9-12.8-16.4-7.8-25.6c0.6-1,1.2-1.9,1.8-2.8c5.7-8.3,12.8-15.3,21-21
			c36.6-25,86.6-15.6,111.7,21c25,36.6,15.6,86.6-21,111.7c-36.6,25-86.6,15.6-111.7-21c-0.6-0.9-1.2-1.9-1.8-2.8
			C543.7,1546.9,542.9,1543.8,542.9,1540.7L542.9,1540.7z"/>
		<path class="st14" d="M641.8,1538.5L641.8,1538.5c0.3-0.3,0.6-0.6,0.9-0.8c0.2-0.2,0.4-0.4,0.6-0.6c16.6-16.6,16.7-43.5,0.1-60.1
			c-0.1,0-0.1,0-0.1,0c-0.3-0.3-0.6-0.6-0.8-0.8c-6.9-7.2-7.1-18.4-0.5-25.8c7-7.8,19-8.4,26.7-1.4l0.1,0.1c0.2,0.3,0.5,0.5,0.7,0.7
			c0.8,0.8,1.6,1.6,2.3,2.4c30.3,32.4,28.7,83.2-3.7,113.5c-0.1,0.1-0.3,0.3-0.4,0.4c-3.4,3.1-7.9,4.8-12.6,4.8
			c-10.4,0-18.9-8.5-18.9-18.9C636.2,1546.9,638.2,1542.1,641.8,1538.5z"/>
		<path class="st8" d="M545.3,1464.3c0.6-1,1.2-1.9,1.8-2.8c2.4-3.6,5.2-7,8.2-10.1c30.6-32,81.5-33.2,113.5-2.6l0.1,0.1l0.7,0.7
			c7,7.2,7.2,18.5,0.6,25.9c-7,7.8-19,8.4-26.7,1.4c-0.1,0-0.1,0-0.1,0c-0.3-0.3-0.6-0.6-0.8-0.8c-1.5-1.4-3.2-2.8-4.9-4
			c-19.2-13.4-45.8-8.8-59.2,10.5c-0.5,0.8-1,1.4-1.4,2.2c-3.6,4.8-9.2,7.5-15.1,7.5c-10.5,0-19-8.5-19-19
			C542.9,1470.3,543.7,1467.2,545.3,1464.3z"/>
		<ellipse class="st1" cx="655.1" cy="1552.1" rx="18.9" ry="18.9"/>
		<ellipse class="st3" cx="656" cy="1463" rx="18.9" ry="18.9"/>
		<path class="st10" d="M387.8,149.2c0.1-5.9,2.8-11.4,7.6-15.2c8.3-6.3,20.2-4.7,26.5,3.7c0.5,0.8,1,1.5,1.4,2.2
			c2.9,4.1,6.4,7.7,10.5,10.5c19.2,13.4,45.8,8.8,59.2-10.5s8.8-45.8-10.5-59.2c-19.2-13.4-45.8-8.8-59.2,10.5
			c-0.5,0.8-1,1.4-1.4,2.2c-5.7,7.4-15.9,9.6-24.1,5.2C388.6,93.7,385,82.2,390,73c0.6-1,1.2-1.9,1.8-2.8c5.7-8.3,12.8-15.3,21-21
			c36.6-25,86.6-15.6,111.7,21c25,36.6,15.6,86.6-21,111.7s-86.6,15.6-111.7-21c-0.6-0.9-1.2-1.9-1.8-2.8
			C388.6,155.4,387.8,152.3,387.8,149.2L387.8,149.2z"/>
		<path class="st14" d="M486.6,146.9L486.6,146.9c0.3-0.3,0.6-0.6,0.9-0.8c0.2-0.2,0.4-0.4,0.6-0.6c16.6-16.6,16.7-43.5,0.1-60.1
			c-0.1,0-0.1,0-0.1,0c-0.3-0.3-0.6-0.6-0.8-0.8c-6.9-7.2-7.1-18.4-0.5-25.8c7-7.8,19-8.4,26.7-1.4l0.1,0.1c0.2,0.3,0.5,0.5,0.7,0.7
			c0.8,0.8,1.6,1.6,2.3,2.4c30.3,32.4,28.7,83.2-3.7,113.5c-0.1,0.1-0.3,0.3-0.4,0.4c-3.4,3.1-7.9,4.8-12.6,4.8
			c-10.4,0-18.9-8.5-18.9-18.9C481.1,155.4,483.1,150.5,486.6,146.9z"/>
		<path class="st8" d="M390.1,72.7c0.6-1,1.2-1.9,1.8-2.8c2.4-3.6,5.2-7,8.2-10.1c30.6-32,81.5-33.2,113.5-2.6l0.1,0.1l0.7,0.7
			c7,7.2,7.2,18.5,0.6,25.9c-7,7.8-19,8.4-26.7,1.4c-0.1,0-0.1,0-0.1,0c-0.3-0.3-0.6-0.6-0.8-0.8c-1.5-1.4-3.2-2.8-4.9-4
			c-19.2-13.4-45.8-8.8-59.2,10.5c-0.5,0.8-1,1.4-1.4,2.2c-3.6,4.8-9.2,7.5-15.1,7.5c-10.5,0-19-8.5-19-19
			C387.8,78.7,388.6,75.6,390.1,72.7z"/>
		
			<ellipse transform="matrix(0.1512 -0.9885 0.9885 0.1512 265.8534 630.4237)" class="st1" cx="500" cy="160.4" rx="18.9" ry="18.9"/>
		<ellipse class="st3" cx="500.9" cy="71.4" rx="18.9" ry="18.9"/>
		<path class="st10" d="M33.4,1198.2c0.1-5.9,2.8-11.4,7.6-15.2c8.3-6.3,20.2-4.7,26.5,3.7c0.5,0.8,1,1.5,1.4,2.2
			c2.9,4.1,6.4,7.7,10.5,10.5c19.2,13.4,45.8,8.8,59.2-10.5c13.4-19.2,8.8-45.8-10.5-59.2c-19.2-13.4-45.8-8.8-59.2,10.5
			c-0.5,0.8-1,1.4-1.4,2.2c-5.7,7.4-15.9,9.6-24.1,5.2c-9.2-4.9-12.8-16.4-7.8-25.6c0.6-1,1.2-1.9,1.8-2.8c5.7-8.3,12.8-15.3,21-21
			c36.6-25,86.6-15.6,111.7,21s15.6,86.6-21,111.7s-86.6,15.6-111.7-21c-0.6-0.9-1.2-1.9-1.8-2.8
			C34.2,1204.4,33.4,1201.3,33.4,1198.2L33.4,1198.2z"/>
		<path class="st14" d="M132.2,1195.9L132.2,1195.9c0.3-0.3,0.6-0.6,0.9-0.8c0.2-0.2,0.4-0.4,0.6-0.6c16.6-16.6,16.7-43.5,0.1-60.1
			c-0.1,0-0.1,0-0.1,0c-0.3-0.3-0.6-0.6-0.8-0.8c-6.9-7.2-7.1-18.4-0.5-25.8c7-7.8,19-8.4,26.7-1.4l0.1,0.1c0.2,0.3,0.5,0.5,0.7,0.7
			c0.8,0.8,1.6,1.6,2.3,2.4c30.3,32.4,28.7,83.2-3.7,113.5c-0.1,0.1-0.3,0.3-0.4,0.4c-3.4,3.1-7.9,4.8-12.6,4.8
			c-10.4,0-18.9-8.5-18.9-18.9C126.6,1204.4,128.6,1199.6,132.2,1195.9z"/>
		<path class="st8" d="M35.7,1121.8c0.6-1,1.2-1.9,1.8-2.8c2.4-3.6,5.2-7,8.2-10.1c30.6-32,81.5-33.2,113.5-2.6l0.1,0.1l0.7,0.7
			c7,7.2,7.2,18.5,0.6,25.9c-7,7.8-19,8.4-26.7,1.4c-0.1,0-0.1,0-0.1,0c-0.3-0.3-0.6-0.6-0.8-0.8c-1.5-1.4-3.2-2.8-4.9-4
			c-19.2-13.4-45.8-8.8-59.2,10.5c-0.5,0.8-1,1.4-1.4,2.2c-3.6,4.8-9.2,7.5-15.1,7.5c-10.5,0-19-8.5-19-19
			C33.4,1127.8,34.2,1124.6,35.7,1121.8z"/>
		
			<ellipse transform="matrix(2.419303e-02 -0.9997 0.9997 2.419303e-02 -1067.1108 1325.6532)" class="st1" cx="145.5" cy="1209.5" rx="18.9" ry="18.9"/>
		
			<ellipse transform="matrix(4.347460e-02 -0.9991 0.9991 4.347460e-02 -979.2993 1218.0149)" class="st3" cx="146.4" cy="1120.4" rx="18.9" ry="18.9"/>
		<path class="st10" d="M2097.5,604.5c0,3.1-0.8,6.2-2.3,9c-0.6,0.9-1.2,1.9-1.8,2.8c-25,36.6-75.1,46-111.7,21s-46-75.1-21-111.7
			s75.1-46,111.7-21c8.2,5.7,15.3,12.7,21,21c0.6,0.9,1.2,1.8,1.8,2.8c5,9.2,1.4,20.7-7.8,25.6c-8.2,4.4-18.4,2.2-24.1-5.2
			c-0.5-0.8-1-1.4-1.4-2.2c-13.4-19.2-40-23.9-59.2-10.5s-23.9,40-10.5,59.2s40,23.9,59.2,10.5c4.1-2.8,7.6-6.4,10.5-10.5
			c0.5-0.7,1-1.4,1.4-2.2c6.3-8.3,18.3-9.9,26.5-3.7C2094.7,593,2097.4,598.6,2097.5,604.5L2097.5,604.5z"/>
		<path class="st14" d="M2004.2,615.7c0,10.4-8.5,18.9-18.9,18.9c-4.7,0-9.2-1.7-12.6-4.8c-0.1-0.1-0.3-0.3-0.4-0.4
			c-32.4-30.3-34-81.1-3.7-113.5c0.8-0.8,1.6-1.7,2.3-2.4c0.2-0.2,0.5-0.4,0.7-0.7l0.1-0.1c7.8-7,19.7-6.3,26.7,1.4
			c6.6,7.4,6.4,18.6-0.5,25.8c-0.3,0.3-0.6,0.6-0.8,0.8c0,0,0,0-0.1,0c-16.6,16.6-16.5,43.5,0.1,60.1c0.2,0.2,0.4,0.4,0.6,0.6
			c0.3,0.3,0.6,0.6,0.9,0.8l0,0C2002.2,605.8,2004.2,610.7,2004.2,615.7z"/>
		<path class="st8" d="M2097.5,537.1c0,10.5-8.5,19-19,19c-5.9,0-11.5-2.8-15.1-7.5c-0.5-0.8-1-1.4-1.4-2.2
			c-13.4-19.2-40-23.9-59.2-10.5c-1.7,1.2-3.4,2.6-4.9,4c-0.3,0.3-0.6,0.6-0.8,0.8c0,0,0,0-0.1,0c-7.7,7-19.7,6.4-26.7-1.4
			c-6.7-7.4-6.5-18.7,0.6-25.9l0.7-0.7l0.1-0.1c32-30.7,82.9-29.5,113.5,2.6c3,3.2,5.8,6.5,8.2,10.1c0.6,0.9,1.2,1.8,1.8,2.8
			C2096.7,530.9,2097.5,534,2097.5,537.1z"/>
		<ellipse class="st1" cx="1985.3" cy="615.5" rx="18.9" ry="18.9"/>
		<ellipse class="st3" cx="1984.1" cy="526.7" rx="18.9" ry="18.9"/>
		<path class="st10" d="M1561.2,124.5c0,3.1-0.8,6.2-2.3,9c-0.6,0.9-1.2,1.9-1.8,2.8c-25,36.6-75.1,46-111.7,21s-46-75.1-21-111.7
			s75.1-46,111.7-21c8.2,5.7,15.3,12.7,21,21c0.6,0.9,1.2,1.8,1.8,2.8c5,9.2,1.4,20.7-7.8,25.6c-8.2,4.4-18.4,2.2-24.1-5.2
			c-0.5-0.8-1-1.4-1.4-2.2c-13.4-19.2-40-23.9-59.2-10.5s-23.9,40-10.5,59.2s40,23.9,59.2,10.5c4.1-2.8,7.6-6.4,10.5-10.5
			c0.5-0.7,1-1.4,1.4-2.2c6.3-8.3,18.3-9.9,26.5-3.7C1558.3,113,1561.1,118.6,1561.2,124.5L1561.2,124.5z"/>
		<path class="st14" d="M1467.8,135.7c0,10.4-8.5,18.9-18.9,18.9c-4.7,0-9.2-1.7-12.6-4.8c-0.1-0.1-0.3-0.3-0.4-0.4
			c-32.4-30.3-34-81.1-3.7-113.5c0.8-0.8,1.6-1.7,2.3-2.4c0.2-0.2,0.5-0.4,0.7-0.7l0.1-0.1c7.8-7,19.7-6.3,26.7,1.4
			c6.6,7.4,6.4,18.6-0.5,25.8c-0.3,0.3-0.6,0.6-0.8,0.8c0,0,0,0-0.1,0c-16.6,16.6-16.5,43.5,0.1,60.1c0.2,0.2,0.4,0.4,0.6,0.6
			c0.3,0.3,0.6,0.6,0.9,0.8l0,0C1465.9,125.8,1467.9,130.7,1467.8,135.7z"/>
		<path class="st8" d="M1561.2,57.1c0,10.5-8.5,19-19,19c-5.9,0-11.5-2.8-15.1-7.5c-0.5-0.8-1-1.4-1.4-2.2
			c-13.4-19.2-40-23.9-59.2-10.5c-1.7,1.2-3.4,2.6-4.9,4c-0.3,0.3-0.6,0.6-0.8,0.8c0,0,0,0-0.1,0c-7.7,7-19.7,6.4-26.7-1.4
			c-6.7-7.4-6.5-18.7,0.6-25.9l0.7-0.7l0.1-0.1c32-30.7,82.9-29.5,113.5,2.6c3,3.2,5.8,6.5,8.2,10.1c0.6,0.9,1.2,1.8,1.8,2.8
			C1560.4,50.9,1561.2,54,1561.2,57.1z"/>
		
			<ellipse transform="matrix(9.088699e-03 -1 1 9.088699e-03 1300.2209 1583.2457)" class="st1" cx="1449" cy="135.6" rx="18.9" ry="18.9"/>
		
			<ellipse transform="matrix(0.9999 -1.020400e-02 1.020400e-02 0.9999 -0.4015 14.7761)" class="st3" cx="1447.8" cy="46.7" rx="18.9" ry="18.9"/>
		<path class="st10" d="M747.7,370.9c0,3.1,0.8,6.2,2.3,9c0.6,0.9,1.2,1.8,1.8,2.8c25,36.6,75.1,46,111.7,21
			c36.6-25,46-75.1,21-111.7s-75.1-46-111.7-21c-8.2,5.7-15.3,12.8-21,21c-0.6,0.9-1.2,1.8-1.8,2.8c-5,9.2-1.5,20.7,7.7,25.7
			c8.2,4.4,18.5,2.2,24.1-5.2c0.5-0.8,0.9-1.4,1.4-2.2c13.4-19.2,40-23.9,59.2-10.5s23.9,40,10.5,59.2s-40,23.9-59.2,10.5
			c-4.1-2.8-7.7-6.4-10.5-10.5c-0.5-0.7-1-1.4-1.4-2.2c-6.3-8.3-18.3-9.9-26.5-3.7C750.5,359.4,747.7,365,747.7,370.9L747.7,370.9z"
			/>
		<path class="st5" d="M841,382.2c0,10.4,8.5,18.9,18.9,18.9c4.6,0,9.2-1.7,12.6-4.8c0.1-0.1,0.3-0.3,0.4-0.4
			c32.4-30.3,34-81.1,3.7-113.5c-0.8-0.8-1.5-1.7-2.3-2.4c-0.2-0.2-0.5-0.4-0.7-0.7l-0.1-0.1c-7.7-7-19.6-6.5-26.7,1.2
			c-6.8,7.4-6.5,18.8,0.5,26c0.3,0.3,0.6,0.6,0.8,0.8c0,0,0,0,0.1,0c16.6,16.6,16.5,43.5-0.1,60.1c-0.2,0.2-0.4,0.4-0.6,0.6
			c-0.3,0.3-0.6,0.6-0.9,0.8l0,0C842.9,372.3,841,377.1,841,382.2z"/>
		<path class="st8" d="M747.7,303.6c0,10.5,8.5,19,19,19c5.9,0,11.5-2.8,15.1-7.5c0.5-0.8,0.9-1.4,1.4-2.2
			c13.4-19.2,40-23.9,59.2-10.5c1.7,1.2,3.4,2.6,4.9,4c0.3,0.3,0.6,0.6,0.8,0.8c0,0,0,0,0.1,0c7.7,7,19.7,6.4,26.7-1.4
			c6.7-7.4,6.5-18.7-0.6-25.9c-0.2-0.2-0.5-0.4-0.7-0.7l-0.1-0.1c-32-30.6-82.9-29.5-113.5,2.6c-3,3.2-5.8,6.5-8.3,10.2
			c-0.6,0.9-1.2,1.8-1.8,2.8C748.5,297.4,747.7,300.4,747.7,303.6z"/>
		<circle class="st1" cx="859.9" cy="382.2" r="18.9"/>
		<circle class="st3" cx="860.8" cy="293.2" r="18.9"/>
		<path class="st10" d="M2052.4,1193c0,3.1,0.8,6.2,2.3,9c0.6,0.9,1.2,1.9,1.8,2.8c25,36.6,75.1,46,111.7,21
			c36.6-25,46-75.1,21-111.7s-75.1-46-111.7-21c-8.2,5.7-15.3,12.7-21,21c-0.6,0.9-1.2,1.8-1.8,2.8c-5,9.2-1.4,20.7,7.8,25.6
			c8.2,4.4,18.4,2.2,24.1-5.2c0.5-0.8,1-1.4,1.4-2.2c13.4-19.2,40-23.9,59.2-10.5s23.9,40,10.5,59.2s-40,23.9-59.2,10.5
			c-4.1-2.8-7.6-6.4-10.5-10.5c-0.5-0.7-1-1.4-1.4-2.2c-6.3-8.3-18.3-9.9-26.5-3.7C2055.2,1181.6,2052.4,1187.1,2052.4,1193
			L2052.4,1193z"/>
		<path class="st5" d="M2145.7,1204.3c0,10.4,8.5,18.9,18.9,18.9c4.7,0,9.2-1.7,12.6-4.8c0.1-0.1,0.3-0.3,0.4-0.4
			c32.4-30.3,34-81.1,3.7-113.5c-0.8-0.8-1.6-1.7-2.3-2.4c-0.2-0.2-0.4-0.4-0.7-0.7l-0.1-0.1c-7.8-7-19.7-6.3-26.7,1.4
			c-6.6,7.4-6.4,18.6,0.5,25.8c0.3,0.3,0.6,0.6,0.8,0.8c0,0,0,0,0.1,0c16.6,16.6,16.5,43.5-0.1,60.1c-0.2,0.2-0.4,0.4-0.6,0.6
			c-0.3,0.3-0.6,0.6-0.9,0.8l0,0C2147.6,1194.4,2145.7,1199.3,2145.7,1204.3z"/>
		<path class="st8" d="M2052.4,1125.7c0,10.5,8.5,19,19,19c5.9,0,11.5-2.8,15.1-7.5c0.5-0.8,1-1.4,1.4-2.2
			c13.4-19.2,40-23.9,59.2-10.5c1.7,1.2,3.4,2.6,4.9,4c0.3,0.3,0.6,0.6,0.8,0.8c0,0,0,0,0.1,0c7.7,7,19.7,6.4,26.7-1.4
			c6.7-7.4,6.5-18.7-0.6-25.9l-0.7-0.7l-0.1-0.1c-32-30.7-82.9-29.5-113.5,2.6c-3,3.2-5.8,6.5-8.2,10.1c-0.6,0.9-1.2,1.8-1.8,2.8
			C2053.2,1119.5,2052.4,1122.6,2052.4,1125.7z"/>
		<circle class="st1" cx="2164.5" cy="1204.3" r="18.9"/>
		<circle class="st3" cx="2165.5" cy="1115.3" r="18.9"/>
		<path class="st11" d="M347.5,1412.6c0,10.5-8.5,19-19,19c-5.9,0-11.4-2.8-15-7.4c-0.5-0.8-0.9-1.4-1.4-2.2
			c-13.4-19.2-39.9-23.9-59.2-10.5c-1.7,1.2-3.4,2.6-4.9,4c-0.3,0.3-0.6,0.6-0.8,0.8c0,0,0,0-0.1,0c-7.7,7-19.7,6.4-26.7-1.4
			c-6.7-7.4-6.5-18.7,0.6-25.9l0.7-0.7l0.1-0.1c32-30.7,82.9-29.5,113.5,2.6c3,3.2,5.8,6.5,8.2,10.1c0.6,0.9,1.2,1.8,1.8,2.8
			C346.8,1406.3,347.5,1409.4,347.5,1412.6z"/>
		<path class="st8" d="M2217.9,790.2c0,10.5-8.5,19-19,19c-5.9,0-11.5-2.8-15.1-7.5c-0.5-0.8-1-1.4-1.4-2.2
			c-13.4-19.2-39.9-23.9-59.2-10.5c-1.7,1.2-3.4,2.6-4.9,4c-0.3,0.3-0.6,0.6-0.8,0.8c0,0,0,0-0.1,0c-7.7,7-19.7,6.4-26.7-1.4
			c-6.7-7.4-6.5-18.7,0.6-25.9l0.7-0.7l0.1-0.1c32-30.7,82.9-29.5,113.5,2.6c3,3.2,5.8,6.5,8.2,10.1c0.6,0.9,1.2,1.8,1.8,2.8
			C2217.1,783.9,2217.9,787,2217.9,790.2z"/>
		<path class="st8" d="M1980.5,1363.9c-0.6,1-1.2,1.9-1.8,2.8c-2.4,3.6-5.2,7-8.2,10.1c-30.6,32-81.5,33.2-113.5,2.6l-0.1-0.1
			l-0.7-0.7c-7-7.2-7.2-18.5-0.6-25.9c7-7.8,19-8.4,26.7-1.4c0.1,0,0.1,0,0.1,0c0.3,0.3,0.6,0.6,0.8,0.8c1.5,1.4,3.2,2.8,4.9,4
			c19.3,13.4,45.8,8.8,59.2-10.5c0.5-0.8,1-1.4,1.4-2.2c3.6-4.8,9.2-7.5,15.1-7.5c10.5,0,19,8.5,19,19
			C1982.8,1358,1982,1361.1,1980.5,1363.9z"/>
		<path class="st1" d="M2587.7,1201.5c-0.6,1-1.2,1.9-1.8,2.8c-2.4,3.6-5.2,7-8.2,10.1c-30.6,32-81.5,33.2-113.5,2.6l-0.1-0.1
			l-0.7-0.7c-7-7.2-7.2-18.5-0.6-25.9c7-7.8,19-8.4,26.7-1.4c0.1,0,0.1,0,0.1,0c0.3,0.3,0.6,0.6,0.8,0.8c1.5,1.4,3.2,2.8,4.9,4
			c19.3,13.4,45.8,8.8,59.2-10.5c0.5-0.8,1-1.4,1.4-2.2c3.6-4.8,9.2-7.5,15.1-7.5c10.5,0,19,8.5,19,19
			C2590,1195.5,2589.3,1198.6,2587.7,1201.5z"/>
		<path class="st4" d="M2152.8,242.8h175.1c11.3,0,20.5,9.2,20.5,20.5l0,0c0,11.3-9.2,20.5-20.5,20.5h-175.1
			c-11.3,0-20.5-9.2-20.5-20.5l0,0C2132.3,252,2141.5,242.8,2152.8,242.8z"/>
		<path class="st2" d="M2426,45.5v223.3c0,11.3-9.2,20.5-20.5,20.5l0,0c-11.3,0-20.5-9.2-20.5-20.5V45.5c0-11.3,9.2-20.5,20.5-20.5
			l0,0C2416.9,25,2426,34.2,2426,45.5z"/>
		<path class="st7" d="M1936,49.5l42.7,117.9c3.9,10.6-1.7,22.3-12.3,26.2l0,0c-10.6,3.9-22.3-1.7-26.2-12.3l-42.7-117.9
			c-3.9-10.6,1.7-22.3,12.3-26.2l0,0C1920.4,33.4,1932.2,38.9,1936,49.5z"/>
		<path class="st8" d="M1854.8,167.4l42.7-117.9c3.8-10.6,15.6-16.1,26.2-12.3l0,0c10.6,3.8,16.1,15.6,12.3,26.2l-42.7,117.9
			c-3.8,10.6-15.6,16.1-26.2,12.3l0,0C1856.4,189.7,1851,178,1854.8,167.4z"/>
		<path class="st9" d="M1903,41.6c0.3-0.3,0.7-0.6,1-0.9l0.6-0.4c3.1-2.3,6.8-3.7,10.8-4c0.2-0.1,0.5-0.1,0.7-0.1c0.6,0,1.1,0,1.7,0
			l0.7,0.1c4.1,0.3,8.1,1.9,11.4,4.5c0.2,0.1,0.3,0.3,0.6,0.4l0.5,0.4c4.3,3.9,6.7,9.4,6.7,15.1c0,2.3-0.4,4.7-1.2,6.9l-19.4,53
			l-19.4-53c-0.8-2.3-1.2-4.6-1.2-7C1896.2,50.8,1898.7,45.4,1903,41.6z"/>
		<path class="st7" d="M2489,114.9l117.9,42.7c10.6,3.8,16.1,15.6,12.3,26.2l0,0c-3.8,10.6-15.6,16.1-26.2,12.3l-117.9-42.7
			c-10.6-3.8-16.1-15.6-12.3-26.2l0,0C2466.7,116.6,2478.4,111.1,2489,114.9z"/>
		<path class="st5" d="M2606.8,196.1l-117.9,42.7c-10.6,3.9-22.3-1.7-26.2-12.3l0,0c-3.9-10.6,1.7-22.3,12.3-26.2l117.9-42.7
			c10.6-3.9,22.3,1.7,26.2,12.3l0,0C2622.9,180.5,2617.5,192.2,2606.8,196.1z"/>
		<path class="st1" d="M2614.8,191c0.3-0.3,0.6-0.7,0.9-1c0.1-0.2,0.3-0.3,0.4-0.6c2.3-3.2,3.7-6.9,4-10.8c0.1-0.2,0.1-0.5,0.1-0.7
			c0-0.6,0-1.1,0-1.7c0-0.2-0.1-0.5-0.1-0.7c-0.1-1.9-0.6-3.7-1.2-5.5c-0.8-2.1-1.9-4.1-3.3-5.9c-0.1-0.2-0.3-0.3-0.4-0.6l-0.4-0.5
			c-3.9-4.3-9.4-6.7-15.1-6.7c-2.4,0-4.8,0.4-7,1.2l-53,19.3l53,19.4c2.3,0.8,4.6,1.2,7,1.2C2605.5,197.5,2611,195.1,2614.8,191z"/>
		<path class="st5" d="M2489,29.2L2606.9,72c10.6,3.8,16.1,15.6,12.3,26.2l0,0c-3.8,10.6-15.6,16.1-26.2,12.3l-117.9-42.7
			c-10.6-3.8-16.1-15.6-12.3-26.2l0,0C2466.7,30.9,2478.4,25.4,2489,29.2z"/>
		<path class="st8" d="M2606.8,110.4l-117.9,42.7c-10.6,3.9-22.3-1.7-26.2-12.3l0,0c-3.9-10.6,1.7-22.3,12.3-26.2l117.9-42.7
			c10.6-3.9,22.3,1.7,26.2,12.3l0,0C2622.9,94.9,2617.5,106.6,2606.8,110.4z"/>
		<path class="st3" d="M2614.8,105.3c0.3-0.3,0.6-0.7,0.9-1c0.1-0.2,0.3-0.3,0.4-0.6c2.3-3.2,3.7-6.9,4-10.8
			c0.1-0.2,0.1-0.5,0.1-0.7c0-0.6,0-1.1,0-1.7c0-0.2-0.1-0.5-0.1-0.7c-0.1-1.9-0.6-3.7-1.2-5.5c-0.8-2.1-1.9-4.1-3.3-5.9
			c-0.1-0.2-0.3-0.3-0.4-0.6l-0.4-0.5c-3.9-4.3-9.4-6.7-15.1-6.7c-2.4,0-4.8,0.4-7,1.2l-53,19.4l53,19.4c2.3,0.8,4.6,1.2,7,1.2
			C2605.5,111.9,2611,109.5,2614.8,105.3z"/>
		<path class="st9" d="M2467,120.2c-0.3,0.3-0.6,0.7-0.9,1c-0.1,0.2-0.3,0.3-0.4,0.6c-2.3,3.2-3.7,6.9-4,10.8
			c-0.1,0.2-0.1,0.5-0.1,0.7c0,0.6,0,1.1,0,1.7c0.1,0.2,0.1,0.5,0.1,0.7c0.1,1.9,0.6,3.7,1.2,5.5c0.8,2.1,1.9,4.1,3.3,5.9
			c0.1,0.2,0.3,0.3,0.4,0.6l0.4,0.5c3.9,4.3,9.4,6.7,15.1,6.7c2.3,0,4.7-0.4,6.9-1.2l53-19.4l-53-19.4c-2.3-0.8-4.6-1.2-7-1.2
			C2476.3,113.6,2470.8,116.1,2467,120.2z"/>
		<path class="st11" d="M2081.6,47.5v127c0,11.3-9.2,20.5-20.5,20.5l0,0c-11.3,0-20.5-9.2-20.5-20.5v-127c0-11.3,9.2-20.5,20.5-20.5
			l0,0C2072.5,27,2081.6,36.2,2081.6,47.5z"/>
		<circle class="st6" cx="2571.7" cy="291.1" r="23.8"/>
		<circle class="st3" cx="2069.3" cy="263.3" r="23.8"/>
		
			<ellipse transform="matrix(0.3827 -0.9239 0.9239 0.3827 1050.3379 2307.2949)" class="st1" cx="2251.7" cy="367.7" rx="15.6" ry="15.6"/>
		<circle class="st1" cx="2194.5" cy="367.7" r="15.6"/>
		<circle class="st1" cx="2139.9" cy="367.7" r="15.6"/>
		
			<ellipse transform="matrix(0.9871 -0.1602 0.1602 0.9871 -25.7062 416.7373)" class="st3" cx="2571.7" cy="367.8" rx="15.6" ry="15.6"/>
		
			<ellipse transform="matrix(0.9871 -0.1602 0.1602 0.9871 -34.3409 417.4334)" class="st3" cx="2571.7" cy="421.7" rx="15.6" ry="15.6"/>
		
			<ellipse transform="matrix(0.9871 -0.1602 0.1602 0.9871 -42.9757 418.1296)" class="st3" cx="2571.7" cy="475.6" rx="15.6" ry="15.6"/>
		<path class="st10" d="M2157.3,156.3c0,3.1,0.8,6.2,2.3,9c0.6,0.9,1.2,1.9,1.8,2.8c25,36.6,75.1,46,111.7,21
			c36.6-25,46-75.1,21-111.7s-75.1-46-111.7-21c-8.2,5.7-15.3,12.7-21,21c-0.6,0.9-1.2,1.8-1.8,2.8c-5,9.2-1.4,20.7,7.8,25.6
			c8.2,4.4,18.4,2.2,24.1-5.2c0.5-0.8,1-1.4,1.4-2.2c13.4-19.2,40-23.9,59.2-10.5s23.9,40,10.5,59.2s-40,23.9-59.2,10.5
			c-4.1-2.8-7.6-6.4-10.5-10.5c-0.5-0.7-1-1.4-1.4-2.2c-6.3-8.3-18.3-9.9-26.5-3.7C2160,144.9,2157.3,150.4,2157.3,156.3
			L2157.3,156.3z"/>
		<path class="st5" d="M2250.5,167.6c0,10.4,8.5,18.9,18.9,18.9c4.7,0,9.2-1.7,12.6-4.8c0.1-0.1,0.3-0.3,0.4-0.4
			c32.4-30.3,34-81.1,3.7-113.5c-0.8-0.8-1.6-1.7-2.3-2.4c-0.2-0.2-0.4-0.4-0.7-0.7l-0.1-0.1c-7.8-7-19.7-6.3-26.7,1.4
			c-6.6,7.4-6.4,18.6,0.5,25.8c0.3,0.3,0.6,0.6,0.8,0.8c0,0,0,0,0.1,0c16.6,16.6,16.5,43.5-0.1,60.1c-0.2,0.2-0.4,0.4-0.6,0.6
			c-0.3,0.3-0.6,0.6-0.9,0.8l0,0C2252.5,157.7,2250.5,162.6,2250.5,167.6z"/>
		<path class="st8" d="M2157.3,89c0,10.5,8.5,19,19,19c5.9,0,11.5-2.8,15.1-7.5c0.5-0.8,1-1.4,1.4-2.2c13.4-19.2,40-23.9,59.2-10.5
			c1.7,1.2,3.4,2.6,4.9,4c0.3,0.3,0.6,0.6,0.8,0.8c0,0,0,0,0.1,0c7.7,7,19.7,6.4,26.7-1.4c6.7-7.4,6.5-18.7-0.6-25.9l-0.7-0.7
			l-0.1-0.1c-32-30.7-82.9-29.5-113.5,2.6c-3,3.2-5.8,6.5-8.2,10.1c-0.6,0.9-1.2,1.8-1.8,2.8C2158,82.8,2157.3,85.9,2157.3,89z"/>
		<circle class="st1" cx="2269.4" cy="167.6" r="18.9"/>
		<circle class="st3" cx="2270.4" cy="78.6" r="18.9"/>
		<path class="st8" d="M2391.1,375.3c0-10.5,8.5-19,19-19c5.9,0,11.5,2.8,15.1,7.5c0.5,0.8,1,1.4,1.4,2.2
			c13.4,19.2,39.9,23.9,59.2,10.5c1.7-1.2,3.4-2.6,4.9-4c0.3-0.3,0.6-0.6,0.8-0.8c0,0,0,0,0.1,0c7.7-7,19.7-6.4,26.7,1.4
			c6.7,7.4,6.5,18.7-0.6,25.9l-0.7,0.7l-0.1,0.1c-32,30.7-82.9,29.5-113.5-2.6c-3-3.2-5.8-6.5-8.2-10.1c-0.6-0.9-1.2-1.8-1.8-2.8
			C2391.8,381.6,2391.1,378.5,2391.1,375.3z"/>
		<path class="st8" d="M1983.9,253.2c-0.6,1-1.2,1.9-1.8,2.8c-2.4,3.6-5.2,7-8.2,10.1c-30.6,32-81.5,33.2-113.5,2.6l-0.1-0.1
			l-0.7-0.7c-7-7.2-7.2-18.5-0.6-25.9c7-7.8,19-8.4,26.7-1.4c0.1,0,0.1,0,0.1,0c0.3,0.3,0.6,0.6,0.8,0.8c1.5,1.4,3.2,2.8,4.9,4
			c19.3,13.4,45.8,8.8,59.2-10.5c0.5-0.8,1-1.4,1.4-2.2c3.6-4.8,9.2-7.5,15.1-7.5c10.5,0,19,8.5,19,19
			C1986.2,247.3,1985.4,250.4,1983.9,253.2z"/>
		<path class="st7" d="M114.7,1311.9l42.7,117.9c3.9,10.6-1.7,22.3-12.3,26.2l0,0c-10.6,3.9-22.3-1.7-26.2-12.3l-42.7-117.9
			c-3.9-10.6,1.7-22.3,12.3-26.2l0,0C99.1,1295.8,110.9,1301.3,114.7,1311.9z"/>
		<path class="st8" d="M33.5,1429.8l42.7-117.9c3.8-10.6,15.6-16.1,26.2-12.3l0,0c10.6,3.8,16.1,15.6,12.3,26.2L72,1443.7
			c-3.8,10.6-15.6,16.1-26.2,12.3l0,0C35.1,1452.1,29.7,1440.4,33.5,1429.8z"/>
		<path class="st9" d="M81.7,1304c0.3-0.3,0.7-0.6,1-0.9l0.6-0.4c3.1-2.3,6.8-3.7,10.8-4c0.2-0.1,0.5-0.1,0.7-0.1c0.6,0,1.1,0,1.7,0
			l0.7,0.1c4.1,0.3,8.1,1.9,11.4,4.5c0.2,0.1,0.3,0.3,0.6,0.4l0.5,0.4c4.3,3.9,6.7,9.4,6.7,15.1c0,2.3-0.4,4.7-1.2,6.9l-19.4,53
			l-19.4-53c-0.8-2.3-1.2-4.6-1.2-7C74.9,1313.2,77.4,1307.8,81.7,1304z"/>
		
			<ellipse transform="matrix(3.327798e-02 -0.9994 0.9994 3.327798e-02 -1285.0079 1722.6937)" class="st3" cx="248" cy="1525.6" rx="23.8" ry="23.8"/>
		<path class="st5" d="M162.5,1515.5c-0.6,1-1.2,1.9-1.8,2.8c-2.4,3.6-5.2,7-8.2,10.1c-30.6,32-81.5,33.2-113.5,2.6l-0.1-0.1
			l-0.7-0.7c-7-7.2-7.2-18.5-0.6-25.9c7-7.8,19-8.4,26.7-1.4c0.1,0,0.1,0,0.1,0c0.3,0.3,0.6,0.6,0.8,0.8c1.5,1.4,3.2,2.8,4.9,4
			c19.3,13.4,45.8,8.8,59.2-10.5c0.5-0.8,1-1.4,1.4-2.2c3.6-4.8,9.2-7.5,15.1-7.5c10.5,0,19,8.5,19,19
			C164.9,1509.6,164.1,1512.7,162.5,1515.5z"/>
		<path class="st1" d="M1888,923.9c0,10.5-8.5,19-19,19c-5.9,0-11.5-2.8-15.1-7.5c-0.5-0.8-1-1.4-1.4-2.2
			c-13.4-19.2-39.9-23.9-59.2-10.5c-1.7,1.2-3.4,2.6-4.9,4c-0.3,0.3-0.6,0.6-0.8,0.8h-0.1c-7.7,7-19.7,6.4-26.7-1.4
			c-6.7-7.4-6.5-18.7,0.6-25.9c0.2-0.2,0.5-0.4,0.7-0.7l0.1-0.1c32-30.7,82.8-29.5,113.5,2.6c3,3.2,5.8,6.6,8.3,10.2
			c0.6,0.9,1.2,1.8,1.8,2.8C1887.3,917.7,1888,920.8,1888,923.9z"/>
		<path class="st1" d="M1349,90c0,10.5-8.5,19-19,19c-5.9,0-11.5-2.8-15.1-7.5c-0.5-0.8-1-1.4-1.4-2.2
			c-13.4-19.2-39.9-23.9-59.2-10.5c-1.7,1.2-3.4,2.6-4.9,4c-0.3,0.3-0.6,0.6-0.8,0.8h-0.1c-7.7,7-19.7,6.4-26.7-1.4
			c-6.7-7.4-6.5-18.7,0.6-25.9c0.2-0.2,0.5-0.4,0.7-0.7l0.1-0.1c32-30.7,82.8-29.5,113.5,2.6c3,3.2,5.8,6.6,8.3,10.2
			c0.6,0.9,1.2,1.8,1.8,2.8C1348.2,83.8,1349,86.8,1349,90z"/>
		<path class="st1" d="M608.8,941.2c0,10.5-8.5,19-19,19c-5.9,0-11.5-2.8-15.1-7.5c-0.5-0.8-1-1.4-1.4-2.2
			c-13.4-19.2-39.9-23.9-59.2-10.5c-1.7,1.2-3.4,2.6-4.9,4c-0.3,0.3-0.6,0.6-0.8,0.8c0,0,0,0-0.1,0c-7.7,7-19.7,6.4-26.7-1.4
			c-6.7-7.4-6.5-18.7,0.6-25.9l0.7-0.7l0.1-0.1c32-30.7,82.9-29.5,113.5,2.6c3,3.2,5.8,6.5,8.2,10.1c0.6,0.9,1.2,1.8,1.8,2.8
			C608.1,934.9,608.8,938.1,608.8,941.2z"/>
		<path class="st8" d="M754.4,510.9c0,10.5-8.5,19-19,19c-5.9,0-11.5-2.8-15.1-7.5c-0.5-0.8-1-1.4-1.4-2.2
			c-13.4-19.2-39.9-23.9-59.2-10.5c-1.7,1.2-3.4,2.6-4.9,4c-0.3,0.3-0.6,0.6-0.8,0.8c0,0,0,0-0.1,0c-7.7,7-19.7,6.4-26.7-1.4
			c-6.7-7.4-6.5-18.7,0.6-25.9l0.7-0.7l0.1-0.1c32-30.7,82.9-29.5,113.5,2.6c3,3.2,5.8,6.5,8.2,10.1c0.6,0.9,1.2,1.8,1.8,2.8
			C753.6,504.7,754.4,507.8,754.4,510.9z"/>
		<path class="st1" d="M65.5,542.7L65.5,542.7c11.3,0,20.5,9.2,20.5,20.5v116.1c0,11.3-9.2,20.5-20.5,20.5l0,0
			c-11.3,0-20.5-9.2-20.5-20.5V563.2C45.1,551.9,54.2,542.7,65.5,542.7z"/>
		<path class="st2" d="M177.2,472.3L177.2,472.3c0,11.3-6.7,20.5-14.9,20.5H34.7c-8.2,0-14.9-9.2-14.9-20.5l0,0
			c0-11.3,6.7-20.5,14.9-20.5h127.6C170.5,451.8,177.2,461,177.2,472.3z"/>
		
			<ellipse transform="matrix(3.327793e-02 -0.9994 0.9994 3.327793e-02 -691.4614 795.5322)" class="st5" cx="65.5" cy="755.2" rx="23.8" ry="23.8"/>
		<path class="st10" d="M263.6,514.8c0.6,9.4-0.8,18.8-3.9,27.8c-4.4,13-12,23.4-19.2,31.3c-6.3,7-17.2,7.5-24.2,1.1
			c-0.1-0.1-0.2-0.1-0.3-0.3c-0.4-0.3-0.8-0.8-1.2-1.2l-0.1-0.1c-5.7-6.6-5.6-16.5,0.3-22.9c4.8-5.2,9.4-11.7,11.9-19.1
			c1.9-5.4,2.5-11.2,1.9-17c1.2-9.2-1.9-18.9-9.2-29.3c-13.4-19.1-20.5-37.6-21.5-55.3c-0.5-9.4,0.8-18.8,3.9-27.8
			c4.4-13,12-23.4,19.2-31.4c6.3-7,17.2-7.5,24.2-1.1c0.1,0.1,0.2,0.1,0.3,0.3l0,0c0.4,0.3,0.8,0.8,1.1,1.2l0.1,0.1
			c5.7,6.6,5.6,16.5-0.3,22.9c-4.8,5.2-9.4,11.7-11.9,19.1c-1.9,5.4-2.5,11.2-1.9,17c1,10.7,6.1,22.3,15.1,35.2
			C259.5,481.7,264.7,498.3,263.6,514.8z"/>
		<path class="st13" d="M238.6,449.5c2.7,5.6,5.9,10.9,9.4,15.9c11.4,16.3,16.7,32.9,15.6,49.4c0.6,9.4-0.8,18.8-3.9,27.8
			c-4.4,13-12,23.4-19.2,31.3c-6.3,7-17.2,7.5-24.2,1.1c-0.1-0.1-0.2-0.1-0.3-0.3c-0.4-0.3-0.8-0.8-1.2-1.2l-0.1-0.1
			c-5.7-6.6-5.6-16.5,0.3-22.9c4.8-5.2,9.4-11.7,11.9-19.1c1.9-5.4,2.5-11.2,1.9-17c1.2-9.2-1.9-18.9-9.2-29.3
			c-5.3-7.4-9.9-15.4-13.6-23.8L238.6,449.5z"/>
		<path class="st6" d="M248.1,465.4c11.4,16.3,16.7,32.9,15.6,49.4c0.6,9.4-0.8,18.8-3.9,27.8c-4.4,13-12,23.4-19.2,31.3
			c-6.3,7-17.2,7.5-24.2,1.1c-0.1-0.1-0.2-0.1-0.3-0.3c-0.4-0.3-0.8-0.8-1.2-1.2l-0.1-0.1c-5.7-6.6-5.6-16.5,0.3-22.9
			c4.8-5.2,9.4-11.7,11.9-19.1c1.9-5.4,2.5-11.2,1.9-17c1.2-9.2-1.9-18.9-9.2-29.3"/>
		<path class="st8" d="M152,383c0,10.5-8.5,19-19,19c-5.9,0-11.5-2.8-15.1-7.5c-0.5-0.8-1-1.4-1.4-2.2
			c-13.4-19.2-39.9-23.9-59.2-10.5c-1.7,1.2-3.4,2.6-4.9,4c-0.3,0.3-0.6,0.6-0.8,0.8c0,0,0,0-0.1,0c-7.7,7-19.7,6.4-26.7-1.4
			c-6.7-7.4-6.5-18.7,0.6-25.9l0.7-0.7l0.1-0.1c32-30.7,82.9-29.5,113.5,2.6c3,3.2,5.8,6.5,8.2,10.1c0.6,0.9,1.2,1.8,1.8,2.8
			C151.3,376.8,152,379.9,152,383z"/>
		<path class="st1" d="M779.6,95.7c0,10.5-8.5,19-19,19c-5.9,0-11.5-2.8-15.1-7.5c-0.5-0.8-1-1.4-1.4-2.2
			c-13.4-19.2-39.9-23.9-59.2-10.5c-1.7,1.2-3.4,2.6-4.9,4c-0.3,0.3-0.6,0.6-0.8,0.8c0,0,0,0-0.1,0c-7.7,7-19.7,6.4-26.7-1.4
			c-6.7-7.4-6.5-18.7,0.6-25.9l0.7-0.7l0.1-0.1c32-30.7,82.9-29.5,113.5,2.6c3,3.2,5.8,6.5,8.2,10.1c0.6,0.9,1.2,1.8,1.8,2.8
			C778.8,89.5,779.6,92.6,779.6,95.7z"/>
		<path class="st2" d="M1581.5,1297.5c7.7,7.7,7.7,20.2,0,27.9c-4.3,4.3-10.5,6.4-16.6,5.6c-0.9-0.2-1.8-0.4-2.7-0.6
			c-24.1-4.3-47,11.8-51.3,35.8c-0.4,2.1-0.6,4.3-0.7,6.5c0,0.4,0,0.8,0,1.2v0.1c-0.8,10.8-10.1,19-21,18.3
			c-10.1-0.7-18-9-18.3-19.1c0-0.3,0-0.7,0-1c0-0.1,0-0.1,0-0.1c1-46.1,39.3-82.6,85.4-81.6c4.5,0.1,9,0.6,13.5,1.4
			c1.1,0.2,2.2,0.4,3.3,0.7C1576.4,1293.6,1579.3,1295.3,1581.5,1297.5z"/>
		<path class="st2" d="M425.6,1166.7c7.7,7.7,7.7,20.2,0,27.9c-4.3,4.3-10.5,6.4-16.6,5.6c-0.9-0.2-1.8-0.4-2.7-0.6
			c-24.1-4.3-47,11.8-51.2,35.8c-0.3,2.1-0.6,4.3-0.7,6.5c0,0.4,0,0.8,0,1.2v0.1c-0.8,10.8-10.1,19-21,18.3
			c-10.1-0.7-18-9-18.3-19.1c0-0.3,0-0.6,0-1c0-0.1,0-0.1,0-0.1c1-46.1,39.3-82.7,85.4-81.7c4.5,0.1,9.1,0.6,13.5,1.4
			c1.1,0.2,2.2,0.4,3.3,0.7C420.5,1162.7,423.3,1164.3,425.6,1166.7z"/>
		<path class="st8" d="M303.8,219.7c7.7,7.7,7.7,20.2,0,27.9c-4.3,4.3-10.5,6.4-16.6,5.6c-0.9-0.2-1.8-0.4-2.7-0.6
			c-24.1-4.3-47,11.8-51.2,35.8c-0.3,2.1-0.6,4.3-0.7,6.5c0,0.4,0,0.8,0,1.2v0.1c-0.8,10.8-10.1,19-21,18.3
			c-10.1-0.7-18-9-18.3-19.1c0-0.3,0-0.6,0-1c0-0.1,0-0.1,0-0.1c1-46.1,39.3-82.7,85.4-81.7c4.5,0.1,9.1,0.6,13.5,1.4
			c1.1,0.2,2.2,0.4,3.3,0.7C298.7,215.7,301.5,217.4,303.8,219.7z"/>
	</g>
</g>
</svg>
