<?xml version="1.0" encoding="utf-8"?>
<!-- Generator: Adobe Illustrator 24.1.1, SVG Export Plug-In . SVG Version: 6.00 Build 0)  -->
<svg version="1.1" id="Capa_1" xmlns="http://www.w3.org/2000/svg" xmlns:xlink="http://www.w3.org/1999/xlink" x="0px" y="0px"
	 viewBox="0 0 3300.5 1618.5" style="enable-background:new 0 0 3300.5 1618.5;" xml:space="preserve">
<style type="text/css">
	.st0{fill:#D20746;}
	.st1{fill:#A3C62C;}
	.st2{fill:#F44D71;}
	.st3{fill:#F4E91E;}
	.st4{fill:#5EB9CF;}
	.st5{fill:#56B1CA;}
	.st6{fill:#D40044;}
	.st7{fill:#A54583;}
	.st8{fill:#FF3947;}
	.st9{fill:#6DB3D2;}
	.st10{fill:#BA3498;}
	.st11{fill:#F87800;}
	.st12{fill:#B2328F;}
	.st13{fill:#5F569A;}
	.st14{fill:#F0DC37;}
</style>
<g id="Capa_2_1_">
	<g id="Capa_2-2">
		<path class="st0" d="M603.1,1146L603.1,1146c16.4,0,29.7,13.3,29.7,29.7v168.5c0,16.4-13.3,29.7-29.7,29.7l0,0
			c-16.4,0-29.7-13.3-29.7-29.7v-168.5C573.4,1159.3,586.7,1146,603.1,1146z"/>
		<path class="st0" d="M3228.3,340.7L3228.3,340.7c16.4,0,29.7,13.3,29.7,29.7v168.5c0,16.4-13.3,29.7-29.7,29.7l0,0
			c-16.4,0-29.7-13.3-29.7-29.7V370.4C3198.6,354,3211.9,340.7,3228.3,340.7z"/>
		<path class="st0" d="M73.3,369L73.3,369c16.4,0,29.7,13.3,29.7,29.7v168.5c0,16.4-13.3,29.7-29.7,29.7l0,0
			c-16.4,0-29.7-13.3-29.7-29.7V398.7C43.6,382.3,56.9,369,73.3,369z"/>
		<path class="st1" d="M571.7,528.4L571.7,528.4c16.4,0,29.7,13.3,29.7,29.7v168.5c0,16.4-13.3,29.7-29.7,29.7l0,0
			c-16.4,0-29.7-13.3-29.7-29.7V558.1C542,541.7,555.3,528.4,571.7,528.4z"/>
		<path class="st1" d="M2880.1,178.6L2880.1,178.6c16.4,0,29.7,13.3,29.7,29.7v168.5c0,16.4-13.3,29.7-29.7,29.7l0,0
			c-16.4,0-29.7-13.3-29.7-29.7V208.3C2850.4,191.9,2863.7,178.6,2880.1,178.6z"/>
		<path class="st2" d="M3036.8,570.2L3036.8,570.2c0,16.4-13.3,29.7-29.7,29.7h-254c-16.4,0-29.7-13.3-29.7-29.7l0,0
			c0-16.4,13.3-29.7,29.7-29.7h254C3023.5,540.5,3036.8,553.8,3036.8,570.2z"/>
		<path class="st2" d="M3070.3,1442.1L3070.3,1442.1c0,16.4-13.3,29.7-29.7,29.7h-254c-16.4,0-29.7-13.3-29.7-29.7l0,0
			c0-16.4,13.3-29.7,29.7-29.7h254C3057,1412.4,3070.3,1425.7,3070.3,1442.1z"/>
		<path class="st2" d="M953.5,502.6L953.5,502.6c0,16.4-13.3,29.7-29.7,29.7h-254c-16.4,0-29.7-13.3-29.7-29.7l0,0
			c0-16.4,13.3-29.7,29.7-29.7h254C940.2,472.9,953.5,486.2,953.5,502.6z"/>
		<path class="st3" d="M3119.4,42.8L3119.4,42.8c16.4,0,29.7,13.3,29.7,29.7v324c0,16.4-13.3,29.7-29.7,29.7l0,0
			c-16.4,0-29.7-13.3-29.7-29.7v-324C3089.7,56.1,3103,42.8,3119.4,42.8z"/>
		<path class="st3" d="M360.6,429.6L360.6,429.6c16.4,0,29.7,13.3,29.7,29.7v324c0,16.4-13.3,29.7-29.7,29.7l0,0
			c-16.4,0-29.7-13.3-29.7-29.7v-324C330.8,442.9,344.1,429.6,360.6,429.6z"/>
		<path class="st3" d="M2718.5,1009.2L2718.5,1009.2c16.4,0,29.7,13.3,29.7,29.7v324c0,16.4-13.3,29.7-29.7,29.7l0,0
			c-16.4,0-29.7-13.3-29.7-29.7v-324C2688.8,1022.5,2702,1009.2,2718.5,1009.2z"/>
		<path class="st4" d="M228.1,1358.2L228.1,1358.2c16.4,0,29.7,13.3,29.7,29.7V1551c0,16.4-13.3,29.7-29.7,29.7l0,0
			c-16.4,0-29.7-13.3-29.7-29.7v-163.1C198.4,1371.4,211.7,1358.2,228.1,1358.2z"/>
		<path class="st3" d="M420.9,1550.9L420.9,1550.9c0,16.4-13.3,29.7-29.7,29.7H228.1c-16.4,0-29.7-13.3-29.7-29.7l0,0
			c0-16.4,13.3-29.7,29.7-29.7h163.1C407.6,1521.2,420.9,1534.5,420.9,1550.9z"/>
		<path class="st1" d="M257.8,1521.2v29.7c0,16.4-13.3,29.7-29.7,29.7s-29.7-13.3-29.7-29.7c0-16.4,13.3-29.7,29.7-29.7l0,0H257.8z"
			/>
		<path class="st1" d="M257.8,1521.2v29.7c0,16.4-13.3,29.7-29.7,29.7s-29.7-13.3-29.7-29.7c0-16.4,13.3-29.7,29.7-29.7l0,0H257.8z"
			/>
		<path class="st4" d="M252.1,156L252.1,156c16.4,0,29.7,13.3,29.7,29.7v163.1c0,16.4-13.3,29.7-29.7,29.7l0,0
			c-16.4,0-29.7-13.3-29.7-29.7V185.7C222.3,169.3,235.6,156,252.1,156z"/>
		<path class="st3" d="M444.7,348.7L444.7,348.7c0,16.4-13.3,29.7-29.7,29.7H252c-16.4,0-29.7-13.3-29.7-29.7l0,0
			c0-16.4,13.3-29.7,29.7-29.7h163.1C431.5,319,444.7,332.3,444.7,348.7z"/>
		<path class="st1" d="M281.7,319v29.7c0,16.4-13.3,29.7-29.7,29.7s-29.7-13.3-29.7-29.7c0-16.4,13.3-29.7,29.7-29.7H281.7z"/>
		<path class="st1" d="M281.7,319v29.7c0,16.4-13.3,29.7-29.7,29.7s-29.7-13.3-29.7-29.7c0-16.4,13.3-29.7,29.7-29.7H281.7z"/>
		<path class="st5" d="M874.6,1030.7L874.6,1030.7c15.4,5.6,23.4,22.6,17.8,38l-62,171c-5.6,15.4-22.6,23.4-38,17.8l0,0
			c-15.4-5.6-23.4-22.6-17.8-38l62-171C842.1,1033.1,859.2,1025.1,874.6,1030.7z"/>
		<path class="st6" d="M936.6,1257.5L936.6,1257.5c-15.4,5.6-32.5-2.4-38-17.8l-62-171c-5.6-15.4,2.4-32.5,17.8-38l0,0
			c15.4-5.6,32.5,2.4,38,17.8l62,171C959.9,1234.9,952,1251.9,936.6,1257.5z"/>
		<path class="st7" d="M894.3,1058.8c0,3.4-0.6,6.8-1.8,10.1l-28.1,76.9l-28.1-76.9c-1.2-3.2-1.8-6.6-1.8-10
			c0-8.3,3.5-16.3,9.7-21.9l0.7-0.6c0.3-0.2,0.5-0.4,0.8-0.6c4.7-3.8,10.5-6.1,16.5-6.5l1-0.1c0.8,0,1.6,0,2.4,0c0.3,0,0.7,0,1,0.1
			c5.7,0.4,11.1,2.5,15.6,5.8l0.8,0.6c0.5,0.4,1,0.8,1.5,1.3C890.7,1042.5,894.3,1050.4,894.3,1058.8z"/>
		<path class="st5" d="M501.2,38.7L501.2,38.7c15.4-5.6,32.5,2.4,38,17.8l62,171c5.6,15.4-2.4,32.5-17.8,38l0,0
			c-15.4,5.6-32.5-2.4-38-17.8l-62-171C477.8,61.3,485.8,44.3,501.2,38.7z"/>
		<path class="st6" d="M563.2,265.5L563.2,265.5c-15.4-5.6-23.4-22.6-17.8-38l62-171c5.6-15.4,22.6-23.4,38-17.8l0,0
			c15.4,5.6,23.4,22.6,17.8,38l-62,171C595.7,263.1,578.7,271.1,563.2,265.5z"/>
		<path class="st7" d="M603.3,237.4c0-3.4-0.6-6.8-1.8-10.1l-28.1-76.9l-28.1,76.9c-1.2,3.2-1.8,6.6-1.8,10.1
			c0,8.3,3.5,16.3,9.7,21.9l0.7,0.6c0.3,0.2,0.5,0.4,0.8,0.6c4.7,3.8,10.5,6.1,16.5,6.5l1,0.1c0.8,0,1.6,0,2.4,0c0.3,0,0.7,0,1-0.1
			c5.7-0.4,11.1-2.5,15.6-5.8c0.3-0.2,0.5-0.4,0.8-0.6c0.5-0.4,1-0.8,1.5-1.3C599.7,253.8,603.3,245.8,603.3,237.4z"/>
		<path class="st5" d="M2616,6.6L2616,6.6c15.4-5.6,32.5,2.4,38,17.8l62,171c5.6,15.4-2.4,32.5-17.8,38l0,0
			c-15.4,5.6-32.5-2.4-38-17.8l-62-171C2592.7,29.2,2600.6,12.2,2616,6.6z"/>
		<path class="st6" d="M2678,233.4L2678,233.4c-15.4-5.6-23.4-22.6-17.8-38l62-171c5.6-15.4,22.6-23.4,38-17.8l0,0
			c15.4,5.6,23.4,22.6,17.8,38l-62,171C2710.4,231,2693.4,239,2678,233.4z"/>
		<path class="st7" d="M2718.1,205.2c0-3.4-0.6-6.8-1.8-10.1l-28.1-76.9l-28.1,76.9c-1.2,3.2-1.8,6.6-1.8,10.1
			c0,8.3,3.5,16.3,9.7,21.9l0.7,0.6l0.8,0.6c4.7,3.8,10.5,6.1,16.5,6.5l1,0.1c0.8,0,1.6,0,2.4,0c0.3,0,0.7,0,1-0.1
			c5.7-0.4,11.1-2.5,15.6-5.8c0.3-0.2,0.5-0.4,0.8-0.6c0.5-0.4,1-0.8,1.5-1.3C2714.5,221.6,2718,213.6,2718.1,205.2z"/>
		<path class="st5" d="M937.6,1537L937.6,1537c-5.6,15.4-22.6,23.4-38,17.8l-171-62c-15.4-5.6-23.4-22.6-17.8-38l0,0
			c5.6-15.4,22.6-23.4,38-17.8l171,62C935.2,1504.6,943.2,1521.6,937.6,1537z"/>
		<path class="st3" d="M710.9,1599L710.9,1599c-5.6-15.4,2.4-32.5,17.8-38l171-62c15.4-5.6,32.5,2.4,38,17.8l0,0
			c5.6,15.4-2.4,32.5-17.8,38l-171,62C733.5,1622.4,716.5,1614.5,710.9,1599z"/>
		<path class="st1" d="M909.6,1556.7c-3.4,0-6.8-0.6-10.1-1.8l-76.9-28.1l76.9-28.1c3.2-1.2,6.6-1.8,10-1.8c8.3,0,16.3,3.5,21.9,9.7
			l0.6,0.7c0.2,0.3,0.4,0.5,0.6,0.8c2.1,2.6,3.7,5.5,4.8,8.6c0.9,2.6,1.5,5.3,1.7,8c0,0.3,0,0.7,0.1,1c0,0.8,0,1.6,0,2.4
			c0,0.3,0,0.7-0.1,1c-0.4,5.7-2.5,11.1-5.8,15.6c-0.2,0.3-0.4,0.5-0.6,0.8c-0.4,0.5-0.8,1-1.3,1.5
			C925.9,1553.1,918,1556.6,909.6,1556.7z"/>
		<path class="st3" d="M937.6,1412.7L937.6,1412.7c-5.6,15.4-22.6,23.4-38,17.8l-171-62c-15.4-5.6-23.4-22.6-17.8-38l0,0
			c5.6-15.4,22.6-23.4,38-17.8l171,62C935.2,1380.2,943.2,1397.2,937.6,1412.7z"/>
		<path class="st6" d="M710.9,1474.7L710.9,1474.7c-5.6-15.4,2.4-32.5,17.8-38l171-62c15.4-5.6,32.5,2.4,38,17.8l0,0
			c5.6,15.4-2.4,32.5-17.8,38l-171,62C733.5,1498.1,716.5,1490.1,710.9,1474.7z"/>
		<path class="st8" d="M909.6,1432.3c-3.4,0-6.8-0.6-10.1-1.8l-76.9-28.1l76.9-28.1c3.2-1.2,6.6-1.8,10-1.8c8.3,0,16.3,3.5,21.9,9.7
			l0.6,0.7c0.2,0.3,0.4,0.5,0.6,0.8c2.1,2.6,3.7,5.5,4.8,8.6c0.9,2.6,1.5,5.3,1.7,8c0,0.3,0,0.7,0.1,1c0,0.8,0,1.6,0,2.4
			c0,0.3,0,0.7-0.1,1c-0.4,5.7-2.5,11.1-5.8,15.7c-0.2,0.3-0.4,0.5-0.6,0.8c-0.4,0.5-0.8,1-1.3,1.5
			C925.9,1428.8,918,1432.3,909.6,1432.3z"/>
		<path class="st7" d="M738.9,1434.8c3.4,0,6.8,0.6,10.1,1.8l76.9,28.1l-76.9,28.1c-3.2,1.2-6.6,1.8-10,1.8
			c-8.3,0-16.3-3.5-21.9-9.7l-0.6-0.7c-0.2-0.3-0.4-0.5-0.6-0.8c-2.1-2.6-3.7-5.5-4.8-8.6c-0.9-2.6-1.5-5.3-1.7-8c0-0.3,0-0.7-0.1-1
			c0-0.8,0-1.6,0-2.4c0-0.3,0-0.7,0.1-1c0.4-5.7,2.5-11.1,5.8-15.7c0.2-0.3,0.4-0.5,0.6-0.8c0.4-0.5,0.8-1,1.3-1.5
			C722.6,1438.4,730.5,1434.9,738.9,1434.8z"/>
		<path class="st5" d="M3255.4,992.1L3255.4,992.1c-5.6,15.4-22.6,23.4-38,17.8l-171-62c-15.4-5.6-23.4-22.6-17.8-38l0,0
			c5.6-15.4,22.6-23.4,38-17.8l171,62C3253.1,959.7,3261,976.7,3255.4,992.1z"/>
		<path class="st3" d="M3028.7,1054L3028.7,1054c-5.6-15.4,2.4-32.5,17.8-38l171-62c15.4-5.6,32.5,2.4,38,17.8l0,0
			c5.6,15.4-2.4,32.5-17.8,38l-171,62C3051.3,1077.4,3034.3,1069.5,3028.7,1054z"/>
		<path class="st1" d="M3227.3,1011.8c-3.4,0-6.8-0.6-10.1-1.8l-76.9-28.1l76.9-28.1c3.2-1.2,6.6-1.8,10-1.8
			c8.3,0,16.3,3.5,21.9,9.7l0.6,0.7l0.6,0.8c3.8,4.7,6.1,10.5,6.5,16.5c0,0.3,0,0.7,0.1,1c0,0.8,0,1.6,0,2.4c0,0.3,0,0.7-0.1,1
			c-0.4,5.7-2.5,11.1-5.8,15.6c-0.2,0.3-0.4,0.5-0.6,0.8c-0.4,0.5-0.8,1-1.3,1.5C3243.6,1008.2,3235.6,1011.7,3227.3,1011.8z"/>
		<path class="st3" d="M3255.4,867.8L3255.4,867.8c-5.6,15.4-22.6,23.4-38,17.8l-171-62c-15.4-5.6-23.4-22.6-17.8-38l0,0
			c5.6-15.4,22.6-23.4,38-17.8l171,62C3253.1,835.3,3261,852.4,3255.4,867.8z"/>
		<path class="st6" d="M3028.7,929.7L3028.7,929.7c-5.6-15.4,2.4-32.5,17.8-38l171-62c15.4-5.6,32.5,2.4,38,17.8l0,0
			c5.6,15.4-2.4,32.5-17.8,38l-171,62C3051.3,953.1,3034.3,945.1,3028.7,929.7z"/>
		<path class="st8" d="M3227.3,887.4c-3.4,0-6.8-0.6-10.1-1.8l-76.9-28.1l76.9-28.1c3.2-1.2,6.6-1.8,10-1.8c8.3,0,16.3,3.5,21.9,9.7
			l0.6,0.7l0.6,0.8c3.8,4.7,6.1,10.5,6.5,16.5c0,0.3,0,0.7,0.1,1c0,0.8,0,1.6,0,2.4c0,0.3,0,0.7-0.1,1c-0.4,5.7-2.5,11.1-5.8,15.6
			c-0.2,0.3-0.4,0.5-0.6,0.8c-0.4,0.5-0.8,1-1.3,1.5C3243.6,883.8,3235.6,887.4,3227.3,887.4z"/>
		<path class="st7" d="M3056.6,889.9c3.4,0,6.8,0.6,10.1,1.8l76.9,28.1l-76.9,28.1c-3.2,1.2-6.6,1.8-10.1,1.8
			c-8.3,0-16.3-3.5-21.9-9.7l-0.6-0.7c-0.2-0.3-0.4-0.5-0.6-0.8c-3.8-4.7-6.1-10.5-6.5-16.5c0-0.3-0.1-0.7-0.1-1c0-0.8,0-1.6,0-2.4
			c0-0.3,0-0.7,0.1-1c0.4-5.7,2.5-11.1,5.8-15.6l0.6-0.8c0.4-0.5,0.8-1,1.3-1.5C3040.2,893.5,3048.2,889.9,3056.6,889.9z"/>
		<path class="st5" d="M2606.6,1141.7L2606.6,1141.7c5.6,15.4-2.4,32.5-17.8,38l-171,62c-15.4,5.6-32.5-2.4-38-17.8l0,0
			c-5.6-15.4,2.4-32.5,17.8-38l171-62C2584,1118.4,2601,1126.3,2606.6,1141.7z"/>
		<path class="st3" d="M2379.9,1203.7L2379.9,1203.7c5.6-15.4,22.6-23.4,38-17.8l171,62c15.4,5.6,23.4,22.6,17.8,38l0,0
			c-5.6,15.4-22.6,23.4-38,17.8l-171-62C2382.2,1236.1,2374.3,1219.1,2379.9,1203.7z"/>
		<path class="st1" d="M2408,1243.8c3.4,0,6.8-0.6,10.1-1.8l76.9-28.1l-76.9-28c-3.2-1.2-6.6-1.8-10.1-1.8c-8.3,0-16.3,3.5-21.9,9.7
			l-0.6,0.7c-0.2,0.3-0.4,0.5-0.6,0.8c-2.1,2.6-3.7,5.5-4.8,8.6c-0.9,2.6-1.5,5.3-1.7,8c0,0.3-0.1,0.7-0.1,1c0,0.8,0,1.6,0,2.4
			c0,0.3,0,0.7,0.1,1c0.4,5.7,2.5,11.1,5.8,15.7c0.2,0.3,0.4,0.5,0.6,0.8c0.4,0.5,0.8,1,1.3,1.5
			C2391.6,1240.3,2399.6,1243.8,2408,1243.8z"/>
		<path class="st3" d="M2606.6,1017.4L2606.6,1017.4c5.6,15.4-2.4,32.5-17.8,38l-171,62c-15.4,5.6-32.5-2.4-38-17.8l0,0
			c-5.6-15.4,2.4-32.5,17.8-38l171-62C2584,994,2601,1002,2606.6,1017.4z"/>
		<path class="st6" d="M2379.9,1079.3L2379.9,1079.3c5.6-15.4,22.6-23.4,38-17.8l171,62c15.4,5.6,23.4,22.6,17.8,38l0,0
			c-5.6,15.4-22.6,23.4-38,17.8l-171-62C2382.2,1111.8,2374.3,1094.8,2379.9,1079.3z"/>
		<path class="st8" d="M2408,1119.5c3.4,0,6.8-0.6,10.1-1.8l76.9-28.1l-76.9-28.1c-3.2-1.2-6.6-1.8-10.1-1.8
			c-8.3,0-16.3,3.5-21.9,9.7l-0.6,0.7c-0.2,0.3-0.4,0.5-0.6,0.8c-2.1,2.6-3.7,5.5-4.8,8.6c-0.9,2.6-1.5,5.3-1.7,8
			c0,0.3-0.1,0.7-0.1,1c0,0.8,0,1.6,0,2.4c0,0.3,0,0.7,0.1,1c0.4,5.7,2.5,11.1,5.8,15.7c0.2,0.3,0.4,0.5,0.6,0.8
			c0.4,0.5,0.8,1,1.3,1.5C2391.6,1116,2399.6,1119.5,2408,1119.5z"/>
		<path class="st7" d="M2578.7,1122c-3.4,0-6.8,0.6-10.1,1.8l-76.9,28.1l76.9,28.1c3.2,1.2,6.6,1.8,10,1.8c8.3,0,16.3-3.5,21.9-9.7
			l0.6-0.7c0.2-0.3,0.4-0.5,0.6-0.8c2.1-2.6,3.7-5.5,4.8-8.6c0.9-2.6,1.5-5.3,1.7-8c0-0.3,0-0.7,0.1-1c0-0.8,0-1.6,0-2.4
			c0-0.3,0-0.7-0.1-1c-0.4-5.7-2.5-11.1-5.8-15.7c-0.2-0.3-0.4-0.5-0.6-0.8c-0.4-0.5-0.8-1-1.3-1.5
			C2595,1125.6,2587.1,1122,2578.7,1122z"/>
		<path class="st5" d="M503.6,1141.7L503.6,1141.7c5.6,15.4-2.4,32.5-17.8,38l-171,62c-15.4,5.6-32.5-2.4-38-17.8l0,0
			c-5.6-15.4,2.4-32.5,17.8-38l171-62C481,1118.3,498,1126.3,503.6,1141.7z"/>
		<path class="st3" d="M276.9,1203.7L276.9,1203.7c5.6-15.4,22.6-23.4,38-17.8l171,62c15.4,5.6,23.4,22.6,17.8,38l0,0
			c-5.6,15.4-22.6,23.4-38,17.8l-171-62C279.2,1236.2,271.3,1219.1,276.9,1203.7z"/>
		<path class="st1" d="M304.8,1243.8c3.4,0,6.8-0.6,10.1-1.8l76.9-28l-76.9-28c-3.2-1.2-6.6-1.8-10-1.8c-8.3,0-16.3,3.5-21.9,9.7
			l-0.6,0.7c-0.2,0.3-0.4,0.5-0.6,0.8c-2.1,2.6-3.7,5.5-4.8,8.6c-0.9,2.6-1.5,5.3-1.7,8c0,0.3-0.1,0.7-0.1,1c0,0.8,0,1.6,0,2.4
			c0,0.3,0,0.7,0.1,1c0.4,5.7,2.5,11.1,5.8,15.7c0.2,0.3,0.4,0.5,0.6,0.8c0.4,0.5,0.8,1,1.3,1.5
			C288.5,1240.3,296.4,1243.8,304.8,1243.8z"/>
		<path class="st3" d="M503.6,1017.4L503.6,1017.4c5.6,15.4-2.4,32.5-17.8,38l-171,62c-15.4,5.6-32.5-2.4-38-17.8l0,0
			c-5.6-15.4,2.4-32.5,17.8-38l171-62C481,994,498,1001.9,503.6,1017.4z"/>
		<path class="st6" d="M276.4,1078.4L276.4,1078.4c5.6-15.4,22.6-23.4,38-17.8l171,61.8c15.4,5.6,23.4,22.6,17.8,38l0,0
			c-5.6,15.4-22.6,23.4-38,17.8l-171-61.8C278.8,1110.8,270.9,1093.8,276.4,1078.4z"/>
		<path class="st8" d="M304.8,1119.5c3.4,0,6.8-0.6,10.1-1.8l76.9-28.1l-76.9-28.1c-3.2-1.2-6.6-1.8-10-1.8
			c-8.3,0-16.3,3.5-21.9,9.7l-0.6,0.7c-0.2,0.3-0.4,0.5-0.6,0.8c-2.1,2.6-3.7,5.5-4.8,8.6c-0.9,2.6-1.5,5.3-1.7,8
			c0,0.3-0.1,0.7-0.1,1c0,0.8,0,1.6,0,2.4c0,0.3,0,0.7,0.1,1c0.4,5.7,2.5,11.1,5.8,15.7c0.2,0.3,0.4,0.5,0.6,0.8
			c0.4,0.5,0.8,1,1.3,1.5C288.5,1116,296.4,1119.5,304.8,1119.5z"/>
		<path class="st7" d="M475.5,1122c-3.4,0-6.8,0.6-10.1,1.8l-76.9,28.1l76.9,28.1c3.2,1.2,6.6,1.8,10,1.8c8.3,0,16.3-3.5,21.9-9.7
			l0.6-0.7c0.2-0.3,0.4-0.5,0.6-0.8c2.1-2.6,3.7-5.5,4.8-8.6c0.9-2.6,1.5-5.3,1.7-8c0-0.3,0-0.7,0.1-1c0-0.8,0-1.6,0-2.4
			c0-0.3,0-0.7-0.1-1c-0.4-5.7-2.5-11.1-5.8-15.7c-0.2-0.3-0.4-0.5-0.6-0.8c-0.4-0.5-0.8-1-1.3-1.5
			C491.9,1125.6,483.9,1122,475.5,1122z"/>
		<path class="st2" d="M2458.2,65.3L2458.2,65.3c16.4,0,29.7,13.3,29.7,29.7v163.1c0,16.4-13.3,29.7-29.7,29.7l0,0
			c-16.4,0-29.7-13.3-29.7-29.7V95C2428.5,78.6,2441.8,65.3,2458.2,65.3z"/>
		<path class="st9" d="M2362,258.1L2362,258.1c0-16.4,13.3-29.7,29.7-29.7h126.4c16.4,0,29.7,13.3,29.7,29.7l0,0
			c0,16.4-13.3,29.7-29.7,29.7h-126.4C2375.3,287.8,2362,274.5,2362,258.1z"/>
		<path class="st10" d="M2487.9,258.1v-29.7h-59.4v29.7c0,16.4,13.4,29.7,29.8,29.6C2474.6,287.7,2487.9,274.4,2487.9,258.1z"/>
		<path class="st11" d="M3173.3,1122L3173.3,1122c16.4,0,29.7,13.3,29.7,29.7V1336c0,16.4-13.3,29.7-29.7,29.7l0,0
			c-16.4,0-29.7-13.3-29.7-29.7v-184.3C3143.6,1135.3,3156.9,1122,3173.3,1122z"/>
		<path class="st4" d="M2855,753.8L2855,753.8c16.4,0,29.7,13.3,29.7,29.7v184.3c0,16.4-13.3,29.7-29.7,29.7l0,0
			c-16.4,0-29.7-13.3-29.7-29.7V783.5C2825.3,767.1,2838.6,753.8,2855,753.8z"/>
		<ellipse class="st3" cx="571.7" cy="836.7" rx="34.6" ry="34.6"/>
		<path class="st1" d="M2553.8,532.8L2553.8,532.8c16.4,0,29.7,13.3,29.7,29.7V731c0,16.4-13.3,29.7-29.7,29.7l0,0
			c-16.4,0-29.7-13.3-29.7-29.7V562.5C2524.1,546.1,2537.4,532.8,2553.8,532.8z"/>
		<circle class="st3" cx="2553.8" cy="841.1" r="34.6"/>
		<circle class="st3" cx="90.6" cy="224.5" r="34.6"/>
		<circle class="st4" cx="601.4" cy="1535.3" r="34.6"/>
		<circle class="st3" cx="2988.6" cy="365" r="34.6"/>
		<circle class="st10" cx="2405.5" cy="1423.1" r="34.6"/>
		
			<ellipse transform="matrix(0.9997 -2.379093e-02 2.379093e-02 0.9997 -16.4423 1.9397)" class="st10" cx="73.3" cy="692" rx="34.6" ry="34.6"/>
		<circle class="st10" cx="603.3" cy="359.8" r="34.6"/>
		<circle class="st8" cx="3170.7" cy="1436.1" r="34.6"/>
		<ellipse class="st9" cx="560.7" cy="1059.8" rx="22.6" ry="22.6"/>
		<circle class="st9" cx="643.9" cy="1059.8" r="22.6"/>
		<circle class="st9" cx="723.1" cy="1059.8" r="22.6"/>
		
			<ellipse transform="matrix(0.9239 -0.3827 0.3827 0.9239 -378.091 1202.099)" class="st1" cx="2832.6" cy="1551.4" rx="22.6" ry="22.6"/>
		<circle class="st1" cx="2915.5" cy="1551.4" r="22.6"/>
		<circle class="st1" cx="2994.7" cy="1551.4" r="22.6"/>
		
			<ellipse transform="matrix(0.9239 -0.3827 0.3827 0.9239 -521.6955 246.9554)" class="st1" cx="359.9" cy="1434.8" rx="22.6" ry="22.6"/>
		<circle class="st1" cx="443.1" cy="1434.8" r="22.6"/>
		
			<ellipse transform="matrix(0.9239 -0.3827 0.3827 0.9239 -509.3166 309.0933)" class="st1" cx="522.3" cy="1434.8" rx="22.6" ry="22.6"/>
		<ellipse class="st1" cx="147.3" cy="77.8" rx="22.6" ry="22.6"/>
		<circle class="st1" cx="230.5" cy="77.8" r="22.6"/>
		<circle class="st1" cx="309.7" cy="77.8" r="22.6"/>
		<circle class="st11" cx="57.4" cy="1130" r="22.6"/>
		
			<ellipse transform="matrix(6.652511e-02 -0.9978 0.9978 6.652511e-02 -996.5203 1194.993)" class="st11" cx="140.4" cy="1130.1" rx="22.6" ry="22.6"/>
		<circle class="st11" cx="219.8" cy="1130" r="22.6"/>
		<circle class="st12" cx="2956.9" cy="919.8" r="22.6"/>
		<circle class="st12" cx="2956.9" cy="998" r="22.6"/>
		<circle class="st12" cx="2956.9" cy="1076.3" r="22.6"/>
		<circle class="st8" cx="2454.9" cy="454.6" r="22.6"/>
		<circle class="st8" cx="2454.9" cy="532.8" r="22.6"/>
		<circle class="st8" cx="2454.9" cy="611" r="22.6"/>
		<circle class="st8" cx="3119.4" cy="543.1" r="22.6"/>
		<circle class="st8" cx="3119.4" cy="621.3" r="22.6"/>
		<circle class="st8" cx="3119.4" cy="699.5" r="22.6"/>
		<circle class="st8" cx="463.7" cy="525.2" r="22.6"/>
		<circle class="st8" cx="463.7" cy="603.4" r="22.6"/>
		<circle class="st8" cx="463.7" cy="681.7" r="22.6"/>
		<circle class="st11" cx="864.5" cy="668.8" r="22.6"/>
		<circle class="st11" cx="864.5" cy="747" r="22.6"/>
		<circle class="st11" cx="864.5" cy="825.3" r="22.6"/>
		<path class="st9" d="M2729.7,845.1c0.8,13.7-1.1,27.3-5.6,40.3c-6.4,18.8-17.4,34-27.8,45.4c-9.2,10.1-24.9,10.9-35.1,1.6
			c-0.1-0.1-0.3-0.2-0.4-0.4c-0.6-0.5-1.1-1.1-1.6-1.7l-0.2-0.2c-8.3-9.6-8.1-23.9,0.5-33.2c6.9-7.6,13.7-17,17.3-27.7
			c2.7-7.9,3.6-16.3,2.7-24.6c1.7-13.4-2.7-27.4-13.3-42.5c-19.4-27.7-29.8-54.5-31.2-80.3c-0.8-13.7,1.1-27.3,5.6-40.3
			c6.4-18.8,17.4-34,27.8-45.5c9.2-10.1,24.9-10.9,35.1-1.6c0.1,0.1,0.3,0.2,0.4,0.4l0,0c0.6,0.5,1.1,1.1,1.6,1.7l0.2,0.2
			c8.3,9.6,8.1,23.9-0.5,33.2c-6.9,7.6-13.7,17-17.3,27.7c-2.7,7.9-3.6,16.3-2.7,24.6c1.5,15.5,8.8,32.4,21.9,51.1
			C2723.7,797.1,2731.3,821.1,2729.7,845.1z"/>
		<path class="st13" d="M2693.4,750.3c3.9,8.1,8.5,15.8,13.7,23.1c16.6,23.7,24.2,47.7,22.6,71.7c0.8,13.7-1.1,27.3-5.6,40.3
			c-6.4,18.8-17.4,34-27.8,45.4c-9.2,10.1-24.9,10.9-35.1,1.6c-0.1-0.1-0.3-0.2-0.4-0.4c-0.6-0.5-1.1-1.1-1.6-1.7l-0.2-0.2
			c-8.3-9.6-8.1-23.9,0.5-33.2c6.9-7.6,13.7-17,17.3-27.7c2.7-7.9,3.6-16.3,2.7-24.6c1.7-13.4-2.7-27.4-13.3-42.5
			c-7.7-10.8-14.3-22.4-19.7-34.5L2693.4,750.3z"/>
		<path class="st10" d="M2707.1,773.4c16.6,23.7,24.2,47.7,22.6,71.7c0.8,13.7-1.1,27.3-5.6,40.3c-6.4,18.8-17.4,34-27.8,45.4
			c-9.2,10.1-24.9,10.9-35.1,1.6c-0.1-0.1-0.3-0.2-0.4-0.4c-0.6-0.5-1.1-1.1-1.6-1.7l-0.2-0.2c-8.3-9.6-8.1-23.9,0.5-33.2
			c6.9-7.6,13.7-17,17.3-27.7c2.7-7.9,3.6-16.3,2.7-24.6c1.7-13.4-2.7-27.4-13.3-42.5"/>
		<path class="st9" d="M256.4,665.1c0.8,13.7-1.1,27.3-5.6,40.3c-6.4,18.8-17.4,34-27.8,45.4c-9.2,10.1-24.9,10.9-35.1,1.6
			c-0.1-0.1-0.3-0.2-0.4-0.4c-0.6-0.5-1.1-1.1-1.6-1.7l-0.2-0.2c-8.3-9.6-8.1-23.9,0.5-33.2c6.9-7.6,13.7-17,17.3-27.7
			c2.7-7.9,3.6-16.3,2.7-24.6c1.7-13.4-2.7-27.4-13.3-42.5c-19.4-27.7-29.8-54.5-31.2-80.3c-0.8-13.7,1.1-27.3,5.6-40.3
			c6.4-18.8,17.4-34,27.8-45.5c9.2-10.1,24.9-10.9,35.1-1.6c0.1,0.1,0.3,0.2,0.4,0.4l0,0c0.6,0.5,1.1,1.1,1.6,1.7l0.2,0.2
			c8.3,9.6,8.1,23.9-0.5,33.2c-6.9,7.6-13.7,17-17.3,27.7c-2.7,7.9-3.6,16.3-2.7,24.6c1.5,15.5,8.8,32.4,21.9,51.1
			C250.4,617,258,641.1,256.4,665.1z"/>
		<path class="st13" d="M220.1,570.2c3.9,8.1,8.5,15.8,13.7,23.1C250.4,617,258,641,256.4,665c0.8,13.7-1.1,27.3-5.6,40.3
			c-6.4,18.8-17.4,34-27.8,45.4c-9.2,10.1-24.9,10.9-35.1,1.6c-0.1-0.1-0.3-0.2-0.4-0.4c-0.6-0.5-1.1-1.1-1.6-1.7l-0.2-0.2
			c-8.3-9.6-8.1-23.9,0.5-33.2c6.9-7.6,13.7-17,17.3-27.7c2.7-7.9,3.6-16.3,2.7-24.6c1.7-13.4-2.7-27.4-13.3-42.5
			c-7.7-10.8-14.3-22.4-19.7-34.5L220.1,570.2z"/>
		<path class="st10" d="M233.8,593.3C250.4,617,258,641,256.4,665c0.8,13.7-1.1,27.3-5.6,40.3c-6.4,18.8-17.4,34-27.8,45.4
			c-9.2,10.1-24.9,10.9-35.1,1.6c-0.1-0.1-0.3-0.2-0.4-0.4c-0.6-0.5-1.1-1.1-1.6-1.7l-0.2-0.2c-8.3-9.6-8.1-23.9,0.5-33.2
			c6.9-7.6,13.7-17,17.3-27.7c2.7-7.9,3.6-16.3,2.7-24.6c1.7-13.4-2.7-27.4-13.3-42.5"/>
		<path class="st9" d="M756.9,841.8c0.8,13.7-1.1,27.3-5.6,40.3c-6.4,18.8-17.4,34-27.8,45.4c-9.2,10.1-24.9,10.9-35.1,1.6
			c-0.1-0.1-0.3-0.2-0.4-0.4c-0.6-0.5-1.1-1.1-1.7-1.7l-0.2-0.2c-8.3-9.6-8.1-23.9,0.5-33.2c6.9-7.6,13.7-17,17.3-27.7
			c2.7-7.9,3.6-16.3,2.7-24.6c1.7-13.4-2.7-27.4-13.3-42.5c-19.4-27.7-29.8-54.5-31.2-80.3c-0.7-13.7,1.2-27.3,5.6-40.3
			c6.4-18.8,17.4-34,27.8-45.5c9.2-10.1,24.9-10.9,35.1-1.6c0.1,0.1,0.3,0.2,0.4,0.4l0,0c0.6,0.5,1.1,1.1,1.6,1.7l0.2,0.2
			c8.3,9.6,8.1,23.9-0.5,33.2c-6.9,7.6-13.7,17-17.3,27.7c-2.7,7.9-3.6,16.3-2.7,24.6c1.5,15.5,8.8,32.4,21.9,51.1
			C750.9,793.8,758.5,817.8,756.9,841.8z"/>
		<path class="st13" d="M720.6,747c3.9,8.1,8.5,15.8,13.7,23.1c16.6,23.7,24.2,47.7,22.6,71.7c0.8,13.7-1.1,27.3-5.6,40.3
			c-6.4,18.8-17.4,34-27.8,45.4c-9.2,10.1-24.9,10.9-35.1,1.6c-0.1-0.1-0.3-0.2-0.4-0.4c-0.6-0.5-1.1-1.1-1.7-1.7l-0.2-0.2
			c-8.3-9.6-8.1-23.9,0.5-33.2c6.9-7.6,13.7-17,17.3-27.7c2.7-7.9,3.6-16.3,2.7-24.6c1.7-13.4-2.7-27.4-13.3-42.5
			c-7.7-10.8-14.3-22.4-19.7-34.5L720.6,747z"/>
		<path class="st10" d="M734.3,770.1c16.6,23.7,24.2,47.7,22.6,71.7c0.8,13.7-1.1,27.3-5.6,40.3c-6.4,18.8-17.4,34-27.8,45.4
			c-9.2,10.1-24.9,10.9-35.1,1.6c-0.1-0.1-0.3-0.2-0.4-0.4c-0.6-0.5-1.1-1.1-1.7-1.7l-0.2-0.2c-8.3-9.6-8.1-23.9,0.5-33.2
			c6.9-7.6,13.7-17,17.3-27.7c2.7-7.9,3.6-16.3,2.7-24.6c1.7-13.4-2.7-27.4-13.3-42.5"/>
		<path class="st9" d="M253.4,972.3c0,4.5-1.1,9-3.3,13c-0.8,1.3-1.7,2.7-2.6,4c-36.3,53.1-108.9,66.7-162,30.4
			s-66.7-108.9-30.4-162s108.9-66.7,162-30.4c11.9,8.2,22.2,18.4,30.4,30.4c0.9,1.3,1.8,2.6,2.6,4c7.2,13.4,2.1,30.1-11.3,37.2
			c-11.9,6.4-26.7,3.2-34.9-7.6c-0.7-1.1-1.4-2.1-2.1-3.2c-19.5-27.9-58-34.7-85.9-15.2s-34.7,58-15.2,85.9s58,34.7,85.9,15.2
			c5.9-4.1,11-9.3,15.2-15.2c0.7-1,1.4-2.1,2.1-3.2c9.2-12.1,26.5-14.4,38.5-5.3C249.3,955.7,253.3,963.8,253.4,972.3L253.4,972.3z"
			/>
		<path class="st14" d="M118,988.6c0,15.1-12.3,27.4-27.4,27.4c-6.8,0-13.3-2.5-18.3-7c-0.2-0.2-0.4-0.4-0.6-0.6
			c-47-44-49.4-117.7-5.4-164.7c1.1-1.2,2.3-2.4,3.4-3.5c0.3-0.3,0.7-0.6,1-1l0.2-0.2c11.3-10.1,28.6-9.2,38.8,2.1
			c9.6,10.7,9.3,27-0.7,37.4c-0.4,0.4-0.8,0.8-1.2,1.2c0,0,0,0-0.1,0c-24.1,24.1-24,63.1,0.1,87.2c0.3,0.3,0.6,0.6,0.9,0.9
			c0.4,0.4,0.9,0.8,1.3,1.2l0,0C115.2,974.3,118.1,981.3,118,988.6z"/>
		<path class="st6" d="M253.4,874.6c0,15.2-12.3,27.5-27.5,27.5c-8.6,0-16.7-4-21.9-10.9c-0.7-1.1-1.4-2.1-2.1-3.2
			c-19.5-27.9-58-34.7-85.9-15.2c-2.5,1.7-4.9,3.7-7.1,5.8c-0.4,0.4-0.8,0.8-1.2,1.2c0,0,0,0-0.1,0c-11.2,10.2-28.6,9.3-38.8-2
			c-9.7-10.8-9.4-27.2,0.8-37.6l1-1l0.2-0.2c46.5-44.5,120.3-42.8,164.7,3.7c4.4,4.6,8.4,9.5,11.9,14.7c0.9,1.3,1.8,2.6,2.6,4
			C252.3,865.6,253.4,870.1,253.4,874.6z"/>
		
			<ellipse transform="matrix(9.088281e-03 -1 1 9.088281e-03 -898.6326 1070.2865)" class="st1" cx="90.7" cy="988.6" rx="27.4" ry="27.4"/>
		
			<ellipse transform="matrix(0.9999 -1.020446e-02 1.020446e-02 0.9999 -8.7657 0.9549)" class="st8" cx="89.2" cy="859.5" rx="27.4" ry="27.4"/>
		<path class="st9" d="M2781.4,432.3c0,4.5-1.1,9-3.3,13c-0.8,1.3-1.7,2.7-2.6,4c-36.3,53.1-108.9,66.7-162,30.4
			s-66.7-108.9-30.4-162s108.9-66.7,162-30.4c11.9,8.2,22.2,18.4,30.4,30.4c0.9,1.3,1.8,2.6,2.6,4c7.2,13.4,2.1,30.1-11.3,37.2
			c-11.9,6.4-26.7,3.2-34.9-7.6c-0.7-1.1-1.4-2.1-2.1-3.2c-19.5-27.9-58-34.7-85.9-15.2s-34.7,58-15.2,85.9s58,34.7,85.9,15.2
			c5.9-4.1,11-9.3,15.2-15.2c0.7-1,1.4-2.1,2.1-3.2c9.2-12.1,26.5-14.4,38.5-5.3C2777.3,415.7,2781.3,423.8,2781.4,432.3
			L2781.4,432.3z"/>
		<path class="st14" d="M2646,448.6c0,15.1-12.3,27.4-27.4,27.4c-6.8,0-13.3-2.5-18.3-7c-0.2-0.2-0.4-0.4-0.6-0.6
			c-47-44-49.4-117.7-5.4-164.7c1.1-1.2,2.3-2.4,3.4-3.5c0.3-0.3,0.7-0.6,1-1l0.2-0.2c11.3-10.1,28.6-9.2,38.8,2.1
			c9.6,10.7,9.3,27-0.7,37.4c-0.4,0.4-0.8,0.8-1.2,1.2c0,0,0,0-0.1,0c-24.1,24.1-24,63.1,0.1,87.2c0.3,0.3,0.6,0.6,0.9,0.9
			c0.4,0.4,0.9,0.8,1.3,1.2l0,0C2643.2,434.3,2646.1,441.3,2646,448.6z"/>
		<path class="st6" d="M2781.4,334.6c0,15.2-12.3,27.5-27.5,27.5c-8.6,0-16.7-4-21.9-10.9c-0.7-1.1-1.4-2.1-2.1-3.2
			c-19.5-27.9-58-34.7-85.9-15.2c-2.5,1.7-4.9,3.7-7.1,5.8c-0.4,0.4-0.8,0.8-1.2,1.2c0,0,0,0-0.1,0c-11.2,10.2-28.6,9.3-38.8-2
			c-9.7-10.8-9.4-27.2,0.8-37.6l1-1l0.2-0.2c46.5-44.5,120.3-42.8,164.7,3.7c4.4,4.6,8.4,9.5,11.9,14.7c0.9,1.3,1.8,2.6,2.6,4
			C2780.3,325.6,2781.4,330.1,2781.4,334.6z"/>
		
			<ellipse transform="matrix(9.088308e-03 -1 1 9.088308e-03 2146.6487 3062.5474)" class="st1" cx="2618.6" cy="448.1" rx="27.4" ry="27.4"/>
		
			<ellipse transform="matrix(0.9999 -1.020444e-02 1.020444e-02 0.9999 -3.1239 26.7204)" class="st8" cx="2616.9" cy="319.5" rx="27.4" ry="27.4"/>
		<path class="st9" d="M687.5,334.1c0,4.5,1.1,9,3.3,13c0.8,1.3,1.7,2.6,2.6,4c36.3,53.1,108.9,66.7,162,30.4s66.7-108.9,30.4-162
			s-108.9-66.7-162-30.4c-11.9,8.2-22.2,18.5-30.4,30.4c-0.9,1.3-1.8,2.6-2.6,4c-7.2,13.4-2.2,30,11.1,37.3
			c11.9,6.4,26.8,3.2,35-7.6c0.7-1.1,1.3-2.1,2.1-3.2c19.5-27.9,58-34.7,85.9-15.2s34.7,58,15.2,85.9s-58,34.7-85.9,15.2
			c-5.9-4.1-11.1-9.3-15.2-15.2c-0.7-1-1.4-2.1-2.1-3.2c-9.2-12.1-26.5-14.4-38.5-5.3C691.6,317.5,687.5,325.6,687.5,334.1
			L687.5,334.1z"/>
		<path class="st3" d="M822.9,350.5c0,15.1,12.3,27.4,27.4,27.4c6.7,0,13.3-2.5,18.3-7c0.2-0.2,0.4-0.4,0.6-0.6
			c47-44,49.4-117.7,5.4-164.7c-1.1-1.2-2.2-2.4-3.4-3.5c-0.3-0.3-0.7-0.6-1-1L870,201c-11.2-10.2-28.5-9.4-38.8,1.8
			c-9.8,10.7-9.5,27.3,0.7,37.7c0.4,0.4,0.8,0.8,1.2,1.2c0,0,0,0,0.1,0c24.1,24.1,24,63.1-0.1,87.2c-0.3,0.3-0.6,0.6-0.9,0.9
			c-0.4,0.4-0.9,0.8-1.3,1.2l0,0C825.7,336.1,822.8,343.2,822.9,350.5z"/>
		<path class="st6" d="M687.5,236.5c0,15.2,12.3,27.5,27.5,27.5c8.6,0,16.7-4,21.9-10.9c0.7-1.1,1.3-2.1,2.1-3.2
			c19.5-27.9,58-34.7,85.9-15.2c2.5,1.7,4.9,3.7,7.1,5.8c0.4,0.4,0.8,0.8,1.2,1.2c0,0,0,0,0.1,0c11.2,10.2,28.6,9.3,38.8-2
			c9.7-10.8,9.4-27.2-0.8-37.6c-0.3-0.3-0.7-0.6-1-1l-0.2-0.1c-46.5-44.4-120.3-42.8-164.7,3.7c-4.4,4.6-8.4,9.5-12,14.8
			c-0.9,1.3-1.8,2.6-2.6,4C688.7,227.5,687.5,231.9,687.5,236.5z"/>
		<circle class="st1" cx="850.3" cy="350.5" r="27.4"/>
		<circle class="st8" cx="851.6" cy="221.4" r="27.4"/>
		<path class="st9" d="M2803.9,1286.2c0,4.5,1.1,9,3.3,13c0.8,1.3,1.7,2.7,2.6,4c36.3,53.1,108.9,66.7,162,30.4
			c53.1-36.3,66.7-108.9,30.4-162s-108.9-66.7-162-30.4c-11.9,8.2-22.2,18.4-30.4,30.4c-0.9,1.3-1.8,2.6-2.6,4
			c-7.2,13.4-2.1,30.1,11.3,37.2c11.9,6.4,26.7,3.2,34.9-7.6c0.7-1.1,1.4-2.1,2.1-3.2c19.5-27.9,58-34.7,85.9-15.2
			s34.7,58,15.2,85.9s-58,34.7-85.9,15.2c-5.9-4.1-11-9.3-15.2-15.2c-0.7-1-1.4-2.1-2.1-3.2c-9.2-12.1-26.5-14.4-38.5-5.3
			C2807.9,1269.6,2803.9,1277.7,2803.9,1286.2L2803.9,1286.2z"/>
		<path class="st3" d="M2939.2,1302.6c0,15.1,12.3,27.4,27.4,27.4c6.8,0,13.3-2.5,18.3-7c0.2-0.2,0.4-0.4,0.6-0.6
			c47-44,49.4-117.7,5.4-164.7c-1.1-1.2-2.3-2.4-3.4-3.5c-0.3-0.3-0.6-0.6-1-1l-0.2-0.1c-11.3-10.1-28.6-9.2-38.8,2.1
			c-9.6,10.7-9.3,27,0.7,37.4c0.4,0.4,0.8,0.8,1.2,1.2c0,0,0,0,0.1,0c24.1,24.1,24,63.1-0.1,87.2c-0.3,0.3-0.6,0.6-0.9,0.9
			c-0.4,0.4-0.9,0.8-1.3,1.2l0,0C2942,1288.2,2939.2,1295.3,2939.2,1302.6z"/>
		<path class="st6" d="M2803.9,1188.6c0,15.2,12.3,27.5,27.5,27.5c8.6,0,16.7-4,21.9-10.9c0.7-1.1,1.4-2.1,2.1-3.2
			c19.5-27.9,58-34.7,85.9-15.2c2.5,1.7,4.9,3.7,7.1,5.8c0.4,0.4,0.8,0.8,1.2,1.2c0,0,0,0,0.1,0c11.2,10.2,28.6,9.3,38.8-2
			c9.7-10.8,9.4-27.2-0.8-37.6l-1-1l-0.2-0.1c-46.5-44.5-120.3-42.8-164.7,3.7c-4.4,4.6-8.4,9.5-11.9,14.7c-0.9,1.3-1.8,2.6-2.6,4
			C2805,1179.5,2803.9,1184,2803.9,1188.6z"/>
		<circle class="st1" cx="2966.6" cy="1302.6" r="27.4"/>
		<circle class="st8" cx="2968" cy="1173.5" r="27.4"/>
		<path class="st6" d="M2956.1,701.8c0,15.2-12.3,27.5-27.5,27.5c-8.6,0-16.7-4-21.9-10.9c-0.7-1.1-1.4-2.1-2.1-3.2
			c-19.5-27.9-57.9-34.7-85.9-15.2c-2.5,1.8-4.9,3.7-7.1,5.8c-0.4,0.4-0.8,0.8-1.2,1.2c0,0,0,0-0.1,0c-11.2,10.2-28.6,9.3-38.8-2
			c-9.7-10.8-9.4-27.2,0.8-37.6l1-1l0.2-0.2c46.5-44.5,120.3-42.8,164.7,3.7c4.4,4.6,8.4,9.5,11.9,14.7c0.9,1.3,1.8,2.6,2.6,4
			C2955,692.7,2956.1,697.2,2956.1,701.8z"/>
		<path class="st6" d="M2611.6,1534.2c-0.8,1.4-1.7,2.7-2.6,4c-3.5,5.2-7.5,10.1-11.9,14.7c-44.4,46.5-118.2,48.2-164.7,3.7
			l-0.2-0.2l-1-1c-10.2-10.4-10.5-26.8-0.8-37.6c10.2-11.3,27.6-12.2,38.8-2c0.1,0,0.1,0,0.1,0c0.4,0.4,0.8,0.8,1.2,1.2
			c2.2,2.1,4.6,4,7.1,5.8c28,19.5,66.4,12.7,85.9-15.2c0.7-1.1,1.4-2.1,2.1-3.2c5.2-6.9,13.3-10.9,21.9-10.9
			c15.2,0,27.5,12.3,27.5,27.5C2615,1525.6,2613.9,1530.1,2611.6,1534.2z"/>
		<path class="st1" d="M2400,783.9c12.8-8.2,29.8-4.4,38,8.4c4.6,7.3,5.6,16.2,2.6,24.3c-0.6,1.2-1,2.3-1.6,3.5
			c-13.1,31.4,1.8,67.5,33.3,80.6c2.9,1.1,5.8,2.1,8.7,2.9c0.6,0.1,1.1,0.2,1.7,0.4l0.1,0.1c14.6,4,23.2,19.1,19.2,33.8
			c-3.9,14-17.9,22.5-32.1,19.5c-0.4-0.1-0.9-0.3-1.4-0.3l-0.3-0.1c-62.5-15.3-100.7-78.4-85.4-140.9c1.5-6.2,3.6-12.2,6-18.1
			c0.6-1.5,1.2-2.9,2-4.3C2393,789.7,2396.1,786.4,2400,783.9z"/>
		<path class="st1" d="M486,920.8c0,15.2-12.3,27.5-27.5,27.5c-8.6,0-16.7-4-21.9-10.9c-0.7-1.1-1.4-2.1-2.1-3.2
			c-19.5-27.9-57.9-34.7-85.9-15.2c-2.5,1.8-4.9,3.7-7.1,5.8c-0.4,0.4-0.8,0.8-1.2,1.2c0,0,0,0-0.1,0c-11.2,10.2-28.6,9.3-38.8-2
			c-9.7-10.8-9.4-27.2,0.8-37.6l1-1l0.2-0.2c46.5-44.5,120.3-42.8,164.7,3.7c4.4,4.6,8.4,9.5,11.9,14.7c0.9,1.3,1.8,2.6,2.6,4
			C484.9,911.8,486,916.3,486,920.8z"/>
		<path class="st4" d="M220.1,1248c11.2,11.2,11.2,29.3,0,40.5c-6.3,6.3-15.3,9.3-24.1,8.1c-1.3-0.3-2.6-0.6-3.9-0.8
			c-34.9-6.2-68.2,17.1-74.3,52c-0.5,3.1-0.9,6.2-1,9.4c0,0.6,0,1.1,0,1.7v0.1c-1.1,15.7-14.7,27.6-30.4,26.5
			c-14.6-1-26.1-13-26.6-27.7c0-0.5,0-0.9,0-1.4c0-0.1,0-0.2,0-0.2c1.5-66.9,57-120,123.9-118.5c6.6,0.1,13.2,0.8,19.6,2
			c1.6,0.3,3.2,0.6,4.8,1C212.7,1242.2,216.8,1244.6,220.1,1248z"/>
	</g>
</g>
</svg>
