<?xml version="1.0" encoding="utf-8"?>
<!-- Generator: Adobe Illustrator 24.1.1, SVG Export Plug-In . SVG Version: 6.00 Build 0)  -->
<svg version="1.1" id="Capa_1" xmlns="http://www.w3.org/2000/svg" xmlns:xlink="http://www.w3.org/1999/xlink" x="0px" y="0px"
	 viewBox="0 0 1022.9 354" style="enable-background:new 0 0 1022.9 354;" xml:space="preserve">
<style type="text/css">
	.st0{fill:#FFFFFF;}
</style>
<g id="Capa_2_1_">
	<g id="Capa_1-2">
		<path class="st0" d="M223.1,37.4c-0.5,8.3-2.4,16.4-5.4,24.1c-2.6,6.6-5.8,12.9-9.7,18.9c-4.1,6.3-9.4,11.5-14.9,16.5
			c-3.8,3.5-8.2,6.3-12.5,9.2c-10.9,7.6-21.9,15.1-32.9,22.6c-4.9,3.3-9.8,6.6-14.7,9.9c-9.3,6.3-18.7,12.4-28,18.8
			c-5.4,3.8-11,7.3-16.4,11.1c-6.1,4.2-12,8.6-17.8,13.2c-6.6,5.3-12.9,10.9-18.8,16.9c-3.6,3.6-6.8,7.6-10,11.6
			c-3.6,4.5-6.9,9.2-10,14c-4.3,6.7-7.8,13.9-10.5,21.4c-1.5,4-2.7,8-3.8,12.1c-0.2,0.8-0.5,1.4-1.3,1.6s-1.3-0.6-1.7-1.1
			c-0.8-1.2-1.5-2.4-2.2-3.7c-5-9.5-9.3-19.3-11.2-30.1c-1.2-5.9-1.6-11.8-1.3-17.8c0.4-5.9,1.4-11.8,3-17.6
			c1.7-6,3.9-11.8,6.6-17.4c3-6.5,6.6-12.7,10.7-18.6c2.4-3.4,5-6.5,7.8-9.7c2.7-3.2,5.6-6.2,8.6-9c4.9-4.7,10.1-9,15.5-13
			c7.8-5.7,16-10.7,24-16.1c8.4-5.6,16.9-11.2,25.4-16.6c14.1-9.1,28.2-18.4,42.1-27.8c10.8-7.3,21.9-14,32.6-21.4
			c5.2-3.6,10.3-7.5,15.3-11.5c3.2-2.6,6.3-5.3,9.3-8.2c4.1-4.1,7.9-8.5,11.3-13.3c0.9-1.3,1.8-2.6,2.8-3.9c0.6-0.7,1-1.7,0.9-2.6
			h2.4c0.3,2.7,1.6,5.2,2.2,7.8c0.9,4,1.6,8.1,2.2,12.2C223.5,25.8,223.6,31.6,223.1,37.4z"/>
		<path class="st0" d="M666.6,118.9c0-23.5,0-47,0-70.5c-0.1-0.9,0-1.8,0.2-2.6c0.7-2.4,2.1-3.5,4.7-3.5c5.3,0,10.7,0.3,16.1-0.1
			c15.7-0.9,31.5-0.3,47.2-0.4s31.3,0,47,0c2.4-0.2,4.6,0.8,6.2,2.5c1.2,1.6,1.9,3.5,2,5.5c0.5,4.2,0.3,8.4,0.9,12.6
			c0.4,3.3,0.1,6.6-0.6,9.7c-1,4.7-4.3,7.2-8.8,8c-3.6,0.6-7.3,1-10.9,1c-6.3,0-12.6,0.2-19-0.1c-6.8-0.3-13.5-0.5-20.3-0.4
			c-4,0.2-8.1,0.7-12,1.5c-2,0.4-2.4,2.1-2.6,3.6c-0.2,2.6-0.2,5.1-0.1,7.7c0,1.1,0.6,1.5,1.7,1.6c2.3,0.2,4.6,0.3,6.9,0.6
			c7,0.8,14,0.2,21.1,0.4c2.6,0,5.2-0.7,7.8-0.4c2.4,0.2,4.7,0.5,7.1,0.5s4.7-0.7,7.1-0.6c2,0.1,3.9,0.6,5.7,1.5
			c1.1,0.5,1.9,1.5,2.3,2.6c1.3,3.4,1.9,6.9,2,10.5c0.2,6.4-0.6,12.7-0.5,19.1c0.1,4-3.2,6.2-6.5,6.2c-15.1-0.1-30.2,0-45.3,0
			c-0.8,0.1-1.6,0-2.4-0.2c-1.9-0.7-3.6,0.1-5.3,0.8c-1.9,0.8-2.2,2.7-2.3,4.4c-0.1,3.4-0.1,6.7,0,10.1c0.1,2.8,1.5,4.1,4.2,4.6
			c2.6,0.6,5.4,0.6,8,0c0.6-0.1,1.3-0.1,1.9-0.1c17.4,0,34.9,0,52.3,0c4.2,0,7.6,1.9,9,6.2c0.5,1.8,0.8,3.7,0.8,5.6
			c0.2,3.2,0.2,6.4,0,9.6c-0.4,3.7-0.2,7.5-1,11.1c-0.7,3.5-3.1,6.5-6.5,7.7c-1.9,0.7-3.8,1-5.8,1.1c-12.2,0.9-24.5,0.7-36.6,0.3
			c-19.3-0.6-38.5,0.1-57.8-0.4c-4.7-0.1-9.4-0.3-14.1-0.4c-1.7,0-2.6-1.1-3.3-2.4c-0.5-1.2-0.7-2.5-0.6-3.7
			C666.7,166.1,666.6,142.5,666.6,118.9z"/>
		<path class="st0" d="M396,119.1c0-22.9,0-45.7,0-68.6c0-3.6,2-7.7,6.3-8.4c2.5-0.4,5.1-1.3,7.8-0.4c0.7,0.1,1.4,0.2,2.1,0.1h90.4
			c2.2,0,4.4-0.2,6.6-0.1c4.4,0.2,8.7,3.6,8.2,8.4c-0.3,3.3,0.9,6.5,0.4,9.8c-0.6,3.9-0.2,7.9-0.9,11.9c-0.5,4.2-3.7,7.5-7.8,8.4
			c-2.8,0.7-5.6,1-8.5,1c-17.2,0-34.4,0-51.6,0c-5.3,0-5.6,2-6,5.8c-0.3,2.5-0.2,5,0.4,7.4c0.5,2.3,1.4,3,3.5,3.7
			c1.8,0.5,3.5,0,5.2,0c3,0,5.9,0,8.9,0c11.6,0,23.2,0,34.8,0c6.1,0,9.3,3.6,9.6,9.3c0.2,4.6,0.2,9.3,0,13.9
			c-0.1,2.1-0.4,4.3-0.9,6.3c-1.2,4.8-5.5,7.1-9.9,7.5c-9.7,0.9-19.5,0-29.2,0.5c-5,0.3-10,0.3-15,0.4c-1.3,0-2.5,0.6-3.3,1.7
			c-2.4,3-3.2,7.1-2.2,10.8c0.4,1.6,1,3,1.4,4.6c0.1,1,1,1.8,2.1,1.7c0,0,0.1,0,0.1,0c6.2-0.4,12.4,0.6,18.6,0.5
			c14.2-0.1,28.5-0.1,42.7,0c2.7-0.1,5.2,0.9,7.2,2.7c1.8,1.7,2.8,4.1,2.8,6.7c0.1,4.8,0.3,9.6,0,14.4c0,2.9-0.4,5.9-0.9,8.8
			c-0.7,3.7-3.4,6.7-7,7.9c-1.8,0.6-3.7,0.9-5.6,1c-16.9,1-33.7,0.3-50.6,0.4s-33.8-0.1-50.6,0.1c-4.8,0.2-8.9-3.6-9.1-8.4
			c0-0.2,0-0.5,0-0.7C396,164.8,396,141.9,396,119.1z"/>
		<path class="st0" d="M924.6,101.2c-3.8,0-7.7,0-11.5,0c-3.8,0-7.5-0.7-11-2c-1.1-0.4-2.1-1.1-3-1.9c-3-2.5-5.5-5.6-7.2-9.1
			c-2.7-5.6-7.3-8.6-13.4-9.5c-9.5-1.4-17.3,2-24.1,8.4c-2.7,2.8-4.8,6-6.1,9.6c-1.9,4.6-3.1,9.5-3.6,14.5
			c-0.5,4.4-0.7,8.9-0.3,13.4c0.7,10,3.4,19.3,9.9,27.1c3.1,3.6,7.2,6.2,11.7,7.5c5.4,1.6,11.1,1.6,16.5,0c6.3-1.5,11.5-6,13.9-12.1
			c0.5-1.2,1-2.4,1.3-3.6c1.2-4.1,5-6.9,9.3-6.8c2.8,0,5.6,0.2,8.3,0.3c5.3,0.3,10.7,0.3,16-0.2c3.4-0.4,7-0.7,10.5,0.5
			c3.2,1.1,5.1,4.4,4.5,7.7c-1.6,7.9-4.5,15.5-8.4,22.5c-2.2,4.1-5.1,7.9-8.4,11.3c-3.1,2.9-5.9,6-9.3,8.6c-4.2,3-8.8,5.5-13.6,7.4
			c-6,2.4-12.2,4.1-18.6,5.2c-6,1.1-12.2,1.4-18.3,1c-9.7-0.7-19.2-3.1-28.1-7.1c-7.2-3.3-13.9-7.7-19.8-13.1
			c-5.4-4.9-10.1-10.4-14-16.5c-3.9-6.1-6.8-12.8-8.7-19.8c-0.8-2.6-1.5-5.2-2-7.9c-0.7-3.8-1.2-7.7-1.3-11.6c0-2.2,0-4.5,0-6.7
			c0-7.2,1-14.4,3-21.4c2.7-10.3,7-19.9,13.7-28.2c6.4-7.9,13.7-15,22.6-20.1c7.4-4.2,15.4-7.1,23.7-8.8c7.3-1.6,14.7-1.5,22.1-1.3
			c4.7,0.3,9.4,1.1,14,2.5c6.1,1.6,12,3.9,17.6,6.8c4.4,2.3,8.4,5.2,12,8.6c4.4,4,8.2,8.6,11.3,13.6c1.7,2.9,3.2,5.9,4.5,9
			c1.9,4.6,3.3,9.3,4.3,14.1c0.7,3.7-1.3,8.5-6.8,8.2C933.3,101.1,929,101.2,924.6,101.2z"/>
		<path class="st0" d="M289.8,195.8c-5.4,0-10.9-0.1-16.3,0c-3.3,0.1-6-2.1-6.6-6.1c-0.4-2.8,0.1-5.5,0.1-8.3c0-43.9,0-87.8,0-131.7
			c-0.1-2.3,0.9-4.6,2.8-6.1c1.4-1.2,3.3-1.3,5-1.3c4.3-0.3,8.6-0.3,12.9,0c5.1,0.4,10.2,0.5,15.3,0.3c18.5,0.1,37,0.2,55.4-0.1
			c6.2-0.1,12.4-0.5,18.6-0.3c2.2,0,4.4,0.1,6.3,1.8c1.8,1.7,2.7,4,2.7,6.4c0.1,6.5,0.1,13,0,19.4c-0.1,1.9-0.5,3.8-1.2,5.6
			c-1.4,3.5-4.4,4.8-7.8,5.6c-1.9,0.4-3.9,0.6-5.9,0.5c-3.4-0.1-6.7-0.2-10.1,0c-10.9,0.7-21.9,0.3-32.8,0.5c-2.6,0-5-0.7-7.6-0.6
			c-1.4,0.1-2.7,0.4-4,0.7c-1.5,0.4-2.7,1.6-2.9,3.2c-0.4,1.5-0.6,3.1-0.6,4.7c0.1,2.2,0.1,4.5,0,6.7c0,1.5,0.3,3,0.7,4.5
			c0.4,2,2.1,2.8,3.9,3.2c1.9,0.4,3.9,1,5.9,0.2c0.7-0.2,1.4-0.2,2.1-0.1c13.3,0,26.5,0.1,39.8,0c6.3,0,7.8,3.4,8,7.7
			c0.5,5.4,0.7,10.8,0.6,16.2c-0.1,1.3-0.2,2.7-0.5,4c-0.9,4.4-4.9,7.2-9.3,7.6c-9.4,0.9-18.8,0.4-28.3,0.4c-2.6,0-5.2-0.4-7.9-0.4
			c-3.8,0.1-7.6,0.6-11.3,1.4c-1.1,0.1-2.1,0.9-2.4,2.1c-0.6,1.7-1,3.5-1,5.4c0.4,12.1-0.8,24.1-0.5,36.2c0,1.4,0,2.7,0,4.1
			c0.1,3.5-2.6,6.5-6.1,6.6c-0.2,0-0.4,0-0.5,0C300.8,195.6,295.3,195.8,289.8,195.8z"/>
		<path class="st0" d="M592.4,41.7h50.6c1.1,0,2.2-0.3,3.3-0.3c3.8-0.1,7.7-0.3,10.7,2.9c1.6,1.9,2.5,4.4,2.4,6.8
			c0.2,5.5,0.2,11,0,16.5c-0.1,2.3-0.4,4.6-1,6.8c-1.6,5.6-5.5,7.2-10.2,8c-4.3,0.6-8.6,0.8-12.9,0.4c-2.9-0.2-5.7-0.4-8.6-0.4
			c-2.1,0.1-4.1,0.4-6.1,1c-2.1,0.5-3.7,2.1-4.3,4.2c-1.1,3.8-1.4,7.9-0.8,11.8c0.1,0.9,0.2,1.9,0.3,2.8c0,28.5,0,57.1,0,85.6
			c0,3.8-1.4,6.8-5.3,8.3c-0.7,0.3-1.5,0.5-2.3,0.5c-2.7,0.1-5.4,0.1-8.2-0.1c-6.9-0.8-13.9-0.1-20.8-0.5c-3-0.2-6-0.4-9.1-0.4
			c-1.8,0-2.7-1.3-3.4-2.6c-0.7-1.3-1-2.7-0.9-4.1c0.6-8.7,0.8-17.4,0.4-26.1c-0.5-14.1-0.6-28.3-0.3-42.4c0.1-7.7,0.4-15.3,0.4-23
			c0-4.2-0.7-8.4-1-12.6c0-0.8-0.6-1.4-1.4-1.5c-0.1,0-0.1,0-0.2,0c-0.2,0-0.5,0-0.7,0c-9.9-0.7-19.8-0.5-29.7-0.5
			c-0.8,0.1-1.6,0-2.4-0.2c-3.5-1-5.6-3.4-6-7.5c-0.5-6.3-0.6-12.6-0.4-18.9c0-2.9,0.6-5.7,1.8-8.3c1.2-2.5,3.4-4.3,6-5.1
			c2.9-0.9,5.9-1.3,8.9-1.3C558.4,41.7,575.4,41.7,592.4,41.7z"/>
		<path class="st0" d="M212.6,128.5c0,0.6,0,1.1,0,1.7c0.1,6.9-0.7,13.7-2.6,20.3c-2.8,10.4-7.6,20.2-14.2,28.8
			c-3.4,4.4-7.2,8.5-11.4,12.2c-4.8,4.4-10.4,7.8-15.9,11.5c-10.2,6.9-20.4,13.9-30.6,20.8c-5.8,4-11.7,8-17.5,12.1
			c-7.9,5.5-15.8,10.9-23.5,16.8c-6.7,5.1-13,10.9-18.6,17.2c-6.7,7.5-11.8,16.4-14.7,26c-0.3,0.8-0.5,1.7-0.8,2.5s-0.4,1.7-1.4,1.8
			c-0.8,0.1-1.2-0.7-1.6-1.3c-1.1-1.6-2.2-3.3-3.3-5c-2.9-4.8-5.4-9.9-7.4-15.3c-1.2-3.5-2.1-7-2.7-10.6c-0.5-2.8-0.7-5.7-0.7-8.5
			c-0.1-2.6,0-5.2,0.4-7.8c0.8-5.5,2.4-10.9,4.8-15.9c1.8-3.6,3.9-7,6.3-10.1c2.8-4.1,6-7.8,9.7-11.2c4.1-3.6,8.1-7.4,12.3-11
			c7.5-6.4,15.4-12.4,23.3-18.3c4.7-3.5,9.5-6.7,14.3-10c14.4-9.9,29-19.5,43.5-29.1c6.7-4.4,13.5-8.7,20.2-13.2
			c5.5-3.7,10.7-7.7,15.7-12c3.8-3.2,7.1-6.9,10.7-10.3c0.4-0.5,0.9-0.9,1.4-1.3c1.4-1,2.4-0.6,2.8,1.1c0.4,1.9,0.7,3.7,1,5.6
			C212.8,120.1,212.6,124.3,212.6,128.5z"/>
		<path class="st0" d="M162.7,270.1c0.2,8-0.8,16-2.9,23.7c-1.4,4.9-4.4,9.2-8.5,12.1c-9.3,7.1-18.7,14-28,21.1
			c-3.2,2.4-6.5,4.6-9.5,7.2c-5.3,4.6-10.1,9.8-11.9,17c-0.1,0.5-0.4,1-0.5,1.6c0,0.7-0.7,1.2-1.4,1.2c-0.5,0-0.9-0.3-1.1-0.8
			c-1-1.6-2.1-3.2-3-4.9c-3-5.8-6-11.6-7.8-18c-1.8-6.1-3.3-12.3-3.1-18.7c0.1-2.1,0-4.1,0-6.2c0.1-7.7,2.6-15.2,7.3-21.3
			c3.9-5.3,9-9.1,14.6-12.5c4.7-3,9.3-6.2,13.9-9.3c7.5-5.1,14.9-10.1,22.5-15.2c4.2-2.9,8.4-5.8,12.6-8.7c1.7-1.1,2.5-0.8,3,1.1
			c1,4.3,1.9,8.7,2.5,13.1C162.3,258.4,162.8,264.2,162.7,270.1z"/>
		<path class="st0" d="M264.9,223.9h18.7v2.2h-16.3v11.6h15.3v2.2h-15.3v14.8h-2.4V223.9z"/>
		<path class="st0" d="M307.1,239.6h-15.7v12.9h17.2l-0.4,2.2H289v-30.8h18.9v2.2h-16.5v11.3h15.7L307.1,239.6z"/>
		<path class="st0" d="M314.7,223.9h10.2c8.5,0,14.3,5.9,14.3,15.1s-5.7,15.7-14.4,15.7h-10.2V223.9z M317.1,252.5h7.4
			c8.1,0,12.1-5.7,12.1-13.3c0-6.8-3.6-13.1-12.1-13.1h-7.4V252.5z"/>
		<path class="st0" d="M364.1,239.6h-15.7v12.9h17.2l-0.4,2.2H346v-30.8h18.9v2.2h-16.5v11.3h15.7V239.6z"/>
		<path class="st0" d="M374.1,240.3v14.4h-2.4v-30.8h11c6.1,0,9.3,3.3,9.3,8.1c0.2,3.5-2.3,6.6-5.8,7.2c3.2,0.8,5.3,2.8,5.3,8.1v1.2
			c0,2.1-0.2,5.1,0.4,6.2h-2.4c-0.6-1.3-0.4-3.8-0.4-6.4v-0.8c0-5.1-1.5-7.2-7.4-7.2L374.1,240.3z M374.1,238.1h7.4
			c5.4,0,7.9-2,7.9-6.1c0-3.8-2.5-5.9-7.3-5.9h-8.1V238.1z"/>
		<path class="st0" d="M403,244l-3.9,10.6h-2.4l11.3-30.8h2.8l11.8,30.8H420l-4-10.7H403z M415.2,241.8c-3.4-9.1-5.2-13.6-5.8-15.6
			l0,0c-0.8,2.3-2.7,7.8-5.5,15.6H415.2z"/>
		<path class="st0" d="M450.8,246.5c-1.5,4.9-5.1,8.6-11.6,8.6c-8.8,0-13.5-7.1-13.5-15.7c0-8.3,4.6-15.9,13.6-15.9
			c6.6,0,10.6,3.7,11.6,8.8h-2.4c-1.4-4-4-6.6-9.3-6.6c-7.7,0-10.9,7-10.9,13.6s3.2,13.6,11,13.6c5,0,7.6-2.6,9.1-6.4L450.8,246.5z"
			/>
		<path class="st0" d="M459.8,223.9v30.8h-2.4v-30.8H459.8z"/>
		<path class="st0" d="M494.3,239.1c0,8.4-4.5,16.1-14,16.1c-8.7,0-13.7-7-13.7-15.8s4.9-15.8,14-15.8
			C489.1,223.4,494.3,230.1,494.3,239.1z M469.1,239.2c0,7.1,3.9,13.8,11.3,13.8c8,0,11.3-6.5,11.3-13.8s-3.8-13.5-11.2-13.5
			C472.6,225.6,469.1,232.2,469.1,239.2L469.1,239.2z M488.7,214.8l-7.4,6h-2.7l6.8-6H488.7z"/>
		<path class="st0" d="M501.1,254.7v-30.8h3.5c4.8,7.4,16.1,24.6,18,27.9l0,0c-0.3-4.4-0.2-9-0.2-14v-14h2.4v30.8h-3.3
			c-4.6-7.1-16-25-18.2-28.4l0,0c0.2,4,0.2,8.5,0.2,14.1v14.3L501.1,254.7z"/>
		<path class="st0" d="M544.9,223.9h10.2c8.5,0,14.3,5.9,14.3,15.1s-5.7,15.7-14.3,15.7h-10.2V223.9z M547.3,252.5h7.4
			c8.1,0,12.2-5.7,12.2-13.3c0-6.8-3.6-13.1-12.2-13.1h-7.4V252.5z"/>
		<path class="st0" d="M594.3,239.6h-15.7v12.9h17.2l-0.4,2.2h-19.2v-30.8h18.9v2.2h-16.5v11.3h15.7V239.6z"/>
		<path class="st0" d="M631.4,239.6h-15.7v12.9h17.2l-0.4,2.2h-19.2v-30.8h18.9v2.2h-16.5v11.3h15.7L631.4,239.6z"/>
		<path class="st0" d="M639.4,246.4c0.9,4.1,3.7,6.5,8.7,6.5c5.6,0,7.8-2.8,7.8-6.2s-1.5-5.6-8.3-7.3c-6.5-1.6-9.3-3.7-9.3-8.2
			c0-4.1,2.9-7.8,9.5-7.8c6.8,0,9.6,4.1,10,7.9h-2.5c-0.7-3.3-2.9-5.7-7.7-5.7c-4.4,0-6.9,2.1-6.9,5.5s2,4.7,7.7,6.1
			c8.7,2.1,10,5.6,10,9.3c0,4.5-3.3,8.4-10.4,8.4c-7.7,0-10.5-4.5-11.1-8.6L639.4,246.4z"/>
		<path class="st0" d="M671.3,226.1H661v-2.2h23.2v2.2h-10.4v28.6h-2.4V226.1z"/>
		<path class="st0" d="M691.5,223.9v18.7c0,8.2,4.6,10.3,9,10.3c5.2,0,9-2.2,9-10.3v-18.7h2.4v18.5c0,9.6-5.1,12.6-11.5,12.6
			c-6.1,0-11.3-3.3-11.3-12.2v-18.9H691.5z"/>
		<path class="st0" d="M720.5,223.9h10.2c8.5,0,14.3,5.9,14.3,15.1s-5.7,15.7-14.3,15.7h-10.2V223.9z M722.9,252.5h7.4
			c8.1,0,12.2-5.7,12.2-13.3c0-6.8-3.6-13.1-12.2-13.1h-7.4V252.5z"/>
		<path class="st0" d="M754.2,223.9v30.8h-2.4v-30.8H754.2z"/>
		<path class="st0" d="M766.1,244l-3.9,10.6h-2.4l11.3-30.8h2.8l11.8,30.8h-2.6l-4-10.6H766.1z M778.3,241.8
			c-3.4-9.1-5.2-13.6-5.8-15.6h0c-0.8,2.3-2.7,7.8-5.5,15.6H778.3z"/>
		<path class="st0" d="M791.1,254.7v-30.8h3.5c4.8,7.4,16.1,24.6,18,27.9l0,0c-0.3-4.4-0.2-9-0.2-14v-14h2.4v30.8h-3.3
			c-4.6-7.1-16-25-18.2-28.4l0,0c0.2,4,0.2,8.5,0.2,14.1v14.3L791.1,254.7z"/>
		<path class="st0" d="M830.1,226.1h-10.3v-2.2h23.2v2.2h-10.4v28.6h-2.4L830.1,226.1z"/>
		<path class="st0" d="M865.6,239.6h-15.7v12.9h17.2l-0.4,2.2h-19.2v-30.8h18.9v2.2h-16.5v11.3h15.7V239.6z"/>
		<path class="st0" d="M873.6,246.4c0.9,4.1,3.7,6.5,8.7,6.5c5.6,0,7.8-2.8,7.8-6.2s-1.5-5.6-8.3-7.3c-6.5-1.6-9.3-3.7-9.3-8.2
			c0-4.1,3-7.8,9.5-7.8c6.8,0,9.6,4.1,10,7.9h-2.4c-0.7-3.3-2.9-5.7-7.7-5.7c-4.4,0-6.9,2.1-6.9,5.5s2,4.7,7.7,6.1
			c8.7,2.1,9.9,5.6,9.9,9.3c0,4.5-3.3,8.4-10.4,8.4c-7.7,0-10.5-4.5-11.1-8.6L873.6,246.4z"/>
		<path class="st0" d="M264.9,276.7h10.2c8.5,0,14.3,5.9,14.3,15.1s-5.7,15.7-14.3,15.7h-10.2V276.7z M267.3,305.3h7.4
			c8.1,0,12.1-5.7,12.1-13.3c0-6.8-3.6-13.1-12.1-13.1h-7.4V305.3z"/>
		<path class="st0" d="M314.3,292.4h-15.7v12.9h17.2l-0.4,2.2h-19.2v-30.8h18.9v2.2h-16.5v11.3h15.7V292.4z"/>
		<path class="st0" d="M321.9,276.7h2.4v28.6h16.5l-0.4,2.2h-18.5V276.7z"/>
		<path class="st0" d="M362.8,281.8h-9.5v-4.7H378v4.7h-9.4v25.7h-5.7L362.8,281.8z"/>
		<path class="st0" d="M402.4,294h-14.8v8.8h16.3l-0.7,4.7h-21.1v-30.4h21v4.7h-15.5v7.5h14.8V294z"/>
		<path class="st0" d="M434.5,298.4c-1.3,5.5-5.4,9.5-12.8,9.5c-9.5,0-14-6.9-14-15.5c0-8.3,4.7-15.8,14.3-15.8
			c7.8,0,11.7,4.5,12.5,9.6h-5.7c-0.8-2.7-2.6-5.1-7-5.1c-5.9,0-8.2,5.3-8.2,11c0,5.4,2.1,11.1,8.4,11.1c4.4,0,6-2.8,6.8-5
			L434.5,298.4z"/>
		<path class="st0" d="M439.9,307.5v-30.4h7.2c4,6.9,11.9,20.2,13.4,23.5h0.1c-0.3-3.4-0.3-8.5-0.3-13.5v-10h5.2v30.4h-6.8
			c-3.5-6.2-12-21.1-13.7-24.5h-0.1c0.2,2.9,0.3,8.8,0.3,14.3v10.3H439.9z"/>
		<path class="st0" d="M500.4,292.1c0,8.4-5,15.8-14.7,15.8c-9.4,0-14.4-6.9-14.4-15.6s5.4-15.7,14.8-15.7
			C494.9,276.6,500.4,282.9,500.4,292.1z M477.3,292.1c0,6.2,2.9,11.1,8.6,11.1c6.3,0,8.6-5.2,8.6-11c0-6-2.6-10.9-8.7-10.9
			S477.3,286,477.3,292.1L477.3,292.1z"/>
		<path class="st0" d="M506.3,277.1h5.7v25.7h15.4l-0.7,4.7h-20.4V277.1z"/>
		<path class="st0" d="M558.5,292.1c0,8.4-5,15.8-14.7,15.8c-9.3,0-14.3-6.9-14.3-15.6s5.4-15.7,14.7-15.7
			C552.9,276.6,558.5,282.9,558.5,292.1z M535.3,292.1c0,6.2,2.9,11.1,8.7,11.1c6.3,0,8.6-5.2,8.6-11c0-6-2.6-10.9-8.7-10.9
			S535.3,286,535.3,292.1L535.3,292.1z M553.9,268l-7.7,6.1h-5.3l6.2-6.1H553.9z"/>
		<path class="st0" d="M590.2,307.5H586c-0.3-1.1-0.4-2.2-0.5-3.4c-1.6,2.2-4.4,3.9-9.1,3.9c-8.8,0-13.7-6.7-13.7-15.3
			c0-9.1,5.2-16,14.7-16c7.6,0,12.1,4.2,12.9,9.5h-5.7c-0.8-2.5-2.7-4.9-7.3-4.9c-6.5,0-8.7,5.4-8.7,11.2c0,5.6,2.3,11,8.6,11
			c6,0,7.3-4.1,7.3-7.7v-0.3h-7.3v-4.7h12.9L590.2,307.5z"/>
		<path class="st0" d="M602.9,277.1v30.4h-5.7v-30.4H602.9z"/>
		<path class="st0" d="M635.6,298.4c-1.3,5.5-5.4,9.5-12.8,9.5c-9.5,0-14-6.9-14-15.5c0-8.3,4.7-15.8,14.3-15.8
			c7.8,0,11.7,4.5,12.5,9.6h-5.7c-0.8-2.7-2.6-5.1-7-5.1c-5.9,0-8.2,5.3-8.2,11c0,5.4,2.1,11.1,8.4,11.1c4.4,0,6-2.8,6.8-5
			L635.6,298.4z"/>
		<path class="st0" d="M668.8,292.1c0,8.4-5,15.8-14.7,15.8c-9.3,0-14.3-6.9-14.3-15.6s5.4-15.7,14.7-15.7
			C663.3,276.6,668.8,282.9,668.8,292.1z M645.6,292.1c0,6.2,2.9,11.1,8.7,11.1c6.3,0,8.6-5.2,8.6-11c0-6-2.6-10.9-8.7-10.9
			S645.6,286,645.6,292.1L645.6,292.1z"/>
		<path class="st0" d="M685.5,277.1h11.7c8.8,0,14.5,5.8,14.5,14.9s-5.6,15.6-14.8,15.6h-11.4V277.1z M691.3,302.8h5.4
			c6.3,0,9.2-4.6,9.2-10.9c0-5.3-2.7-10.2-9.1-10.2h-5.5V302.8z"/>
		<path class="st0" d="M738,294h-14.7v8.8h16.3l-0.7,4.7h-21.1v-30.4h21v4.7h-15.4v7.5H738V294z"/>
		<path class="st0" d="M781.1,295.5c0-5.3,0.1-11.1,0.2-14.5h-0.2c-1.4,5.8-5.1,16.9-8.2,26.5H768c-2.4-8.1-6.2-20.8-7.5-26.5h-0.2
			c0.3,3.5,0.4,10,0.4,15.2v11.3h-5.2v-30.4h8.5c2.7,8.5,5.9,19.2,6.9,23.5h0.1c0.7-3.6,4.6-15.2,7.5-23.5h8.2v30.4h-5.5V295.5z"/>
		<path class="st0" d="M821.7,292.1c0,8.4-5,15.8-14.7,15.8c-9.3,0-14.3-6.9-14.3-15.6s5.4-15.7,14.8-15.7
			C816.1,276.6,821.7,282.9,821.7,292.1z M798.5,292.1c0,6.2,2.9,11.1,8.7,11.1c6.3,0,8.6-5.2,8.6-11c0-6-2.6-10.9-8.7-10.9
			S798.5,286,798.5,292.1L798.5,292.1z"/>
		<path class="st0" d="M827.6,307.5v-30.4h7.2c4,6.9,11.9,20.2,13.4,23.5h0.1c-0.3-3.4-0.3-8.5-0.3-13.5v-10h5.2v30.4h-6.8
			c-3.5-6.2-12-21.1-13.7-24.5h-0.1c0.2,2.9,0.3,8.8,0.3,14.3v10.3H827.6z"/>
		<path class="st0" d="M867.1,281.8h-9.5v-4.7h24.6v4.7h-9.4v25.7h-5.7V281.8z"/>
		<path class="st0" d="M906.8,294H892v8.8h16.3l-0.7,4.7h-21.1v-30.4h21v4.7H892v7.5h14.8V294z"/>
		<path class="st0" d="M918.8,294.9v12.6h-5.6v-30.4h12.9c6.5,0,10,3.6,10,8.3c0,4-2.2,6.3-4.7,7.2c1.8,0.6,4.1,2.3,4.1,7.6v1.4
			c-0.1,2,0,3.9,0.4,5.9h-5.5c-0.5-1.3-0.6-3.6-0.6-6.7v-0.5c0-3.7-1-5.4-6.1-5.4L918.8,294.9z M918.8,290.3h5.9
			c4,0,5.6-1.5,5.6-4.4s-1.8-4.3-5.3-4.3h-6.2L918.8,290.3z"/>
		<path class="st0" d="M947.9,294.9v12.6h-5.6v-30.4h12.9c6.5,0,10,3.6,10,8.3c0,4-2.2,6.3-4.7,7.2c1.8,0.6,4.1,2.3,4.1,7.6v1.4
			c-0.1,2,0,3.9,0.4,5.9h-5.5c-0.5-1.3-0.6-3.6-0.6-6.7v-0.5c0-3.7-1-5.4-6.1-5.4L947.9,294.9z M947.9,290.3h5.9
			c4,0,5.6-1.5,5.6-4.4s-1.8-4.3-5.3-4.3h-6.2L947.9,290.3z"/>
		<path class="st0" d="M991.6,294h-14.8v8.8h16.3l-0.7,4.7h-21.1v-30.4h21v4.7h-15.4v7.5h14.8V294z"/>
		<path class="st0" d="M1006.1,307.5v-10.9c0-0.3-0.1-0.6-0.2-0.9l-10.6-18.6h6.5c2.5,4.7,6,11.4,7.5,14.5c1.3-3,5.1-9.9,7.6-14.5h6
			l-10.8,18.6c-0.2,0.3-0.2,0.6-0.2,0.9v10.9H1006.1z"/>
	</g>
</g>
</svg>
