<?xml version="1.0" encoding="utf-8"?>
<!-- Generator: Adobe Illustrator 24.1.1, SVG Export Plug-In . SVG Version: 6.00 Build 0)  -->
<svg version="1.1" id="Capa_1" xmlns="http://www.w3.org/2000/svg" xmlns:xlink="http://www.w3.org/1999/xlink" x="0px" y="0px"
	 viewBox="0 0 789 154.5" style="enable-background:new 0 0 789 154.5;" xml:space="preserve">
<style type="text/css">
	.st0{fill:#FFFFFF;}
	.st1{fill:#3B92B0;}
	.st2{font-family:'Montserrat-MediumItalic';}
	.st3{font-size:23.75px;}
	.st4{letter-spacing:2;}
	.st5{font-family:'Montserrat-Medium';}
</style>
<g id="Capa_2_1_">
	<g id="Logo_PNG">
		<polygon class="st0" points="24.9,62.3 56.2,93.5 43.7,106 12.5,74.8 0,62.3 43.7,18.6 56.2,31 		"/>
		<polygon class="st1" points="136.9,11.9 124.4,24.3 105.3,24.3 105.3,107.4 83.6,107.4 83.6,24.3 62.9,24.3 50.4,11.9 50.3,12 
			50.3,11.9 		"/>
		<text transform="matrix(1 0 0 1 130.17 148.26)" class="st0 st2 st3 st4">GRUPO E</text>
		<text transform="matrix(1 0 0 1 260.58 148.26)" class="st0 st2 st3 st4">S</text>
		<text transform="matrix(1 0 0 1 277.47 148.26)" class="st0 st2 st3 st4">T</text>
		<text transform="matrix(1 0 0 1 293.47 148.26)" class="st0 st2 st3 st4">UDIANTIL </text>
		<text transform="matrix(1 0 0 1 439.08 148.26)" class="st0 st5 st3 st4">|</text>
		<text transform="matrix(1 0 0 1 448.56 148.26)" class="st0 st2 st3 st4"> T</text>
		<text transform="matrix(1 0 0 1 473.64 148.26)" class="st0 st2 st3 st4">E</text>
		<text transform="matrix(1 0 0 1 491.86 148.26)" class="st0 st2 st3 st4">C G</text>
		<text transform="matrix(1 0 0 1 540.88 148.26)" class="st0 st2 st3 st4">D</text>
		<text transform="matrix(1 0 0 1 562.63 148.26)" class="st0 st2 st3 st4">A</text>
		<path class="st1" d="M216.6,89.7v17.7h-74V11.9h72.2v17.7h-50.2v20.7H209v17.2h-44.4v22.1H216.6z"/>
		<path class="st1" d="M250.6,102.7c-7.7-4.1-14.1-10.1-18.6-17.6c-4.6-7.7-6.9-16.5-6.8-25.5c-0.1-8.9,2.2-17.8,6.8-25.5
			c4.5-7.5,10.9-13.6,18.6-17.6c8.2-4.3,17.3-6.5,26.6-6.4c7.7-0.1,15.3,1.4,22.5,4.4c6.5,2.8,12.3,7.1,16.9,12.6l-14.2,13.1
			c-6.5-7.5-14.5-11.2-24-11.2c-5.5-0.1-11,1.3-15.9,3.9c-4.6,2.5-8.3,6.3-10.9,10.8c-2.6,4.9-4,10.3-3.9,15.8
			c-0.1,5.5,1.2,11,3.9,15.8c2.5,4.6,6.3,8.3,10.9,10.8c4.9,2.6,10.3,4,15.8,3.9c9.5,0,17.5-3.8,24-11.3L316.4,92
			c-4.5,5.5-10.3,9.9-16.9,12.7c-7.1,3-14.8,4.5-22.5,4.4C267.8,109.2,258.7,107,250.6,102.7z"/>
		<path class="st0" d="M342.4,103.7c-6-3.1-10.9-7.7-14.4-13.4c-3.5-5.9-5.3-12.7-5.2-19.5c-0.1-6.9,1.7-13.6,5.2-19.5
			c3.5-5.7,8.4-10.4,14.4-13.5c13.1-6.5,28.5-6.5,41.6,0c5.9,3.1,10.9,7.7,14.3,13.5c3.5,5.9,5.3,12.7,5.2,19.5
			c0.1,6.9-1.7,13.6-5.2,19.5c-3.4,5.7-8.4,10.4-14.3,13.5C370.9,110.1,355.5,110.1,342.4,103.7L342.4,103.7z M376.6,85.5
			c3.5-3.7,5.3-8.6,5.3-14.8c0-6.2-1.8-11.1-5.3-14.8c-7.5-7.4-19.5-7.4-27,0c-3.5,3.7-5.3,8.6-5.3,14.8c0,6.2,1.8,11.1,5.3,14.8
			C357.1,92.9,369.2,92.9,376.6,85.5z"/>
		<path class="st0" d="M492.5,6.1v101.3h-20.3V99c-5.3,6.4-12.9,9.6-22.9,9.6c-6.6,0.1-13-1.5-18.8-4.6c-5.6-3.1-10.1-7.7-13.2-13.2
			c-3.3-6.1-4.9-13-4.8-19.9c-0.2-6.9,1.5-13.8,4.8-19.9c3-5.6,7.6-10.2,13.2-13.2c5.8-3.1,12.2-4.8,18.8-4.7c9.4,0,16.7,3,22,8.9
			V6.1H492.5z M466.3,85.5c3.6-3.7,5.3-8.6,5.3-14.8c0-6.2-1.8-11.1-5.3-14.8c-7.4-7.4-19.4-7.4-26.9,0c-3.6,3.7-5.3,8.6-5.3,14.8
			c0,6.2,1.8,11.1,5.3,14.8C446.8,92.9,458.8,92.9,466.3,85.5z"/>
		<path class="st0" d="M513.2,20.3c-2.4-2.1-3.8-5.2-3.7-8.5c-0.1-3.2,1.3-6.3,3.7-8.5c2.6-2.3,6-3.6,9.6-3.4c3.5-0.2,6.9,1,9.6,3.3
			c2.4,2,3.7,5,3.7,8.2c0.1,3.3-1.3,6.5-3.7,8.8c-2.6,2.4-6,3.6-9.6,3.5C519.3,23.9,515.8,22.7,513.2,20.3z M512.1,34h21.3v73.4
			h-21.3V34z"/>
		<path class="st0" d="M619.9,41.1c5.6,5.5,8.4,13.6,8.4,24.3v42H607V68.7c0-5.8-1.3-10.2-3.8-13c-2.5-2.8-6.2-4.3-11.1-4.3
			c-5.4,0-9.6,1.7-12.8,5c-3.2,3.3-4.8,8.3-4.8,14.8v36.3h-21.3V34h20.3v8.6c2.9-3.2,6.5-5.6,10.5-7.2c4.4-1.7,9.1-2.6,13.8-2.5
			C607,32.9,614.3,35.6,619.9,41.1z"/>
		<path class="st0" d="M724.1,34v61.2c0,13.5-3.5,23.5-10.5,30c-7,6.5-17.2,9.8-30.7,9.8c-6.8,0-13.6-0.8-20.2-2.6
			c-5.7-1.4-11.1-4-15.8-7.5l8.5-15.3c3.5,2.8,7.5,4.8,11.7,6.1c4.6,1.5,9.4,2.2,14.2,2.3c7.4,0,12.8-1.7,16.3-5s5.3-8.4,5.3-15.1
			v-3.1c-5.6,6.1-13.3,9.1-23.2,9.1c-6.4,0.1-12.8-1.5-18.5-4.4c-5.5-2.9-10.1-7.2-13.3-12.4c-3.3-5.6-5-12-4.9-18.6
			c-0.1-6.5,1.6-13,4.9-18.6c3.2-5.3,7.8-9.6,13.3-12.5c5.7-3,12.1-4.5,18.5-4.4c10.7,0,18.8,3.5,24.3,10.5V34H724.1z M697.7,81.4
			c3.6-3.3,5.6-8.1,5.4-13c0.2-4.9-1.8-9.6-5.4-13c-3.6-3.3-8.2-5-13.9-5c-5.6,0-10.3,1.7-13.9,5c-3.6,3.3-5.6,8.1-5.5,13
			c-0.2,4.9,1.8,9.7,5.5,13c3.6,3.3,8.3,5,13.9,5C689.5,86.4,694.1,84.8,697.7,81.4z"/>
		<polygon class="st1" points="789,62.5 776.4,75.1 745,106.5 732.5,94 763.9,62.5 732.5,31.1 745,18.6 		"/>
		<polygon class="st1" points="305.9,77.6 305.9,77.6 305.8,77.6 		"/>
	</g>
</g>
</svg>
