<svg xmlns="http://www.w3.org/2000/svg" viewBox="0 0 881.81 702.86"><defs><style>.cls-1{fill:#15426e;}.cls-2{fill:#f38347;}.cls-3{fill:#8ec246;}.cls-4{fill:#e28a5b;}.cls-5{fill:#1f74b7;}.cls-6{fill:#f4f5f2;}.cls-7{fill:#f28347;}.cls-8{fill:#87ba48;}.cls-9{fill:#fdfefd;}</style></defs><g id="Capa_2" data-name="Capa 2"><g id="Capa_1-2" data-name="Capa 1"><path class="cls-1" d="M181.6,540.45c-10.09-7.33-18.17-16.54-25.1-26.82-8.41-12.48-15.47-25.73-22.47-39-2.5-4.73-4.82-9.55-7.22-14.33-3.75-6.53-6.19-13.65-9-20.6-4.44-11.11-9.87-21.82-13.49-33.25-1.74-5.5-3.44-11-6.64-15.82a10.08,10.08,0,0,1-.31-1,9.25,9.25,0,0,0-.37-1c-1.81-5.41-3.14-11-5.59-16.18-1.16-2.45-2.67-4.67-4-7a32.13,32.13,0,0,1-1.38-5.2c-.75-6.15-2.67-12-4.66-17.8-9.17-27-16.86-54.49-24.08-82.1Q49.36,230,43.12,199.38q-6.67-32.77-10.87-66c-1.16-9.18-2.55-18.35-2.95-27.61-.15-3.66.34-7.33.51-11,.31-7,.87-14,.83-21a19.63,19.63,0,0,1,.84-6.14c.88-2,.7-4.24,1.11-6.35,1.64-8.47,6.51-14.41,14-18.38C52,40,57.89,38.51,63.79,37.07a442.27,442.27,0,0,1,43.77-8.27c13.84-2,27.74-3.43,41.65-4.82,19.33-1.92,38.68-3.39,58.06-4.58q22-1.35,44-2.15c15.25-.56,30.5-1.08,45.75-1.44,7.27-.17,14.54-.25,21.81-.47,9.59-.29,19.18-.26,28.77-.49s19-.31,28.52-.4c3.73-.46,7.48-.15,11.21-.23,13.59-.3,27.16.47,40.75.62,6.78.08,13.59-.08,20.36.38,7.42.51,14.85.17,22.27.62a30.92,30.92,0,0,0,7.35.72c4.21.2,8.41.69,12.65.6,8.29-.17,16.58.63,24.87.5,8.46,1.59,17,1.27,25.56,1.5,6.29.18,12.57,1,18.85,1.57,6.68.6,13.37,1.12,20.05,1.7,7,.61,14,1.18,21,1.76,6.61.54,13.21,1.1,19.81,1.62q11.48.92,22.91,2.05c20.45,2,40.77,5,61,8.52,22.47,3.89,44.82,8.3,66.79,14.45,17.82,5,35.15,11.31,51.54,20a47.26,47.26,0,0,1,9.2,6.48c5.14,4.56,9.93,9.5,15,14.08.55.49.72,1.24,1.23,1.75l0,0a5.39,5.39,0,0,1,1.81,3.32c12.1,18.84,19.93,39.39,24.6,61.22a277.9,277.9,0,0,1,5.33,38.64c.89,12.44,1.35,24.88,1.47,37.35.13,14.31-.24,28.6-1.2,42.86-1,15.63-2.75,31.19-5,46.69a640.61,640.61,0,0,1-33.7,130c-3.56,9.59-8.11,18.76-12.3,28.08-.72,1.6-1.46,3.19-2.2,4.79-4.9,9.63-11,18.57-16.51,27.82-13.67,22.76-27.41,45.47-42.34,67.44a713.09,713.09,0,0,1-44.39,59q-9.74,11.55-20.06,22.57a13.63,13.63,0,0,1-2.77,2.26c-9.15,8.24-18.27,16.5-28.51,23.4-8.33,5.61-17.08,10.34-26.93,12.74a44.77,44.77,0,0,1-20.65.6c-10.2-2.27-17-8.68-21.42-17.93-3-6.26-4.45-13-5.69-19.73-2.2-12-2.85-24.25-3.47-36.46a318.26,318.26,0,0,0-3.78-38.12,75.94,75.94,0,0,0-4.19-15.45,29.8,29.8,0,0,0-18.5-17.58A77.89,77.89,0,0,0,553,553a289.84,289.84,0,0,0-33.39-3,237.55,237.55,0,0,0-30.65.86c-.72.07-1.44.08-2.16.12a47.1,47.1,0,0,1-8.8.73c-12.62-.06-25.21.72-37.81,1.32-11,.53-22,1.33-33,2.09-9.8.68-19.58,1.55-29.38,2.16-9.55.6-19.09,1.69-28.69,1.56-12,.59-23.95.17-35.91.61-10.7.4-21.4.56-32.09.29-20.43-.51-40.84-1.5-60.94-5.72a146.14,146.14,0,0,1-26.29-8.1,7,7,0,0,0-3.66-1,2.83,2.83,0,0,1-2.62-.86A14.73,14.73,0,0,0,181.6,540.45Z"/><path class="cls-2" d="M848.62,93.16a73.56,73.56,0,0,1-8.75-7.8,116.57,116.57,0,0,0-12-10.7c-5.41-3.92-11.52-6.55-17.55-9.28-18.56-8.37-38-14-57.77-18.72-18-4.25-36.22-7.63-54.49-10.68-12.36-2.06-24.74-3.94-37.17-5.51-8.4-1.07-16.82-1.89-25.25-2.6-8.2-.68-16.38-1.49-24.57-2.2-6.29-.55-12.58-1-18.86-1.55q-10.74-.89-21.49-1.8c-6.12-.51-12.25-1-18.37-1.56a248,248,0,0,0-25.12-1.13,35.36,35.36,0,0,1-11.36-1.47,10.17,10.17,0,0,0-5.12-1c-7.76,0-15.51,0-23.27-.06-5.5-.07-11-.29-16.5-.56-4.88-.06-9.75,0-14.63-.21-8.38-.3-16.77-.23-25.15-.52-7.11-.24-14.22-.19-21.32-.44-8.38-.29-16.77-.37-25.16-.48-2.87,0-5.73-.28-8.61-.43,2-.79,4.09-.53,6.13-.75,6.51-.69,13-1.08,19.56-1.69,12-1.12,24-1.48,36.07-2.22,8.52-.52,17.06-.71,25.59-1.16,9.09-.48,18.18-.74,27.27-1.06,13.89-.48,27.79-.53,41.68-.35h1.67c5.18-.31,10.35-.64,15.53-.64,24.3,0,48.61-.2,72.9.14,7.11.09,14.21.06,21.29-.2,8-.29,15.73,1.33,23.53,2.63a214.9,214.9,0,0,0,34.07,3.26c6,0,11.89,1.42,17.78,2.51a62.86,62.86,0,0,0,14.54,1.27,15.93,15.93,0,0,1,5.42.82c7.81,2.39,15.9,3.57,23.84,5.42a173.27,173.27,0,0,1,41.06,15.13,15.38,15.38,0,0,1,2.44,1.53c3.72,3,7.3,6.22,12.25,7.08a125.57,125.57,0,0,1,10.3,11.92,163.23,163.23,0,0,1,18.41,29.56A9.29,9.29,0,0,1,848.62,93.16Z"/><path class="cls-3" d="M349.06,558.31l9.78-.6c9.16-.51,18.3-1.11,27.44-1.87,5.32-.45,10.66-.71,16-1.1,8-.57,16.06-1.19,24.08-1.77,3-.22,6-.39,9.08-.53,4.94-.24,9.88-.4,14.82-.68q17.21-1,34.44-.86c.72,0,1.44.06,2.15.09-4.42,1.63-9,2.56-13.58,3.75-21.84,5.71-43.76,11.14-65.79,16.13-19.77,4.47-39.6,8.64-59.53,12.34-10.44,1.93-20.9,3.7-31.43,5q-11.4,1.44-22.89,2.17c-8.69.56-17.39.94-26.09.77-15.26-.3-30-2.93-43.85-9.67a81.12,81.12,0,0,1-26.79-21A104.42,104.42,0,0,0,187.08,550a15.7,15.7,0,0,1-5.48-9.58c2-.35,3.53.62,4.92,1.88a11.1,11.1,0,0,0,3,2.34c1.76,0,3.18,1,4.62,1.84,5.52,3.23,10.9,6.68,16.59,9.63a44.62,44.62,0,0,0,19.4,4.67,143.65,143.65,0,0,1,16.4,2,107.65,107.65,0,0,0,21.23.92,17.57,17.57,0,0,1,1.92,0c9.09.42,18.17-.71,27.29-.05,10.91.78,21.67-1.06,32.43-2.54a79.08,79.08,0,0,1,14.34-.75A5.94,5.94,0,0,0,349.06,558.31Z"/><path class="cls-3" d="M98,390.28a34.76,34.76,0,0,1,5.82,12.51c1.8,6.65,4.57,12.91,7.22,19.24q7.84,18.77,15.62,37.55a3.2,3.2,0,0,1,.12.7,108.26,108.26,0,0,1-8-11.64c-7.27-11.59-13.44-23.79-19.83-35.87-7.74-14.62-15.49-29.22-22.82-44Q57,329.83,40.44,289.7c-8.81-21.42-17.16-43-24.23-65.1a458.18,458.18,0,0,1-13.07-50A143.41,143.41,0,0,1,0,147c0-4.71-.19-9.42.62-14.07C2,125.47,6.07,120.3,13.49,118c.89.71.77,1.74.72,2.66a44,44,0,0,0,1.91,14.39c1.95,7.09,2.67,14.44,3.6,21.73,1.6,12.4,5.64,24.28,7.89,36.53,3.06,16.72,8.82,32.68,13.27,49,4.08,15,9.57,29.3,15.46,43.55,3.14,7.62,5.54,15.48,8,23.34,4.38,13.95,9.26,27.73,15.8,40.86a41.71,41.71,0,0,1,2.58,6.19c.64,2.05,1.67,3.56,3.81,4.14.8,1.49.59,3.27,1.3,4.79A65.63,65.63,0,0,0,89,373.68a34.05,34.05,0,0,0,7.39,14.25A14,14,0,0,1,98,390.28Z"/><path class="cls-2" d="M86.53,360.42c-.64,0-1.28.05-1.92.05a1.35,1.35,0,0,1-1.42-1c-2.21-7.22-6.31-13.62-9-20.64C69.8,327,65.1,315.3,61.81,303.09c-2.13-7.86-5.34-15.38-8.48-22.89C48.49,268.64,43.88,257,41,244.76c-1.23-5.2-2.94-10.28-4.67-15.33a253,253,0,0,1-8.76-33.28c-1.69-8.52-3.9-16.92-5.93-25.37-1.27-5.27-2.05-10.62-2.8-16-1.18-8.52-2.23-17.07-4.89-25.3a10.71,10.71,0,0,1-.39-3.32c0-2.71,0-5.43-.06-8.15,0-1.59,0-3.19.09-4.79.17-7.26.31-14.52.55-21.78a43.65,43.65,0,0,1,.75-7.37A19.82,19.82,0,0,1,25.11,70.34a30.89,30.89,0,0,1,6.37-2.73,62.83,62.83,0,0,1-.18,8.12C31,84.83,30.65,93.93,30,103a62.05,62.05,0,0,0,.58,11.23q1.45,13,3.21,25.92,2.11,15.78,4.82,31.49,4.32,24.9,9.87,49.55c6.2,27.67,13.47,55.07,21.35,82.3,4.33,15,8.94,29.83,14.19,44.5A49.53,49.53,0,0,1,86.53,360.42Z"/><path class="cls-3" d="M818.78,46.16c-3.51.55-6.3-1.07-8.64-3.3-4-3.78-8.83-6-13.67-8.29A170.32,170.32,0,0,0,777.07,27a223.68,223.68,0,0,0-25.52-6.31,117.39,117.39,0,0,1-13.69-3.38,7.06,7.06,0,0,0-2.8-.51c-6.76.5-13.38-.58-19.94-1.93A106.2,106.2,0,0,0,694.92,13c-4.77-.05-9.52-.7-14.28-1.22a179.47,179.47,0,0,1-19.58-3.05c-7.82-1.77-15.71-1.45-23.6-1.32-2.38,0-4.76.39-7.16.33-31.25-.83-62.51-.19-93.77-.42-.8,0-1.6,0-2.4-.07,1.75-.7,3.62-.53,5.43-.72,7.7-.81,15.43-1.4,23.14-2.14,11.53-1.1,23.08-1.93,34.63-2.63,5.66-.35,11.33-.56,17-.79C623,.59,631.58.55,640.2.27,647.31.05,654.43.05,661.54,0c10.55,0,21.11-.13,31.66.23C706.13.7,719,1.43,731.91,2.9a198.75,198.75,0,0,1,42.51,9.17,85.45,85.45,0,0,1,35.89,23.11A65.32,65.32,0,0,1,818.78,46.16Z"/><path class="cls-3" d="M701.29,665.18a80.9,80.9,0,0,1,6.09-6.73,639.68,639.68,0,0,0,50.26-62.54c15.39-21.62,29.61-44,43.3-66.73,8.54-14.17,17.18-28.27,25.79-42.39a5.18,5.18,0,0,1,.63-.7A142.06,142.06,0,0,1,822,501c-5.4,13.51-11.75,26.59-17.93,39.76a557.55,557.55,0,0,1-29.23,55,335.92,335.92,0,0,1-27,38.13,115.94,115.94,0,0,1-33.53,28.26,24.45,24.45,0,0,1-10,3.25A22.59,22.59,0,0,1,701.29,665.18Z"/><path class="cls-4" d="M850.39,96.44a9.2,9.2,0,0,1-1.81-3.32C850.53,94,850.53,94,850.39,96.44Z"/><path class="cls-5" d="M536.31,454.79a6.66,6.66,0,0,0-1,3.66,58.14,58.14,0,0,0,.25,10,56.63,56.63,0,0,1,.64,11.93,4.36,4.36,0,0,1-3.79,4.29c-2.51.4-5,.7-7.57,1q-6.88.74-13.77,1.37c-2.14.2-4.3.32-6.43.45-3.18.2-6.38.43-9.54.71-5.63.5-11.29.48-16.9,1.28a3.77,3.77,0,0,1-.48,0,125.32,125.32,0,0,0-14.1.65c-4.44.29-8.94-.1-13.35.77a2.54,2.54,0,0,1-.48,0c-7.74-.1-15.48.4-23.22.64-11,.33-22,.12-33.06.46-3.34.1-6.68.26-10,.39-6,.24-7.19-3-7.43-7-.21-3.49-.51-7-.63-10.5-.13-4-.36-8.11-.85-12.14-.28-2.29-.27-4.62-.42-6.92-.19-3.09-.49-6.19-.7-9.29a83.53,83.53,0,0,0-.79-10,3.44,3.44,0,0,1-.05-.72c.16-4.07-.4-8.12-.61-12.18-.52-9.88-.67-19.77-1-29.65-.23-7.09-.91-14.16-.87-21.26,0-3.36-1.32-4.71-4.68-4.65-4.53.07-9.06.36-13.58.83a16.52,16.52,0,0,1-2.63.09c-3.53-.19-7,.53-10.51.56-2.75,0-4.36,1.83-4.56,4.58,0,.71,0,1.44,0,2.16q0,57.21,0,114.42a36.14,36.14,0,0,1-.35,4.28c-.37,3.21-2.17,4-5,4.5a14.61,14.61,0,0,1-2.39.05c-8.16,0-16.32.1-24.47,0-7.27-.1-14.52.41-21.78.6a107,107,0,0,0-14.27,1.17c-3.14.51-6.27-.65-6.68-5.2-.51-5.52-.21-11-.33-16.52-.12-5.35.15-10.72-.11-16.06-.25-5.49-.33-11-.76-16.47-.24-3-.38-6-.66-9.06-1.33-14.1-.66-28.24-1-42.36a163.71,163.71,0,0,0-1.44-18.09c-.35-2.72-1.53-3.65-4.31-3.76-6.16-.24-12.29.38-18.43.6-3.88.13-7.75.75-11.66.91-2.65.11-4.19-.66-4.61-3.64a21,21,0,0,1-.25-2.84V310.85a10.32,10.32,0,0,1,.06-1.67c.63-4,2.12-5.36,6.24-5.36,6.87,0,13.72-.47,20.58-.61,4-.09,8,0,11.95-.45,4.47-.47,9-.06,13.39-.45,7.18-.63,14.38-.06,21.54-.52,3.67-.23,7.34-.16,11-.42,6.6-.47,13.21-.62,19.81-1,3.91-.25,7.82-.1,11.71-.42,10.22-.84,20.45-.55,30.66-.28,7,.18,13.91-.05,20.82.49,4.9.39,9.7-.38,14.56-.17a113.11,113.11,0,0,0,14.38-.1c4.15-.33,8.31,0,12.43-.44s8.48-.07,12.67-.51c3.91-.41,7.81-.17,11.71-.39,9.1-.51,18.21-.23,27.3-.59,4.47-.17,8.93-.17,13.39-.38,5.65-.28,11.31-.51,16.94-1a123.12,123.12,0,0,1,12.86-.91c3.27.05,5.05,1.36,5.89,4.5a29.66,29.66,0,0,1,.59,4c.73,5.64.36,11.31.8,16.95a146.42,146.42,0,0,1,.1,15.11c-.11,4.4.58,8.76.48,13.15a3.2,3.2,0,0,0,.34,1.63c.41.75.51,2,1.43,2s1.1-1.21,1.47-1.94a117.48,117.48,0,0,1,14.9-22.49,109.82,109.82,0,0,1,7.86-8.69,140,140,0,0,1,15.77-13.19,117.6,117.6,0,0,1,47.16-20.13,144.83,144.83,0,0,1,17.76-2.09c4.4-.27,8.78-.4,13.16-.27,5.64.16,11.27.63,16.89,1.28a144.79,144.79,0,0,1,27.68,6.24c4.42,1.42,5.69,2.54,5.48,7.59-.12,3-.77,6-1.16,9-.62,4.72-1.47,9.42-2.21,14.13-.92,5.73-1.86,11.45-2.73,17.19-.58,3.85-1.06,7.72-1.6,11.58-.59,4.17-1.24,8.33-1.78,12.51a36.07,36.07,0,0,1-.64,4.73c-.68,2.58-1.94,4.31-5.26,4a81.73,81.73,0,0,1-11-2.2c-5.66-1.31-11.3-2.73-17.06-3.47a50.65,50.65,0,0,0-14.49.24,65.75,65.75,0,0,0-15,3.85,45.52,45.52,0,0,0-11.62,7,28.39,28.39,0,0,0-7.88,9.49,27.38,27.38,0,0,0-2.59,10.37c-.1,1.67-.56,3.29-.5,5a50.12,50.12,0,0,0,.92,7.33c.82,4.35,3.57,7.12,7.47,8.66a30.7,30.7,0,0,0,14.77,1.79,43.65,43.65,0,0,0,12.64-3.34,38.68,38.68,0,0,0,9.5-5.93,100.25,100.25,0,0,0,15.5-15.93,23.83,23.83,0,0,0,4.38-8.72,6,6,0,0,1,2.25-3.55,37.47,37.47,0,0,0,3.39-3c1.72-1.61,3.38-1.37,4.4.76,1.83,3.82,3.54,7.68,5.27,11.55,2.34,5.25,4.63,10.51,7,15.77q5.53,12.46,11.09,24.93c1.73,3.86,3.24,7.85,5.33,11.51,2.67,4.69,1.47,8.43-1.74,12.18a142.19,142.19,0,0,1-12.69,13.05,89,89,0,0,1-15.75,11.23,100.15,100.15,0,0,1-19,8.4,124,124,0,0,1-20,4.48,138.26,138.26,0,0,1-23.61,1.33,90,90,0,0,1-35-7.65,139.5,139.5,0,0,1-28.59-17.76,45.88,45.88,0,0,1-12.17-14.3A1.25,1.25,0,0,0,536.31,454.79Z"/><path class="cls-6" d="M327.67,118c0,6.24,0,12.47,0,18.7q.12,16.31.31,32.61a32.6,32.6,0,0,0,.31,3.82c.39,2.9,1.73,4,4.69,3.92,1.43-.06,2.85-.28,4.28-.46a58,58,0,0,1,11.48,0,18.34,18.34,0,0,0,2.87,0c2.5-.25,3.59-1.37,3.6-3.9,0-2.79-.14-5.59-.23-8.38-.24-6.79-.47-13.57-.74-20.36q-.67-17.35-1.39-34.71c-.56-13.81-1.23-27.61-2.31-41.39a26.9,26.9,0,0,1-.07-3.59c.13-2.38,1.18-3.43,3.52-3.77a36.06,36.06,0,0,1,5.5,0c7.19.07,14.39.09,21.58.17,18.95.18,37.89.47,56.84.4a19,19,0,0,1,2.39.1c2.14.28,3,1.15,3,3.3,0,1.75-.17,3.51-.16,5.26.35,54.93.1,109.86.17,164.79q0,21,0,42a46.89,46.89,0,0,1,0,5c-.43,3.74-1.72,5-5.51,5.26-2.39.13-4.79.16-7.18.19-8.87.12-17.75.14-26.62.33-12,.25-24,.61-35.94,1a20,20,0,0,1-4.76-.13c-2.4-.49-3.44-1.5-3.79-4a20.22,20.22,0,0,1-.2-3.11c.08-8.07-.58-16.12-.94-24.18-.08-1.59,0-3.2-.14-4.79-.26-3-1.58-4-4.62-3.76-3.74.31-7.49.58-11.22,1-2.63.27-5.26.33-7.9.41a13.87,13.87,0,0,0-1.44.06c-2.55.32-3.38,1.17-3.39,3.72,0,4.32,0,8.64.1,13,.09,5.59,0,11.19.3,16.78a10.18,10.18,0,0,1-.08,1.91,4.07,4.07,0,0,1-3.55,3.94c-2.84.67-5.74.33-8.6.45-11.89.49-23.8.67-35.69,1.26-7.1.36-14.2.55-21.31.82-2.87.11-5.75.3-8.62.31-4.06,0-5.63-1.46-5.89-5.58-.35-5.42-.61-10.84-.91-16.27q-1-17.1-1.92-34.21-1.2-20.82-2.41-41.63-1.43-24.76-2.83-49.52c-.57-10.29-1-20.58-1.64-30.87-.72-12.36-1.51-24.72-2.26-37.07-.1-1.68-.12-3.36-.11-5,0-3,1.24-4.43,4.18-4.84,2-.27,4-.37,6-.46,12.84-.6,25.68-1.43,38.5-2.37,9.88-.73,19.77-1.4,29.65-2.09l7.65-.55c.48,0,1-.09,1.43-.09,3.51,0,4.82,1.2,4.89,4.7.19,10.79.32,21.58.5,32.36.1,6.55.25,13.1.37,19.65Z"/><path class="cls-6" d="M618.62,214.42c1.76,1,3.2,1.88,4.61,2.75,6.47,4,11.78,9.07,15.15,16a30,30,0,0,1-4.75,33.51A47,47,0,0,1,619.69,277c-10,5.23-20.64,8.19-32,8a67.66,67.66,0,0,1-36-11,30.11,30.11,0,0,1-14.08-21.86c-1.8-12.82,2.77-23,12.91-30.85a89.07,89.07,0,0,1,9.23-6c.39-.23,1-.35,1-.94s-.72-.76-1.3-.8c-1.59-.13-3.18-.24-4.77-.4a16.91,16.91,0,0,1-2.37-.34c-2.87-.68-3.9-1.85-4.13-4.78a68.2,68.2,0,0,1,.1-9.59c.35-6,.37-12,.58-18,.45-12.7.4-25.42.31-38.12-.1-13.11-.34-26.21-.63-39.31-.23-10-.58-20-1-29.94-.15-3.91-.39-7.82-.37-11.74,0-4.59,1.65-6.34,6.32-6.58,5.51-.28,11-.42,16.52-.72q20-1.06,40-2.25c4.94-.28,9.88-.64,14.83-1,.24,0,.47-.07.71-.08,4.43-.14,6.14,1.18,6.81,5.57a70.33,70.33,0,0,1,.63,7.4c.41,8.37.77,16.75,1.16,25.13.52,11.26.72,22.52,1,33.78.54,22.7.46,45.4.37,68.1,0,4.8,0,9.6,0,14.39a17.15,17.15,0,0,1-.46,4.52,4.75,4.75,0,0,1-4.77,3.94,18.81,18.81,0,0,1-4.3-.27A11,11,0,0,0,618.62,214.42Z"/><path class="cls-6" d="M444.91,157.75c-.36-12.88-.4-23.74-.15-34.61.26-11.89.81-23.78,1.12-35.68.2-7.83.19-15.66.29-23.49a36.9,36.9,0,0,1,.25-4.07,3.27,3.27,0,0,1,3.08-3.13,23.85,23.85,0,0,1,3.59-.12q10.91.14,21.81.33c17.43.34,34.86.28,52.28.3a19.06,19.06,0,0,1,2.39.16c3.14.4,3.9,1.23,3.78,4.32-.11,2.8-.38,5.58-.49,8.38q-.81,20-1.14,40c-.18,11.75-.3,23.49-.46,35.24-.12,9.51.08,19,.23,28.52.12,7.58.21,15.18.46,22.76.49,14.69.89,29.38,1.73,44.05.64,11.16,1.33,22.32,2.33,33.46a21.53,21.53,0,0,1,.06,3.59c-.23,3-1.64,4.46-4.58,4.94a87.47,87.47,0,0,1-9.57.58c-10,.51-20.1,1-30.14,1.71-7.89.58-15.78,1.06-23.67,1.6-3,.21-6.05.48-9.08.72-.48,0-.95.12-1.43.12-4,.06-5.78-1.24-6.51-5.17-.57-3.05-.86-6.17-1.2-9.26-.73-6.83-1.39-13.67-2.1-20.5s-.82-13.87-1-20.82c-.23-9.9-.56-19.8-.83-29.7-.21-7.67-.31-15.34-.62-23S445,163.49,444.91,157.75Z"/><path class="cls-2" d="M349.06,558.31c-.53,2.3-1,2.71-3.16,2.74s-4.15,0-6.23,0a111.55,111.55,0,0,0-14,1.29c-4.34.53-8.67,1.17-13,1.67-6,.69-12,.35-17.93.33-2.06,0-4.12-.53-6.2-.33-7,.65-14,.14-21,.54-4.87.27-9.71-.14-14.55-.26a61.61,61.61,0,0,1-10.86-1.46,52.81,52.81,0,0,0-10.42-1.17c-10.16,0-19.25-3.13-27.76-8.42-4.54-2.82-9.06-5.67-13.84-8.09a3.87,3.87,0,0,1-.54-.46c1.11-1,2.24-.5,3.35,0a140.66,140.66,0,0,0,28.78,8.91c7.05,1.42,14.16,2.45,21.32,3.17,10.73,1.08,21.49,1.67,32.28,2,11.11.37,22.22.34,33.32.11,9.67-.21,19.34-.23,29-.43C341.39,558.36,345.22,558,349.06,558.31Z"/><path class="cls-7" d="M98,390.28c-5-4.34-7.87-9.92-9.54-16.19a25.62,25.62,0,0,1-1-7.29,2.22,2.22,0,0,1,.35-1.59c3.56,4.54,5.56,9.84,7.3,15.25.91,2.81,1.71,5.65,2.56,8.48l.07.13Z"/><path class="cls-8" d="M471,16.53c1.75,0,3.5-.08,5.25-.08h36.09c1.48,0,2.92,0,3.55,1.72-10.14.29-20.27-.28-30.4-.47-4.46-.09-8.9-.58-13.36-.88A1.87,1.87,0,0,1,471,16.53Z"/><polygon class="cls-3" points="97.76 389.07 97.69 388.94 97.8 388.98 97.76 389.07"/><path class="cls-9" d="M471.79,370.81c9.91,0,19.82.06,29.73,0,3.59,0,7.19-.24,10.78-.24a11.58,11.58,0,0,1,2.62.25,4.87,4.87,0,0,1,4.08,4.41,22.3,22.3,0,0,1,.28,4.54c-.46,7.43,0,14.85.39,22.27.09,2,.27,4,.22,6-.08,2.88-1.51,4.41-4.39,4.73-1.66.19-3.35.21-5,.24-8.55.18-17.1.3-25.65.5-12,.29-24,.59-35.93,1-2.48.09-5,0-7.43.22-2.64.2-3.71,1.36-3.66,4a14.48,14.48,0,0,0,.4,2.6,3.47,3.47,0,0,0,3.36,2.9,25.3,25.3,0,0,0,3.59,0q22.86-1.11,45.71-2.25l23.7-1.18q1,0,1.92,0c3.66.09,5,1.37,5.23,5.08.17,3.35.13,6.71.26,10.07q.66,17.36,1.4,34.71c.22,5-.83,6.19-5.86,6.58-12.11.93-24.24,1.51-36.37,2-10.78.47-21.56.71-32.34,1-14,.35-28,.31-42,.31-5.76,0-11.52-.09-17.27-.15a9.31,9.31,0,0,1-1.67-.11c-2.26-.41-3.16-1.36-3.35-3.7-.35-4.22-.68-8.44-.94-12.67q-1.26-20.69-1.74-41.42c-.36-16.46-.22-32.93-.09-49.39.09-12,.87-24,1.24-35.92.22-7.27.58-14.53.46-21.81a14,14,0,0,1,.09-2.15,3.78,3.78,0,0,1,3.58-3.57,19.28,19.28,0,0,1,2.63-.2l35-.35c15.26-.16,30.53-.25,45.79-.51,11.11-.19,22.22-.41,33.33-.46,2.87,0,5.75-.14,8.62-.11,4.05,0,5.44,1.46,5.45,5.55,0,5.92,0,11.84,0,17.75.07,7.75.22,15.5.34,23.25,0,.16,0,.32,0,.48.06,4-1.21,5.41-5.17,5.52-8.54.23-17.09.38-25.64.64-11.65.34-23.31.77-35,1.13-3.52.11-7,.05-10.55.19-3.29.13-4.81,1.83-4.73,5,.06,2.47,1,3.5,3.51,3.55,3,.06,5.92,0,8.88,0h22.07Z"/><path class="cls-9" d="M674.15,400.8c.5.22.6.71.79,1.14,5.6,13.15,11.56,26.15,16.83,39.44a55.11,55.11,0,0,1,1.93,5.91,9.07,9.07,0,0,1-2.55,9.43,107.16,107.16,0,0,1-14.5,11.79c-12.51,8.57-26.41,13.36-41.38,15.35a142.26,142.26,0,0,1-16.73,1.1c-20.62.27-39.28-5.53-55.4-18.59s-26.25-29.51-29.58-50c-3.24-20-1.5-39.49,7-58.11,6-13.21,14.9-24.34,25.51-34.16a102.05,102.05,0,0,1,48-25.32,133.76,133.76,0,0,1,26.38-3,177.51,177.51,0,0,1,26.07,1.35,135,135,0,0,1,18.25,3.9c4,1.1,5.29,3.41,4.33,7.69-.85,3.82-1.61,7.66-2.31,11.51-1.18,6.6-2.4,13.19-3.3,19.84a12.9,12.9,0,0,1-.87,3.47,16.47,16.47,0,0,0-1.07,6.55,21.45,21.45,0,0,1-2.21,9.48,1.85,1.85,0,0,1-2.27,1.2,11,11,0,0,0-3.09-.14,5.23,5.23,0,0,1-2.37-.28c-7.39-3.2-15.26-3-23-3.1a94.74,94.74,0,0,0-20,1.86c-3.53.73-6.78,2.37-10,3.89-6.13,2.86-11.8,6.42-16.28,11.59a44.83,44.83,0,0,0-10.51,24.5,30.05,30.05,0,0,0,6.2,22.5,24.9,24.9,0,0,0,17.46,9.88c13.83,1.71,26.23-2.26,37.58-10,7.41-5,13.47-11.5,19.1-18.4.56-.68,1.12-1.36,1.69-2A2,2,0,0,1,674.15,400.8Z"/><path class="cls-9" d="M266.47,427.43c0-15.35,0-30.69,0-46,0-6.55-.23-13.1-.4-19.65-.07-2.93-1-3.82-4-3.74-3.59.08-7.18.41-10.77.43-6.23.05-12.47-.06-18.7-.1a9.63,9.63,0,0,1-1.2,0c-2.62-.28-3.72-1.37-3.76-4s.12-5.11.19-7.67c.15-5.19.34-10.38.46-15.57.13-5.75.17-11.5.29-17.25.08-3.62,1.53-5.09,5.13-5.19,2.31-.07,4.63,0,7,0,10.7-.25,21.4-.45,32.1-.82,16.86-.59,33.72-.44,50.59-.46l36.21-.08c.56,0,1.12,0,1.68,0,3.59.1,5.32,1.69,5.52,5.24s.34,7.34.41,11c.17,8.63.44,17.25.94,25.86.3,5.05-.51,5.83-5.55,6-6.07.16-12.13.54-18.19.7-4,.11-8,.13-12,0-6-.24-7.77,1.35-7.92,7.39q-.52,21-1.09,41.92c-.31,11.34-.6,22.68-1,34-.38,11.57-.84,23.15-1.26,34.72-.08,2.15-.09,4.31-.18,6.47-.15,3.83-1.48,5.16-5.34,5.15-10.87,0-21.74-.08-32.61-.1-3.6,0-7.19.07-10.79.12a8.31,8.31,0,0,1-2.84-.36,3.31,3.31,0,0,1-2.43-2.69,19,19,0,0,1-.26-3.1q0-26,0-52Z"/><path class="cls-2" d="M343.43,183.94H360.7c.64,0,1.28,0,1.92,0,2.18-.17,3.25-1.24,3.73-3.36.62-2.72,0-5.42,0-8.12-.14-8.46-.86-16.9-1.33-25.36-.36-6.61-.68-13.24-.65-19.88.05-17.27,0-34.54,0-51.81a23.21,23.21,0,0,1,.08-2.64c.31-2.65,1.77-4,4.46-4s5.42.35,8.12.58c6.37.53,12.76.75,19.15.82,8.07.09,16.15,0,24.22.22a72.85,72.85,0,0,1,11.23.7c2.68.49,3.49,1.29,4,4a22.7,22.7,0,0,1,.18,6.21c-.32,4.47-.27,8.94-.4,13.41-.3,9.5-.62,19-.89,28.5-.22,7.51-.32,15-.61,22.52-.41,10.86-.65,21.72-1,32.58-.17,5.19-.22,10.38-.43,15.57-.45,10.77-.65,21.56-1,32.33-.33,10.62-.63,21.24-1,31.86-.14,4.31-.29,8.62-.39,12.93a9.71,9.71,0,0,1-.1,1.2c-.46,3-1.73,4.19-4.78,4.26-2.48.05-5,.08-7.43-.11-5.59-.43-11.19-.26-16.78-.33-8.79-.12-17.59-.08-26.39-.13a20,20,0,0,1-3.09-.27,5.06,5.06,0,0,1-4.71-4.9,19.42,19.42,0,0,1,0-2.16q0-13.42,0-26.86a12.8,12.8,0,0,0-.13-2.15c-.51-3-2-4.32-5.07-4.32-6.39,0-12.76.53-19.15.78-3.43.13-6.87.18-10.3.29s-7,.22-10.54.38c-3.12.14-4.43,1.33-4.95,4.43a12.22,12.22,0,0,0-.17,1.91c0,7.75.07,15.51.08,23.26,0,1.74.35,3.47,0,5.24-.52,2.42-1.82,3.81-4.34,4-1.75.15-3.51.1-5.27.1-10.56,0-21.11-.12-31.67.06q-7.31.14-14.61.35a12.55,12.55,0,0,1-4-.33,4,4,0,0,1-3-3.09,14.77,14.77,0,0,1-.47-3.32c0-5,0-10.07-.24-15.1-.34-7.19-.12-14.39-.49-21.57-.32-6.23-.25-12.46-.42-18.69-.37-13-.55-26-1-39-.2-5.43-.22-10.86-.4-16.29-.34-10.22-.57-20.44-.84-30.66-.21-8-.3-16-.65-24-.39-8.7-.48-17.4-1.17-26.08-.38-4.87.92-6.22,5.85-6.73,9.4-1,18.83-.83,28.26-1,8.7-.15,17.4-.52,26.08-1.29a53.3,53.3,0,0,1,5.51-.19c3.31.07,4.7,1.43,5.35,4.63.69,3.45-.05,6.86,0,10.28.09,6.23,0,12.47-.19,18.7-.39,15.27-.25,30.54-.53,45.8q-.26,13.91-.29,27.8a15.06,15.06,0,0,0,.3,2.85c.61,3.37,1.95,4.73,5.35,5.1,1.74.19,3.51.19,5.27.21,2.47,0,4.95,0,7.43,0h7.2Z"/><path class="cls-3" d="M625.83,119c0,15.35.09,30.7,0,46.05-.06,7.82-.54,15.64-.81,23.46q-.26,7.19-.46,14.37c-.11,3.76-1.36,5-5.09,5.06-7.35.09-14.69-.45-22-.6-10.31-.21-20.61-.55-30.92-.6-1.59,0-3.19-.13-4.78-.29-2.24-.23-3.55-1.51-3.48-3.78.2-7.27-.28-14.54.32-21.81s.79-14.51,1.17-21.77c.53-10.29.72-20.6,1-30.89.58-17.75.22-35.49.37-53.23a11.48,11.48,0,0,1,.27-3.09,4.36,4.36,0,0,1,3.18-3.26,11.07,11.07,0,0,1,3.08-.38c2.87,0,5.75,0,8.63-.07,8.55-.15,17.1-.17,25.64-.53,6.31-.26,12.62-.33,18.93-.41,3.84,0,5,1.17,5,5,0,8.39,0,16.79-.06,25.18Q625.82,108.2,625.83,119Z"/><path class="cls-3" d="M586.84,274c-6.63.09-13.51-1.79-20.19-4.63-4.81-2-9.35-4.5-13-8.36a20.54,20.54,0,0,1-5.54-11.7c-1.74-13,5.38-20.07,13.65-24.16a65.37,65.37,0,0,1,23.36-6.67,52.64,52.64,0,0,1,35.58,9.55,26.22,26.22,0,0,1,6.12,5.68c6.7,8.92,5.59,20.25-2.77,28.13-4.58,4.31-10.15,6.88-16,8.83C601,273.05,595.39,273.78,586.84,274Z"/><path class="cls-2" d="M456.92,255.35c-.2-9.76-.3-18.64-.6-27.5-.63-18.54-.42-37.09-.44-55.63,0-8,.05-16,.23-24q.34-15.57,1-31.14c.39-10,.91-20.1,1.43-30.15.23-4.55.58-9.09.88-13.63.28-4.19,2.09-6,6.25-5.85,6.95.28,13.88.79,20.82,1.12,6.54.32,13.1.39,19.63.81,5,.32,10.07.14,15.08.69,3.37.37,4.6,1.57,4.4,4.94-.27,4.38-.7,8.76-1.06,13.13-.23,2.79-.55,5.57-.68,8.36-.36,7.58-.87,15.15-1.21,22.73-.51,11.74-.7,23.48-1,35.22-.23,9.76-.35,19.51-.13,29.25.61,26.87.16,53.73.33,80.59,0,2.24.2,4.48,0,6.71-.23,2.56-1.21,3.69-3.76,4.22-2.3.48-4.63.22-6.94.28-8.47.22-16.94.32-25.4.58-6.87.21-13.73.59-20.59.89a19.23,19.23,0,0,1-2.4,0,4.76,4.76,0,0,1-4.52-3.65,20.19,20.19,0,0,1-.76-4.23A131.7,131.7,0,0,1,456.92,255.35Z"/></g></g></svg>