<?xml version="1.0" encoding="utf-8"?>
<!-- Generator: Adobe Illustrator 24.1.1, SVG Export Plug-In . SVG Version: 6.00 Build 0)  -->
<svg version="1.1" id="Capa_1" xmlns="http://www.w3.org/2000/svg" xmlns:xlink="http://www.w3.org/1999/xlink" x="0px" y="0px"
	 viewBox="0 0 789 154.5" style="enable-background:new 0 0 789 154.5;" xml:space="preserve">
<style type="text/css">
	.st0{fill:#FFFFFF;}
	.st1{fill:#3B92B0;}
	.st2{enable-background:new    ;}
</style>
<g id="Capa_2_1_">
	<g id="Logo_PNG">
		<polygon class="st0" points="24.9,62.3 56.2,93.5 43.7,106 12.5,74.8 0,62.3 43.7,18.6 56.2,31 		"/>
		<polygon class="st1" points="136.9,11.9 124.4,24.3 105.3,24.3 105.3,107.4 83.6,107.4 83.6,24.3 62.9,24.3 50.4,11.9 50.3,12 
			50.3,11.9 		"/>
		<g class="st2">
			<path class="st0" d="M144.6,139.9h2.3l-1.3,6.5c-0.8,0.6-1.7,1.2-2.8,1.5c-1.1,0.4-2.2,0.5-3.3,0.5c-1.6,0-3-0.3-4.2-0.9
				c-1.2-0.6-2.1-1.4-2.8-2.5c-0.6-1.1-1-2.3-1-3.7c0-1.9,0.4-3.5,1.3-5.1s2-2.7,3.6-3.6c1.6-0.9,3.3-1.3,5.4-1.3
				c1.4,0,2.7,0.2,3.8,0.7c1.1,0.4,2,1.1,2.6,1.9l-1.7,1.4c-0.6-0.6-1.2-1.1-2-1.4c-0.8-0.3-1.7-0.5-2.8-0.5c-1.6,0-2.9,0.3-4.1,1
				c-1.2,0.7-2.1,1.6-2.7,2.8c-0.6,1.2-1,2.5-1,3.9c0,1.5,0.5,2.8,1.5,3.7s2.4,1.4,4.3,1.4c1.4,0,2.6-0.3,3.8-1L144.6,139.9z"/>
			<path class="st0" d="M166.1,140.6c-0.9,1.1-2.1,1.8-3.7,2.3l3,5.4h-2.5l-2.9-5.1h-0.5h-4.4l-1,5.1h-2.4l3.3-16.6h6.2
				c1.9,0,3.5,0.4,4.5,1.3c1.1,0.8,1.6,2,1.6,3.6C167.4,138.1,167,139.5,166.1,140.6z M163.6,140c0.9-0.8,1.4-1.9,1.4-3.3
				c0-1-0.3-1.7-1-2.3c-0.7-0.5-1.7-0.8-2.9-0.8h-4l-1.5,7.5h4.1C161.4,141.2,162.7,140.8,163.6,140z"/>
			<path class="st0" d="M173.8,147c-1.1-1-1.7-2.3-1.7-4.1c0-0.5,0.1-1.1,0.2-1.8l1.9-9.5h2.4l-1.9,9.4c-0.1,0.5-0.2,1.1-0.2,1.6
				c0,1.2,0.3,2.1,1,2.8c0.7,0.6,1.7,0.9,3,0.9c1.5,0,2.7-0.4,3.6-1.3c0.9-0.9,1.5-2.2,1.9-4l1.9-9.4h2.3l-1.9,9.6
				c-0.5,2.4-1.4,4.2-2.7,5.4c-1.3,1.2-3.1,1.8-5.2,1.8C176.4,148.5,174.9,148,173.8,147z"/>
			<path class="st0" d="M205.8,132.9c1.1,0.8,1.6,2,1.6,3.6c0,1.4-0.3,2.6-0.9,3.6c-0.6,1-1.5,1.8-2.7,2.3c-1.2,0.5-2.6,0.8-4.2,0.8
				h-4.4l-1,5h-2.4l3.3-16.6h6.2C203.2,131.6,204.7,132.1,205.8,132.9z M203.6,140c0.9-0.8,1.4-1.9,1.4-3.3c0-1-0.3-1.7-1-2.2
				c-0.7-0.5-1.7-0.8-2.9-0.8h-4l-1.5,7.5h4.1C201.3,141.2,202.7,140.8,203.6,140z"/>
			<path class="st0" d="M214.7,147.6c-1.2-0.6-2.1-1.4-2.7-2.5c-0.6-1.1-0.9-2.3-0.9-3.7c0-1.9,0.4-3.5,1.3-5.1s2-2.7,3.6-3.6
				c1.5-0.9,3.3-1.3,5.3-1.3c1.6,0,3,0.3,4.2,0.9c1.2,0.6,2.1,1.4,2.7,2.5c0.6,1.1,0.9,2.3,0.9,3.7c0,1.9-0.4,3.5-1.3,5.1
				c-0.8,1.5-2,2.7-3.6,3.6c-1.5,0.9-3.3,1.3-5.3,1.3C217.3,148.5,215.9,148.2,214.7,147.6z M223.1,145.3c1.1-0.7,2-1.6,2.6-2.8
				s0.9-2.5,0.9-3.9c0-1.5-0.5-2.8-1.5-3.7c-1-0.9-2.4-1.4-4.2-1.4c-1.5,0-2.8,0.3-3.9,1c-1.1,0.7-2,1.6-2.6,2.8
				c-0.6,1.2-0.9,2.5-0.9,3.9c0,1.5,0.5,2.8,1.5,3.7c1,0.9,2.4,1.4,4.2,1.4C220.6,146.3,221.9,146,223.1,145.3z"/>
			<path class="st0" d="M246.5,133.7l-1,5.1h8.4l-0.4,2h-8.4l-1.1,5.4h9.7l-0.4,2.1h-12.1l3.3-16.6h11.7l-0.4,2.1H246.5z"/>
		</g>
		<g class="st2">
			<path class="st0" d="M263.4,147.9c-1.1-0.4-2-0.9-2.6-1.4l1-1.9c0.6,0.6,1.4,1,2.4,1.4c1,0.3,2,0.5,3,0.5c1.4,0,2.5-0.2,3.3-0.7
				c0.8-0.5,1.2-1.2,1.2-2.1c0-0.5-0.2-0.9-0.5-1.2c-0.3-0.3-0.7-0.6-1.2-0.8c-0.5-0.2-1.1-0.4-1.9-0.7c-1.1-0.3-1.9-0.6-2.6-0.9
				s-1.2-0.7-1.7-1.3c-0.5-0.6-0.7-1.3-0.7-2.2c0-1,0.3-2,0.9-2.7c0.6-0.8,1.4-1.4,2.4-1.8c1-0.4,2.2-0.6,3.6-0.6c1,0,2,0.1,2.9,0.4
				c0.9,0.2,1.7,0.6,2.4,1l-1,1.9c-0.6-0.4-1.3-0.8-2.1-1s-1.6-0.3-2.4-0.3c-1.4,0-2.4,0.3-3.3,0.8c-0.8,0.5-1.2,1.2-1.2,2.1
				c0,0.5,0.2,0.9,0.5,1.2c0.3,0.3,0.7,0.6,1.2,0.8c0.5,0.2,1.1,0.4,2,0.7c1,0.3,1.9,0.6,2.5,0.9c0.6,0.3,1.2,0.7,1.6,1.2
				s0.7,1.2,0.7,2.1c0,1.1-0.3,2-0.9,2.8s-1.4,1.4-2.5,1.8c-1.1,0.4-2.3,0.6-3.7,0.6C265.7,148.5,264.5,148.3,263.4,147.9z"/>
		</g>
		<g class="st2">
			<path class="st0" d="M284.9,133.7h-5.7l0.4-2.1h13.8l-0.4,2.1h-5.7l-2.9,14.6H282L284.9,133.7z"/>
		</g>
		<g class="st2">
			<path class="st0" d="M297.5,147c-1.1-1-1.7-2.3-1.7-4.1c0-0.5,0.1-1.1,0.2-1.8l1.9-9.5h2.4l-1.9,9.4c-0.1,0.5-0.2,1.1-0.2,1.6
				c0,1.2,0.3,2.1,1,2.8c0.7,0.6,1.7,0.9,3,0.9c1.5,0,2.7-0.4,3.6-1.3c0.9-0.9,1.5-2.2,1.9-4l1.9-9.4h2.3l-1.9,9.6
				c-0.5,2.4-1.4,4.2-2.7,5.4c-1.3,1.2-3.1,1.8-5.2,1.8C300.1,148.5,298.6,148,297.5,147z"/>
			<path class="st0" d="M318.8,131.6h6.5c1.7,0,3.1,0.3,4.3,0.8c1.2,0.6,2.1,1.4,2.7,2.4c0.6,1,0.9,2.2,0.9,3.6
				c0,1.9-0.4,3.6-1.3,5.1c-0.9,1.5-2.1,2.6-3.6,3.5c-1.6,0.8-3.4,1.2-5.4,1.2h-7.4L318.8,131.6z M323,146.2c1.6,0,3-0.3,4.2-1
				s2.1-1.5,2.7-2.7c0.6-1.1,1-2.5,1-3.9c0-1.5-0.5-2.7-1.5-3.6c-1-0.9-2.4-1.3-4.3-1.3h-4.3l-2.5,12.5H323z"/>
			<path class="st0" d="M340.4,131.6h2.4l-3.3,16.6h-2.4L340.4,131.6z"/>
			<path class="st0" d="M358,144.1h-8.9l-2.6,4.2h-2.6l10.9-16.6h2.4l4.2,16.6H359L358,144.1z M357.5,142.2l-2-8.2l-5.2,8.2H357.5z"
				/>
			<path class="st0" d="M383.5,131.6l-3.3,16.6h-1.9l-7.4-12.8l-2.5,12.8h-2.4l3.3-16.6h1.9l7.4,12.8l2.5-12.8H383.5z"/>
			<path class="st0" d="M393.3,133.7h-5.7l0.4-2.1h13.8l-0.4,2.1h-5.7l-2.9,14.6h-2.4L393.3,133.7z"/>
			<path class="st0" d="M406.4,131.6h2.4l-3.3,16.6h-2.4L406.4,131.6z"/>
			<path class="st0" d="M415.7,131.6h2.4l-2.9,14.6h9l-0.4,2.1h-11.4L415.7,131.6z"/>
		</g>
		<g class="st2">
			<path class="st0" d="M441.6,130.6h2.1v22.2h-2.1V130.6z"/>
		</g>
		<g class="st2">
			<path class="st0" d="M464.4,133.7h-5.7l0.4-2.1h13.8l-0.4,2.1h-5.7l-2.9,14.6h-2.4L464.4,133.7z"/>
		</g>
		<g class="st2">
			<path class="st0" d="M480.1,133.7l-1,5.1h8.4l-0.4,2h-8.4l-1.1,5.4h9.7l-0.4,2.1h-12.1l3.3-16.6h11.7l-0.4,2.1H480.1z"/>
		</g>
		<g class="st2">
			<path class="st0" d="M497,147.6c-1.2-0.6-2.1-1.4-2.7-2.5c-0.6-1.1-1-2.3-1-3.7c0-1.9,0.4-3.5,1.3-5.1c0.8-1.5,2-2.7,3.6-3.6
				c1.5-0.9,3.3-1.3,5.4-1.3c1.4,0,2.6,0.2,3.7,0.7c1.1,0.5,1.9,1.1,2.4,1.9l-1.7,1.5c-1-1.3-2.5-1.9-4.6-1.9c-1.5,0-2.9,0.3-4,1
				c-1.2,0.7-2,1.6-2.7,2.8c-0.6,1.2-0.9,2.5-0.9,3.9c0,1.5,0.5,2.8,1.5,3.7c1,0.9,2.4,1.4,4.2,1.4c2,0,3.7-0.7,5-2l1.4,1.6
				c-0.8,0.8-1.7,1.4-2.8,1.9s-2.4,0.6-3.7,0.6C499.6,148.5,498.2,148.2,497,147.6z"/>
			<path class="st0" d="M533.8,139.9h2.3l-1.3,6.5c-0.8,0.6-1.7,1.2-2.8,1.5s-2.2,0.5-3.3,0.5c-1.6,0-3-0.3-4.2-0.9
				s-2.1-1.4-2.8-2.5s-1-2.3-1-3.7c0-1.9,0.4-3.5,1.3-5.1c0.8-1.5,2-2.7,3.6-3.6c1.6-0.9,3.3-1.3,5.4-1.3c1.4,0,2.7,0.2,3.8,0.7
				c1.1,0.4,2,1.1,2.6,1.9l-1.7,1.4c-0.6-0.6-1.2-1.1-2-1.4s-1.7-0.5-2.8-0.5c-1.6,0-2.9,0.3-4.1,1c-1.2,0.7-2.1,1.6-2.7,2.8
				c-0.6,1.2-1,2.5-1,3.9c0,1.5,0.5,2.8,1.5,3.7c1,0.9,2.4,1.4,4.3,1.4c1.4,0,2.6-0.3,3.8-1L533.8,139.9z"/>
		</g>
		<g class="st2">
			<path class="st0" d="M545.4,131.6h6.5c1.7,0,3.1,0.3,4.3,0.8c1.2,0.6,2.1,1.4,2.7,2.4c0.6,1,0.9,2.2,0.9,3.6
				c0,1.9-0.4,3.6-1.3,5.1s-2.1,2.6-3.6,3.5s-3.4,1.2-5.4,1.2h-7.4L545.4,131.6z M549.6,146.2c1.6,0,3-0.3,4.2-1s2.1-1.5,2.7-2.7
				c0.6-1.1,1-2.5,1-3.9c0-1.5-0.5-2.7-1.5-3.6c-1-0.9-2.4-1.3-4.3-1.3h-4.3l-2.5,12.5H549.6z"/>
		</g>
		<g class="st2">
			<path class="st0" d="M575.4,144.1h-8.9l-2.6,4.2h-2.6l10.9-16.6h2.4l4.2,16.6h-2.4L575.4,144.1z M575,142.2l-2-8.2l-5.2,8.2H575z
				"/>
		</g>
		<path class="st1" d="M216.6,89.7v17.7h-74V11.9h72.2v17.7h-50.2v20.7H209v17.2h-44.4v22.1L216.6,89.7L216.6,89.7z"/>
		<path class="st1" d="M250.6,102.7c-7.7-4.1-14.1-10.1-18.6-17.6c-4.6-7.7-6.9-16.5-6.8-25.5c-0.1-8.9,2.2-17.8,6.8-25.5
			c4.5-7.5,10.9-13.6,18.6-17.6c8.2-4.3,17.3-6.5,26.6-6.4c7.7-0.1,15.3,1.4,22.5,4.4c6.5,2.8,12.3,7.1,16.9,12.6l-14.2,13.1
			c-6.5-7.5-14.5-11.2-24-11.2c-5.5-0.1-11,1.3-15.9,3.9c-4.6,2.5-8.3,6.3-10.9,10.8c-2.6,4.9-4,10.3-3.9,15.8
			c-0.1,5.5,1.2,11,3.9,15.8c2.5,4.6,6.3,8.3,10.9,10.8c4.9,2.6,10.3,4,15.8,3.9c9.5,0,17.5-3.8,24-11.3L316.4,92
			c-4.5,5.5-10.3,9.9-16.9,12.7c-7.1,3-14.8,4.5-22.5,4.4C267.8,109.2,258.7,107,250.6,102.7z"/>
		<path class="st0" d="M342.4,103.7c-6-3.1-10.9-7.7-14.4-13.4c-3.5-5.9-5.3-12.7-5.2-19.5c-0.1-6.9,1.7-13.6,5.2-19.5
			c3.5-5.7,8.4-10.4,14.4-13.5c13.1-6.5,28.5-6.5,41.6,0c5.9,3.1,10.9,7.7,14.3,13.5c3.5,5.9,5.3,12.7,5.2,19.5
			c0.1,6.9-1.7,13.6-5.2,19.5c-3.4,5.7-8.4,10.4-14.3,13.5C370.9,110.1,355.5,110.1,342.4,103.7L342.4,103.7z M376.6,85.5
			c3.5-3.7,5.3-8.6,5.3-14.8c0-6.2-1.8-11.1-5.3-14.8c-7.5-7.4-19.5-7.4-27,0c-3.5,3.7-5.3,8.6-5.3,14.8s1.8,11.1,5.3,14.8
			C357.1,92.9,369.2,92.9,376.6,85.5z"/>
		<path class="st0" d="M492.5,6.1v101.3h-20.3V99c-5.3,6.4-12.9,9.6-22.9,9.6c-6.6,0.1-13-1.5-18.8-4.6c-5.6-3.1-10.1-7.7-13.2-13.2
			c-3.3-6.1-4.9-13-4.8-19.9c-0.2-6.9,1.5-13.8,4.8-19.9c3-5.6,7.6-10.2,13.2-13.2c5.8-3.1,12.2-4.8,18.8-4.7c9.4,0,16.7,3,22,8.9
			V6.1H492.5z M466.3,85.5c3.6-3.7,5.3-8.6,5.3-14.8c0-6.2-1.8-11.1-5.3-14.8c-7.4-7.4-19.4-7.4-26.9,0c-3.6,3.7-5.3,8.6-5.3,14.8
			s1.8,11.1,5.3,14.8C446.8,92.9,458.8,92.9,466.3,85.5z"/>
		<path class="st0" d="M513.2,20.3c-2.4-2.1-3.8-5.2-3.7-8.5c-0.1-3.2,1.3-6.3,3.7-8.5c2.6-2.3,6-3.6,9.6-3.4c3.5-0.2,6.9,1,9.6,3.3
			c2.4,2,3.7,5,3.7,8.2c0.1,3.3-1.3,6.5-3.7,8.8c-2.6,2.4-6,3.6-9.6,3.5C519.3,23.9,515.8,22.7,513.2,20.3z M512.1,34h21.3v73.4
			h-21.3V34z"/>
		<path class="st0" d="M619.9,41.1c5.6,5.5,8.4,13.6,8.4,24.3v42H607V68.7c0-5.8-1.3-10.2-3.8-13s-6.2-4.3-11.1-4.3
			c-5.4,0-9.6,1.7-12.8,5s-4.8,8.3-4.8,14.8v36.3h-21.3V34h20.3v8.6c2.9-3.2,6.5-5.6,10.5-7.2c4.4-1.7,9.1-2.6,13.8-2.5
			C607,32.9,614.3,35.6,619.9,41.1z"/>
		<path class="st0" d="M724.1,34v61.2c0,13.5-3.5,23.5-10.5,30s-17.2,9.8-30.7,9.8c-6.8,0-13.6-0.8-20.2-2.6
			c-5.7-1.4-11.1-4-15.8-7.5l8.5-15.3c3.5,2.8,7.5,4.8,11.7,6.1c4.6,1.5,9.4,2.2,14.2,2.3c7.4,0,12.8-1.7,16.3-5s5.3-8.4,5.3-15.1
			v-3.1c-5.6,6.1-13.3,9.1-23.2,9.1c-6.4,0.1-12.8-1.5-18.5-4.4c-5.5-2.9-10.1-7.2-13.3-12.4c-3.3-5.6-5-12-4.9-18.6
			c-0.1-6.5,1.6-13,4.9-18.6c3.2-5.3,7.8-9.6,13.3-12.5c5.7-3,12.1-4.5,18.5-4.4c10.7,0,18.8,3.5,24.3,10.5V34H724.1z M697.7,81.4
			c3.6-3.3,5.6-8.1,5.4-13c0.2-4.9-1.8-9.6-5.4-13c-3.6-3.3-8.2-5-13.9-5c-5.6,0-10.3,1.7-13.9,5c-3.6,3.3-5.6,8.1-5.5,13
			c-0.2,4.9,1.8,9.7,5.5,13c3.6,3.3,8.3,5,13.9,5C689.5,86.4,694.1,84.8,697.7,81.4z"/>
		<polygon class="st1" points="789,62.5 776.4,75.1 745,106.5 732.5,94 763.9,62.5 732.5,31.1 745,18.6 		"/>
		<polygon class="st1" points="305.9,77.6 305.9,77.6 305.8,77.6 		"/>
	</g>
</g>
</svg>
