<svg xmlns="http://www.w3.org/2000/svg" viewBox="0 0 788.96 154.5"><defs><style>.cls-1,.cls-3{fill:#3b92b0;}.cls-2{fill:#283c77;}.cls-3{font-size:23.75px;font-family:Montserrat-MediumItalic, Montserrat;font-weight:500;font-style:italic;letter-spacing:0.1em;}.cls-4{letter-spacing:0.09em;}.cls-5{letter-spacing:0.09em;}.cls-6{font-family:Montserrat-Medium, Montserrat;font-style:normal;}.cls-7{letter-spacing:0.1em;}</style></defs><g id="Capa_2" data-name="Capa 2"><g id="Logo_PNG" data-name="Logo PNG"><polygon class="cls-1" points="24.94 62.28 56.17 93.51 43.7 105.98 12.47 74.75 0 62.28 43.7 18.58 56.17 31.04 24.94 62.28"/><polygon class="cls-2" points="136.88 11.88 124.41 24.34 105.25 24.34 105.25 107.43 83.6 107.43 83.6 24.34 62.86 24.34 50.4 11.88 50.25 12.03 50.25 11.88 136.88 11.88"/><text class="cls-3" transform="translate(130.17 148.26)">GRUPO E<tspan class="cls-4" x="130.41" y="0">S</tspan><tspan class="cls-5" x="147.3" y="0">T</tspan><tspan x="163.3" y="0">UDIANTIL </tspan><tspan class="cls-6" x="308.91" y="0">|</tspan><tspan x="318.39" y="0" xml:space="preserve"> T</tspan><tspan class="cls-7" x="343.47" y="0">E</tspan><tspan x="361.69" y="0">C G</tspan><tspan class="cls-4" x="410.71" y="0">D</tspan><tspan x="432.46" y="0">A</tspan></text><path class="cls-2" d="M216.63,89.69v17.74h-74V11.88h72.22V29.62H164.62V50.37H209v17.2H164.62V89.69Z"/><path class="cls-2" d="M250.55,102.72A47.31,47.31,0,0,1,232,85.11a48.47,48.47,0,0,1-6.76-25.46A48.43,48.43,0,0,1,232,34.2a47.31,47.31,0,0,1,18.56-17.61,55.13,55.13,0,0,1,26.56-6.35,55.71,55.71,0,0,1,22.45,4.37,44.85,44.85,0,0,1,16.86,12.56l-14.2,13.1q-9.69-11.19-24-11.19A31.84,31.84,0,0,0,262.36,33a27.61,27.61,0,0,0-10.85,10.85,31.93,31.93,0,0,0-3.89,15.83,31.94,31.94,0,0,0,3.89,15.84,27.61,27.61,0,0,0,10.85,10.85,31.94,31.94,0,0,0,15.84,3.89q14.32,0,24-11.33L316.42,92a44.2,44.2,0,0,1-16.93,12.69A56.19,56.19,0,0,1,277,109.07,55,55,0,0,1,250.55,102.72Z"/><path class="cls-1" d="M342.38,103.68A36,36,0,0,1,328,90.23a37,37,0,0,1-5.19-19.52A37,37,0,0,1,328,51.19a36.15,36.15,0,0,1,14.4-13.45,47,47,0,0,1,41.57,0,36.29,36.29,0,0,1,14.33,13.45,37,37,0,0,1,5.19,19.52,37,37,0,0,1-5.19,19.52A36.15,36.15,0,0,1,384,103.68a47,47,0,0,1-41.57,0Zm34.27-18.16Q381.9,80,381.9,70.71T376.65,55.9a19.19,19.19,0,0,0-27,0q-5.32,5.54-5.33,14.81t5.33,14.81a19.19,19.19,0,0,0,27,0Z"/><path class="cls-1" d="M492.47,6.14V107.43H472.13V99q-7.92,9.56-22.93,9.55a38.07,38.07,0,0,1-18.77-4.64,33.16,33.16,0,0,1-13.17-13.24,40.28,40.28,0,0,1-4.78-19.93,40.31,40.31,0,0,1,4.78-19.93,33.16,33.16,0,0,1,13.17-13.24A38.18,38.18,0,0,1,449.2,32.9q14.06,0,22,8.87V6.14ZM466.26,85.52q5.33-5.52,5.33-14.81T466.26,55.9a19.11,19.11,0,0,0-26.89,0q-5.33,5.54-5.32,14.81t5.32,14.81a19.11,19.11,0,0,0,26.89,0Z"/><path class="cls-1" d="M513.22,20.34a11.06,11.06,0,0,1-3.69-8.46,11.08,11.08,0,0,1,3.69-8.47A13.52,13.52,0,0,1,522.77,0a13.82,13.82,0,0,1,9.56,3.28A10.49,10.49,0,0,1,536,11.47a11.57,11.57,0,0,1-3.69,8.8,13.36,13.36,0,0,1-9.56,3.48A13.48,13.48,0,0,1,513.22,20.34ZM512.13,34h21.29v73.44H512.13Z"/><path class="cls-1" d="M619.9,41.09q8.4,8.19,8.39,24.3v42H607V68.66q0-8.73-3.82-13t-11.06-4.3q-8.05,0-12.83,5t-4.78,14.81v36.31H553.22V34h20.33v8.6a28.37,28.37,0,0,1,10.52-7.17,36.65,36.65,0,0,1,13.78-2.52Q611.5,32.9,619.9,41.09Z"/><path class="cls-1" d="M724.12,34V95.15q0,20.19-10.51,30T682.9,135a76.82,76.82,0,0,1-20.21-2.6,44.05,44.05,0,0,1-15.83-7.51l8.46-15.28a34.93,34.93,0,0,0,11.74,6.07,46.78,46.78,0,0,0,14.2,2.25q11.06,0,16.31-5t5.26-15.08V94.74q-8.34,9.14-23.21,9.14a39.06,39.06,0,0,1-18.5-4.43A33.89,33.89,0,0,1,647.81,87a35,35,0,0,1-4.91-18.57,35,35,0,0,1,4.91-18.56,33.92,33.92,0,0,1,13.31-12.5,39.06,39.06,0,0,1,18.5-4.43q16,0,24.3,10.51V34ZM697.71,81.43a16.94,16.94,0,0,0,5.39-13,17,17,0,0,0-5.39-13q-5.4-5-13.86-5t-13.92,5a16.84,16.84,0,0,0-5.46,13,16.82,16.82,0,0,0,5.46,13q5.46,5,13.92,5T697.71,81.43Z"/><polygon class="cls-2" points="788.96 62.55 776.42 75.09 745.01 106.51 732.47 93.97 763.88 62.55 732.47 31.14 745.01 18.6 788.96 62.55"/><polygon class="cls-1" points="305.87 77.55 305.87 77.62 305.8 77.55 305.87 77.55"/></g></g></svg>