<svg xmlns="http://www.w3.org/2000/svg" viewBox="0 0 6926.23 1308.78"><defs><style>.cls-1,.cls-2{fill:#fff;}.cls-2{stroke:#fff;stroke-miterlimit:10;stroke-width:8px;}</style></defs><g id="Capa_2" data-name="Capa 2"><g id="Capa_2-2" data-name="Capa 2"><path class="cls-1" d="M60.72,946.48s-162-172.8,43.2-423.36c0,0,25.92-50.4,338.4-240.48,0,0,158.4-105.12,244.8-164.52,0,0,61.2-45.08,105.12-118.12,0,0,66.24,173.2-61.92,328.72,0,0-37.85,38.88-325.64,229l-104.92,72S105.36,747.76,60.72,946.48Z"/><path class="cls-1" d="M220.56,1100.56S91,923.44,239.28,792.4c0,0,44.64-50.4,277.92-210.24l121.32-80.64s105.84-67,127.44-110.16c0,0,23.76,204.12-79.92,295.92l-59.4,43.2L413.88,874.12S256.2,962,220.56,1100.56Z"/><path class="cls-1" d="M362,1294.24S302.64,1204.6,307,1112.8c0,0,7.56-61.56,42.12-88.56,0,0,11.16-12,47.16-34.08l115.2-77.76s46.8-27.84,54-41.52l5.52-7s45.6,161.76-9.12,236.64c0,0,0,8.64-33.84,29.52l-104.4,78.84S371.76,1235.92,362,1294.24Z"/><polygon class="cls-1" points="1080.24 788.8 1080.24 1294.24 1227.13 1294.24 1227.13 1114.96 1425.85 1114.96 1425.85 998.32 1227.13 998.32 1227.13 916.24 1464.72 916.24 1464.72 788.8 1080.24 788.8"/><polygon class="cls-1" points="1518.72 788.8 1518.72 1294.24 1918.33 1294.24 1918.33 1168.96 1663.44 1168.96 1663.44 1089.04 1866.48 1089.04 1866.48 978.88 1661.29 978.88 1661.29 911.92 1908.96 911.92 1908.96 788.8 1518.72 788.8"/><polygon class="cls-1" points="2452.57 788.8 2452.57 1294.24 2852.16 1294.24 2852.16 1168.96 2597.28 1168.96 2597.28 1089.04 2800.32 1089.04 2800.32 978.88 2595.13 978.88 2595.13 911.92 2842.8 911.92 2842.8 788.8 2452.57 788.8"/><polygon class="cls-1" points="1965.13 788.8 1965.13 916.24 2106.24 916.24 2106.24 1294.24 2256.36 1294.24 2256.36 917.32 2399.76 917.32 2399.76 788.8 1965.13 788.8"/><path class="cls-1" d="M3389.52,1108.24s-19.68,203.39-245.76,200.51-250.56-238.43-246.24-267.23c-4.32-28.8,20.16-257.76,246.24-260.64s239,194.4,239,194.4H3234.48c-23-82.08-94.54-70.56-94.54-70.56-98.85,8.64-92.66,136.8-92.66,136.8s-6.19,136.59,92.66,145.23c0,0,86.62,4.53,100.78-79Z"/><polygon class="cls-1" points="3653.89 999.4 3701.41 999.4 3584.76 1296.4 3539.41 1296.4 3653.89 999.4"/><path class="cls-1" d="M1532.76,401.08c-28,94.35-106,200.06-231.8,200.06-170.85,0-261-136-261-303.45C1040,137,1129.56,0,1303,0c128.36,0,202.85,82.87,222.4,182.32l-55.36-.48c-27.2-77.35-69-135.36-171.84-135.36-147.9,0-208.85,122-208.85,250.36,0,127.5,61.2,261.8,213.35,261.8,96.9,0,144.19-83.74,173.94-156.84Z"/><path class="cls-1" d="M1982.59,387.79c0,118.15-65.45,223.55-192.1,223.55-114.75,0-186.15-94.35-186.15-222.7,0-121.55,67.15-222.7,190.4-222.7C1907.79,165.94,1982.59,254.34,1982.59,387.79Zm-333.2.85c0,101.15,54.4,182.75,144.5,182.75,91.8,0,143.65-75.65,143.65-182.75,0-100.3-51-182.75-145.35-182.75C1695.29,205.89,1649.39,286.64,1649.39,388.64Z"/><path class="cls-1" d="M6926.23,387.79c0,118.15-65.45,223.55-192.1,223.55C6619.38,611.34,6548,517,6548,388.64c0-121.55,67.16-222.7,190.41-222.7C6851.43,165.94,6926.23,254.34,6926.23,387.79Zm-333.2.85c0,101.15,54.4,182.75,144.5,182.75,91.8,0,143.65-75.65,143.65-182.75,0-100.3-51-182.75-145.35-182.75C6638.93,205.89,6593,286.64,6593,388.64Z"/><path class="cls-1" d="M2069.47,285.79c0-36.55,0-76.5-.85-109.65h41.65c.85,14.45,2.55,51,1.7,75.65,17.85-42.5,57-85.85,127.5-85.85,59.5,0,106.25,29.75,123.25,84.15,21.25-44.2,63.75-84.15,138.55-84.15,65.45,0,133.46,37.4,133.46,155.55V601.14h-42.51V326.59c0-56.95-20.4-119-99.45-119-82.45,0-119.85,66.3-119.85,148.75v244.8h-41.65V327.44c0-62.05-18.7-119.85-96.9-119.85-82.45,0-122.4,73.1-122.4,159.8V601.14h-42.5Z"/><path class="cls-1" d="M2742.65,2.32h42.5V84.77h-42.5Zm0,173.82h42.5v425h-42.5Z"/><path class="cls-1" d="M6008.57,2.32h42.5V84.77h-42.5Zm0,173.82h42.5v425h-42.5Z"/><path class="cls-1" d="M2848.22,176.14h79.05V43.54h42.5v132.6h101.15v40H2969.77V492.34c0,47.6,10.2,74.8,51,74.8,12.75,0,30.6-.85,44.2-5.1v37.4c-14.45,5.95-34.85,7.65-52.7,7.65-54.4,0-85-27.2-85-95.2V216.09h-79.05Z"/><path class="cls-1" d="M5716.45,176.14h79.05V43.54H5838v132.6h101.16v40H5838V492.34c0,47.6,10.2,74.8,51,74.8,12.75,0,30.6-.85,44.2-5.1v37.4c-14.45,5.95-34.85,7.65-52.7,7.65-54.41,0-85-27.2-85-95.2V216.09h-79.05Z"/><path class="cls-1" d="M3159.6,392.8c14.07,109.22,47.38,163.44,129,163.44,79.9,0,106.1-25.92,135.15-93.6h55.52c-28.41,74.52-85.27,138.5-189.82,138.5-129.2,0-179.35-101.15-179.35-209.1,0-121.55,57.42-226.81,184.45-226.1,83.6.47,134.35,31,170.77,125.44,14.83,38.45,14.84,89.65,14,100.7ZM3426,356.34c-.84-84.15-45.95-147.14-129.25-147.14-87.55,0-126.59,68.64-136.19,143.52ZM3394.68,20.92,3288.24,133.45h-45.9l96.24-112.53Z"/><path class="cls-1" d="M4484.37,392.8c14.07,109.22,47.37,163.44,129,163.44,79.9,0,106.11-25.92,135.15-93.6H4804c-28.4,74.52-85.27,138.5-189.82,138.5C4485,601.14,4434.84,500,4434.84,392c0-121.55,57.42-226.81,184.45-226.1,83.61.47,134.36,31,170.77,125.44,14.83,38.45,14.84,89.65,14,100.7Zm266.4-36.46c-.85-84.15-46-147.14-129.25-147.14-87.56,0-126.59,68.64-136.19,143.52Z"/><path class="cls-1" d="M4148.4,312.88h-294v229h333.36V587.2H3800.4V18.38h381.53v42.5H3853.68v209.5H4148.4Z"/><path class="cls-1" d="M4336.61,176.44V610.07c0,114.75-13.88,137.22-88.69,137.22-1.7,0-18.7-.85-23.8-1.7v-40a164,164,0,0,0,19.55.85c60.36,0,50.44-22.47,50.44-91.32V176.44Zm-42.5-89.18V4.81h42.5V87.26Z"/><path class="cls-1" d="M5239.32,445.36c-20.4,74.8-78.49,152.27-173.69,152.27-106.26,0-181.91-65.09-181.91-207,0-116.45,62.05-224.4,187-224.4,108,0,152.16,76.5,159.81,136h-43.35c-12.75-49.3-45.05-96.05-117.3-96.05-90.11,0-141.11,76.5-141.11,182.75,0,101.16,47.61,168.8,136.86,168.8,62.05,0,108.24-48.57,130.34-112.32Z"/><path class="cls-1" d="M5661.49,464.36c0,41.65.85,107.95.85,124.1h-43.58c0-11.34-.2-39.1-.2-74-17.85,50.15-61.2,84.15-136.85,84.15-61.2,0-144.11-23.8-144.11-153.85V177H5384V434.61c0,62.05,19.55,122.4,103.7,122.4,95.2,0,125.34-68.45,130.9-175.1V177h42.93Z"/><path class="cls-1" d="M6183.6,175.32c68.85,194.65,119.85,314.85,136,369.25h.85c9.35-31.45,50.34-145.7,132.79-369.25h49.68l-158.67,412.6h-51l-161.49-412.6Z"/><path class="cls-2" d="M4140.64,1298.09h-19.35c-1.72-3.44-2.58-18.92-3-48.16-10.75,20.64-34.4,51.6-97.18,51.6-86.43,0-130.72-65.79-130.72-151.36,0-89.87,47.3-157.38,135.45-157.38,64.93,0,107.93,34,117.39,89.44H4120c-12.9-42.57-42.57-67.94-95-67.94-75.25,0-109.65,58.48-109.65,134.59,0,68.8,33.11,131.15,106.64,131.15,75.25,0,96.32-49,96.32-115.67v-3.44H4021.1v-21.5h119.54Z"/><path class="cls-2" d="M4247.71,997.09v182.32c0,80,45.15,100.62,87.72,100.62,50.31,0,87.72-21.07,87.72-100.62V997.09h23.64v181c0,94.17-49.87,123.41-112.22,123.41-59.34,0-110.94-32.25-110.94-119.54V997.09Z"/><path class="cls-2" d="M4557.3,1194,4519,1298.09h-23.65l110.51-301h27.52l115.24,301h-25.37L4684.15,1194Zm119.11-21.5c-33.54-89.44-50.74-132.44-56.76-152.65h-.43c-7.31,22.79-26.66,76.11-53.75,152.65Z"/><path class="cls-2" d="M4808,997.09h99.76c82.56,0,139.75,57.62,139.75,147.92,0,89.87-55.9,153.08-140.18,153.08H4808Zm23.22,279.5h72.67c79.55,0,118.68-55.9,118.68-130.29,0-66.22-35.26-127.71-118.68-127.71h-72.67Z"/><path class="cls-2" d="M5147.69,1194l-38.27,104.06h-23.65l110.51-301h27.52l115.24,301h-25.37L5274.54,1194Zm119.11-21.5c-33.54-89.44-50.74-132.44-56.76-152.65h-.43c-7.31,22.79-26.66,76.11-53.75,152.65Z"/><path class="cls-2" d="M5386.5,997.09h23.22v279.5H5571.4l-4.3,21.5H5386.5Z"/><path class="cls-2" d="M5656.67,1194l-38.27,104.06h-23.65l110.51-301h27.52l115.24,301h-25.37L5783.52,1194Zm119.11-21.5c-33.54-89.44-50.74-132.44-56.76-152.65h-.43c-7.31,22.79-26.66,76.11-53.75,152.65Z"/><path class="cls-2" d="M6035.28,1216c0,67.08-29.67,86.43-69.65,86.43-12.9,0-95.47,15.19-90.67-101.63l26.77.12c-5,77.16,54.87,80,64.76,80,40.41,0,45.57-31.39,45.57-65.36V997.09h23.22Z"/><path class="cls-2" d="M6156,1194l-38.27,104.06H6094l110.51-301h27.52l115.23,301h-25.37L6282.79,1194Zm119.1-21.5c-33.53-89.44-50.73-132.44-56.75-152.65h-.43c-7.31,22.79-26.66,76.11-53.75,152.65Z"/><path class="cls-2" d="M6417.66,1157.48v140.61H6394v-301h119.75c59.34,0,90.73,31.82,90.73,79.12,0,38.27-22.79,63.21-56.33,70.52,31,7.31,51.6,27.52,51.6,78.69V1237c0,21.07-1.72,49.45,3.87,61.06H6580c-5.59-12.9-4.3-37-4.3-62.78v-7.74c0-49.45-14.62-70.09-72.24-70.09Zm0-21.5h84.49c52.89,0,77.4-19.78,77.4-59.34,0-37-24.08-58.05-70.95-58.05h-90.94Z"/><path class="cls-2" d="M6714.91,1194l-38.27,104.06H6653l110.51-301H6791l115.24,301h-25.37L6841.76,1194Zm119.11-21.5c-33.54-89.44-50.74-132.44-56.76-152.65h-.43c-7.31,22.79-26.66,76.11-53.75,152.65Z"/></g></g></svg>