<svg xmlns="http://www.w3.org/2000/svg" viewBox="0 0 1022.86 354.01"><defs><style>.cls-1{fill:#02bce8;}</style></defs><g id="Capa_2" data-name="Capa 2"><g id="Capa_1-2" data-name="Capa 1"><path class="cls-1" d="M223.08,37.42a80.07,80.07,0,0,1-5.39,24.1A104.44,104.44,0,0,1,208,80.41c-4.13,6.25-9.39,11.5-14.86,16.5-3.81,3.48-8.22,6.26-12.47,9.2q-16.4,11.39-32.89,22.59c-4.88,3.31-9.78,6.59-14.66,9.9-9.31,6.3-18.71,12.45-28,18.83-5.45,3.75-11,7.32-16.45,11.08-6.09,4.22-12,8.6-17.82,13.24A211.17,211.17,0,0,0,52,198.69c-3.58,3.65-6.77,7.61-10,11.56a160,160,0,0,0-10,14,111.36,111.36,0,0,0-10.52,21.41,124.93,124.93,0,0,0-3.75,12.08c-.2.75-.54,1.42-1.25,1.6s-1.27-.58-1.69-1.11a24.67,24.67,0,0,1-2.16-3.72C7.6,245,3.28,235.2,1.45,224.43a75,75,0,0,1-1.33-17.8,84.83,84.83,0,0,1,3-17.57A104.26,104.26,0,0,1,9.7,171.63,126.37,126.37,0,0,1,20.44,153c2.42-3.35,5-6.53,7.75-9.68a117.71,117.71,0,0,1,8.62-9,154.81,154.81,0,0,1,15.55-13c7.82-5.65,16-10.71,24-16.08Q89,96.82,101.78,88.6,123,74.94,143.89,60.83c10.76-7.28,21.89-14,32.57-21.38C181.69,35.83,186.78,32,191.72,28a119.48,119.48,0,0,0,9.3-8.2A96.46,96.46,0,0,0,212.28,6.53c.9-1.32,1.84-2.6,2.78-3.89A3.94,3.94,0,0,0,216,0h2.4c.34,2.71,1.63,5.15,2.23,7.79.92,4,1.6,8.08,2.16,12.18A84.2,84.2,0,0,1,223.08,37.42Z"/><path class="cls-1" d="M666.64,118.88q0-35.25,0-70.51a9.63,9.63,0,0,1,.16-2.62c.66-2.42,2.07-3.52,4.71-3.52,5.35,0,10.73.26,16.07-.06,15.73-.94,31.47-.25,47.2-.4s31.35,0,47,0A7.65,7.65,0,0,1,788,44.3a9.64,9.64,0,0,1,2,5.5c.51,4.18.3,8.41.9,12.59a28.51,28.51,0,0,1-.63,9.74c-1,4.65-4.25,7.17-8.82,8a63.26,63.26,0,0,1-10.91,1c-6.31,0-12.64.23-18.95-.07-6.78-.33-13.55-.5-20.33-.38a71.88,71.88,0,0,0-12,1.54c-2,.38-2.41,2.11-2.56,3.58a70,70,0,0,0-.08,7.67c0,1.1.64,1.5,1.68,1.57,2.3.16,4.62.29,6.89.55,7,.81,14,.24,21.06.37,2.61,0,5.21-.65,7.85-.45,2.38.19,4.73.54,7.14.53s4.72-.65,7.13-.58a16.18,16.18,0,0,1,5.74,1.49,4.5,4.5,0,0,1,2.33,2.63,30.92,30.92,0,0,1,2,10.48c.23,6.38-.61,12.74-.51,19.13.06,4-3.18,6.19-6.5,6.18-15.11-.07-30.23,0-45.34,0a7.09,7.09,0,0,1-2.37-.24c-1.89-.66-3.64.09-5.3.8-1.88.81-2.21,2.69-2.28,4.43-.14,3.35-.13,6.72,0,10.07.09,2.76,1.48,4.08,4.22,4.65a17.75,17.75,0,0,0,8,0,7.58,7.58,0,0,1,1.91-.06q26.15,0,52.3,0c4.16,0,7.6,1.92,9,6.17a21.14,21.14,0,0,1,.81,5.62,71.36,71.36,0,0,1,0,9.59c-.36,3.71-.17,7.49-1,11.14a10.09,10.09,0,0,1-6.54,7.68,21.07,21.07,0,0,1-5.83,1.13c-12.21.95-24.45.69-36.64.3-19.26-.6-38.52.07-57.76-.45-4.69-.13-9.4-.32-14.1-.36-1.73,0-2.6-1.05-3.25-2.39a8.46,8.46,0,0,1-.58-3.74Q666.65,154.26,666.64,118.88Z"/><path class="cls-1" d="M396,119.06c0-22.86,0-45.73,0-68.59,0-3.64,2-7.66,6.31-8.42,2.52-.44,5.11-1.34,7.76-.4a7,7,0,0,0,2.15.09H502.6c2.2,0,4.38-.2,6.6-.1,4.38.2,8.65,3.6,8.2,8.38-.31,3.28.92,6.51.44,9.77-.59,3.94-.19,7.93-.89,11.88a9.79,9.79,0,0,1-7.8,8.36,34.2,34.2,0,0,1-8.49,1q-25.79.06-51.58,0c-5.31,0-5.6,2-6,5.82a21.57,21.57,0,0,0,.38,7.37c.54,2.26,1.38,3,3.51,3.66,1.79.52,3.45,0,5.17,0,3,0,5.92,0,8.88,0,11.59,0,23.19,0,34.78,0,6.09,0,9.3,3.63,9.56,9.29.21,4.63.19,9.28,0,13.91a32.88,32.88,0,0,1-.87,6.35c-1.17,4.77-5.46,7.07-9.94,7.46-9.74.85-19.49,0-29.21.52-5,.28-10,.29-15.05.38a4,4,0,0,0-3.28,1.67,12,12,0,0,0-2.16,10.81c.39,1.56,1,3,1.39,4.57a1.89,1.89,0,0,0,2.2,1.68c6.22-.35,12.42.56,18.65.51,14.23-.13,28.47-.06,42.7,0a10.15,10.15,0,0,1,7.21,2.66,9,9,0,0,1,2.79,6.66c.11,4.79.25,9.6,0,14.38a48.68,48.68,0,0,1-.93,8.75,10.35,10.35,0,0,1-7,7.85,21.25,21.25,0,0,1-5.62,1c-16.85,1-33.71.26-50.56.41s-33.75-.07-50.62.08a8.74,8.74,0,0,1-9.08-9.1C396.05,164.79,396,141.93,396,119.06Z"/><path class="cls-1" d="M924.63,101.23c-3.83,0-7.67,0-11.51,0a32.54,32.54,0,0,1-11-2,9.09,9.09,0,0,1-3-1.9,29.47,29.47,0,0,1-7.23-9.13c-2.71-5.63-7.34-8.62-13.44-9.51-9.48-1.38-17.34,2-24.09,8.38a28.2,28.2,0,0,0-6.14,9.61,53.51,53.51,0,0,0-3.62,14.52,67.27,67.27,0,0,0-.31,13.37c.66,10,3.38,19.3,9.91,27.12a24,24,0,0,0,11.72,7.54,29.31,29.31,0,0,0,16.5,0,20,20,0,0,0,13.91-12.08c.48-1.18.95-2.37,1.33-3.58a9.44,9.44,0,0,1,9.33-6.79c2.78,0,5.58.21,8.34.32a108.52,108.52,0,0,0,16-.21c3.44-.37,7-.67,10.46.47a6.89,6.89,0,0,1,4.48,7.72,78.9,78.9,0,0,1-8.4,22.54,48.1,48.1,0,0,1-8.41,11.26c-3.06,2.91-5.87,6-9.35,8.55a64.83,64.83,0,0,1-13.64,7.35,90.51,90.51,0,0,1-18.59,5.17,73.16,73.16,0,0,1-18.33,1,84.78,84.78,0,0,1-28.09-7.06,75.87,75.87,0,0,1-19.8-13.14,80.14,80.14,0,0,1-14-16.53A70.85,70.85,0,0,1,799,144.41a76.43,76.43,0,0,1-2-7.86A70.44,70.44,0,0,1,795.73,125c0-2.24,0-4.48,0-6.72a79.44,79.44,0,0,1,3-21.41c2.7-10.29,7-19.89,13.67-28.2,6.37-7.94,13.71-15,22.59-20.07a81.59,81.59,0,0,1,23.65-8.83c7.34-1.58,14.74-1.55,22.13-1.28a59.65,59.65,0,0,1,14,2.5,87,87,0,0,1,17.59,6.79,56.15,56.15,0,0,1,12,8.63A63.65,63.65,0,0,1,935.63,70a59.16,59.16,0,0,1,4.45,9,80.42,80.42,0,0,1,4.32,14.14c.67,3.65-1.25,8.49-6.81,8.19C933.28,101.05,929,101.23,924.63,101.23Z"/><path class="cls-1" d="M289.78,195.75c-5.44,0-10.88-.08-16.32,0-3.29.07-6-2.14-6.65-6.15-.44-2.82.08-5.52.08-8.28q0-65.83,0-131.67a7.37,7.37,0,0,1,2.76-6.07c1.44-1.19,3.29-1.27,5-1.33a90.12,90.12,0,0,1,12.94,0,147.5,147.5,0,0,0,15.3.35c18.47.07,37,.19,55.42-.06,6.21-.08,12.43-.45,18.65-.35,2.19,0,4.42.11,6.28,1.76a8.34,8.34,0,0,1,2.66,6.42c.14,6.47.09,13,0,19.43a15.64,15.64,0,0,1-1.24,5.56c-1.4,3.51-4.4,4.84-7.78,5.63a24.08,24.08,0,0,1-5.93.52c-3.36-.06-6.73-.19-10.08,0-10.93.68-21.87.34-32.8.48-2.57,0-5-.71-7.62-.55a21,21,0,0,0-4,.74,3.82,3.82,0,0,0-2.9,3.18,20.63,20.63,0,0,0-.62,4.72c.12,2.23.1,4.48,0,6.71a18.17,18.17,0,0,0,.66,4.48c.41,2,2.13,2.77,3.86,3.15,1.92.43,3.87,1,5.88.17a6.07,6.07,0,0,1,2.14-.08c13.28,0,26.55.06,39.83,0,6.29,0,7.77,3.42,8.05,7.67a144.25,144.25,0,0,1,.57,16.24,28.46,28.46,0,0,1-.48,4c-.85,4.42-4.85,7.22-9.25,7.63-9.41.9-18.83.36-28.25.37-2.59,0-5.22-.38-7.85-.41a60.68,60.68,0,0,0-11.32,1.44,2.75,2.75,0,0,0-2.36,2.06,15.54,15.54,0,0,0-1,5.37c.37,12.05-.77,24.09-.46,36.15,0,1.36,0,2.72,0,4.08a6.35,6.35,0,0,1-6.62,6.61C300.81,195.64,295.29,195.75,289.78,195.75Z"/><path class="cls-1" d="M592.44,41.74h50.62c1.12,0,2.24-.27,3.31-.3,3.79-.07,7.69-.28,10.65,2.9a10,10,0,0,1,2.37,6.85q.25,8.27,0,16.54a27.89,27.89,0,0,1-1,6.81c-1.57,5.57-5.54,7.22-10.23,8a57.26,57.26,0,0,1-12.88.42c-2.86-.19-5.72-.42-8.58-.39a23.38,23.38,0,0,0-6.1,1,6,6,0,0,0-4.26,4.16,28,28,0,0,0-.84,11.82,26.77,26.77,0,0,1,.28,2.84q0,42.81,0,85.62c0,3.84-1.44,6.82-5.27,8.27a6.15,6.15,0,0,1-2.32.46,73.8,73.8,0,0,1-8.15-.05c-6.94-.81-13.89-.06-20.81-.51-3-.2-6-.38-9.06-.4-1.81,0-2.66-1.32-3.4-2.63a7.08,7.08,0,0,1-.89-4.15,229.32,229.32,0,0,0,.41-26.08c-.53-14.14-.56-28.27-.32-42.39.14-7.66.36-15.31.39-23,0-4.22-.66-8.39-1-12.59a1.43,1.43,0,0,0-1.56-1.45c-.24,0-.48,0-.72,0C553.2,82.8,543.3,83,533.4,83a9.12,9.12,0,0,1-2.38-.16c-3.49-1-5.58-3.39-6-7.46a167.61,167.61,0,0,1-.43-18.88,20.12,20.12,0,0,1,1.77-8.33,9.59,9.59,0,0,1,6-5.09,28.48,28.48,0,0,1,8.92-1.31C558.38,41.71,575.41,41.74,592.44,41.74Z"/><path class="cls-1" d="M212.65,128.5c0,.56,0,1.12,0,1.68a69.45,69.45,0,0,1-2.58,20.28,81.42,81.42,0,0,1-14.18,28.75,89.42,89.42,0,0,1-11.43,12.22c-4.83,4.4-10.44,7.81-15.85,11.47Q153.27,213.27,138,223.73q-8.77,6-17.47,12.12c-7.89,5.52-15.85,10.94-23.5,16.79a133,133,0,0,0-18.6,17.2,69.71,69.71,0,0,0-14.72,26c-.26.84-.51,1.69-.84,2.5s-.4,1.69-1.36,1.78c-.79.08-1.24-.69-1.63-1.26-1.14-1.63-2.23-3.3-3.28-5a87.47,87.47,0,0,1-7.37-15.25A75.44,75.44,0,0,1,46.53,268a53.59,53.59,0,0,1-.68-8.53,41.47,41.47,0,0,1,.43-7.83,55.7,55.7,0,0,1,4.83-15.91,65.39,65.39,0,0,1,6.32-10.14,64.52,64.52,0,0,1,9.68-11.18c4.11-3.64,8.06-7.45,12.25-11,7.52-6.39,15.37-12.37,23.27-18.26,4.65-3.48,9.48-6.72,14.26-10,14.36-9.92,29-19.46,43.51-29.13,6.71-4.45,13.54-8.7,20.21-13.2a174.52,174.52,0,0,0,15.72-12c3.77-3.23,7.08-6.91,10.69-10.3a14.36,14.36,0,0,1,1.4-1.3c1.38-1,2.42-.6,2.76,1.07.38,1.86.68,3.74,1,5.62C212.83,120.05,212.62,124.28,212.65,128.5Z"/><path class="cls-1" d="M162.73,270.14a84.09,84.09,0,0,1-2.93,23.74A22.32,22.32,0,0,1,151.31,306c-9.29,7.09-18.69,14.05-28,21.06-3.18,2.38-6.5,4.61-9.49,7.21-5.34,4.65-10.12,9.78-11.94,16.95-.14.54-.41,1.05-.5,1.59a1.29,1.29,0,0,1-2.47.43c-1-1.61-2.13-3.19-3-4.88-3-5.81-6-11.64-7.82-18-1.79-6.13-3.25-12.29-3.05-18.74.07-2.07,0-4.15,0-6.23a35.38,35.38,0,0,1,7.33-21.3c3.89-5.3,9-9.08,14.55-12.54,4.71-3,9.28-6.18,13.89-9.31Q132,254.64,143.28,247c4.21-2.87,8.37-5.81,12.58-8.68,1.7-1.15,2.54-.83,3,1.14a131.61,131.61,0,0,1,2.47,13.08A103.64,103.64,0,0,1,162.73,270.14Z"/><path class="cls-1" d="M264.94,223.89H283.6v2.2H267.32v11.62h15.27v2.2H267.32v14.78h-2.38Z"/><path class="cls-1" d="M307.14,239.56H291.43v12.93h17.21l-.36,2.2H289.05v-30.8h18.88v2.2h-16.5v11.27h15.71Z"/><path class="cls-1" d="M314.7,223.89h10.21c8.45,0,14.31,5.9,14.31,15.14s-5.72,15.66-14.35,15.66H314.7Zm2.38,28.6h7.44c8.14,0,12.14-5.72,12.14-13.33,0-6.78-3.6-13.07-12.14-13.07h-7.44Z"/><path class="cls-1" d="M364.08,239.56H348.36v12.93h17.21l-.35,2.2H346v-30.8h18.88v2.2H348.36v11.27h15.72Z"/><path class="cls-1" d="M374.06,240.3v14.39h-2.42v-30.8h11.05c6.07,0,9.28,3.26,9.28,8.1a7,7,0,0,1-5.76,7.21c3.16.75,5.28,2.82,5.28,8.06v1.19c0,2.15-.18,5.06.39,6.24h-2.42c-.57-1.32-.44-3.78-.44-6.42v-.79c0-5.06-1.49-7.18-7.39-7.18Zm0-2.2h7.44c5.41,0,7.92-2,7.92-6.07,0-3.78-2.47-5.94-7.26-5.94h-8.1Z"/><path class="cls-1" d="M403,244l-3.92,10.65h-2.42L408,223.89h2.82l11.79,30.8H420L416,244Zm12.19-2.2c-3.43-9.15-5.19-13.55-5.81-15.62h0c-.75,2.33-2.73,7.79-5.5,15.62Z"/><path class="cls-1" d="M450.8,246.46c-1.45,4.89-5.06,8.59-11.58,8.59-8.84,0-13.51-7.05-13.51-15.71,0-8.32,4.58-15.89,13.56-15.89,6.64,0,10.56,3.7,11.57,8.84h-2.37c-1.41-4-4-6.64-9.33-6.64-7.66,0-10.87,7-10.87,13.64s3.17,13.56,11,13.56c5,0,7.57-2.6,9.11-6.39Z"/><path class="cls-1" d="M459.81,223.89v30.8h-2.37v-30.8Z"/><path class="cls-1" d="M494.31,239.07c0,8.41-4.49,16.06-14,16.06-8.67,0-13.73-7-13.73-15.84s4.88-15.84,14-15.84C489.08,223.45,494.31,230.09,494.31,239.07Zm-25.17.09c0,7.09,3.92,13.77,11.31,13.77,8,0,11.31-6.51,11.31-13.81s-3.78-13.47-11.22-13.47C472.62,225.65,469.14,232.21,469.14,239.16Zm19.54-24.38-7.39,6h-2.73l6.78-6Z"/><path class="cls-1" d="M501.09,254.69v-30.8h3.52c4.79,7.39,16.06,24.6,18,27.94h0c-.27-4.44-.22-9-.22-14v-14h2.42v30.8h-3.26c-4.57-7.12-16-25-18.22-28.42h0c.22,4,.18,8.53.18,14.12v14.3Z"/><path class="cls-1" d="M544.91,223.89h10.21c8.45,0,14.3,5.9,14.3,15.14s-5.72,15.66-14.35,15.66H544.91Zm2.38,28.6h7.43c8.14,0,12.15-5.72,12.15-13.33,0-6.78-3.61-13.07-12.15-13.07h-7.43Z"/><path class="cls-1" d="M594.28,239.56H578.57v12.93h17.21l-.36,2.2H576.19v-30.8h18.88v2.2h-16.5v11.27h15.71Z"/><path class="cls-1" d="M631.37,239.56H615.66v12.93h17.21l-.36,2.2H613.28v-30.8h18.88v2.2h-16.5v11.27h15.71Z"/><path class="cls-1" d="M639.42,246.42c.92,4.09,3.65,6.51,8.71,6.51,5.64,0,7.79-2.81,7.79-6.16s-1.54-5.63-8.32-7.3c-6.51-1.63-9.32-3.74-9.32-8.19,0-4.05,2.94-7.83,9.54-7.83,6.78,0,9.64,4.14,10,7.88h-2.47c-.7-3.3-2.86-5.68-7.7-5.68-4.44,0-6.86,2.07-6.86,5.5s2,4.71,7.7,6.12c8.67,2.15,10,5.63,10,9.33,0,4.53-3.31,8.45-10.43,8.45-7.71,0-10.52-4.49-11.09-8.63Z"/><path class="cls-1" d="M671.32,226.09H661v-2.2h23.15v2.2H673.74v28.6h-2.42Z"/><path class="cls-1" d="M691.51,223.89v18.66c0,8.18,4.63,10.3,9,10.3,5.15,0,9-2.16,9-10.3V223.89h2.42v18.53c0,9.63-5.11,12.63-11.49,12.63-6.07,0-11.35-3.3-11.35-12.24V223.89Z"/><path class="cls-1" d="M720.51,223.89h10.21c8.45,0,14.3,5.9,14.3,15.14s-5.72,15.66-14.34,15.66H720.51Zm2.38,28.6h7.43c8.14,0,12.15-5.72,12.15-13.33,0-6.78-3.61-13.07-12.15-13.07h-7.43Z"/><path class="cls-1" d="M754.17,223.89v30.8h-2.38v-30.8Z"/><path class="cls-1" d="M766.09,244l-3.91,10.65h-2.42l11.31-30.8h2.81l11.8,30.8h-2.6l-4-10.65Zm12.19-2.2c-3.43-9.15-5.19-13.55-5.8-15.62h-.05c-.75,2.33-2.73,7.79-5.5,15.62Z"/><path class="cls-1" d="M791.13,254.69v-30.8h3.52c4.8,7.39,16.06,24.6,18,27.94h0c-.26-4.44-.22-9-.22-14v-14h2.42v30.8h-3.25c-4.58-7.12-16-25-18.22-28.42h0c.22,4,.18,8.53.18,14.12v14.3Z"/><path class="cls-1" d="M830.11,226.09H819.77v-2.2h23.15v2.2H832.53v28.6h-2.42Z"/><path class="cls-1" d="M865.58,239.56H849.87v12.93h17.21l-.36,2.2H847.49v-30.8h18.88v2.2h-16.5v11.27h15.71Z"/><path class="cls-1" d="M873.63,246.42c.92,4.09,3.65,6.51,8.71,6.51,5.63,0,7.79-2.81,7.79-6.16s-1.54-5.63-8.32-7.3c-6.51-1.63-9.33-3.74-9.33-8.19,0-4.05,2.95-7.83,9.55-7.83,6.78,0,9.64,4.14,10,7.88H889.6c-.7-3.3-2.86-5.68-7.7-5.68-4.44,0-6.86,2.07-6.86,5.5s2,4.71,7.7,6.12c8.67,2.15,9.94,5.63,9.94,9.33,0,4.53-3.3,8.45-10.43,8.45-7.7,0-10.51-4.49-11.09-8.63Z"/><path class="cls-1" d="M264.94,276.69h10.21c8.45,0,14.3,5.9,14.3,15.14s-5.72,15.66-14.34,15.66H264.94Zm2.38,28.6h7.43c8.15,0,12.15-5.72,12.15-13.33,0-6.78-3.61-13.07-12.15-13.07h-7.43Z"/><path class="cls-1" d="M314.31,292.36H298.6v12.93h17.21l-.35,2.2H296.23v-30.8H315.1v2.2H298.6v11.27h15.71Z"/><path class="cls-1" d="M321.88,276.69h2.37v28.6H340.8l-.44,2.2H321.88Z"/><path class="cls-1" d="M362.81,281.79h-9.45v-4.73H378v4.73h-9.43v25.7h-5.72Z"/><path class="cls-1" d="M402.44,294H387.68v8.77h16.25l-.69,4.73H382.13V277.06h21v4.73H387.68v7.47h14.76Z"/><path class="cls-1" d="M434.52,298.37c-1.27,5.5-5.4,9.54-12.78,9.54-9.46,0-14-6.86-14-15.5,0-8.31,4.67-15.79,14.29-15.79,7.79,0,11.7,4.53,12.5,9.62h-5.71c-.79-2.68-2.61-5.07-7-5.07-5.87,0-8.19,5.29-8.19,11,0,5.43,2.09,11.15,8.36,11.15,4.43,0,6-2.81,6.8-5Z"/><path class="cls-1" d="M439.86,307.49V277.06h7.19c4,6.93,11.86,20.22,13.37,23.53h.07c-.32-3.42-.31-8.54-.31-13.53v-10h5.23v30.43h-6.8c-3.53-6.17-12-21.06-13.69-24.54h-.07c.22,2.94.27,8.82.27,14.28v10.26Z"/><path class="cls-1" d="M500.41,292.15c0,8.44-5,15.78-14.73,15.78-9.35,0-14.35-6.93-14.35-15.65s5.38-15.66,14.75-15.66C494.87,276.62,500.41,282.93,500.41,292.15Zm-23.16,0c0,6.16,2.86,11.1,8.65,11.1,6.27,0,8.6-5.22,8.6-11,0-6-2.65-10.9-8.66-10.9S477.25,286,477.25,292.14Z"/><path class="cls-1" d="M506.34,277.06h5.71v25.7h15.4l-.68,4.73H506.34Z"/><path class="cls-1" d="M558.45,292.15c0,8.44-5,15.78-14.74,15.78-9.35,0-14.34-6.93-14.34-15.65s5.37-15.66,14.74-15.66C552.9,276.62,558.45,282.93,558.45,292.15Zm-23.17,0c0,6.16,2.87,11.1,8.66,11.1,6.27,0,8.59-5.22,8.59-11,0-6-2.64-10.9-8.66-10.9S535.28,286,535.28,292.14ZM553.89,268l-7.7,6.09h-5.26l6.2-6.09Z"/><path class="cls-1" d="M590.24,307.49H586a16.57,16.57,0,0,1-.46-3.38c-1.56,2.23-4.41,3.86-9.08,3.86-8.81,0-13.65-6.67-13.65-15.34,0-9.13,5.21-16,14.66-16,7.57,0,12.13,4.22,12.91,9.49h-5.71c-.77-2.5-2.66-4.94-7.29-4.94-6.53,0-8.66,5.36-8.66,11.21,0,5.59,2.31,11,8.63,11,6,0,7.3-4.12,7.3-7.67v-.29h-7.33v-4.73h12.92Z"/><path class="cls-1" d="M602.86,277.06v30.43h-5.71V277.06Z"/><path class="cls-1" d="M635.6,298.37c-1.27,5.5-5.41,9.54-12.78,9.54-9.46,0-14-6.86-14-15.5,0-8.31,4.67-15.79,14.3-15.79,7.78,0,11.7,4.53,12.5,9.62h-5.71c-.79-2.68-2.62-5.07-7-5.07-5.86,0-8.18,5.29-8.18,11,0,5.43,2.09,11.15,8.36,11.15,4.43,0,6-2.81,6.8-5Z"/><path class="cls-1" d="M668.8,292.15c0,8.44-4.95,15.78-14.74,15.78-9.35,0-14.34-6.93-14.34-15.65s5.37-15.66,14.74-15.66C663.25,276.62,668.8,282.93,668.8,292.15Zm-23.17,0c0,6.16,2.87,11.1,8.66,11.1,6.27,0,8.59-5.22,8.59-11,0-6-2.64-10.9-8.66-10.9S645.63,286,645.63,292.14Z"/><path class="cls-1" d="M685.55,277.06h11.66c8.76,0,14.55,5.84,14.55,14.86s-5.63,15.57-14.78,15.57H685.55Zm5.71,25.77h5.43c6.29,0,9.15-4.61,9.15-10.87,0-5.33-2.65-10.23-9.12-10.23h-5.46Z"/><path class="cls-1" d="M738,294H723.27v8.77h16.25l-.7,4.73H717.71V277.06h21v4.73H723.27v7.47H738Z"/><path class="cls-1" d="M781.1,295.54c0-5.34.07-11.14.21-14.5h-.2c-1.38,5.77-5.07,16.91-8.19,26.45H768c-2.36-8.14-6.18-20.75-7.52-26.52h-.19c.26,3.55.37,10,.37,15.2v11.32h-5.24V277.06h8.5c2.74,8.46,5.94,19.2,6.9,23.51h.06c.73-3.64,4.64-15.23,7.53-23.51h8.21v30.43H781.1Z"/><path class="cls-1" d="M821.65,292.15c0,8.44-4.95,15.78-14.74,15.78-9.34,0-14.34-6.93-14.34-15.65s5.38-15.66,14.75-15.66C816.1,276.62,821.65,282.93,821.65,292.15Zm-23.17,0c0,6.16,2.87,11.1,8.66,11.1,6.27,0,8.59-5.22,8.59-11,0-6-2.64-10.9-8.66-10.9S798.48,286,798.48,292.14Z"/><path class="cls-1" d="M827.58,307.49V277.06h7.19c4,6.93,11.87,20.22,13.37,23.53h.08c-.33-3.42-.32-8.54-.32-13.53v-10h5.23v30.43h-6.8c-3.53-6.17-12-21.06-13.69-24.54h-.07c.22,2.94.27,8.82.27,14.28v10.26Z"/><path class="cls-1" d="M867.13,281.79h-9.45v-4.73h24.6v4.73h-9.43v25.7h-5.72Z"/><path class="cls-1" d="M906.76,294H892v8.77h16.25l-.69,4.73H886.45V277.06h21v4.73H892v7.47h14.76Z"/><path class="cls-1" d="M918.84,294.89v12.6h-5.6V277.06h12.87c6.51,0,10,3.57,10,8.28,0,4-2.24,6.32-4.69,7.19,1.84.59,4.08,2.26,4.08,7.65v1.44a23.06,23.06,0,0,0,.43,5.87h-5.45c-.54-1.32-.59-3.63-.59-6.73v-.51c0-3.68-1-5.36-6.07-5.36Zm0-4.6h5.9c4,0,5.57-1.5,5.57-4.35s-1.78-4.27-5.31-4.27h-6.16Z"/><path class="cls-1" d="M947.88,294.89v12.6h-5.6V277.06h12.87c6.51,0,10,3.57,10,8.28,0,4-2.24,6.32-4.69,7.19,1.84.59,4.08,2.26,4.08,7.65v1.44a23.06,23.06,0,0,0,.43,5.87h-5.45c-.54-1.32-.59-3.63-.59-6.73v-.51c0-3.68-1-5.36-6.07-5.36Zm0-4.6h5.9c4,0,5.57-1.5,5.57-4.35s-1.78-4.27-5.31-4.27h-6.16Z"/><path class="cls-1" d="M991.63,294H976.88v8.77h16.25l-.69,4.73H971.32V277.06h21v4.73H976.88v7.47h14.75Z"/><path class="cls-1" d="M1006.14,307.49V296.6a1.67,1.67,0,0,0-.24-.92l-10.57-18.62h6.48c2.49,4.71,6,11.42,7.48,14.51,1.32-3,5.07-9.93,7.57-14.51h6l-10.78,18.58a1.49,1.49,0,0,0-.22.91v10.94Z"/></g></g></svg>